<?xml version="1.0" encoding="utf-8"?>
<!-- Generator: Adobe Illustrator 18.0.0, SVG Export Plug-In . SVG Version: 6.00 Build 0)  -->
<!DOCTYPE svg PUBLIC "-//W3C//DTD SVG 1.1//EN" "http://www.w3.org/Graphics/SVG/1.1/DTD/svg11.dtd">
<svg version="1.1" id="Layer_1" xmlns="http://www.w3.org/2000/svg" xmlns:xlink="http://www.w3.org/1999/xlink" x="0px" y="0px"
	 viewBox="0 0 48 48" enable-background="new 0 0 48 48" xml:space="preserve">
<rect x="35.6" y="9.4" transform="matrix(0.74 0.6726 -0.6726 0.74 24.9309 -18.6847)" fill="#EBB128" width="2" height="27.1"/>
<path fill="#EBB128" d="M11.8,34.8c-6.3,0-11.5-5.1-11.5-11.5s5.1-11.5,11.5-11.5S23.3,17,23.3,23.4S18.1,34.8,11.8,34.8z
	 M11.8,13.9c-5.2,0-9.5,4.2-9.5,9.5s4.2,9.5,9.5,9.5s9.5-4.2,9.5-9.5S17,13.9,11.8,13.9z"/>
<path fill="#EBB128" d="M31.1,22.5c-3.1,0-5.6-2.5-5.6-5.6s2.5-5.6,5.6-5.6c3.1,0,5.6,2.5,5.6,5.6S34.1,22.5,31.1,22.5z M31.1,13.4
	c-2,0-3.6,1.6-3.6,3.6c0,2,1.6,3.6,3.6,3.6c2,0,3.6-1.6,3.6-3.6C34.6,15,33,13.4,31.1,13.4z"/>
<path fill="#EBB128" d="M42.1,34.8c-3.1,0-5.6-2.5-5.6-5.6s2.5-5.6,5.6-5.6c3.1,0,5.6,2.5,5.6,5.6S45.2,34.8,42.1,34.8z M42.1,25.7
	c-2,0-3.6,1.6-3.6,3.6c0,2,1.6,3.6,3.6,3.6c2,0,3.6-1.6,3.6-3.6C45.6,27.3,44.1,25.7,42.1,25.7z"/>
</svg>
