<svg width="191" height="37" viewBox="0 0 191 37" fill="none" xmlns="http://www.w3.org/2000/svg">
<path d="M23.3612 22.4L28.3652 6.128C28.7972 4.76 29.1212 3.932 30.8852 3.608C31.7132 3.464 32.2172 3.212 32.2172 2.888C32.2172 2.6 31.9292 2.492 31.3532 2.492C29.5532 2.492 29.4812 2.6 28.2932 2.6C26.7812 2.6 26.2412 2.492 24.4412 2.492C23.8652 2.492 23.3612 2.6 23.3612 2.888C23.3612 3.212 23.5052 3.464 24.2252 3.608C25.8092 3.932 26.0612 4.832 25.6652 6.128L23.5772 12.968C23.4692 13.292 23.3972 13.4 23.2172 13.4H10.7972C10.5812 13.4 10.3652 13.364 10.4372 13.076L12.5252 6.164C12.9572 4.76 13.8212 3.932 15.5852 3.608C16.4132 3.464 16.9172 3.212 16.9172 2.888C16.9172 2.6 16.6292 2.492 16.0532 2.492C14.2532 2.492 13.8572 2.6 12.4892 2.6C11.1572 2.6 10.8692 2.492 9.0692 2.492C8.4932 2.492 7.9892 2.6 7.9892 2.888C7.9892 3.212 8.1332 3.464 8.8532 3.608C10.4372 3.932 10.3652 4.508 9.8612 6.164L4.8932 22.436C4.3532 24.164 3.8132 24.812 2.0492 25.136C1.2212 25.28 0.753203 25.46 0.753203 25.784C0.753203 26.072 1.0052 26.18 1.5812 26.18C3.3812 26.18 3.8852 26 5.3252 26C6.8372 26 7.4132 26.18 9.2132 26.18C9.7892 26.18 10.2932 26.072 10.2932 25.784C10.2932 25.46 10.1132 25.28 9.3932 25.136C7.9532 24.848 7.1612 23.696 7.6292 22.184L9.6812 15.524C9.7532 15.236 9.8252 15.128 9.9692 15.128H22.7492C22.9652 15.128 22.8212 15.416 22.7492 15.668L20.6612 22.508C20.1932 24.056 19.0772 24.848 17.5652 25.136C16.7372 25.28 16.2692 25.46 16.2692 25.784C16.2692 26.072 16.5572 26.18 17.1332 26.18C18.9332 26.18 19.3652 26 20.7692 26C22.1372 26 22.3892 26.18 24.1892 26.18C24.7652 26.18 25.2692 26.072 25.2692 25.784C25.2692 25.46 25.0892 25.28 24.3692 25.136C22.7852 24.812 22.8212 24.164 23.3612 22.4ZM39.2043 26.504C41.2563 26.504 43.4163 24.632 44.1723 23.48C44.2803 23.336 44.5323 22.868 44.5323 22.76C44.5323 22.004 43.7763 22.688 43.6683 22.832C43.2363 23.336 41.7243 24.236 41.3643 24.236C40.7523 24.236 40.3563 23.444 40.6803 22.508L44.3883 12.284C44.5323 11.888 44.6403 11.564 44.6403 11.384C44.6403 11.024 44.0283 10.664 43.4163 10.664C43.0563 10.664 42.8403 11.096 42.4443 12.032C42.3363 12.248 42.1923 12.356 42.0123 12.068C41.7603 11.672 41.1843 11.384 40.8243 11.384C40.3203 11.384 38.6283 12.248 37.6203 12.968C33.8043 15.74 28.9083 21.32 28.9083 25.244C28.9083 25.856 29.8443 26.504 30.4563 26.504C32.9043 26.504 35.1003 24.884 39.5283 19.952C39.7443 19.7 39.9243 19.844 39.6003 20.492C39.0603 21.608 38.0883 23.66 38.0883 24.92C38.0883 25.712 38.5203 26.504 39.2043 26.504ZM40.2483 13.292C40.8603 13.292 41.6883 13.796 41.6883 14.444C41.6883 15.884 35.1363 24.344 32.5803 24.344C31.8963 24.344 31.7523 24.2 31.7523 23.228C31.7523 20.384 37.9443 13.292 40.2483 13.292ZM55.1225 24.704C54.7985 25.568 55.3385 26.504 56.0585 26.504C58.3265 26.504 60.3785 24.812 62.2505 22.544C62.3225 22.436 62.3945 22.22 62.3945 22.04C62.3945 21.86 62.2505 21.716 62.1065 21.716C62.0705 21.716 62.0345 21.716 61.9985 21.752C61.6385 22.112 59.3345 24.2 58.1825 24.2C57.7505 24.2 57.6065 23.84 58.0025 22.904L60.7025 15.848C62.0345 12.356 60.9185 11.096 59.5145 11.096C57.1745 11.096 54.1145 13.472 51.1985 18.512C51.0545 18.764 50.7305 18.728 50.8745 18.368L52.8185 13.04C53.3945 11.528 52.4225 11.096 51.4505 11.096C49.8305 11.132 48.8945 11.888 48.1025 12.896C47.7785 13.292 47.4545 14.264 47.4905 14.696C47.5625 15.056 47.8505 15.056 48.0305 14.84C49.1825 13.328 49.9025 13.184 50.6225 13.184C51.0905 13.184 50.9465 13.724 50.5505 14.768L47.4185 22.976C46.9145 24.344 46.6265 25.172 46.6265 25.388C46.6265 25.82 46.8785 26.612 47.2385 26.612C47.8145 26.612 48.3545 25.496 49.6145 23.192C51.0545 20.564 53.6465 16.676 54.7625 15.308C56.3465 13.364 57.6785 12.572 58.4705 12.608C59.0465 12.644 59.6945 12.788 58.9025 14.876L55.1225 24.704ZM66.7437 25.424C66.9957 24.74 67.9317 21.788 68.1477 21.104C68.2917 20.6 68.7957 19.592 69.1197 19.592C69.9117 19.592 70.4877 20.384 70.7757 21.176L72.1437 24.992C72.8277 26.54 73.8717 26.756 74.4117 26.756C75.4917 26.756 78.5157 24.74 78.5157 22.4C78.5157 22.22 78.4077 22.04 78.3357 22.04C78.1557 22.04 78.0117 22.148 77.7597 22.58C77.1117 23.624 76.0677 24.596 75.1677 24.596C74.6277 24.596 74.1957 24.056 73.9797 23.552L72.3237 19.628C72.2157 19.376 72.2517 19.304 72.5037 19.232C74.9517 18.548 79.8117 15.344 79.8117 12.644C79.8117 11.456 78.6957 11.096 77.2917 11.096C75.5637 11.096 72.3237 13.148 69.7317 16.568C69.5517 16.82 69.2637 16.964 69.4077 16.424L73.7637 1.772C73.8717 1.448 73.8717 1.34 73.8717 0.943999C73.8717 0.583999 73.5117 0.583999 73.2957 0.583999C72.7197 0.583999 70.3077 1.376 69.2277 1.916C69.0837 1.988 69.0117 2.132 69.0117 2.312C69.0117 2.636 70.7757 2.852 70.9197 3.284C71.0997 3.752 70.7037 5.12 70.4517 5.948L65.3757 23.336C64.9797 24.74 64.9077 25.244 64.9077 25.46C64.9077 25.892 65.4477 26.54 65.8077 26.54C66.3837 26.54 66.4557 26.216 66.7437 25.424ZM77.3277 13.544C77.3277 15.344 73.6197 18.692 70.6317 18.692C70.3437 18.692 70.1997 18.368 70.1997 18.08C70.1997 17.072 73.9077 12.608 75.9237 12.608C76.6437 12.608 77.3277 12.752 77.3277 13.544ZM85.0227 13.22C85.7427 13.22 87.0747 15.164 87.0747 21.824C87.0747 25.568 85.4187 29.348 83.5467 31.976C82.6827 33.2 81.2787 34.172 80.5227 34.172C79.2267 34.172 79.0467 33.02 78.4347 33.02C77.8227 33.02 76.9227 34.028 76.9227 34.82C76.9227 35.828 77.8227 36.332 78.5427 36.332C80.5227 36.332 83.2947 33.812 85.8147 30.68C91.1427 24.092 94.7427 17 94.7427 12.536C94.7427 11.564 93.7707 10.772 93.4107 10.772C93.0147 10.772 92.7267 11.096 92.7267 11.564C92.7267 16.244 91.2147 20.24 89.6307 23.264C89.3067 23.876 89.0547 24.02 89.0907 23.156C89.3067 18.368 88.7667 15.56 88.1187 13.472C87.5787 11.708 86.4267 11.096 85.7067 11.096C84.0867 11.096 81.9987 13.4 81.9987 15.596C81.9987 16.136 82.1427 16.604 82.3227 16.604C82.6107 16.604 82.9347 15.812 83.0067 15.56C83.2587 14.696 84.3027 13.22 85.0227 13.22ZM109.572 25.928C110.832 25.928 110.976 26.18 112.776 26.18C113.352 26.18 113.856 26.072 113.856 25.784C113.856 25.46 113.676 25.28 112.956 25.136C111.372 24.812 111.12 23.732 111.66 22.004L116.916 4.832C117.24 3.752 117.384 3.32 118.644 3.32C121.596 3.32 123.576 6.092 123.576 9.044C123.576 13.148 120.3 15.416 115.656 15.92C115.404 15.956 115.008 16.1 115.008 16.388C115.008 16.784 116.052 16.856 116.52 16.856C121.596 16.856 126.564 13.652 126.564 8.576C126.564 4.58 122.784 2.348 118.932 2.348C117.996 2.348 116.268 2.528 114.936 2.528C114.576 2.528 112.092 2.492 111.732 2.492C111.156 2.492 110.652 2.6 110.652 2.888C110.652 3.212 110.796 3.536 111.516 3.608C113.892 3.824 114.36 4.544 113.532 7.208L108.888 22.4C108.348 24.164 107.34 24.812 105.576 25.136C104.748 25.28 104.28 25.46 104.28 25.784C104.28 26.072 104.568 26.18 105.144 26.18C106.944 26.18 107.844 25.928 109.572 25.928ZM135.251 26.504C137.303 26.504 139.463 24.632 140.219 23.48C140.327 23.336 140.579 22.868 140.579 22.76C140.579 22.004 139.823 22.688 139.715 22.832C139.283 23.336 137.771 24.236 137.411 24.236C136.799 24.236 136.403 23.444 136.727 22.508L140.435 12.284C140.579 11.888 140.687 11.564 140.687 11.384C140.687 11.024 140.075 10.664 139.463 10.664C139.103 10.664 138.887 11.096 138.491 12.032C138.383 12.248 138.239 12.356 138.059 12.068C137.807 11.672 137.231 11.384 136.871 11.384C136.367 11.384 134.675 12.248 133.667 12.968C129.851 15.74 124.955 21.32 124.955 25.244C124.955 25.856 125.891 26.504 126.503 26.504C128.951 26.504 131.147 24.884 135.575 19.952C135.791 19.7 135.971 19.844 135.647 20.492C135.107 21.608 134.135 23.66 134.135 24.92C134.135 25.712 134.567 26.504 135.251 26.504ZM136.295 13.292C136.907 13.292 137.735 13.796 137.735 14.444C137.735 15.884 131.183 24.344 128.627 24.344C127.943 24.344 127.799 24.2 127.799 23.228C127.799 20.384 133.991 13.292 136.295 13.292ZM151.169 24.704C150.845 25.568 151.385 26.504 152.105 26.504C154.373 26.504 156.425 24.812 158.297 22.544C158.369 22.436 158.441 22.22 158.441 22.04C158.441 21.86 158.297 21.716 158.153 21.716C158.117 21.716 158.081 21.716 158.045 21.752C157.685 22.112 155.381 24.2 154.229 24.2C153.797 24.2 153.653 23.84 154.049 22.904L156.749 15.848C158.081 12.356 156.965 11.096 155.561 11.096C153.221 11.096 150.161 13.472 147.245 18.512C147.101 18.764 146.777 18.728 146.921 18.368L148.865 13.04C149.441 11.528 148.469 11.096 147.497 11.096C145.877 11.132 144.941 11.888 144.149 12.896C143.825 13.292 143.501 14.264 143.537 14.696C143.609 15.056 143.897 15.056 144.077 14.84C145.229 13.328 145.949 13.184 146.669 13.184C147.137 13.184 146.993 13.724 146.597 14.768L143.465 22.976C142.961 24.344 142.673 25.172 142.673 25.388C142.673 25.82 142.925 26.612 143.285 26.612C143.861 26.612 144.401 25.496 145.661 23.192C147.101 20.564 149.693 16.676 150.809 15.308C152.393 13.364 153.725 12.572 154.517 12.608C155.093 12.644 155.741 12.788 154.949 14.876L151.169 24.704ZM162.791 25.424C163.043 24.74 163.979 21.788 164.195 21.104C164.339 20.6 164.843 19.592 165.167 19.592C165.959 19.592 166.535 20.384 166.823 21.176L168.191 24.992C168.875 26.54 169.919 26.756 170.459 26.756C171.539 26.756 174.563 24.74 174.563 22.4C174.563 22.22 174.455 22.04 174.383 22.04C174.203 22.04 174.059 22.148 173.807 22.58C173.159 23.624 172.115 24.596 171.215 24.596C170.675 24.596 170.243 24.056 170.027 23.552L168.371 19.628C168.263 19.376 168.299 19.304 168.551 19.232C170.999 18.548 175.859 15.344 175.859 12.644C175.859 11.456 174.743 11.096 173.339 11.096C171.611 11.096 168.371 13.148 165.779 16.568C165.599 16.82 165.311 16.964 165.455 16.424L169.811 1.772C169.919 1.448 169.919 1.34 169.919 0.943999C169.919 0.583999 169.559 0.583999 169.343 0.583999C168.767 0.583999 166.355 1.376 165.275 1.916C165.131 1.988 165.059 2.132 165.059 2.312C165.059 2.636 166.823 2.852 166.967 3.284C167.147 3.752 166.751 5.12 166.499 5.948L161.423 23.336C161.027 24.74 160.955 25.244 160.955 25.46C160.955 25.892 161.495 26.54 161.855 26.54C162.431 26.54 162.503 26.216 162.791 25.424ZM173.375 13.544C173.375 15.344 169.667 18.692 166.679 18.692C166.391 18.692 166.247 18.368 166.247 18.08C166.247 17.072 169.955 12.608 171.971 12.608C172.691 12.608 173.375 12.752 173.375 13.544ZM181.07 13.22C181.79 13.22 183.122 15.164 183.122 21.824C183.122 25.568 181.466 29.348 179.594 31.976C178.73 33.2 177.326 34.172 176.57 34.172C175.274 34.172 175.094 33.02 174.482 33.02C173.87 33.02 172.97 34.028 172.97 34.82C172.97 35.828 173.87 36.332 174.59 36.332C176.57 36.332 179.342 33.812 181.862 30.68C187.19 24.092 190.79 17 190.79 12.536C190.79 11.564 189.818 10.772 189.458 10.772C189.062 10.772 188.774 11.096 188.774 11.564C188.774 16.244 187.262 20.24 185.678 23.264C185.354 23.876 185.102 24.02 185.138 23.156C185.354 18.368 184.814 15.56 184.166 13.472C183.626 11.708 182.474 11.096 181.754 11.096C180.134 11.096 178.046 13.4 178.046 15.596C178.046 16.136 178.19 16.604 178.37 16.604C178.658 16.604 178.982 15.812 179.054 15.56C179.306 14.696 180.35 13.22 181.07 13.22Z" fill="#62637C"/>
</svg>
