<svg width="201" height="53" viewBox="0 0 201 53" fill="none" xmlns="http://www.w3.org/2000/svg">
<path d="M14.1497 16.78H5.14973L3.61973 22H0.919727L7.27973 0.999999H12.0197L18.3797 22H15.6797L14.1497 16.78ZM9.46973 2.08L5.83973 14.44H13.4597L9.82973 2.08H9.46973ZM21.4489 0.999999H23.9689V19.66H34.9489V22H21.4489V0.999999ZM38.918 19.66H40.718V3.34H38.918V0.999999H47.408C48.408 0.999999 49.288 1.14 50.048 1.42C50.828 1.7 51.478 2.08 51.998 2.56C52.538 3.04 52.938 3.62 53.198 4.3C53.478 4.96 53.618 5.68 53.618 6.46V6.82C53.618 7.4 53.528 7.93 53.348 8.41C53.168 8.89 52.918 9.32 52.598 9.7C52.278 10.08 51.898 10.41 51.458 10.69C51.038 10.95 50.578 11.15 50.078 11.29V11.65C51.078 11.93 51.918 12.47 52.598 13.27C53.278 14.05 53.618 15.01 53.618 16.15V16.51C53.618 17.29 53.478 18.02 53.198 18.7C52.938 19.36 52.538 19.94 51.998 20.44C51.478 20.92 50.828 21.3 50.048 21.58C49.288 21.86 48.408 22 47.408 22H38.918V19.66ZM43.238 19.66H47.228C48.408 19.66 49.368 19.37 50.108 18.79C50.848 18.19 51.218 17.37 51.218 16.33V16.15C51.218 15.07 50.868 14.22 50.168 13.6C49.468 12.96 48.518 12.64 47.318 12.64H43.238V19.66ZM43.238 10.3H47.318C48.518 10.3 49.468 9.99 50.168 9.37C50.868 8.75 51.218 7.9 51.218 6.82V6.64C51.218 5.62 50.848 4.82 50.108 4.24C49.368 3.64 48.408 3.34 47.228 3.34H43.238V10.3ZM60.0771 0.999999V14.92C60.0771 16.62 60.4671 17.91 61.2471 18.79C62.0471 19.65 63.2171 20.08 64.7571 20.08C66.2971 20.08 67.4571 19.65 68.2371 18.79C69.0371 17.91 69.4371 16.62 69.4371 14.92V0.999999H71.9571V14.92C71.9571 17.36 71.3171 19.22 70.0371 20.5C68.7571 21.78 66.9971 22.42 64.7571 22.42C62.5171 22.42 60.7571 21.78 59.4771 20.5C58.1971 19.22 57.5571 17.36 57.5571 14.92V0.999999H60.0771ZM75.3263 0.999999H80.1263L82.9463 20.92H83.3063L86.1263 0.999999H90.9263V22H88.5863V2.08H88.2263L85.4063 22H80.8463L78.0263 2.08H77.6663V22H75.3263V0.999999ZM119.985 20.08C120.845 20.08 121.575 19.94 122.175 19.66C122.795 19.36 123.295 18.97 123.675 18.49C124.075 17.99 124.365 17.43 124.545 16.81C124.745 16.17 124.845 15.5 124.845 14.8V14.44H127.365V14.8C127.365 15.86 127.205 16.86 126.885 17.8C126.565 18.72 126.095 19.53 125.475 20.23C124.855 20.91 124.085 21.45 123.165 21.85C122.245 22.23 121.185 22.42 119.985 22.42C117.665 22.42 115.855 21.69 114.555 20.23C113.255 18.77 112.605 16.64 112.605 13.84V9.16C112.605 6.44 113.255 4.33 114.555 2.83C115.855 1.33 117.665 0.579999 119.985 0.579999C121.185 0.579999 122.245 0.779999 123.165 1.18C124.085 1.56 124.855 2.1 125.475 2.8C126.095 3.48 126.565 4.29 126.885 5.23C127.205 6.15 127.365 7.14 127.365 8.2V8.56H124.845V8.2C124.825 7.52 124.715 6.86 124.515 6.22C124.335 5.58 124.045 5.02 123.645 4.54C123.265 4.04 122.775 3.65 122.175 3.37C121.575 3.07 120.845 2.92 119.985 2.92C118.365 2.92 117.145 3.51 116.325 4.69C115.525 5.87 115.125 7.42 115.125 9.34V13.66C115.125 15.72 115.525 17.31 116.325 18.43C117.145 19.53 118.365 20.08 119.985 20.08ZM130.854 9.16C130.854 6.44 131.504 4.33 132.804 2.83C134.104 1.33 135.914 0.579999 138.234 0.579999C140.554 0.579999 142.364 1.33 143.664 2.83C144.964 4.33 145.614 6.44 145.614 9.16V13.84C145.614 16.64 144.964 18.77 143.664 20.23C142.364 21.69 140.554 22.42 138.234 22.42C135.914 22.42 134.104 21.69 132.804 20.23C131.504 18.77 130.854 16.64 130.854 13.84V9.16ZM138.234 20.08C139.854 20.08 141.064 19.53 141.864 18.43C142.684 17.31 143.094 15.72 143.094 13.66V9.34C143.094 7.42 142.684 5.87 141.864 4.69C141.064 3.51 139.854 2.92 138.234 2.92C136.614 2.92 135.394 3.51 134.574 4.69C133.774 5.87 133.374 7.42 133.374 9.34V13.66C133.374 15.72 133.774 17.31 134.574 18.43C135.394 19.53 136.614 20.08 138.234 20.08ZM148.233 0.999999H150.933L156.423 20.92H156.783L162.273 0.999999H164.973L159.033 22H154.173L148.233 0.999999ZM168.612 0.999999H181.332V3.34H171.132V10.3H181.152V12.64H171.132V19.66H181.512V22H168.612V0.999999ZM199.911 22H197.391V14.98C197.391 14.46 197.271 14.06 197.031 13.78C196.791 13.5 196.371 13.36 195.771 13.36H189.231V22H186.711V0.999999H194.211C195.291 0.999999 196.231 1.16 197.031 1.48C197.831 1.78 198.491 2.19 199.011 2.71C199.551 3.23 199.951 3.84 200.211 4.54C200.491 5.22 200.631 5.94 200.631 6.7V7.6C200.631 8.38 200.411 9.16 199.971 9.94C199.551 10.72 198.891 11.32 197.991 11.74V12.1C198.591 12.2 199.061 12.44 199.401 12.82C199.741 13.2 199.911 13.74 199.911 14.44V22ZM189.231 11.02H193.911C195.331 11.02 196.381 10.72 197.061 10.12C197.761 9.5 198.111 8.6 198.111 7.42V6.88C198.111 5.82 197.761 4.97 197.061 4.33C196.381 3.67 195.331 3.34 193.911 3.34H189.231V11.02ZM30.2134 31H37.1134C39.7134 31 41.6134 31.62 42.8134 32.86C44.0134 34.1 44.6134 36.08 44.6134 38.8V44.2C44.6134 46.92 44.0134 48.9 42.8134 50.14C41.6134 51.38 39.7134 52 37.1134 52H30.2134V49.63H32.0134V33.34H30.2134V31ZM36.7534 49.66C37.6734 49.66 38.4634 49.57 39.1234 49.39C39.8034 49.21 40.3634 48.91 40.8034 48.49C41.2434 48.05 41.5634 47.47 41.7634 46.75C41.9834 46.03 42.0934 45.12 42.0934 44.02V38.98C42.0934 37.88 41.9834 36.97 41.7634 36.25C41.5634 35.53 41.2434 34.96 40.8034 34.54C40.3634 34.1 39.8034 33.79 39.1234 33.61C38.4634 33.43 37.6734 33.34 36.7534 33.34H34.5334V49.66H36.7534ZM60.0726 46.78H51.0726L49.5426 52H46.8426L53.2026 31H57.9426L64.3026 52H61.6026L60.0726 46.78ZM55.3926 32.08L51.7626 44.44H59.3826L55.7526 32.08H55.3926ZM66.5617 31H81.3217V33.34H75.2017V52H72.6817V33.34H66.5617V31ZM96.8109 46.78H87.8109L86.2809 52H83.5809L89.9409 31H94.6809L101.041 52H98.3409L96.8109 46.78ZM92.1309 32.08L88.5009 44.44H96.1209L92.4909 32.08H92.1309ZM103.21 49.66H105.01V33.34H103.21V31H111.7C112.7 31 113.58 31.14 114.34 31.42C115.12 31.7 115.77 32.08 116.29 32.56C116.83 33.04 117.23 33.62 117.49 34.3C117.77 34.96 117.91 35.68 117.91 36.46V36.82C117.91 37.4 117.82 37.93 117.64 38.41C117.46 38.89 117.21 39.32 116.89 39.7C116.57 40.08 116.19 40.41 115.75 40.69C115.33 40.95 114.87 41.15 114.37 41.29V41.65C115.37 41.93 116.21 42.47 116.89 43.27C117.57 44.05 117.91 45.01 117.91 46.15V46.51C117.91 47.29 117.77 48.02 117.49 48.7C117.23 49.36 116.83 49.94 116.29 50.44C115.77 50.92 115.12 51.3 114.34 51.58C113.58 51.86 112.7 52 111.7 52H103.21V49.66ZM107.53 49.66H111.52C112.7 49.66 113.66 49.37 114.4 48.79C115.14 48.19 115.51 47.37 115.51 46.33V46.15C115.51 45.07 115.16 44.22 114.46 43.6C113.76 42.96 112.81 42.64 111.61 42.64H107.53V49.66ZM107.53 40.3H111.61C112.81 40.3 113.76 39.99 114.46 39.37C115.16 38.75 115.51 37.9 115.51 36.82V36.64C115.51 35.62 115.14 34.82 114.4 34.24C113.66 33.64 112.7 33.34 111.52 33.34H107.53V40.3ZM133.549 46.78H124.549L123.019 52H120.319L126.679 31H131.419L137.779 52H135.079L133.549 46.78ZM128.869 32.08L125.239 44.44H132.859L129.229 32.08H128.869ZM152.368 37.06C152.368 36.38 152.228 35.78 151.948 35.26C151.688 34.74 151.328 34.31 150.868 33.97C150.408 33.63 149.878 33.37 149.278 33.19C148.678 33.01 148.048 32.92 147.388 32.92C146.808 32.92 146.258 33 145.738 33.16C145.218 33.3 144.748 33.51 144.328 33.79C143.928 34.07 143.608 34.42 143.368 34.84C143.128 35.24 143.008 35.71 143.008 36.25V36.43C143.008 37.01 143.128 37.51 143.368 37.93C143.608 38.33 143.958 38.68 144.418 38.98C144.898 39.26 145.488 39.5 146.188 39.7C146.888 39.88 147.708 40.04 148.648 40.18C150.848 40.52 152.468 41.17 153.508 42.13C154.548 43.07 155.068 44.34 155.068 45.94V46.3C155.068 47.2 154.908 48.03 154.588 48.79C154.288 49.53 153.828 50.17 153.208 50.71C152.608 51.25 151.858 51.67 150.958 51.97C150.058 52.27 149.018 52.42 147.838 52.42C146.498 52.42 145.308 52.23 144.268 51.85C143.248 51.45 142.388 50.91 141.688 50.23C141.008 49.53 140.488 48.72 140.128 47.8C139.768 46.86 139.588 45.84 139.588 44.74V43.84H142.108V44.56C142.108 46.4 142.608 47.78 143.608 48.7C144.628 49.62 146.038 50.08 147.838 50.08C149.398 50.08 150.568 49.74 151.348 49.06C152.148 48.36 152.548 47.44 152.548 46.3V46.12C152.548 45.02 152.138 44.18 151.318 43.6C150.518 43.02 149.208 42.6 147.388 42.34C146.328 42.2 145.368 41.99 144.508 41.71C143.668 41.41 142.948 41.03 142.348 40.57C141.748 40.09 141.288 39.52 140.968 38.86C140.648 38.2 140.488 37.42 140.488 36.52V36.16C140.488 35.34 140.658 34.59 140.998 33.91C141.338 33.23 141.808 32.64 142.408 32.14C143.028 31.64 143.758 31.26 144.598 31C145.458 30.72 146.398 30.58 147.418 30.58C148.598 30.58 149.648 30.75 150.568 31.09C151.508 31.43 152.298 31.89 152.938 32.47C153.578 33.03 154.058 33.7 154.378 34.48C154.718 35.24 154.888 36.04 154.888 36.88V38.14H152.368V37.06ZM159.427 31H172.147V33.34H161.947V40.3H171.967V42.64H161.947V49.66H172.327V52H159.427V31Z" fill="white"/>
</svg>
