<?xml version="1.0" encoding="utf-8"?>
<!-- Generator: Adobe Illustrator 19.1.0, SVG Export Plug-In . SVG Version: 6.00 Build 0)  -->
<svg version="1.1" xmlns="http://www.w3.org/2000/svg" xmlns:xlink="http://www.w3.org/1999/xlink" x="0px" y="0px"
	 viewBox="0 0 26.6 50.1" style="enable-background:new 0 0 26.6 50.1;" xml:space="preserve">
<style type="text/css">
	.st0{fill:#FFFFFF;}
	.st1{fill:#2DCDCB;}
	.st2{fill:#F7F7F7;}
	.st3{fill:#EDECED;}
	.st4{fill:none;}
	.st5{fill:none;stroke:#FFFFFF;stroke-width:0.5;stroke-miterlimit:10;}
	.st6{fill:none;stroke:#BCBEC0;stroke-width:0.5;stroke-miterlimit:10;}
	.st7{fill:#D1D3D4;}
	.st8{fill:#47C1C3;}
	.st9{fill:none;stroke:#F3F2F2;stroke-width:1.23;stroke-miterlimit:10;}
	.st10{fill:#FEFEFE;}
</style>
<g id="Backgrounds">
</g>
<g id="Image">
</g>
<g id="Lines">
</g>
<g id="Text">
	<g id="Menu_8_">
	</g>
</g>
<g id="Icons">
	<g id="Menu_1_">
	</g>
	<g>
		<path class="st3" d="M0,18c0.2,0.7,0.5,1.4,0.8,2.1c0.3,0.7,0.7,1.3,1.2,1.9L5,20.5l18.8-9.4l2.8-1.4c-0.2-0.7-0.5-1.4-0.8-2.1
			c-0.3-0.7-0.7-1.3-1.2-1.9l-2.8,1.4L3,16.5L0,18z"/>
		<path class="st3" d="M2.1,13.2L5,11.7l12.5-6.3l2.8-1.4c-0.2-0.7-0.5-1.4-0.8-2.1c-0.3-0.7-0.7-1.3-1.2-1.9l-2.8,1.4L3,7.7L0,9.2
			c0.2,0.7,0.5,1.4,0.8,2.1C1.2,12,1.6,12.6,2.1,13.2z"/>
		<path class="st3" d="M24.6,14.5l-2.8,1.4L3,25.3L0,26.8c0.2,0.7,0.5,1.4,0.8,2.1c0.3,0.7,0.7,1.3,1.2,1.9L5,29.3l18.8-9.4l2.8-1.4
			c-0.2-0.7-0.5-1.4-0.8-2.1C25.5,15.7,25.1,15.1,24.6,14.5z"/>
		<path class="st3" d="M24.6,23.3l-3,1.5L2.8,34.1L0,35.5c0.2,0.7,0.5,1.4,0.8,2.1c0,0,0,0,0,0c0,0.8,0,1.5,0.1,2.3
			c0.8,0.1,1.8,0.2,2.6,0.5c1.4,0.5,2.5,1.3,3.2,2.4c0.8,1.1,1.1,2.5,1.2,4c0,0.4,0,1,0,1.5v1.6c0.7,0.1,1.5,0.2,2.3,0.2
			c0.8,0,1.5-0.1,2.2-0.2v-1.6c0-0.5,0-1,0-1.7c-0.1-2.1-0.6-4.4-2-6.4C9.5,39,8.3,37.9,7,37.1l16.7-8.3l3-1.5
			c-0.2-0.7-0.5-1.4-0.8-2.1C25.5,24.5,25.1,23.8,24.6,23.3z"/>
		<path class="st3" d="M21.6,36.2c-2.1,0.7-4.1,2.1-5.4,4.1c-1.4,1.9-1.9,4.3-2,6.4c0,0.7,0,1.2,0,1.7v1.6c0.7,0.1,1.5,0.2,2.3,0.2
			c0.8,0,1.5-0.1,2.2-0.2v-1.6c0-0.5,0-1.1,0-1.5c0-1.5,0.4-2.9,1.2-4c0.8-1.1,1.8-1.9,3.2-2.4c0.8-0.3,1.7-0.5,2.6-0.5
			c0.1-0.7,0.1-1.5,0.1-2.3c0-0.8-0.1-1.5-0.3-2.2C24.1,35.5,22.9,35.8,21.6,36.2z"/>
	</g>
</g>
<g id="Logo">
</g>
<g id="Dashes">
</g>
</svg>
