<?xml version="1.0" encoding="utf-8"?>
<!-- Generator: Adobe Illustrator 19.1.0, SVG Export Plug-In . SVG Version: 6.00 Build 0)  -->
<svg version="1.1" xmlns="http://www.w3.org/2000/svg" xmlns:xlink="http://www.w3.org/1999/xlink" x="0px" y="0px"
	 viewBox="0 0 47.2 47.2" style="enable-background:new 0 0 47.2 47.2;" xml:space="preserve">
<style type="text/css">
	.st0{fill:#FFFFFF;}
	.st1{fill:#2DCDCB;}
	.st2{fill:#F7F7F7;}
	.st3{fill:#EDECED;}
	.st4{fill:none;}
	.st5{fill:none;stroke:#FFFFFF;stroke-width:0.5;stroke-miterlimit:10;}
	.st6{fill:none;stroke:#BCBEC0;stroke-width:0.5;stroke-miterlimit:10;}
	.st7{fill:#D1D3D4;}
	.st8{fill:#47C1C3;}
	.st9{fill:none;stroke:#F3F2F2;stroke-width:1.23;stroke-miterlimit:10;}
	.st10{fill:#FEFEFE;}
</style>
<g id="Backgrounds">
</g>
<g id="Image">
</g>
<g id="Lines">
</g>
<g id="Text">
	<g id="Menu_8_">
	</g>
</g>
<g id="Icons">
	<g id="Menu_1_">
	</g>
	<g id="Equipment_Maintenance_1_">
		<g>
			<g>
				<path class="st3" d="M26.7,37.3c0-0.7-0.1-1.5-0.3-2.2c-0.2-0.7-0.4-1.4-0.7-2.1c-0.4,0.1-0.9,0.2-1.3,0.2
					c-0.4,0-0.9,0.1-1.3,0.1c-1.3,0-2.5-0.3-3.7-0.8c-1.2-0.5-2.2-1.3-3.1-2.1c-0.9-0.9-1.6-2-2.1-3.2c-0.5-1.2-0.8-2.4-0.8-3.7
					c0-0.4,0.1-0.8,0.1-1.3c0-0.4,0.2-0.8,0.2-1.2c-0.7-0.3-1.4-0.5-2.1-0.7c-0.7-0.2-1.4-0.3-2.2-0.3c-0.1,0.6-0.3,1.2-0.3,1.8
					c0,0.6-0.1,1.2-0.1,1.8c0,1.8,0.4,3.7,1.1,5.4c0.7,1.7,1.8,3.2,3,4.6c1.3,1.3,2.8,2.4,4.5,3.1c1.7,0.7,3.5,1.1,5.4,1.2
					c0.6,0,1.3-0.1,1.9-0.1C25.5,37.6,26.1,37.4,26.7,37.3z"/>
			</g>
			<g>
				<path class="st3" d="M19.8,9.5c0,0.7,0.1,1.5,0.3,2.2c0.2,0.7,0.4,1.4,0.7,2.1c0.4-0.1,0.9-0.2,1.3-0.2c0.4,0,0.9-0.1,1.3-0.1
					c1.3,0,2.5,0.3,3.7,0.8c1.2,0.5,2.2,1.3,3.1,2.1c0.9,0.9,1.6,2,2.1,3.2c0.5,1.2,0.7,2.4,0.8,3.7c0,0.4-0.1,0.8-0.1,1.3
					c0,0.4-0.2,0.8-0.2,1.2c0.7,0.3,1.4,0.5,2.1,0.7c0.7,0.2,1.4,0.3,2.2,0.3c0.1-0.6,0.3-1.2,0.3-1.8c0-0.6,0.1-1.2,0.1-1.8
					c0-1.8-0.4-3.7-1.1-5.4c-0.7-1.7-1.8-3.2-3-4.6c-1.3-1.3-2.8-2.4-4.5-3.1c-1.7-0.7-3.5-1.1-5.4-1.2c-0.6,0-1.3,0.1-1.9,0.1
					C21,9.2,20.4,9.4,19.8,9.5z"/>
			</g>
			<g>
				<path class="st3" d="M12,28.7c-0.1-0.7-0.2-1.4-0.4-2.2c-0.2-0.7-0.4-1.4-0.7-2.1l-5.6,1.5c0.1,0.7,0.2,1.4,0.4,2.2
					c0.2,0.7,0.4,1.4,0.7,2.1L12,28.7z"/>
			</g>
			<g>
				<path class="st3" d="M41.3,20.8c-0.1-0.7-0.2-1.4-0.4-2.2c-0.2-0.7-0.4-1.4-0.7-2.1l-5.6,1.5c0.1,0.7,0.2,1.4,0.4,2.2
					c0.2,0.7,0.4,1.4,0.7,2.1L41.3,20.8z"/>
			</g>
			<g>
				<path class="st3" d="M16.1,33.6c-0.4-0.6-0.9-1.1-1.5-1.7c-0.5-0.5-1.1-1-1.6-1.4l-4.1,4.1c0.4,0.6,0.9,1.1,1.5,1.7
					c0.5,0.5,1.1,1,1.6,1.4L16.1,33.6z"/>
			</g>
			<g>
				<path class="st3" d="M37.6,12.2c-0.4-0.6-0.9-1.1-1.5-1.7c-0.5-0.5-1.1-1-1.6-1.4l-4.1,4.1c0.4,0.6,0.9,1.1,1.5,1.7
					c0.5,0.5,1.1,1,1.6,1.4L37.6,12.2z"/>
			</g>
			<g>
				<path class="st3" d="M22.2,35.8c-0.7-0.3-1.4-0.5-2.1-0.7c-0.7-0.2-1.4-0.3-2.1-0.4l-1.5,5.6c0.7,0.3,1.4,0.5,2.1,0.7
					c0.7,0.2,1.4,0.3,2.1,0.4L22.2,35.8z"/>
			</g>
			<g>
				<path class="st3" d="M30.1,6.5C29.4,6.2,28.7,6,28,5.8c-0.7-0.2-1.4-0.3-2.1-0.4L24.3,11c0.7,0.3,1.4,0.5,2.1,0.7
					c0.7,0.2,1.4,0.3,2.1,0.4L30.1,6.5z"/>
			</g>
		</g>
		<g>
			<g>
				<path class="st3" d="M4.4,8.4C3.7,8.3,2.9,8.3,2.2,8.3C1.4,8.3,0.7,8.3,0,8.6c0,1.5,0.5,2.9,1.3,4.1c1.3,2.1,3.6,3.5,6.1,3.8
					c2.5,0.3,5.1-0.6,6.8-2.4c1.7-1.8,2.6-4.4,2.3-6.8c-0.2-1.2-0.6-2.4-1.3-3.5c-0.7-1-1.6-1.9-2.7-2.6C11.3,0.5,10,0,8.6,0
					C8.3,0.7,8.3,1.4,8.3,2.2c0,0.7,0.1,1.5,0.1,2.2c0.7,0,1.3,0.2,1.9,0.6c1,0.6,1.7,1.7,1.8,2.8c0.2,1.2-0.3,2.4-1.1,3.2
					c-0.8,0.8-2,1.3-3.2,1.1C6.7,12,5.6,11.3,5,10.3C4.6,9.8,4.4,9.1,4.4,8.4z"/>
			</g>
			<g>
				<path class="st3" d="M44.1,38.7c0.6-0.4,1.2-0.9,1.7-1.4c0.5-0.5,1-1.1,1.4-1.7L45,33.3l-5.2-5.2c-0.3-0.6-0.7,0.1-1,0.3l-1,1
					L36,31.2l-0.9,0.9L17.5,14.4l-2.2-2.2c-0.6,0.4-1.2,0.9-1.7,1.4c-0.5,0.5-1,1.1-1.4,1.7l2.2,2.2l9.8,9.8l4.9,4.9l2.4,2.4
					l1.9,1.9l1.2,1.2l0.3,0.3c0.1,0.1,0.2,0.3,0.3,0.1l0.6-0.6l3.6-3.6l2.4,2.4L44.1,38.7z"/>
			</g>
			<g>
				<path class="st3" d="M35.6,47.2c0.6-0.4,1.2-0.9,1.7-1.4c0.5-0.5,1-1.1,1.4-1.7l-2.3-2.3L34,39.4l0.4-0.4l2.2-2.2
					c-0.4-0.6-0.9-1.2-1.4-1.7c-0.5-0.5-1.1-1-1.7-1.4l-2.2,2.2l-1.7,1.7l-1.1,1.1L28,39.2l-0.1,0.1c0,0-0.1,0,0,0.1l0.1,0.1
					l0.3,0.3l5.2,5.2L35.6,47.2z"/>
			</g>
		</g>
	</g>
</g>
<g id="Logo">
</g>
<g id="Dashes">
</g>
</svg>
