<?xml version="1.0" encoding="utf-8"?>
<!-- Generator: Adobe Illustrator 19.1.0, SVG Export Plug-In . SVG Version: 6.00 Build 0)  -->
<svg version="1.1" xmlns="http://www.w3.org/2000/svg" xmlns:xlink="http://www.w3.org/1999/xlink" x="0px" y="0px"
	 viewBox="0 0 34.6 44.9" style="enable-background:new 0 0 34.6 44.9;" xml:space="preserve">
<style type="text/css">
	.st0{fill:#FFFFFF;}
	.st1{fill:#2DCDCB;}
	.st2{fill:#F7F7F7;}
	.st3{fill:#49C2C4;}
	.st4{fill:none;}
	.st5{fill:none;stroke:#FFFFFF;stroke-width:0.5;stroke-miterlimit:10;}
	.st6{fill:none;stroke:#BCBEC0;stroke-width:0.5;stroke-miterlimit:10;}
	.st7{fill:#D1D3D4;}
	.st8{fill:#47C1C3;}
	.st9{fill:none;stroke:#F3F2F2;stroke-width:1.23;stroke-miterlimit:10;}
	.st10{fill:#FEFEFE;}
</style>
<g id="Backgrounds">
</g>
<g id="Image">
</g>
<g id="Lines">
</g>
<g id="Text">
	<g id="Menu_8_">
	</g>
</g>
<g id="Icons">
	<g id="Menu_1_">
	</g>
	<g id="Security_2_">
		<path class="st3" d="M17,12.9l-2.2-2.2c-0.6,0.4-1.2,0.9-1.7,1.4c-0.5,0.5-1,1.1-1.4,1.7l2.2,2.2l3.8,3.8l2.2,2.2
			c0.6-0.4,1.2-0.9,1.7-1.4c0.5-0.5,1-1.1,1.4-1.7l-2.2-2.2L17,12.9z"/>
		<path class="st3" d="M34.5,4.8l-0.1,0l-0.2,0l-1.6-0.3L31,4.1L30.3,4c-1-0.2-2-0.5-3.1-0.8c-1-0.3-2-0.6-3.1-0.9l-3-1.1l-2.8-1
			c-0.4,0.6-0.7,1.3-1,2c0,0,0,0,0,0c-0.3-0.7-0.6-1.3-1-1.9l-2.8,1l-3,1.1c-1,0.4-2,0.6-3.1,0.9c-1,0.3-2,0.6-3.1,0.8L3.6,4.1
			L2.1,4.4L0.4,4.7l-0.2,0l-0.1,0l-0.1,0c0,0,0,0,0,0v0.4v0.8v0.7v3.1V14c0,0-0.1,0.1-0.1,0.1l0.1,0.1v7.1v3.2v4.4V30l0,0.9
			c0,0.2,0.1,0.4,0.2,0.6L0.4,32c0.3,0.8,0.7,1.6,1.1,2.4c0.8,1.5,1.8,3,2.9,4.3c1.1,1.3,2.5,2.6,4,3.6c0.7,0.5,1.6,0.9,2.4,1.3
			c0.4,0.2,0.9,0.3,1.3,0.5l0.7,0.2c0.2,0.1,0.4,0.1,0.7,0.2c0.6,0.1,1.2,0.3,1.8,0.3l1.8,0.1c0.2-0.7,0.2-1.4,0.2-2.2
			c0-0.7-0.1-1.5-0.2-2.2l-1.4-0.1c-0.5,0-0.9-0.2-1.3-0.2c-0.2,0-0.3-0.1-0.5-0.1l-0.5-0.2l-0.9-0.3c-0.6-0.3-1.2-0.6-1.8-1
			c-1.1-0.7-2.2-1.7-3.1-2.7c-0.9-1.1-1.7-2.3-2.4-3.5c-0.3-0.6-0.6-1.3-0.9-1.9l0-0.1c0,0,0,0,0,0V30v-1.2v-4.4v-3.2v-2.7
			l18.3,18.3l1.4,1.4c-0.1,0.1-0.2,0.2-0.4,0.3c-0.5,0.4-1.2,0.6-1.8,1l-0.9,0.3l-0.5,0.2c-0.2,0-0.3,0.1-0.5,0.1
			c-0.4,0.1-0.9,0.2-1.3,0.2l-1.4,0.1c-0.1,0.7-0.2,1.5-0.2,2.2c0,0.7,0.1,1.5,0.2,2.2l1.8-0.1c0.6-0.1,1.2-0.2,1.8-0.3
			c0.2,0,0.4-0.1,0.7-0.2l0.7-0.2c0.4-0.2,0.9-0.3,1.3-0.5c0.8-0.4,1.7-0.8,2.4-1.3c1.6-1,2.9-2.2,4-3.6c1.1-1.3,2.1-2.8,2.9-4.3
			c0.4-0.8,0.8-1.6,1.1-2.4l0.2-0.4c0.1-0.2,0.1-0.4,0.2-0.6l0-0.9v-1.2v-4.4v-3.2V9.8V6.8V6.1V5.3L34.5,4.8
			C34.6,4.8,34.6,4.8,34.5,4.8L34.5,4.8z M30.2,30.4c-0.2,0.6-0.6,1.3-0.9,1.9c-0.5,1.1-1.2,2-1.9,3l-1.5-1.5L5.3,13.3l-0.9-0.9V9.8
			V8.4c0,0,0,0,0.1,0l0.8-0.2C6.5,8,7.6,7.6,8.7,7.3c1.1-0.3,2.2-0.6,3.2-1L15,5.1l2.3-0.9l2.3,0.9l3.1,1.2c1.1,0.4,2.1,0.7,3.2,1
			c1.1,0.3,2.1,0.7,3.3,0.9l0.8,0.2c0,0,0.1,0,0.1,0v1.4v11.5v3.2v4.4V30v0.2c0,0,0,0,0,0L30.2,30.4z"/>
	</g>
</g>
<g id="Logo">
</g>
<g id="Dashes">
</g>
</svg>
