<?xml version="1.0" encoding="utf-8"?>
<!-- Generator: Adobe Illustrator 19.1.0, SVG Export Plug-In . SVG Version: 6.00 Build 0)  -->
<svg version="1.1" xmlns="http://www.w3.org/2000/svg" xmlns:xlink="http://www.w3.org/1999/xlink" x="0px" y="0px"
	 viewBox="0 0 56.8 33.6" style="enable-background:new 0 0 56.8 33.6;" xml:space="preserve">
<style type="text/css">
	.st0{fill:#FFFFFF;}
	.st1{fill:#2DCDCB;}
	.st2{fill:#F7F7F7;}
	.st3{fill:#49C2C4;}
	.st4{fill:none;}
	.st5{fill:none;stroke:#FFFFFF;stroke-width:0.5;stroke-miterlimit:10;}
	.st6{fill:none;stroke:#BCBEC0;stroke-width:0.5;stroke-miterlimit:10;}
	.st7{fill:#D1D3D4;}
	.st8{fill:#47C1C3;}
	.st9{fill:none;stroke:#F3F2F2;stroke-width:1.23;stroke-miterlimit:10;}
	.st10{fill:#FEFEFE;}
</style>
<g id="Backgrounds">
</g>
<g id="Image">
</g>
<g id="Lines">
</g>
<g id="Text">
	<g id="Menu_8_">
	</g>
</g>
<g id="Icons">
	<g id="Menu_1_">
	</g>
	<g id="Leasing_2_">
		<path class="st3" d="M56.7,0L56.7,0h-0.3h-0.7h-3h-6H35H11.4h-3C8.3,0.7,8.2,1.4,8.2,2.1c0,0,0,0,0,0c-0.7,0-1.4,0.1-2.1,0.2v3.1
			v20.3v1.4l0,0.3h0.3h0.7h2.8h3h5.6h11.1h22.2h4.8h0.2h0c0,0,0,0,0,0v-0.1V27v-0.7v-1.4v-2.2v-5.6V6V1.9V0.4L56.7,0L56.7,0
			C56.8,0,56.8,0,56.7,0z M35,4.2v1.4v11.2l-2.5-4.9l-2.5-4.9l-1.3-2.7H35L35,4.2z M10.3,23.2V5.4V4.2h1h12v18.2v0.8H10.3z
			 M27.6,23.2v-0.8v-11l5.9,11.9H27.6z M52.6,6v11.1v5.6v0.6h-0.8H39.2v-2.1v-6.7V5.6V4.2h7.6h5.8V6z"/>
		<path class="st3" d="M42.5,29.4H4.2v-15v-3.1c-0.7-0.1-1.4-0.2-2.1-0.2c-0.7,0-1.4,0.1-2.1,0.2v3.1v17.7v1.3v0.2c0,0,0,0,0,0h0
			h0.1h0.3h0.6h2.6h2.8h5.1h10.3h20.6h3c0.1-0.7,0.2-1.4,0.2-2.1c0-0.7-0.1-1.4-0.2-2.1H42.5z"/>
	</g>
</g>
<g id="Logo">
</g>
<g id="Dashes">
</g>
</svg>
