<?xml version="1.0" encoding="utf-8"?>
<!-- Generator: Adobe Illustrator 19.1.0, SVG Export Plug-In . SVG Version: 6.00 Build 0)  -->
<svg version="1.1" xmlns="http://www.w3.org/2000/svg" xmlns:xlink="http://www.w3.org/1999/xlink" x="0px" y="0px"
	 viewBox="0 0 44.6 51.9" style="enable-background:new 0 0 44.6 51.9;" xml:space="preserve">
<style type="text/css">
	.st0{fill:#FFFFFF;}
	.st1{fill:#2DCDCB;}
	.st2{fill:#F7F7F7;}
	.st3{fill:#49C2C4;}
	.st4{fill:none;}
	.st5{fill:none;stroke:#FFFFFF;stroke-width:0.5;stroke-miterlimit:10;}
	.st6{fill:none;stroke:#BCBEC0;stroke-width:0.5;stroke-miterlimit:10;}
	.st7{fill:#D1D3D4;}
	.st8{fill:#47C1C3;}
	.st9{fill:none;stroke:#F3F2F2;stroke-width:1.23;stroke-miterlimit:10;}
	.st10{fill:#FEFEFE;}
</style>
<g id="Backgrounds">
</g>
<g id="Image">
</g>
<g id="Lines">
</g>
<g id="Text">
	<g id="Menu_8_">
	</g>
</g>
<g id="Icons">
	<g id="Menu_1_">
	</g>
	<g id="Oxygen_2_">
		<path class="st3" d="M25.4,31.1c-0.3-0.5-0.7-0.9-1.1-1.3c-0.6,0.3-1.1,0.8-1.6,1.3c-0.5,0.5-0.9,1-1.3,1.5
			c0.3,0.3,0.6,0.6,0.8,0.9c0.3,0.3,0.4,0.7,0.6,1c1,1.9,1.4,4.2,0.9,6.3c-0.4,2.1-1.7,4-3.4,5.3c-1.7,1.3-3.9,2-6.1,1.8
			c-2.2-0.2-4.2-1.1-5.8-2.7c-1.5-1.5-2.5-3.6-2.6-5.8c-0.1-2.2,0.5-4.4,1.8-6.1c1.3-1.7,3.2-3,5.4-3.4c2.1-0.4,4.4-0.1,6.3,1
			l0.5,0.3c0.2,0.1,0.3,0.2,0.5,0.3c0.3,0.2,0.6,0.5,0.9,0.7c0.5-0.4,1.1-0.8,1.6-1.3c0.5-0.5,0.9-1,1.2-1.6
			c-0.4-0.4-0.8-0.8-1.3-1.1c-0.2-0.2-0.4-0.3-0.7-0.5l-0.7-0.4c-2.7-1.5-6-2.1-9.1-1.4c-3.1,0.6-5.9,2.4-7.8,4.9
			c-1.9,2.5-2.9,5.7-2.7,8.8C2,42.8,3.4,45.8,5.6,48c2.2,2.2,5.2,3.6,8.3,3.8c3.1,0.3,6.3-0.7,8.8-2.6c2.5-1.9,4.3-4.6,5-7.7
			c0.7-3.1,0.2-6.3-1.3-9.1C26.1,32,25.8,31.5,25.4,31.1z"/>
		<path class="st3" d="M40.6,27.7c0,0.6-0.2,1.2-0.5,1.8c-0.8,1.3-2.5,1.9-4,1.5c-1.5-0.4-2.6-1.9-2.5-3.4c0-1.5,1.1-3,2.6-3.4
			c0.7-0.2,1.5-0.2,2.2,0.1c0.7,0.3,1.3,0.8,1.7,1.5c0.3,0.5,0.5,1.1,0.5,1.7c0.7,0.1,1.3,0.1,2,0.1c0.7,0,1.3-0.1,2-0.3
			c0-1.3-0.4-2.5-1.1-3.6c-0.8-1.4-2.1-2.5-3.7-3.1c-1.5-0.6-3.2-0.7-4.8-0.3c-1.6,0.4-3,1.4-4,2.7c-1,1.3-1.6,2.9-1.6,4.5
			c0,1.6,0.5,3.3,1.5,4.6c1,1.3,2.4,2.3,3.9,2.8c1.6,0.5,3.3,0.4,4.8-0.2c1.5-0.6,2.9-1.7,3.7-3c0.7-1.1,1.1-2.4,1.2-3.8
			c-0.6-0.2-1.3-0.3-2-0.3C41.9,27.5,41.2,27.6,40.6,27.7z"/>
		<path class="st3" d="M32.1,10.9c0.5,0,1-0.2,1.5-0.4c0.5-0.2,0.9-0.4,1.3-0.8c1.2-1,2-2.4,2-4c-0.6-0.2-1.3-0.3-2-0.3
			c-0.7,0-1.3,0.1-2,0.1c0,0.4-0.2,0.8-0.5,1.1c-0.1,0.1-0.2,0.1-0.4,0.2c-0.1,0-0.3,0.1-0.4,0.1c-0.3,0.1-0.6,0-0.8-0.1
			C30.3,6.6,30,6,30,5.5c0-0.3,0.1-0.5,0.2-0.8c0.2-0.2,0.4-0.4,0.6-0.5C31.4,3.9,32,4,32.5,4.4c0.3,0.3,0.5,0.6,0.5,1
			c0.7,0,1.3,0.1,2,0.1c0.7,0,1.3-0.1,2-0.3c-0.1-1.5-0.8-2.9-1.9-3.9c-1.6-1.4-3.9-1.7-5.8-0.8c-1,0.4-1.7,1.1-2.3,2
			C26.3,3.3,26,4.4,26,5.4c0,1,0.2,2.1,0.8,3c0.6,0.9,1.3,1.6,2.3,2.1C30,10.9,31.1,11.1,32.1,10.9z"/>
		<path class="st3" d="M7,21.5c1,0.2,2,0.3,3,0.2c1-0.1,2-0.4,2.9-0.8c1.8-0.9,3.3-2.4,4.2-4.2c0.5-1.1,0.8-2.4,0.9-3.6
			c-0.6-0.2-1.3-0.3-2-0.3c-0.7,0-1.3,0.1-2,0.1c0,0.7-0.2,1.4-0.5,2c-0.9,2.1-3.4,3.3-5.6,2.7c-1.1-0.2-2.1-0.9-2.8-1.8
			C4.4,15,4,13.8,4,12.7c0-1.1,0.4-2.2,1.1-3.1C5.9,8.7,6.9,8.1,8,7.9c1.1-0.2,2.3-0.1,3.3,0.4c1,0.5,1.8,1.3,2.3,2.4
			c0.3,0.6,0.4,1.3,0.4,1.9c0.7,0.1,1.3,0.1,2,0.1c0.7,0,1.3-0.1,2-0.2c0-1.2-0.3-2.4-0.8-3.5c-0.8-1.9-2.3-3.4-4.1-4.3
			C11.2,3.8,9.1,3.6,7.1,4C5.1,4.4,3.3,5.5,2,7.1c-1.3,1.6-2,3.6-2,5.6c0,2,0.7,4.1,1.9,5.6C3.2,19.9,5,21.1,7,21.5z"/>
	</g>
</g>
<g id="Logo">
</g>
<g id="Dashes">
</g>
</svg>
