<?xml version="1.0" ?>
<!-- Created by Uwe Dedering -->
<!DOCTYPE svg
  PUBLIC '-//W3C//DTD SVG 1.1//EN'
  'http://www.w3.org/Graphics/SVG/1.1/DTD/svg11.dtd'>
<svg width="954.0" height="734.0"
   xmlns="http://www.w3.org/2000/svg"
   xmlns:inkscape="http://www.inkscape.org/namespaces/inkscape"
   xmlns:sodipodi="http://sodipodi.sourceforge.net/DTD/sodipodi-0.dtd"
   xmlns:xlink="http://www.w3.org/1999/xlink"
   >
   
  <defs>
    <clipPath id="clipPath1"> 
     <path d="M 0,0 L 954.0,0 L 954.0,734.0 L 0,734.0 L 0,0 z" id="clipping" />
    </clipPath>

      <style type="text/css">
  .country {fill:#fefee4;stroke:none;display:inline;}
  </style>

  </defs>
  
    <metadata>
        <views>
            <view h="734" padding="0" w="954">
                <proj id="laea" lat0="8" lon0="-10"/>
                <bbox h="314.79" w="504.81" x="774.58" y="885.92"/>
            </view>
        </views>
    </metadata>


<g id="states">

<path data-name="borno" data-id="1" id="1" d="M 929.6,133.7L929.7,134.5L928.3,135.9L928.1,136.3L927.8,136.8L927.3,137.6L926.1,142.9L926.2,143.7L924.9,144.5L925.1,145.9L926.5,149.1L926.6,149.9L926.6,150.4L926.3,152.9L925.5,155.2L923.9,162.7L923.4,163.9L920.7,167.4L920.3,168.1L920.4,168.7 L921.1,169.6L921.4,169.7L922.7,169.7L923.2,170L923.5,170.5L924.2,171.5L925.4,172.7L926.2,173.9L926.6,175.4L926.6,177.3 L926.4,178.8L925.8,180.6L925,182.4L924.1,183.7L922.9,184.4L919.1,185.7L917.6,186.7L914.9,189L913.3,189.9L909,191.3 L907.6,192L901.1,198L900.5,198.2L898.5,198.5L897.6,198.8L895.6,200.9L894.3,201.9L892.7,202.7L891.1,203.1L889.6,202.8 L884.4,200.7L881.5,199.9L879.3,199.9L876.5,202.1L873.7,204.9L871.3,207.9L869.5,211L868.3,213.9L867.4,215.1L864.6,216.7 L863.4,217.7L862.6,218.9L862.3,220.4L862.7,223.2L862.2,224.4L858,224.6L847.3,227L844.9,226.6L842.5,225.8L841.7,225.1 L840.7,224.9L838.2,225.3L837.6,229.5L837.6,234.5L836.6,239.6L832.6,249.4L830,259.2L826.2,261.2L821.3,260.2L817,257.4 L812.9,253.8L807.9,251.7L801.6,250.9L795.6,252.2L791.6,256.8L787.3,260.7L784.6,260.8L782.7,262.2L781.4,264.8L779.4,267 L774.1,269.4L768.2,270L762.8,271.2L758.6,274.7L751,284.4L741.7,290.9L729.9,290.3L724.6,287L719.7,279.1L717,277.3 L713.8,276.1L711,274.2L708.8,271.5L707.2,268.2L707.4,265L712.8,256.3L711.9,249.9L714.8,249.2L717,247.4L718.7,245.2 L719.5,242.6L719,236.5L720,230.6L724.2,226.1L741.5,220.1L746.1,216.7L748.3,211.7L747.9,205.5L748.3,199.3L749.9,196.9 L751.9,194.8L754.9,189.4L762.3,180.4L762,177.7L760.7,175.1L758.5,172.7L755.5,171.7L753.1,172.1L751.1,171.5L751.6,168.6 L755.9,160L756.3,156.8L754.6,149.4L758,124.8L756.5,113.8L764.6,106.3L767.8,101.9L769.6,97.4L769,92.9L765,90 L761.8,86.5L760.5,81.8L762.2,67.8L762.2,67.6L764.2,67.7L765.9,67.9L767.3,68.4L768.5,68.7L769.5,68.2L769.9,67.3 L770.5,63.4L770.8,63.1L772.5,62.8L773,62.7L773.6,62L774,61.2L774.5,59.6L773.3,59.2L773.8,58.1L774.8,56.7 L775,55.6L777.7,53.1L778,52.8L778.3,53.2L778.8,53.1L779.3,52.7L779.8,52.2L779.9,51.8L780,50.6L780.8,51.2 L781.4,51.8L782.2,52.3L783.3,52.6L783.9,52.2L784.4,50.5L785.3,50.1L787,49.7L788.2,48.8L790.1,46.5L790.5,45.3 L790.7,45.3L790.9,45L791.3,45.3L791.7,45.8L791.9,46.1L792.9,46L792.9,45.7L792.4,45.2L792.1,44.3L792.3,44 L793.3,43.7L793.6,43.5L793.8,43.5L794.4,43.6L794.7,43.5L794.7,43.3L794.6,42.7L794.7,42.5L796.7,40.3L797.7,39.5 L797.2,38.9L796.7,38.5L796.2,38.2L795.6,38L795.6,37.5L796.8,37.8L797.7,38.2L798.4,38.2L798.7,37L800.7,37.4 L802.7,37L809.3,33.8L811.2,33.1L813.2,33L813.2,33.4L812.8,34.1L813.7,34.4L815,34.4L816.3,34L816.3,34.2 L816.8,34.5L817.4,33.3L817.8,33L818.5,33.1L818.6,33.7L818.5,34.4L818.2,35L820.2,34.2L822.2,33.8L823.9,33.2 L825.3,31.5L824.2,31.3L824.1,31L824.8,30L825.1,29.8L825.6,29.9L826.1,29.8L826.3,29.2L826.2,28.8L825.8,28.3 L825.8,28L826.2,27.2L826.7,26.6L829.6,23.9L830.8,23.1L830.7,21.8L831.4,21.3L833.6,21L833.6,21.1L833.7,23.3 L834,25.5L834.2,28.2L833.4,30.8L837.8,39L836.9,41.2L837,40L835.5,41.5L836.5,44L840.8,47.2L840.9,47.8 L841.8,48.4L843.3,51.5L848,57.7L850.8,60.5L855.6,63.2L857.4,63.8L859.4,64L860.2,64.5L859.9,65.7L859,66.1 L858.6,65.7L858.2,65.9L857.8,66L857.6,66.4L858.5,67L859.4,69.7L860.7,69.6L863.1,68.9L869.1,63.6L871.4,62.9 L871.2,63.4L870.5,64.2L870.5,64.9L871.3,65.1L871.7,66.5L871.7,67.2L871.3,67.4L870.8,66.6L870.2,66.4L869.5,67.6 L867.5,68.5L866.8,69.2L867.1,70.3L867.2,71.2L866.5,71.9L864.2,75.5L864.3,77.2L865.8,78.1L865.8,79.2L865.4,81.2 L865.9,81.2L865.6,82.6L864.9,83.9L865.8,85L866.9,85.2L866.4,86L864.5,86.7L864.5,87.1L865,87.1L866.1,87.5 L866.2,88.4L866.7,88.8L867.2,89.3L866.6,89.6L865.4,89.9L866.8,90.8L865.5,91.1L864.9,91.5L865.2,92.2L865.8,92.6 L865.6,93.1L865.3,93.6L865.4,94L866.3,94.2L866.3,94.7L865.2,95.3L865.2,95.8L865.8,95.9L866.4,95.8L866.4,96.5 L865.7,96.8L864.9,97.1L865.8,97.8L867.3,98.2L868.4,99.5L868.8,101.2L869.5,101.3L870.5,102.1L870.8,103.2L871.5,104.1 L872.4,103.7L873,103.3L874.1,103.9L874.8,105.4L875.5,105.9L876.3,106.3L876.6,107.2L877.4,107.7L879,108.6L879.6,111.1 L879.6,112.1L879.9,112.7L881.9,113.6L883.7,113L885.4,113.3L885.7,113.9L886.3,114.4L891.4,112.9L893.7,112.7L893.8,112.7 L894.2,114L894.2,115.4L893.7,117.6L893.8,118.5L894.4,119.6L895.4,120.2L896.5,120.4L911.6,120.8L916.3,122L918.3,123 L918.6,123.8L918.2,124.8L918.3,125.5L918.8,126L921,127.6L921.8,128L921.8,128.5L921.5,128.6L920.8,129L922.3,130 L923.7,130.8L924.9,131.8L925.4,133.3L925.8,133.6L926.8,133.3L927.8,132.8L929.3,133L929.6,133.7 z M 833.7,23.3L833.6,21.1L833.6,21L851.8,21.7L885.3,67.7L893.6,106.7L893.7,112.4L893.8,112.7L893.7,112.7L891.4,112.9L886.3,114.4L885.7,113.9L885.4,113.3L883.7,113L881.9,113.6L879.9,112.7L879.6,112.1L879.6,111.1L879,108.6L877.4,107.7 L876.6,107.2L876.3,106.3L875.5,105.9L874.8,105.4L874.1,103.9L873,103.3L872.4,103.7L871.5,104.1L870.8,103.2L870.5,102.1 L869.5,101.3L868.8,101.2L868.4,99.5L867.3,98.2L865.8,97.8L864.9,97.1L865.7,96.8L866.4,96.5L866.4,95.8L865.8,95.9 L865.2,95.8L865.2,95.3L866.3,94.7L866.3,94.2L865.4,94L865.3,93.6L865.6,93.1L865.8,92.6L865.2,92.2L864.9,91.5 L865.5,91.1L866.8,90.8L865.4,89.9L866.6,89.6L867.2,89.3L866.7,88.8L866.2,88.4L866.1,87.5L865,87.1L864.5,87.1 L864.5,86.7L866.4,86L866.9,85.2L865.8,85L864.9,83.9L865.6,82.6L865.9,81.2L865.4,81.2L865.8,79.2L865.8,78.1 L864.3,77.2L864.2,75.5L866.5,71.9L867.2,71.2L867.1,70.3L866.8,69.2L867.5,68.5L869.5,67.6L870.2,66.4L870.8,66.6 L871.3,67.4L871.7,67.2L871.7,66.5L871.3,65.1L870.5,64.9L870.5,64.2L871.2,63.4L871.4,62.9L869.1,63.6L863.1,68.9 L860.7,69.6L859.4,69.7L858.5,67L857.6,66.4L857.8,66L858.2,65.9L858.6,65.7L859,66.1L859.9,65.7L860.2,64.5 L859.4,64L857.4,63.8L855.6,63.2L850.8,60.5L848,57.7L843.3,51.5L841.8,48.4L840.9,47.8L840.8,47.2L836.5,44 L835.5,41.5L837,40L836.9,41.2L837.8,39L833.4,30.8L834.2,28.2L834,25.5L833.7,23.3 z" /> 
<path data-name="abia" data-id="2" id="2" d="M 426.2,607L428.6,608.8L431.3,609.8L432.6,613.2L431.9,617.3L433.6,625L437.2,631.7L436.2,634.3L432.8,633.7L428.9,630.7L424.8,628.4L422.3,624.6L418.7,622L415.9,621.6L413.9,623L414.4,628L412.6,632L412.5,633L414.3,633.5L415.1,634.9 L414.6,636.3L412.5,637.7L408.8,637.2L405.5,638.1L405.3,639.6L406.1,640.9L406.2,642.3L405.2,646.9L404.9,650.1L405.4,653.5 L404.9,656.8L402.5,659.2L400.9,661.8L401.9,665.4L401.4,666.7L401.2,667.9L402.8,670.8L403.3,673.9L398.4,670.6L394.5,670.5 L391.7,669.4L388.9,669.4L382.9,670.7L379.9,669.7L378.9,664L386.5,652.4L386.8,648.9L385.4,646.2L390.7,630.7L393.5,627.6 L394.4,625.8L395.1,623.8L396.1,622.3L396.6,620.6L396.6,618.6L396.3,616.6L396.3,614.6L395.8,612.7L395,611.3L395.6,610.2 L396.3,606.9L395.4,598.7L392.6,596.2L390.5,595.7L386.8,593.8L385.3,592.5L388.7,588.2L393.6,585.6L394.1,585.9L394.3,586.2 L397.7,585.6L401.3,585.5L406.1,589.1L406.2,593.4L405.5,598.1L409.9,600.2L420.6,600.4L424.5,602.2L425.1,604.7L426.2,607 z" /> 
<path data-name="akwa-ibom" data-id="3" id="3" d="M 458.6,674.2L461.4,676.3L462.3,676.4L462.7,676.8L463.8,680L464.7,681.2L464.5,681.6L463.9,683.3L463.7,684L464.1,685 L464.8,685.4L465.6,685.7L466.3,686.2L466.5,687.9L465.3,689L463.9,689.8L463.2,691L462.2,693.2L461.5,693.6L460.8,693.7 L457.6,693.7L453.4,693.2L447.1,693.2L444.1,692.8L442.7,692.8L440.2,694.1L438.8,694.3L435.6,694.3L423,695.8L422.3,695.3 L421.4,695.2L420.5,695.5L420,696.3L420.8,696.3L422,696.5L422.5,696.8L420.9,697.2L418.5,697.3L416.4,697L415.4,696 L414.4,695.8L407.9,695.3L408.1,695L408.3,694.8L408.5,694.5L408.9,694.3L408,694L407.1,694.1L406.5,694.1L406.4,693.2 L406.6,692.8L407.1,692.5L407.6,692.1L407.9,691.3L407.7,690.9L406.4,689.2L406.6,689L406.9,688.2L405.8,687L406,685.1 L407.4,681.7L406.9,681.7L406.1,682.3L406.2,680.5L405.5,677.8L404.2,675.7L403.3,673.9L402.8,670.8L401.2,667.9L401.4,666.7 L401.9,665.4L400.9,661.8L402.5,659.2L404.9,656.8L405.4,653.5L404.9,650.1L405.2,646.9L406.2,642.3L406.1,640.9L405.3,639.6 L405.5,638.1L408.8,637.2L412.5,637.7L414.6,636.3L415.1,634.9L414.3,633.5L412.5,633L412.6,632L414.4,628L413.9,623 L415.9,621.6L418.7,622L422.3,624.6L424.8,628.4L428.9,630.7L432.8,633.7L430.7,636L431.9,639.1L432.7,640.5L434.2,641.6 L438.5,640.9L440.4,641.4L443.7,643.4L444.9,644.8L444.4,653.8L445.4,657.8L447.3,661.5L450,665.2L458.6,674.2 z" /> 
<path data-name="imo" data-id="4" id="4" d="M 393.5,627.6L390.7,630.7L385.4,646.2L383.2,646.8L380.9,647.1L377,646L367.7,646.9L357.4,646.2L349.7,641.1L349.1,640.2L347.4,638.9L346.7,638.1L346.6,635.5L347.7,633.2L348.3,627.9L345.2,624.8L342.6,625.4L340,625.2L339.5,623.6L341.8,612.1 L342.6,609.5L347.5,605.6L353.2,604L356.4,605.4L359.3,604.5L362.2,598.7L363.1,595.6L365.9,593.9L369.2,593.1L372.6,592.7 L379.2,594.1L382.2,593.1L385.3,592.5L386.8,593.8L390.5,595.7L392.6,596.2L395.4,598.7L396.3,606.9L395.6,610.2L395,611.3 L395.8,612.7L396.3,614.6L396.3,616.6L396.6,618.6L396.6,620.6L396.1,622.3L395.1,623.8L394.4,625.8L393.5,627.6 z" /> 
<path data-name="rivers" data-id="5" id="5" d="M 405.5,677.8L406.2,680.5L406.1,682.3L405.7,682.6L405.1,683.2L404.9,684L405.1,685L405.3,685.8L405.3,686.6L404.7,687.5L404.7,687.9L405.7,689.1L405.9,689.7L405.7,689.9L404.4,691.3L403.8,691.8L402.9,692.3L402.1,692.4L401.4,691.7L400.9,691.7 L400.2,693.3L398.7,693.1L396.1,691.7L394.3,691.6L392.4,691.3L390.7,690.5L389.8,689.2L389.4,689.5L388.9,689.7L387.5,689.7 L387.3,690L387.2,690.5L387,691L386.3,691.3L386.3,691.7L386.8,692L386.8,692.7L387.8,693.1L389,694.1L391,694.5 L391.4,695L391.3,695.7L390.8,696.3L387.5,696.8L387.2,696.4L385.5,694L380.9,689L380.3,687.5L380.3,685.5L380,684.8 L379.6,684.8L378.5,685.3L376.9,685.3L376.7,685.2L376.1,684.5L374.8,683.4L374.2,682.7L373,679.3L372.2,678.2L372.1,678.9 L371.7,679.6L371.3,680.1L371.1,680.2L371.4,681L371.7,681.1L372.2,681.2L372.7,681.7L373.4,684.2L374.1,685.3L375.4,685.7 L377.7,686.9L379.4,689.4L379.6,691.8L377.7,692.7L378.7,693.4L379.8,694.5L380.5,695.8L380,697L378,699.3L376.7,699.9 L375.2,699.3L375.2,700.4L373.8,700.1L372.8,699.3L372.4,698.2L372.7,696.8L371.7,697.7L371.5,698.9L371.9,700.2L372.7,701.3 L370.7,701.8L370.1,701.8L369.3,700.1L368.8,698.3L368.6,694.5L367.4,692.5L367.1,691.3L367.9,690.7L368.2,690.1L368.6,688.8 L368.8,687.3L368.6,686.2L369,686.4L369.7,686.5L370.1,686.7L369.7,685.9L368.2,684.2L367.9,683.4L367.5,681.8L367.2,681.2 L365.8,683.1L365.3,683L365.1,681.8L364.2,680.2L363.8,681.3L364,683.1L363.7,683.7L364.5,684.9L366.1,689.2L365.4,689.2 L364.5,688.9L364.2,688.2L363.9,688.4L363.2,688.7L362.5,687.3L361.8,686.1L359.6,683.7L359.8,684.9L360.1,685.9L361.2,687.7 L361.8,688.4L362.1,688.9L362.2,689.5L361.9,690.1L361.4,690.5L361.1,690.9L361.7,691.7L362.4,690.6L363.8,690.3L365.1,690.6 L365.7,691.5L365,696.6L365.1,698.3L367.7,703.5L368.7,704.6L368.5,705.3L368.1,706L367.4,706.4L366.4,706.2L365.7,705.9 L364.3,705.6L364.4,705.9L364.7,706.4L363.1,705.9L361.4,705.1L359.8,704.7L358.1,705.4L357.3,704.5L356.7,703.3L356.6,702 L357.1,700.8L355.9,700.1L354.7,698.2L353.9,695.9L353.6,694L353.8,692.7L354.1,692L354.6,691.5L355.2,690.7L355.5,690 L355.8,688.8L355.6,687.7L354.4,687.2L352.5,686.2L351.2,683.7L350.1,679.2L349.8,677.4L350.1,676.4L350.9,675.4L351.4,674.5 L351.2,673.9L350.5,673.8L349.6,674.7L348.9,673.8L348.7,673.3L348.6,672.6L347.9,672.9L347.3,673L346.7,672.9L346.1,672.6 L346.4,673.9L346.5,675.2L346.9,676.2L347.8,676.7L348.5,677.2L349,678.5L349.6,681.2L349.9,683.9L350.2,685.2L350.9,685.7 L351.8,686.2L352.7,687.4L354.1,689.7L352.5,691.1L352.1,691.7L352,692.8L353.4,700L354.2,702.2L355.2,703.3L355,705 L356.5,706.3L357.4,707.4L355.6,708.4L353.3,708.8L350.4,709L347.7,708.7L346.1,707.8L345.8,706.8L346.1,702.4L346.5,701.9 L346.6,701.6L346.4,701.2L345.7,700.6L345.6,700.3L345.6,697.8L345.8,696.6L347.5,692.2L347.6,691.4L347.6,689.2L346.6,690.4 L345.8,689.3L343.4,688.2L341.3,686.6L340.1,684.2L339.6,681.6L335,678.7L328.9,681L326.7,681.2L325.9,678.9L326.3,677.6 L325.6,676.7L324.5,676.6L323.5,676.1L321.8,673.9L321.9,670.9L322.7,668.4L324.2,666.2L324.4,665.1L325.1,663.5L326.4,662.1 L325.8,661.4L325.4,660.7L325.1,659.9L324.9,659.1L324.9,657.6L325.2,655.7L325.7,654.2L326.2,653.5L327.5,652.9L328.1,651.3 L328.5,648L329.5,645.6L331.1,644.1L332.9,642.8L335.3,639.7L335.8,639L336,638.2L336.3,637.7L337.7,637.4L338,637.2 L338.1,637L338.8,636.3L339,635.9L339,635.4L338.9,635.1L338.6,634.8L336.5,632.2L329.7,631.6L328.5,628.4L328.4,628.3 L328.8,628L329.5,627.2L329.9,626.8L331.3,626.3L331.7,626.1L333.1,624.5L333.7,623.7L334,622.8L334.4,620.7L334.6,619.2 L336.1,615.9L338,607.4L340.2,609.3L342.6,609.5L341.8,612.1L339.5,623.6L340,625.2L342.6,625.4L345.2,624.8L348.3,627.9 L347.7,633.2L346.6,635.5L346.7,638.1L347.4,638.9L349.1,640.2L349.7,641.1L357.4,646.2L367.7,646.9L377,646L380.9,647.1 L383.2,646.8L385.4,646.2L386.8,648.9L386.5,652.4L378.9,664L379.9,669.7L382.9,670.7L388.9,669.4L391.7,669.4L394.5,670.5 L398.4,670.6L403.3,673.9L404.2,675.7L405.5,677.8 z" /> 
<path data-name="bayelsa" data-id="6" id="6" d="M 343.4,688.2L345.8,689.3L346.6,690.4L346.2,691L345,694L344.5,697.4L345.1,699.8L344.7,700.4L344.7,701.9L344.5,702.8L343.9,701.2L343.6,700.2L343.4,695.6L343,694.8L342.8,695.2L342.4,695.7L342,696L341.5,696.3L341.9,697.3L342,700.8 L342.3,702L343.2,703.5L343.8,705L344.5,707.5L344.5,708.4L344,709.2L343.3,709.4L341,709.4L338.9,709.6L338.5,709.1 L337.7,706.8L337.5,704.5L337.6,701.2L337.3,698.5L336.2,696.6L333.9,696.8L336,698.4L336.7,701L336.4,704L335.5,706.8 L335.3,709.3L331.7,710.1L327.4,709.7L325.4,708.4L324.4,708.5L323.5,708.8L324,710.2L322.8,710.7L321,710.8L319.6,711.1 L318.2,711.7L314.8,711.8L313.4,712.4L311.7,710.3L313.1,707.2L317.9,701.8L317,701.7L316.4,701.6L315.9,701.6L315.3,701.8 L312.8,704.8L312.5,700.9L311.3,697.3L310.9,697.3L310.8,698.8L310.9,700.6L311.3,702.4L311.8,703.8L311.1,703.1L310.5,702.3 L309.7,701.6L308.3,701.3L309.1,703L309.9,704.2L310.4,705.4L310.3,707.3L309.9,708.8L309.3,709.8L308.9,710.2L308.3,710.4 L307.8,710.8L307.8,711.8L308.4,711.6L308.9,711.6L309.9,711.8L309.5,712.5L307.4,713.2L304.7,713.4L302.8,712.9L302.6,713.2 L302.1,713.6L301.8,713.9L300.6,713.4L300,712.7L299.7,711.7L299.8,710.3L300.1,709.1L301.1,707.4L301.3,706.4L300.9,706.5 L299.8,706.8L299.8,705.7L300.1,703.7L299.2,703.6L298.5,703.4L297.6,703L296.7,703.3L296.5,704.1L296.6,705.1L296.9,706.2 L297.3,706.8L296.9,707.8L297.3,708.6L298,709.5L298.3,710.6L298.1,712.2L297.5,712.1L296.6,711.3L295.5,710.9L293.9,710.8 L293.3,710.4L293.2,707.8L293.6,707.7L293.8,707.5L292.8,706.1L292.7,705.8L292.6,704.6L292.7,703.3L292.3,703.3L291.7,705.8 L291.3,705.5L290.2,704.8L291.3,707.3L291.5,708.5L290.7,709.4L289.6,709.3L288.5,708.5L287.5,707.7L286.9,707.3L285.5,706.8 L283.8,705.4L282.9,703.6L283.7,701.8L282.9,701.7L282.3,702L282.1,702.5L282.2,703.3L281.7,703.3L280.5,702.1L277.6,700.4 L276.7,699.3L277.2,699.6L278.2,700L278.7,700.3L278.1,699.4L277.2,699L276.2,698.7L275.2,698.3L273.6,696.6L273,695.8 L271.1,693.8L270.6,693.5L263.8,687.1L261.8,684.3L261.1,681.2L261.4,681.3L261.6,681.4L262.1,681.7L262.1,680.3L258.9,678.3 L258,676.9L257.7,675.7L255.8,672.6L255,671.7L257.5,673.2L256.9,671.4L254.6,668.8L252.5,663.1L251.9,659.7L251.5,658.5 L250.5,656.6L250.2,655.5L250,654.3L249.8,653.7L249.2,653.2L248.7,652.4L248.5,651.2L248.8,650.4L249.7,650L250.9,650.1 L252,650.5L252.8,651.1L254.1,653L255,653.5L253.9,650.6L255.9,652.3L258.7,654.1L262.1,655.3L265.8,657.3L267.2,658.4 L269,658.6L270.3,658.5L271.4,658.5L274.1,657.1L276.6,655.3L278,654.9L279.3,654.3L280.7,653.8L282.1,654.1L284.3,653.7 L286.3,652.6L288.7,649.2L289.7,648.8L292.2,651L293.7,651.9L295.3,652.5L297.2,652.8L298.4,652.1L300.5,649.2L301.2,649 L302,649.1L303,649.4L303.8,649.5L304.8,649.3L305.3,648.9L305.7,648.4L306.3,648L308.1,647.4L309,647L309.3,646.2 L309.2,645.6L308.5,644.5L308.3,643.7L308.9,641.9L310.3,641.4L313.4,641.5L314.7,641.1L314.9,640.7L314.9,639.7L315,638.8 L315.4,638L316,637.4L316.6,636.7L318,635.7L319.2,635.3L328.7,633.9L329.9,633.2L329.7,631.6L336.5,632.2L338.6,634.8 L338.9,635.1L339,635.4L339,635.9L338.8,636.3L338.1,637L338,637.2L337.7,637.4L336.3,637.7L336,638.2L335.8,639 L335.3,639.7L332.9,642.8L331.1,644.1L329.5,645.6L328.5,648L328.1,651.3L327.5,652.9L326.2,653.5L325.7,654.2L325.2,655.7 L324.9,657.6L324.9,659.1L325.1,659.9L325.4,660.7L325.8,661.4L326.4,662.1L325.1,663.5L324.4,665.1L324.2,666.2L322.7,668.4 L321.9,670.9L321.8,673.9L323.5,676.1L324.5,676.6L325.6,676.7L326.3,677.6L325.9,678.9L326.7,681.2L328.9,681L335,678.7 L339.6,681.6L340.1,684.2L341.3,686.6L343.4,688.2 z" /> 
<path data-name="benue" data-id="7" id="7" d="M 562.7,541.7L561,548.7L561,548.8L560.1,548.8L557.9,549.3L556.8,550.2L555.1,553.4L553.9,554.5L552.4,555.3L549.5,556.4L548.1,554L546,550.2L537.2,539.9L530.8,536.7L519.2,538.8L515,538.9L513,538.5L511.6,537.3L512.3,532.9L510.5,529.1 L501.7,523.9L496.4,522.1L491.4,521.6L486.6,523.4L485.7,525.8L486.4,528.6L485.1,530.6L482.7,532L479.5,532.8L476.3,532.8 L473.4,532.4L470.5,532.3L468.3,533.9L466.3,536.1L464.1,537.3L461.7,537.5L460,535.6L459.1,533.2L458.5,530.3L457.7,529.1 L456.3,529L456,529.8L455.2,531L453.5,530.9L451.8,531.3L449,534.9L446.2,535.6L443.3,535.6L440.2,536L439.1,538.4 L438.3,544.6L435.1,549L430.1,545.9L427.7,540.8L430.2,534L430.2,530.4L429.4,526.9L427.5,524L424.5,522.5L421.9,523.2 L419.7,524.8L416.7,525.2L413.9,523.8L411.2,521.8L408.7,519.5L406.7,517L403.9,511.2L403.2,508.2L406,509.6L409.1,512.2 L411.5,513.2L413.4,512.6L413.6,509.3L414.8,506.4L424.6,501.1L427.6,496.1L428.9,490.2L429.1,487.9L430,485.7L431.4,483.2 L429.6,481.9L426.8,482.2L424.4,481L423.6,478.1L422.4,469.3L422.6,460.9L422.3,458.2L420.8,455.6L418.7,453.4L416.5,450.2 L415.6,446.5L415.4,442.6L415.8,438.4L419.5,439.3L424.2,439.9L427.7,441L430.3,441.6L435.5,442.2L438,442.9L441.7,445.1 L442.9,445.6L449.1,446.6L451.1,447.3L455,449.4L457.3,450.1L459.7,450.3L461.8,450.9L463.5,452.7L466.9,454.6L468.7,456 L469.6,456.4L470.5,456.7L471,456.8L471.9,455.6L471.5,453L468,445.5L466.3,440.2L467.5,435.1L471.6,431.6L481.3,430.5 L496.1,435.4L501.4,436.6L509.5,436.9L512.1,436.6L512.1,436.2L526.1,446.6L522.1,452.6L522.9,454.2L525.3,453.7L530.2,451.5 L533.1,450.9L544.4,450.6L555.6,451.9L563.9,457.6L570.5,465.8L578,472.4L581.3,480.9L578.4,489.7L577.9,498.4L574.6,501.3 L571,504L568,507.7L565.8,511.9L563.3,524.7L563.6,529.4L562.7,541.7 z" /> 
<path data-name="cross-river" data-id="8" id="8" d="M 546,550.2L548.1,554L549.5,556.4L549.1,556.5L546.9,557.9L544.7,562.2L542.6,563.4L541.5,563.5L540.6,563.4L539.7,563.5L538.7,564L537.7,565.2L535.6,569.6L533.7,572.2L523.6,580.3L516.9,587.3L515.3,589.6L514.4,590.6L513.2,591.2L512.8,591.7 L512.6,593.8L512.4,594.7L511.1,594.9L509.5,594.3L507.9,594.1L506.7,595.3L505.7,596.5L503.1,598.3L502.3,599.5L502.4,601 L503.2,602.1L503.9,603.4L503.5,605.2L502.2,606.8L501,607.8L500.4,608.8L501.3,610.7L502.8,612.1L504.5,613.4L505.8,614.8 L506.6,616.8L506.3,618.6L505.2,620L503.8,621.3L502.7,622.7L502.2,624.3L502.3,625.8L502.6,627.2L502.6,628.7L502.1,630.4 L500.6,633.5L500.1,635.2L500.2,636.2L500.8,638L500.9,638.8L498.9,648.7L498.4,649.7L497.6,650L496.7,650.2L495.9,650.6 L495.2,651.3L493.8,653.5L493.3,654.5L492.2,657.7L491.5,659.1L490.4,660.7L487.6,665.2L487.1,666.6L485.1,668L484.5,669.2 L484.7,670.7L484.9,671.7L485.2,672.8L483.9,674L483.8,673.7L483.3,673.3L482.6,673.2L482,673.4L481.3,674.1L480.3,675.4 L480.2,676.1L479.5,677.5L479.3,678.2L479.4,678.9L479.9,680L479.8,680.7L479.2,681.8L478.3,682.2L477.4,682L476.3,681.7 L475.9,681.8L475.2,681.8L474.7,681.6L475,680.9L475.4,680.4L475.7,679.7L475.9,678.9L475.5,678.6L474.9,678.8L473.5,679.5 L472.5,679.7L470.3,678.9L470.2,676.8L470.9,674.2L471.3,671.7L470.8,671.7L470.3,674.2L468.7,675.5L466.6,675.3L464.7,673.6 L464.9,673.3L465.2,672.6L464.7,672.5L463.2,671.7L463.5,670.7L462.9,669.8L460.9,668.4L459.2,667.4L459.1,667.3L458.7,666.1 L457.9,664.5L457.3,663.9L456.4,663.6L455.6,663.2L454.7,662.5L454,661.6L453.6,661.1L453.2,661.1L453.2,661.5L457.2,665.3 L458.2,666.6L460.1,670.1L460.4,671.8L459.2,672.6L459.7,673.6L460.4,674.8L461.2,675.8L462,676.2L462.3,676.4L461.4,676.3 L458.6,674.2L450,665.2L447.3,661.5L445.4,657.8L444.4,653.8L444.9,644.8L443.7,643.4L440.4,641.4L438.5,640.9L434.2,641.6 L432.7,640.5L431.9,639.1L430.7,636L432.8,633.7L436.2,634.3L437.2,631.7L433.6,625L431.9,617.3L432.6,613.2L431.3,609.8 L431.6,608L432.3,606.2L433.5,604.9L434.4,603.4L434.2,601.7L434.3,600L435.3,599L437.9,595L438.8,591.8L437.6,589.5 L438.4,587.6L441.4,586.7L444.1,587.5L445.6,590.8L447.5,590.7L448.8,589.4L452.2,587.8L453.4,586.4L454.3,584.8L456.3,584.8 L458.4,585.8L459.6,583.8L461,578.3L462.4,576.1L464,574L468.2,569.8L468.8,564.8L467.4,562.6L468,560.2L472.5,557.6 L472.3,555.3L470.7,553.4L470,551.4L469.6,549.1L468.4,547.7L468.1,546.8L467.6,546.1L466.5,545.5L465.6,544.7L462.8,541.5 L461.7,537.5L464.1,537.3L466.3,536.1L468.3,533.9L470.5,532.3L473.4,532.4L476.3,532.8L479.5,532.8L482.7,532L485.1,530.6 L486.4,528.6L485.7,525.8L486.6,523.4L491.4,521.6L496.4,522.1L501.7,523.9L510.5,529.1L512.3,532.9L511.6,537.3L513,538.5 L515,538.9L519.2,538.8L530.8,536.7L537.2,539.9L546,550.2 z" /> 
<path data-name="taraba" data-id="9" id="9" d="M 725.8,476.6L726.7,480.3L726.7,480.4L722.4,484.6L717.9,491.3L716.4,492.7L715.1,493.7L714.5,494.4L714.9,494.8L716.6,495.1L717.7,496L721.3,501.3L724.2,504.4L725.1,506.2L724.4,507.9L723.7,508.1L723.1,508L722.4,507.7L721.6,507.6L720.6,507.9 L719.8,508.4L716.7,511.2L715.6,511.9L715.4,512.6L714.8,513.9L714.3,514L713.2,514.1L712.3,514.3L711.6,514.2L711.2,514.3 L710.9,514.6L710.7,515.6L710.4,516L706.2,518.7L701.7,522.8L700.3,524.6L699.9,526.6L700.4,527.7L702,529.5L702.4,530.8 L702.2,532.8L701.7,534.8L699.6,539.7L697.8,542.1L695.8,543.2L692.9,543.5L691,545.1L689.9,547.6L689.5,550.6L689,552.3 L687.6,553.6L685.7,554.6L683.9,555L683.1,554.9L681.5,554.5L680.7,554.5L680.4,554.6L679.6,555.3L679.2,555.5L678.6,555.4 L677.8,554.9L677.4,554.8L670.7,555.5L668.7,555.2L667.5,554.1L666.1,550.6L664.9,544.9L664.6,542.1L664.8,539.2L664.5,535.7 L663.1,532.7L660.6,530.8L653.8,529.5L651.4,527.2L650,524L649.3,520.6L648.1,517.7L645.7,516.1L639.6,513.8L634.5,511.1 L632.6,510.5L631.3,509.4L630.9,505.8L629.5,504.1L628.4,506.2L627.5,508.8L626.9,511.6L626.5,517.2L626.2,517.4L625.7,517.5 L625.3,517.9L624.4,519.1L623.8,520.1L623.5,521.2L623.4,522.9L604.5,523.2L602.5,522.5L601,521.4L600.2,519.9L599.1,514.5 L598.5,513.3L597.5,513.1L595.8,514.1L577.8,529.3L576.1,530L574.7,529.6L573.3,528.9L571.5,528.7L570.1,530.3L564.5,548.1 L563.6,548.8L561,548.8L561,548.7L562.7,541.7L563.6,529.4L563.3,524.7L565.8,511.9L568,507.7L571,504L574.6,501.3 L577.9,498.4L578.4,489.7L581.3,480.9L578,472.4L570.5,465.8L563.9,457.6L555.6,451.9L544.4,450.6L533.1,450.9L530.2,451.5 L525.3,453.7L522.9,454.2L522.1,452.6L526.1,446.6L528.7,444.4L539.3,437.4L540.8,436.1L540.6,434.1L540,432.8L540.1,431.5 L539.9,427.7L536,422.8L536.3,420.6L537.1,418.7L538.3,417L540.1,416.3L543.7,417.5L545.4,418.4L547.5,418.8L549.7,419.4 L551.8,419.7L553.9,419.6L556.9,417.7L558.9,414.5L562.8,414.8L568.4,414.4L573.7,412.9L578.4,409.3L582.7,405L587.5,401.6 L592.8,398.7L594.8,396.9L598.6,392.3L600.3,389.7L603.9,385.5L620.9,381.4L632.5,375.7L635,371L634.9,368.2L634,363.6 L634.5,361.4L634.5,359.2L632.4,352.2L631.2,350.2L630.5,348.1L629.7,342.6L630.3,337.9L629.8,334L628.2,330.5L632.1,328 L641.4,327.7L650.5,323.5L655.3,322.7L660.4,323.9L665.5,323.9L673.3,324.5L699.1,323.5L705.8,336.1L707.6,337.8L710.1,338.2 L712.5,338.9L716.8,342.7L719.3,348L720.7,350.1L721.4,352.4L721,355L721.1,357.5L723.6,361.8L728.2,364L731.3,367.8 L731.8,372.9L724.4,388L723.8,393.1L724.2,395.8L723.5,398.2L718.6,402.2L699.6,424.8L694.8,429L690.8,433.7L690.1,436 L693.3,443.9L696.3,449.1L698.3,451.2L700.7,451.4L702.6,449.7L704.2,447.7L705.6,445.5L708,444.4L710.6,445.6L712.4,447.8 L719.5,454.5L723.1,462.9L723.1,467.9L724,472.7L725.8,476.6 z" /> 
<path data-name="kwara" data-id="10" id="10" d="M 58.8,397.9L55,401.2L54.4,401.6L53,383.6L53,382.8L53.4,382.3L54.7,381.7L55.1,381.3L55.2,380.7L54.8,379.6L54.7,378.9L55,377.8L55.9,375.7L55.9,374.6L55.6,374.1L55.3,373.9L55,373.8L54.8,373.2L55,373L55.8,371.8 L56.1,371.3L56.5,369.3L56.6,364.7L56.4,362.7L62.1,363.2L63.1,363.1L63.7,362.5L64.4,361.9L65.2,361.4L65.9,361.2 L68.2,361.2L69,361.3L69.8,361.6L70.5,362.1L71.2,362.5L72.1,362.5L77.1,361.2L78.9,359.9L80,357.6L82.5,350.1 L84,347.3L84.4,345.7L84.5,341L84.2,339.7L83.3,337.4L82.8,335.4L83.1,333.4L84.5,331.1L85,330.7L86.2,330.3 L86.7,329.8L91.2,324L91.3,323.6L90.9,322.7L90.8,322.2L91.4,320.4L92.6,320L94,320.3L95.3,320.4L97.7,319.1 L98.2,317.1L97.6,314.9L96.7,312.7L96.4,311.2L96.6,309.5L97.3,308.1L98.4,307.2L103.7,305.1L106.6,304.3L111,304.8 L112.3,303.6L114.2,300.1L116.6,297.3L117.3,295.8L117.8,289.6L118.3,288.4L119.4,287.3L120.5,286.8L121.4,286.1L122.1,284.5 L122.1,284.1L122.6,284L129,282.9L140.7,282.5L145.7,283.2L147.8,284.9L172.5,313.7L173.6,314.6L174.8,315.3L177.3,315.3 L178.5,320.2L177.7,326.1L177.6,331.6L180.1,335.7L185.5,335L191.9,336L192,336.5L192.2,339.2L192.1,340.7L192.2,340.6 L192.3,340.6L192.4,340.5L192.4,341.9L192.6,343.1L193.3,344.1L194.4,344.9L195.5,345.4L199.2,346L201.3,346.7L202.2,348.2 L202.2,350.2L201.9,352.4L202,354.6L203.3,356L205.4,356.7L207.6,356.5L210.6,355.6L213.9,353.8L218.6,352.3L219.6,352.3 L220.6,352.5L222.4,353.3L222.5,353.7L223.8,354.3L226.3,356L230.1,357.8L231.2,358.6L232.4,360.3L233.7,361.6L234,362.3 L234.1,363.1L234,363.9L234.1,364.7L234.6,365.7L235.5,366.3L236.6,366.6L243.6,367.8L248.5,367.5L249.6,367.7L250.5,368.2 L251.2,368.8L252.6,370.1L253.5,370.8L254.4,371.2L255.3,371.4L257.6,371.6L258.6,371.8L259.6,372.1L260.6,372.7L261,373 L262,374.3L263.6,375.6L264.2,376.3L264.8,377.1L265.5,378.3L265.7,378.7L266.7,379.5L267.9,379.9L272.1,380L272.7,380.1 L274.3,380.7L274.9,380.8L275.8,382.3L276.9,383.7L277.7,385.1L278.2,385.6L279,385.9L282.9,385.8L286.2,386.3L287.3,386.3 L288.1,386.2L290.5,385.1L292.3,384.7L300.3,384.6L301.5,384.8L302.5,385.2L304.8,387.3L305.3,387.5L309.4,386.7L306.3,390.7 L303.3,400.9L302.1,408.5L301.4,410.6L299.9,412.4L297.5,412.9L289.4,411.1L279.2,410.6L272,408.9L264.6,406.1L260.9,402.5 L258,401.4L254.7,404.3L246.3,414.8L245.8,417.2L248,421.3L249.1,422.6L250.3,423.7L251.1,425.1L254,427.8L259,430.8 L259.5,435.2L251.6,435.5L249,436.3L247.4,438.1L247,440.5L246.1,442.2L245.5,442.4L244.8,442.2L241.8,442.7L240,442.3 L237,442.1L232.2,439.1L227.6,440.5L226.1,439.8L225.7,438.6L224.9,438.1L223.8,437.8L219.6,438.4L217.4,436.9L215.8,434.4 L212.8,434.3L209.9,435.5L205.8,435.9L205.2,436.4L205.1,435.9L203.1,436.4L201.2,437.2L197.1,438.1L192.3,437.6L187.5,437.8 L186.3,437L185.1,436.8L184.2,435.3L182.1,428.4L179.4,424.1L177.5,422.9L175.8,421.3L173.1,417.5L170.6,407.7L168,403.8 L161.5,389.4L160.5,385L161.5,380.5L163.1,379L164.3,377.1L166.1,375.2L168.6,373.8L171.1,370.3L169.8,367.5L166.2,369.6 L164.2,369.7L158.8,368.5L150.1,365.4L146.9,363.7L144.1,361.3L142.4,358.1L140.3,355.4L136.9,353.9L133.4,354.3L130.1,356.6 L128.3,360.2L127.5,365L126.1,366.5L124.4,367.7L109.3,375.3L106.2,377.6L103.2,379.1L99.9,381.6L91.3,385.4L90.3,385.6 L89.5,384.7L88.7,384.3L88.1,383.5L86.9,383.2L85.7,383.4L84,383.9L82.5,384.8L79.4,387.4L78,388.3L76.8,389.2 L76.3,390L74.6,390.6L70.6,393.9L69.2,395.5L67.5,396.7L61.7,398L60.2,397.9L58.8,397.9 z" /> 
<path data-name="lagos" data-id="11" id="11" d="M 172.2,557.7L171.9,559.7L171.9,559.9L156,557L137.3,555.4L105.9,557L104.3,556.7L103.4,556L102.7,555.2L101.6,554.5L102.3,554.1L102.8,554L103.2,554.1L103.7,554.5L104.8,553.4L105.3,553.8L105.4,554.9L105.7,556L108.3,553.6L108.7,553.7 L108.9,554.3L109.5,554.3L110.5,554L111.9,553.9L113.1,553.7L114.2,553.1L115.3,552L115.4,551.2L115.2,550.3L115.3,549.7 L116,549.4L119,549.4L120.5,549.1L123.8,548.1L124.8,548.4L126.4,547.7L127.9,546.9L128.9,545.7L129.3,544.1L130.2,543.8 L136.3,542.9L135.8,542.5L135.3,542.3L134.9,542.2L134.3,542.4L130.2,541.4L126,543L122.1,545.2L118.5,546.4L117.2,546.4 L116.4,546.5L113.9,547.9L113,548.2L112.2,548.4L111.2,548.4L111,548.2L110.1,547.9L109.2,547.9L108.7,547.6L108.5,547.3 L108.2,546.4L108.1,545.5L108.6,543.9L108.7,542.9L107.4,543.6L106.5,544.4L104.9,546.1L104.3,546.4L103.6,546.4L102.9,546.6 L102.6,547.2L102.7,547.7L103.2,548.8L103.2,549.4L102.9,550.2L101.9,551.8L101.6,552.7L101.4,553.2L100.8,553.6L100.5,554.1 L100.9,554.7L101.3,555.1L101.5,555.5L101.6,555.9L102,556.3L101.6,557.9L97.3,558.4L89.1,558L79.4,559.1L68.1,558.5 L51.6,560.1L51.6,555.6L52.2,552.3L52.7,552.3L55.1,552.5L57.6,552.3L59.5,552.9L61.3,552.8L63.3,551.5L64.7,549.9 L64.7,548.9L65.5,548.5L81.5,549.2L85.8,548.6L86.9,547.4L87.6,543.8L88.7,542.3L89.9,541.1L90.9,537.3L91.4,536.2 L93.7,535.4L95.4,535.9L98.7,537.6L100.5,539.8L103.1,539.9L104.5,539.6L105.4,538.4L105.6,537.3L106.3,536.7L149.1,536.4 L153.5,537.6L152.7,539.5L150.9,540.9L150.3,542.7L151.1,544.5L151.1,545.4L153.2,547.1L155.4,546L157.7,544.5L160.1,544 L162.2,544.7L162.9,546.3L162.2,547.8L158,550.2L158.1,552L159.8,553L161.9,553.6L162.9,554.5L164.2,555.3L165.9,554.9 L170,555L172.1,555.7L172.2,557.7 z" /> 
<path data-name="niger" data-id="12" id="12" d="M 129,282.9L122.6,284L122.1,284.1L122.3,282.8L122.1,281.6L121.4,280.7L116.5,275.6L115.4,273.9L115.3,272.6L116.9,269.2L118.7,266.4L119,265.6L119.1,264.1L119.3,263.6L119.8,263L121.2,261.5L122.6,261.1L124.2,261.4L128.9,263.8L130,263.6 L131.2,262.2L131.6,260.9L131.7,257.1L132.4,255.1L134.2,251.5L134.8,249.5L134.8,245.5L134.4,243.3L133.7,241.9L132.8,241.4 L131.8,241.2L130.8,240.9L130.1,240.1L129.4,237.7L129.1,236.9L128.5,236.3L126.9,234.3L127,233L128.6,229.1L128.7,227 L127.2,220.4L126.4,219.2L125.9,217.8L125.6,216.3L125.6,214.7L126.3,211.9L125.7,211.3L125.2,211.3L125.7,210.8L132.4,211.5 L138.9,215.5L147.1,219.3L151,219.7L171.1,219.2L178.7,218.1L186.2,220L195,225.8L199.8,227.2L199.9,229L197.4,242.1 L197.5,244.9L197.3,246.1L196.8,247.1L194.9,249L194.8,250.3L186.3,255.1L183.5,259.7L183,265.2L183.3,268L184.5,270.5 L186.4,271.9L187.9,273.7L187.5,279L186.4,284.4L188.1,286L193.1,286.2L194.1,284.3L194.1,281.3L194.9,278.8L197.4,277.9 L206,276.1L208.5,275.3L210.6,273.8L212.4,269L210.2,264L206.7,259.5L206.3,257.1L206.6,254.5L206.2,249L207.5,244.1 L209.8,243.3L214.9,244L219.8,241.7L225,240.2L227,238.7L225.4,233.9L222.4,230.2L225.9,225.7L225.7,222.8L225,219.8 L224.1,217.7L222.1,217.1L221.2,216.5L220.6,215.2L219.6,214.7L218.3,214.7L212.7,213.8L207.4,211.6L202.8,208.1L204,203.5 L214,199L235.7,194.7L241.1,194.9L245.4,197.5L246.4,202.9L249,207.6L251.4,209.1L252.5,211.5L252.1,217.2L252.2,220 L253.2,222.6L255.1,223.3L262.5,223.3L267.3,222.4L280,217.1L282.6,216.4L285.1,216.2L287,214.8L287.8,213.6L289.6,211.5 L290.7,210.7L293.3,210.6L295.5,212L298.7,216L304.3,225.3L305.4,230.2L304,230.9L302.5,232.5L301.9,234.4L301.4,240.5 L301.5,242.4L302.8,246.1L302.9,246.9L302.8,247.8L302.5,249.5L301.4,251.9L301.3,252.8L301.2,254.8L301.1,255.8L300.7,256.7 L300.4,258.1L300.8,260.6L303.2,262.3L305,264.6L306.3,267L308.8,266.7L310.7,264.6L312.3,262.2L316.1,258.1L324.9,251.4 L330.1,250.3L332,251.6L332.9,253.9L335.3,254.3L340.6,251.9L343.4,251.3L346.2,251.8L347.8,250.6L347.5,247.8L349.9,246.7 L352.5,246.9L354.8,247.8L355.4,249.2L355.9,255.2L357.1,255.5L359.7,254.8L363.7,258.1L363.8,264L362.9,266.6L364.4,268.2 L369.7,270.1L371.9,271.6L371.7,274.1L369.9,276.4L367.5,278L365.1,279.9L363.2,282.3L360.8,283.8L359,285.8L362.3,290.1 L367.5,292.3L373,292.9L383.9,292.7L387.4,295.2L388.8,306.9L388.7,309.6L386.8,311.1L384.5,311.3L382.9,312.5L384.4,314.5 L387,315.3L388.6,316.6L388,318.6L389,320.5L391.3,321.6L391.7,323.9L390.1,325.7L389,326.7L388.2,327.9L388,329.4 L387.6,330.8L383.6,333.6L382.9,336.4L384.4,338.6L385.4,339.2L386.6,340.8L386.5,341.9L385.7,344.1L386.1,345.3L388,344.7 L389.7,345.1L379.4,359.6L379,359.8L375.5,357.8L368.6,351.2L364.2,349.9L350.7,350.4L348.9,351.2L348.5,353.3L349.2,405.7 L349.7,407L351.5,410.1L354.8,410.5L353.8,413.4L351.7,415.4L350.2,415.9L349,417.1L349.1,418.7L348.8,419.9L347.8,419.3 L346.8,420.1L346,421.9L345.5,423.8L344.3,425.1L344.1,424.6L343,423.7L342.9,423.3L342,422.8L339.2,419.9L336.4,415.3 L335.5,414.4L328.3,408.9L327.7,408.6L326,405.2L325.1,401.7L324.9,399.5L324.7,398.9L324,398.2L323.9,397.6L322.7,395.3 L322.6,394.7L322.5,393.4L320.7,390.3L319.8,389.4L318.6,388.8L317.1,388.5L314.4,386.7L313.9,386.2L312.6,386.1L309.4,386.7 L305.3,387.5L304.8,387.3L302.5,385.2L301.5,384.8L300.3,384.6L292.3,384.7L290.5,385.1L288.1,386.2L287.3,386.3L286.2,386.3 L282.9,385.8L279,385.9L278.2,385.6L277.7,385.1L276.9,383.7L275.8,382.3L274.9,380.8L274.3,380.7L272.7,380.1L272.1,380 L267.9,379.9L266.7,379.5L265.7,378.7L265.5,378.3L264.8,377.1L264.2,376.3L263.6,375.6L262,374.3L261,373L260.6,372.7 L259.6,372.1L258.6,371.8L257.6,371.6L255.3,371.4L254.4,371.2L253.5,370.8L252.6,370.1L251.2,368.8L250.5,368.2L249.6,367.7 L248.5,367.5L243.6,367.8L236.6,366.6L235.5,366.3L234.6,365.7L234.1,364.7L234,363.9L234.1,363.1L234,362.3L233.7,361.6 L232.4,360.3L231.2,358.6L230.1,357.8L226.3,356L223.8,354.3L222.5,353.7L222.4,353.3L220.6,352.5L219.6,352.3L218.6,352.3 L213.9,353.8L210.6,355.6L207.6,356.5L205.4,356.7L203.3,356L202,354.6L201.9,352.4L202.2,350.2L202.2,348.2L201.3,346.7 L199.2,346L195.5,345.4L194.4,344.9L193.3,344.1L192.6,343.1L192.4,341.9L192.4,340.5L192.3,340.6L192.2,340.6L192.1,340.7 L192.2,339.2L192,336.5L191.9,336L185.5,335L180.1,335.7L177.6,331.6L177.7,326.1L178.5,320.2L177.3,315.3L174.8,315.3 L173.6,314.6L172.5,313.7L147.8,284.9L145.7,283.2L140.7,282.5L129,282.9 z" /> 
<path data-name="ogun" data-id="13" id="13" d="M 187.5,563.8L183,563.5L182.9,563.6L176.5,560.7L171.9,559.9L171.9,559.7L172.2,557.7L172.1,555.7L170,555L165.9,554.9L164.2,555.3L162.9,554.5L161.9,553.6L159.8,553L158.1,552L158,550.2L162.2,547.8L162.9,546.3L162.2,544.7L160.1,544 L157.7,544.5L155.4,546L153.2,547.1L151.1,545.4L151.1,544.5L150.3,542.7L150.9,540.9L152.7,539.5L153.5,537.6L149.1,536.4 L106.3,536.7L105.6,537.3L105.4,538.4L104.5,539.6L103.1,539.9L100.5,539.8L98.7,537.6L95.4,535.9L93.7,535.4L91.4,536.2 L90.9,537.3L89.9,541.1L88.7,542.3L87.6,543.8L86.9,547.4L85.8,548.6L81.5,549.2L65.5,548.5L64.7,548.9L64.7,549.9 L63.3,551.5L61.3,552.8L59.5,552.9L57.6,552.3L55.1,552.5L52.7,552.3L52.2,552.3L52.5,550.8L54.1,546.1L54.2,544.6 L53.6,541.5L53.6,540L54.5,538.4L55.8,537.2L56.7,536.6L57.1,535.8L56.9,532.4L56.7,531.7L56.3,531.3L55.4,531.2 L54.6,531L54,530.6L53.4,529.8L53.1,528.4L53.3,526.8L54,523.7L53.7,520.6L52.7,517.8L52.4,515.2L54.3,512.5 L55.2,512.1L56.1,511.8L56.9,511.4L57.2,510.7L56.8,510L54.8,508.4L54.2,507.6L53.9,506.6L54,506.1L54.3,505.6 L55,504.3L55.6,503.5L55.8,502.8L55.9,501.8L54.3,483.7L54.5,482.9L55.1,482.6L55.9,482.6L57.4,482.9L57.7,482.8 L57.7,482.4L57.9,481.7L58.1,478.6L56.5,475.9L54.3,473.4L52.8,470.6L52.5,467.8L53.3,455.5L53.1,454.4L52.5,453.4 L50.7,451.4L49.9,449.3L49.3,448.4L49.3,448.1L49.8,447.8L56.1,443.4L63.2,443.6L65.1,447.1L65.5,455.3L66.7,459.3 L68.8,459.6L69.5,455.8L70.6,452.6L73.3,452.5L73.8,459L71.1,466.4L71.2,468L72.6,471.8L75.7,474.3L78.1,477.4 L81.4,483.4L86.5,488L90.6,489.4L94.7,489.2L97.6,486.7L100.6,479.4L103.6,477.4L106.3,479.4L107.6,483L109.7,484.2 L111.8,483L114.1,482.1L121.4,482.2L123.9,485.8L123.9,489.9L124.1,491.2L126.2,492.7L128.3,493.9L128.8,495.2L128.8,496.6 L129,497.7L129.5,498.8L130.3,503.2L127.6,506.8L125.6,510.2L130.1,510.4L139.1,509.3L143.6,508.1L145.7,506.8L148,506 L150.2,505.8L152.4,505.4L157.6,503L159.2,506L159.8,509.4L162.7,509L165.5,507.3L168.9,507.1L171.3,509.2L172.2,511 L172.9,512.9L173.1,514L173.5,515.1L175.6,515.2L178.2,513.8L179.7,514.3L181.3,514.3L182.5,513.8L183.8,513.4L186.8,513.2 L187.9,514.6L186.3,524.2L184.9,526L178.3,530.8L174.6,534.7L172.8,539.5L172.8,541.8L173.9,543.7L174.9,544.4L177.2,545.1 L178.4,545.3L182.2,545.4L185.4,543.5L186.5,541.8L188.4,540.9L189.8,542.8L189.8,548.1L190.4,551.5L190.2,552.5L189.4,553.4 L188.2,553.8L184.5,556.5L182.1,556.8L181,557.3L182.2,558.7L184.4,558.7L188.5,560.5L188.6,562.4L187.5,563.8 z" /> 
<path data-name="ondo" data-id="14" id="14" d="M 228.6,577.8L220.4,597.6L220.4,597.7L211.8,586.6L210.3,585.2L207.4,584L206.1,582.5L204.2,579.6L201.6,576.9L199.4,575.1L193.9,571.6L191.4,570.1L186.9,565.9L184.1,564.1L182.9,563.6L183,563.5L187.5,563.8L188.6,562.4L188.5,560.5L184.4,558.7 L182.2,558.7L181,557.3L182.1,556.8L184.5,556.5L188.2,553.8L189.4,553.4L190.2,552.5L190.4,551.5L189.8,548.1L189.8,542.8 L188.4,540.9L186.5,541.8L185.4,543.5L182.2,545.4L178.4,545.3L177.2,545.1L174.9,544.4L173.9,543.7L172.8,541.8L172.8,539.5 L174.6,534.7L178.3,530.8L184.9,526L186.3,524.2L187.9,514.6L190.8,513.1L191.9,511.5L192.5,509.6L194.5,506.2L197.6,503.8 L200.5,502.9L203.2,504.1L206.9,506.5L207.8,506.9L209.8,507.1L210.6,506.5L210.8,504.9L210.6,503.2L210.8,501.3L210.8,495.7 L211.4,492.2L212.7,488.8L215.9,487.2L219.5,486.2L219.5,483.2L224.7,481.6L227.4,481.5L235.5,482.1L240.7,481.8L244.4,482.9 L246.2,486.4L247.8,491.5L251.9,493.1L259.6,486.7L263.6,477.3L265,470.3L265.9,468.2L269.1,464.8L271,463.7L271.9,462.5 L272.7,461.1L274.6,460.1L276.6,461L278.4,460.3L279.7,458.2L285.6,457.2L287.8,458.1L287.4,461L291,466.7L295.6,471.6 L294.3,473.9L292.6,475.8L291.7,476.3L289.7,476.7L288.7,477.6L288,480.1L290.2,481.6L290.6,482.8L289.8,484.4L290.1,486.7 L290.5,487.7L290.8,489.4L290.1,491.8L289.1,492.8L287.9,493.6L286.1,495.2L284.5,497L284.4,497.9L284.6,498.7L281.2,506.3 L280.8,508.1L279.8,509.4L277.8,511.4L276.9,514.1L276.8,516.6L277.8,518.9L278.1,519.8L277.8,520.4L277.4,520.6L277.1,521.1 L277.1,522.2L275.5,522.6L274.8,524.5L273.9,529.1L273.6,530.1L272.5,531.9L271.7,532.4L270.5,532.8L268.1,532.3L267.2,531.5 L265.1,531.3L261.5,534.2L259.9,534.5L257.9,529.6L258.7,527.6L259.9,525.7L256.5,523.1L236,523.1L234.8,523.6L233.9,524.6 L233.9,526.4L232.7,528L231.7,530L229.1,532.5L226.8,535.3L226,536.9L225.7,539.3L225.5,540.3L225.5,542.6L225.8,543.2 L226.5,543.5L227.7,545.5L229,549.3L227.3,553.2L226.1,555L225.5,557.2L224.5,559L222.7,560L221.1,560.5L220.1,562.1 L219.7,564.2L219.2,565.2L218.8,565.7L218.8,565.5L218.6,565.8L218.8,565.7L218.6,566.2L219,566.9L220.5,567.8L222.3,569.3 L223.8,571.1L224,572.1L224.7,572.4L225.6,572.4L226.5,572.8L227.3,573.4L228.6,575.5L228.6,577.8 z" /> 
<path data-name="ekiti" data-id="15" id="15" d="M 270.6,454.4L276.4,457.2L279.7,458.2L278.4,460.3L276.6,461L274.6,460.1L272.7,461.1L271.9,462.5L271,463.7L269.1,464.8L265.9,468.2L265,470.3L263.6,477.3L259.6,486.7L251.9,493.1L247.8,491.5L246.2,486.4L244.4,482.9L240.7,481.8L235.5,482.1 L227.4,481.5L224.7,481.6L219.5,483.2L213.7,467.7L213.3,463.9L214.1,460.6L214.7,451.8L218.1,447.4L220.9,446L223.2,444 L224.9,438.1L225.7,438.6L226.1,439.8L227.6,440.5L232.2,439.1L237,442.1L240,442.3L241.8,442.7L244.8,442.2L245.5,442.4 L246.1,442.2L247,440.5L247.4,438.1L249,436.3L251.6,435.5L259.5,435.2L258,437.2L258.1,440.3L259.5,440.9L261.5,439.7 L264.2,439.1L266.9,438.8L268.2,439L269.3,439.8L269.2,441.4L267.6,442.4L265.5,445L264.9,448.1L266,451.3L268.4,453.4 L269.4,453.4L270.6,454.4 z" /> 
<path data-name="osun" data-id="16" id="16" d="M 213.3,463.9L213.7,467.7L219.5,483.2L219.5,486.2L215.9,487.2L212.7,488.8L211.4,492.2L210.8,495.7L210.8,501.3L210.6,503.2L210.8,504.9L210.6,506.5L209.8,507.1L207.8,506.9L206.9,506.5L203.2,504.1L200.5,502.9L197.6,503.8L194.5,506.2L192.5,509.6 L191.9,511.5L190.8,513.1L187.9,514.6L186.8,513.2L183.8,513.4L182.5,513.8L181.3,514.3L179.7,514.3L178.2,513.8L175.6,515.2 L173.5,515.1L173.1,514L172.9,512.9L172.2,511L171.3,509.2L168.9,507.1L165.5,507.3L162.7,509L159.8,509.4L159.2,506 L157.6,503L152.4,505.4L157.4,478.9L157,476.8L155.6,475.1L154.4,472.8L152.8,470.7L150.8,469.5L149.3,467.8L149.4,465.7 L150.6,463.8L151.3,461.8L151.6,459.6L151.9,454.8L153.1,451.5L158.1,452.8L161.8,450.1L161.7,448.5L162.4,447.8L163.2,447.2 L164.6,445.3L166.1,443.7L168.4,444.6L170.4,446.4L173.1,450.7L176.1,451.3L177.6,449.7L179.8,448.2L180.2,447.8L180.6,447.1 L181.2,446.6L181.4,446.8L182.6,445.8L184,445L185.3,444.5L186.9,444.2L187.3,443.7L187.9,442.8L188.1,440.3L187.5,437.8 L192.3,437.6L197.1,438.1L201.2,437.2L203.1,436.4L205.1,435.9L205.2,436.4L205.8,435.9L209.9,435.5L212.8,434.3L215.8,434.4 L217.4,436.9L219.6,438.4L223.8,437.8L224.9,438.1L223.2,444L220.9,446L218.1,447.4L214.7,451.8L214.1,460.6L213.3,463.9 z" /> 
<path data-name="oyo" data-id="17" id="17" d="M 56.1,443.4L49.8,447.8L49.3,448.1L49.2,447.8L49.4,447.2L50.1,445.8L50.7,440.5L51.6,435.9L51.7,431.5L51.9,430.2L52.5,428.9L53.3,427.7L53.9,426.4L53.9,424.7L53.4,423.2L51.9,420.1L51.4,418.5L51.1,416.8L51.2,415.4L51.8,412.3 L51.8,411.6L51.6,410.3L51.6,409.6L52,408.7L53.5,407.1L54,406.2L54.6,403.7L54.4,401.6L55,401.2L58.8,397.9 L60.2,397.9L61.7,398L67.5,396.7L69.2,395.5L70.6,393.9L74.6,390.6L76.3,390L76.8,389.2L78,388.3L79.4,387.4 L82.5,384.8L84,383.9L85.7,383.4L86.9,383.2L88.1,383.5L88.7,384.3L89.5,384.7L90.3,385.6L91.3,385.4L99.9,381.6 L103.2,379.1L106.2,377.6L109.3,375.3L124.4,367.7L126.1,366.5L127.5,365L128.3,360.2L130.1,356.6L133.4,354.3L136.9,353.9 L140.3,355.4L142.4,358.1L144.1,361.3L146.9,363.7L150.1,365.4L158.8,368.5L164.2,369.7L166.2,369.6L169.8,367.5L171.1,370.3 L168.6,373.8L166.1,375.2L164.3,377.1L163.1,379L161.5,380.5L160.5,385L161.5,389.4L168,403.8L170.6,407.7L173.1,417.5 L175.8,421.3L177.5,422.9L179.4,424.1L182.1,428.4L184.2,435.3L185.1,436.8L186.3,437L187.5,437.8L188.1,440.3L187.9,442.8 L187.3,443.7L186.9,444.2L185.3,444.5L184,445L182.6,445.8L181.4,446.8L181.2,446.6L180.6,447.1L180.2,447.8L179.8,448.2 L177.6,449.7L176.1,451.3L173.1,450.7L170.4,446.4L168.4,444.6L166.1,443.7L164.6,445.3L163.2,447.2L162.4,447.8L161.7,448.5 L161.8,450.1L158.1,452.8L153.1,451.5L151.9,454.8L151.6,459.6L151.3,461.8L150.6,463.8L149.4,465.7L149.3,467.8L150.8,469.5 L152.8,470.7L154.4,472.8L155.6,475.1L157,476.8L157.4,478.9L152.4,505.4L150.2,505.8L148,506L145.7,506.8L143.6,508.1 L139.1,509.3L130.1,510.4L125.6,510.2L127.6,506.8L130.3,503.2L129.5,498.8L129,497.7L128.8,496.6L128.8,495.2L128.3,493.9 L126.2,492.7L124.1,491.2L123.9,489.9L123.9,485.8L121.4,482.2L114.1,482.1L111.8,483L109.7,484.2L107.6,483L106.3,479.4 L103.6,477.4L100.6,479.4L97.6,486.7L94.7,489.2L90.6,489.4L86.5,488L81.4,483.4L78.1,477.4L75.7,474.3L72.6,471.8 L71.2,468L71.1,466.4L73.8,459L73.3,452.5L70.6,452.6L69.5,455.8L68.8,459.6L66.7,459.3L65.5,455.3L65.1,447.1 L63.2,443.6L56.1,443.4 z" /> 
<path data-name="anambra" data-id="18" id="18" d="M 353.2,604L347.5,605.6L342.6,609.5L340.2,609.3L338,607.4L338.3,604.3L338.7,602.3L339.5,600.4L340.9,597.9L343.8,594L344.1,593.4L344.2,592.7L344.1,591.4L344.2,590.7L345.1,587L344.9,583.2L345.2,581.5L346.6,580.3L347.6,580L348.3,579.6 L348.9,579L349.1,578.1L349.4,574.8L349.2,573.8L348.9,572.8L347.9,571L347.6,570L347.3,567.1L346,563.5L345.6,559.5 L343.5,552.3L343.2,550.1L343.2,547.8L343.8,547.7L345.5,547.8L347.4,548.2L349.3,547.9L351.7,545.5L353.3,538.3L355,534.8 L360,530.1L360.7,532.2L360.6,534.5L361.5,535L365.5,534.8L369.7,536.6L372,537.1L374.3,538.1L374,543L369.9,547.4 L367.9,552.9L368.5,554.8L369.6,555.3L372.1,555.7L373.2,556.3L374.7,558.4L377,563.7L377.5,564.4L377.6,565.1L377.2,565.7 L376.7,566L376.7,567.3L376.5,568.6L376.3,569.6L376.9,570.5L378,570.2L379.1,569.4L380.3,570.2L380.6,571.9L382.3,573.2 L381.9,575.8L382.8,577.9L384,579.9L384.8,582.2L386.4,584L388.5,584.3L390.4,583.8L391.2,583.9L392.5,584.6L392.9,585.4 L393.6,585.6L388.7,588.2L385.3,592.5L382.2,593.1L379.2,594.1L372.6,592.7L369.2,593.1L365.9,593.9L363.1,595.6L362.2,598.7 L359.3,604.5L356.4,605.4L353.2,604 z" /> 
<path data-name="bauchi" data-id="19" id="19" d="M 664.3,320.1L666,322.1L665.5,323.9L660.4,323.9L655.3,322.7L650.5,323.5L641.4,327.7L632.1,328L628.2,330.5L625.9,329.6L613.7,322L577.7,305.5L575.4,306L574.3,306.7L573.4,308.4L576.2,312.4L577.2,315L576.5,317.4L571.7,319.2L569.8,320.8 L567.7,325.3L565,326.4L562.2,327L550.6,327.5L540.2,325.7L535.6,324.2L533.1,319.8L529.8,316L527.2,315.2L525.4,313.4 L525.8,311.2L526.7,309L528,307.1L528.6,304.9L528.3,298.9L526.7,293.8L522,292.2L513.5,293.6L510.8,291.8L510.9,280.1 L510.5,276.5L509.1,272.5L506.4,269.3L502.1,268.2L497.9,268.9L496.4,267.1L494.6,265.5L492.4,264.4L491.4,262.4L493.9,258.1 L494.7,253.2L498.1,249.6L500.1,244.8L499.6,239.8L496.3,235.8L494.2,230.2L494,224.1L494.4,218.6L496.6,213.9L501,213.7 L503.7,212.5L505.6,210.4L508.5,206.1L516,198.4L520.9,196.2L522,196.9L523.3,197.5L524.6,197.3L530.2,195L534.7,195.1 L539.1,196.3L543.6,198.2L548.3,198.5L552.9,197.8L555.8,201.4L559.5,202.7L568.9,202L573.2,201L576.4,203.9L578,208.3 L578,213.1L577.4,217.8L579.1,221.8L583.3,223.6L594.9,222.7L597.4,224L600.3,225L602.3,223.8L601.4,221.1L603,216.2 L611.1,213.1L613.6,211.5L615.4,209.5L615.7,207.1L610.4,205.4L604.2,205.1L592.5,203L587.1,200.9L580.1,191.7L577,186.4 L575.8,186.8L573.4,186.8L571.9,184.8L572.2,182.4L574.6,177.9L574.6,175.4L573.5,170.2L572.3,167.7L569.8,167.1L567.2,167.4 L562.7,168.7L559.6,166.6L561.1,161.2L565,157.7L571.2,157.2L573.7,156L576.1,154.5L598.4,146.1L599.7,143.6L599,140.6 L599.5,138.2L604.8,123.6L605.5,120.4L606.5,117.2L608.2,115.6L610.4,114.8L616,113.8L618.2,115.3L622.1,116.2L631.8,109.9 L636.8,113.3L641,117.3L642,120L643.1,125.8L643.2,128.8L643.6,131.4L645.1,133.7L646.6,136.5L647,139.7L647.1,144.8 L649.3,156.5L658.1,177.9L658.6,184.2L656,195.5L657.9,198L661.5,198.5L660,199.6L658.8,201.2L657.1,203.1L650.2,207 L646.7,211.8L644.3,213.6L638.7,215.3L636.5,217.1L634.3,222.6L631.8,231.2L630.7,234L626.8,239.3L626.6,241.3L634.5,244.6 L636.8,249.7L637.5,255.5L642.8,257.9L647.5,260.8L649,265.2L648.9,275.4L649.2,277.6L649,279.8L640.6,284L640.2,286.4 L643.2,290.6L658.4,301.8L660.6,306.6L661.1,311.3L662.2,315.9L664.3,320.1 z" /> 
<path data-name="gombe" data-id="20" id="20" d="M 704,249.7L709.1,250.2L711.9,249.9L712.8,256.3L707.4,265L707.2,268.2L708.8,271.5L711,274.2L713.8,276.1L717,277.3L719.7,279.1L724.6,287L729.9,290.3L729.1,296.6L729.5,306.3L728.3,309.4L725.6,311.6L712,319.7L705.8,322.4L699.1,323.5 L673.3,324.5L665.5,323.9L666,322.1L664.3,320.1L662.2,315.9L661.1,311.3L660.6,306.6L658.4,301.8L643.2,290.6L640.2,286.4 L640.6,284L649,279.8L649.2,277.6L648.9,275.4L649,265.2L647.5,260.8L642.8,257.9L637.5,255.5L636.8,249.7L634.5,244.6 L626.6,241.3L626.8,239.3L630.7,234L631.8,231.2L634.3,222.6L636.5,217.1L638.7,215.3L644.3,213.6L646.7,211.8L650.2,207 L657.1,203.1L658.8,201.2L660,199.6L661.5,198.5L671.7,195.9L681.8,200.7L686.4,204.3L690.5,208.6L694.1,213.3L701.7,221 L703.3,222.9L703.8,225.4L702.8,242.3L703.3,247.5L704,249.7 z" /> 
<path data-name="delta" data-id="21" id="21" d="M 258.7,654.1L255.9,652.3L253.9,650.6L253.5,649.5L255.1,649.7L256.5,650L256,649.2L254,647L253.2,646.5L253,646.8L253,648.2L252.8,648.5L252.1,648.5L251.5,648.6L250.5,649L249.5,648.5L247.8,648.9L247,648.5L246.8,647.9L247,645.2 L246.7,641.8L245.1,635.2L245.5,634.3L247.2,633.9L252.1,633.8L253.5,633.4L253.7,634.1L253.9,634.6L254.5,635.4L255.1,635 L255.6,633.9L256,633.4L256.5,633.1L259,632.1L260.2,631.9L261.3,631.9L262.1,632.4L262.6,632.4L262,631.5L260.2,630 L259.6,628.9L259.3,627.9L259.2,626.7L259.3,625.5L259.8,624.6L260.8,624L261.9,623.8L264.3,623.8L265.2,623.4L266.1,622.5 L267.1,620.8L265.9,621.3L265,622.2L263.9,622.7L262.6,622.3L262.4,622.7L261.9,623L261.6,623.4L259.9,623L258.1,623.9 L257.1,625.5L257.5,627.4L256.7,629.2L255.7,630.3L254.5,630.5L253,629.9L252.6,629.4L252.4,628.9L252.1,628.6L251.2,628.4 L250.9,628.9L251,629.8L251.5,630.8L252,631.4L247.7,631.2L239.5,628.4L239.1,628L238.8,627.2L238.5,626.8L236.2,624.7 L234.7,623.7L234.1,622.1L234,620.5L234.2,619.8L234.7,619.6L235.9,618.3L236.5,617.8L237,617.7L244.2,618L247,618.5 L248.5,619.3L249,619.3L249.7,618.3L250.9,615.7L251.5,614.8L252.4,614.4L253.6,614.4L254.7,614.8L255.5,615.3L255.7,615.8 L256.1,617.5L256.3,617.8L257.1,617.8L257.4,617.6L257.6,617.1L257.5,616.3L257,615.2L255.8,613.9L254.3,612.9L253,612.3 L251.6,612.3L250.9,613.1L250,615.3L249.2,616L248,616.6L246.7,616.9L245.5,616.8L244.1,616L243.5,615L243.5,613.7 L244.9,609.7L245,608.7L244.9,607.3L244.5,607.3L242.5,612.8L241.7,614.2L240.7,615.2L239.5,615.7L237.7,615.8L236.9,616 L235.2,617L233.3,617.7L232.9,617.5L231.9,616.8L230.8,615.8L229.6,614.4L228.7,612.9L228,610.8L227.3,609.8L226.7,608.5 L226.4,606.7L226.6,605.3L227,603.6L227.7,602.3L228.6,601.7L229.4,602L230.9,603.1L231.4,603.3L231.8,602.8L231.7,602.2 L231.4,601.4L231.4,600.7L233.8,598.7L239.8,596.5L241.5,593.7L239.9,594L237.4,596.2L234.5,597.1L229,600L227.9,600.8 L224.2,604.2L223.4,604.1L220.7,598.1L220.4,597.7L220.4,597.6L228.6,577.8L233.7,580.2L237.2,584.2L236.5,589.1L237.1,592.9 L238.6,594L239.9,593.5L244.1,589.8L243.7,587.4L244.5,585.6L249.2,585.9L251.4,585.5L254.2,585.7L257,587.7L258.3,588.2 L259.1,588.4L259.8,587.8L260.2,586.8L264.3,584.3L268.8,584.1L277.4,588.8L281.4,593.1L283.9,594.5L285.9,596L285.6,598.7 L284,601.3L284.4,602.1L285.2,602.8L285.6,603.7L285.3,604.5L285.4,605.7L286.6,606.1L287.9,606.1L295.1,604.5L298.9,601.8 L301.9,598.3L306,595.2L309,591.7L309.9,588.9L309.9,586.1L308.9,585.2L307.5,584.9L303.1,580.9L300.9,577.2L300,574.3 L299.8,571.8L297.4,567.7L297.7,565.1L298.7,563L300.4,561.4L302.9,561.7L304.8,563.6L306.2,566L308.3,566L311.4,562.2 L313.3,561L320.2,558.1L329.2,552.8L333.6,550.9L336.2,550.8L338.8,551.3L340.9,550.6L343.2,547.8L343.2,550.1L343.5,552.3 L345.6,559.5L346,563.5L347.3,567.1L347.6,570L347.9,571L348.9,572.8L349.2,573.8L349.4,574.8L349.1,578.1L348.9,579 L348.3,579.6L347.6,580L346.6,580.3L345.2,581.5L344.9,583.2L345.1,587L344.2,590.7L344.1,591.4L344.2,592.7L344.1,593.4 L343.8,594L340.9,597.9L339.5,600.4L338.7,602.3L338.3,604.3L338,607.4L336.1,615.9L334.6,619.2L334.4,620.7L334,622.8 L333.7,623.7L333.1,624.5L331.7,626.1L331.3,626.3L329.9,626.8L329.5,627.2L328.8,628L328.4,628.3L328.5,628.4L329.7,631.6 L329.9,633.2L328.7,633.9L319.2,635.3L318,635.7L316.6,636.7L316,637.4L315.4,638L315,638.8L314.9,639.7L314.9,640.7 L314.7,641.1L313.4,641.5L310.3,641.4L308.9,641.9L308.3,643.7L308.5,644.5L309.2,645.6L309.3,646.2L309,647L308.1,647.4 L306.3,648L305.7,648.4L305.3,648.9L304.8,649.3L303.8,649.5L303,649.4L302,649.1L301.2,649L300.5,649.2L298.4,652.1 L297.2,652.8L295.3,652.5L293.7,651.9L292.2,651L289.7,648.8L288.7,649.2L286.3,652.6L284.3,653.7L282.1,654.1L280.7,653.8 L279.3,654.3L278,654.9L276.6,655.3L274.1,657.1L271.4,658.5L270.3,658.5L269,658.6L267.2,658.4L265.8,657.3L262.1,655.3 L258.7,654.1 z" /> 
<path data-name="edo" data-id="22" id="22" d="M 343.1,545.7L343.2,546.8L343.2,547.8L340.9,550.6L338.8,551.3L336.2,550.8L333.6,550.9L329.2,552.8L320.2,558.1L313.3,561L311.4,562.2L308.3,566L306.2,566L304.8,563.6L302.9,561.7L300.4,561.4L298.7,563L297.7,565.1L297.4,567.7L299.8,571.8 L300,574.3L300.9,577.2L303.1,580.9L307.5,584.9L308.9,585.2L309.9,586.1L309.9,588.9L309,591.7L306,595.2L301.9,598.3 L298.9,601.8L295.1,604.5L287.9,606.1L286.6,606.1L285.4,605.7L285.3,604.5L285.6,603.7L285.2,602.8L284.4,602.1L284,601.3 L285.6,598.7L285.9,596L283.9,594.5L281.4,593.1L277.4,588.8L268.8,584.1L264.3,584.3L260.2,586.8L259.8,587.8L259.1,588.4 L258.3,588.2L257,587.7L254.2,585.7L251.4,585.5L249.2,585.9L244.5,585.6L243.7,587.4L244.1,589.8L239.9,593.5L238.6,594 L237.1,592.9L236.5,589.1L237.2,584.2L233.7,580.2L228.6,577.8L228.6,575.5L227.3,573.4L226.5,572.8L225.6,572.4L224.7,572.4 L224,572.1L223.8,571.1L222.3,569.3L220.5,567.8L219,566.9L218.6,566.2L218.8,565.7L219.2,565.2L219.7,564.2L220.1,562.1 L221.1,560.5L222.7,560L224.5,559L225.5,557.2L226.1,555L227.3,553.2L229,549.3L227.7,545.5L226.5,543.5L225.8,543.2 L225.5,542.6L225.5,540.3L225.7,539.3L226,536.9L226.8,535.3L229.1,532.5L231.7,530L232.7,528L233.9,526.4L233.9,524.6 L234.8,523.6L236,523.1L256.5,523.1L259.9,525.7L258.7,527.6L257.9,529.6L259.9,534.5L261.5,534.2L265.1,531.3L267.2,531.5 L268.1,532.3L270.5,532.8L271.7,532.4L272.5,531.9L273.6,530.1L273.9,529.1L274.8,524.5L275.5,522.6L277.1,522.2L277.1,521.1 L277.4,520.6L277.8,520.4L278.1,519.8L277.8,518.9L276.8,516.6L276.9,514.1L277.8,511.4L279.8,509.4L280.8,508.1L281.2,506.3 L284.6,498.7L284.4,497.9L284.5,497L286.1,495.2L287.9,493.6L289.1,492.8L290.1,491.8L290.8,489.4L290.5,487.7L290.1,486.7 L289.8,484.4L290.6,482.8L290.2,481.6L288,480.1L288.7,477.6L289.7,476.7L291.7,476.3L292.6,475.8L294.3,473.9L295.6,471.6 L296.9,472.3L298.4,472L299.6,472.8L299.3,474.2L301.7,475L302.2,476.7L301.4,479.9L303.3,482.4L306.6,482.3L310,480.9 L311.5,480L312.9,479.7L313.7,481L314.8,481.9L317.2,483.5L319.3,485.9L321,486L323.8,485.3L325.3,485.5L327.2,487.1 L328.8,491.2L329.8,492.5L330.1,493.9L331,495.3L334.7,494.6L337.7,493.4L339.7,493.2L340.8,494.1L341.6,495.1L341.8,496.4 L342.8,496.9L344.7,497.5L344.9,498.1L346,500.7L346.2,501.3L346.3,502.8L346,504.1L345.1,506.8L344.8,510.6L344.2,512.3 L344.1,513.1L344.1,516.3L344,517L342.1,521.1L341.3,523.9L341.2,525.2L341.6,529L341.3,538.4L341.6,541.5L343.1,545.7 z" /> 
<path data-name="enugu" data-id="23" id="23" d="M 397.1,505.8L400.7,506L403.2,508.2L403.9,511.2L406.7,517L408.7,519.5L411.2,521.8L413.9,523.8L416.7,525.2L419.7,524.8L421.9,523.2L424.5,522.5L427.5,524L429.4,526.9L430.2,530.4L430.2,534L427.7,540.8L422.8,541.3L420.3,541.1L418,542.6 L420.9,551.9L420.8,557.2L417.6,566.9L418.9,568.9L419,569.9L419.9,572.9L420,575.2L420.5,577.5L420.7,579.7L419.2,581.9 L417.4,583.8L417,587.5L417.8,591.3L415.8,592.4L413.2,589.9L411.6,588.9L409.7,587.9L406.1,589.1L401.3,585.5L397.7,585.6 L394.3,586.2L394.1,585.9L393.6,585.6L392.9,585.4L392.5,584.6L391.2,583.9L390.4,583.8L388.5,584.3L386.4,584L384.8,582.2 L384,579.9L382.8,577.9L381.9,575.8L382.3,573.2L380.6,571.9L380.3,570.2L379.1,569.4L378,570.2L376.9,570.5L376.3,569.6 L376.5,568.6L376.7,567.3L376.7,566L377.2,565.7L377.6,565.1L377.5,564.4L377,563.7L374.7,558.4L373.2,556.3L372.1,555.7 L369.6,555.3L368.5,554.8L367.9,552.9L369.9,547.4L374,543L374.3,538.1L372,537.1L369.7,536.6L365.5,534.8L361.5,535 L360.6,534.5L360.7,532.2L360,530.1L362,526.2L364.4,524.7L364.6,525.3L364.6,525.9L365,527L365.5,527.4L366.6,529.1 L368.5,530L371.7,527.5L374.5,524.1L380.6,519.9L384.3,516.5L388.5,511L389.8,509.8L392.1,509L394.5,507.2L397.1,505.8 z" /> 
<path data-name="ebonyi" data-id="24" id="24" d="M 420.3,541.1L422.8,541.3L427.7,540.8L430.1,545.9L435.1,549L438.3,544.6L439.1,538.4L440.2,536L443.3,535.6L446.2,535.6L449,534.9L451.8,531.3L453.5,530.9L455.2,531L456,529.8L456.3,529L457.7,529.1L458.5,530.3L459.1,533.2L460,535.6 L461.7,537.5L462.8,541.5L465.6,544.7L466.5,545.5L467.6,546.1L468.1,546.8L468.4,547.7L469.6,549.1L470,551.4L470.7,553.4 L472.3,555.3L472.5,557.6L468,560.2L467.4,562.6L468.8,564.8L468.2,569.8L464,574L462.4,576.1L461,578.3L459.6,583.8 L458.4,585.8L456.3,584.8L454.3,584.8L453.4,586.4L452.2,587.8L448.8,589.4L447.5,590.7L445.6,590.8L444.1,587.5L441.4,586.7 L438.4,587.6L437.6,589.5L438.8,591.8L437.9,595L435.3,599L434.3,600L434.2,601.7L434.4,603.4L433.5,604.9L432.3,606.2 L431.6,608L431.3,609.8L428.6,608.8L426.2,607L425.1,604.7L424.5,602.2L420.6,600.4L409.9,600.2L405.5,598.1L406.2,593.4 L406.1,589.1L409.7,587.9L411.6,588.9L413.2,589.9L415.8,592.4L417.8,591.3L417,587.5L417.4,583.8L419.2,581.9L420.7,579.7 L420.5,577.5L420,575.2L419.9,572.9L419,569.9L418.9,568.9L417.6,566.9L420.8,557.2L420.9,551.9L418,542.6L420.3,541.1 z" /> 
<path data-name="kaduna" data-id="25" id="25" d="M 398.8,344.4L396.7,344.3L389.7,345.1L388,344.7L386.1,345.3L385.7,344.1L386.5,341.9L386.6,340.8L385.4,339.2L384.4,338.6L382.9,336.4L383.6,333.6L387.6,330.8L388,329.4L388.2,327.9L389,326.7L390.1,325.7L391.7,323.9L391.3,321.6L389,320.5 L388,318.6L388.6,316.6L387,315.3L384.4,314.5L382.9,312.5L384.5,311.3L386.8,311.1L388.7,309.6L388.8,306.9L387.4,295.2 L383.9,292.7L373,292.9L367.5,292.3L362.3,290.1L359,285.8L360.8,283.8L363.2,282.3L365.1,279.9L367.5,278L369.9,276.4 L371.7,274.1L371.9,271.6L369.7,270.1L364.4,268.2L362.9,266.6L363.8,264L363.7,258.1L359.7,254.8L357.1,255.5L355.9,255.2 L355.4,249.2L354.8,247.8L352.5,246.9L349.9,246.7L347.5,247.8L347.8,250.6L346.2,251.8L343.4,251.3L340.6,251.9L335.3,254.3 L332.9,253.9L332,251.6L330.1,250.3L324.9,251.4L316.1,258.1L312.3,262.2L310.7,264.6L308.8,266.7L306.3,267L305,264.6 L303.2,262.3L300.8,260.6L300.4,258.1L300.7,256.7L301.1,255.8L301.2,254.8L301.3,252.8L301.4,251.9L302.5,249.5L302.8,247.8 L302.9,246.9L302.8,246.1L301.5,242.4L301.4,240.5L301.9,234.4L302.5,232.5L304,230.9L305.4,230.2L308.8,229.1L309.9,228.1 L310.2,227.2L310.2,226.2L310.3,225.3L310.9,224.3L311.6,223.8L313.4,223.2L314.1,222.7L315,221.6L316.3,218.8L317.2,217.8 L318.7,217.2L320.2,217.4L325,219.1L326.7,219.5L328.3,219.5L333.2,218.1L333.9,218L335.2,218.1L335.8,218L336.4,217.7 L342.6,215.3L343.9,214.6L345,213.6L346,212.3L346.7,210.8L348.1,204.1L348.9,202L350.4,200.1L355.6,196.9L357.1,195.5 L358.2,193.3L361.6,194.9L363.4,195.4L367.3,195.4L368.9,196.6L369.7,198.3L369.5,199.7L368.3,200.6L366.3,202.7L366.4,204.8 L371.8,206.2L374.4,207.7L378.2,211.6L380.6,211.9L383,210.7L384.8,208.7L384.7,206.6L383.5,204.7L384.7,200.8L390.3,200.9 L392.9,201.8L394.9,200.7L395.3,198.1L396.6,195.7L401.2,193.1L406.5,194.1L409.3,195.4L411.9,197.2L413.3,199.1L415.4,200 L421.4,197.6L423.9,193.8L428.9,193.4L437.6,187L447.9,183.8L450.5,185L450.4,187.8L449,190.2L448.7,192.8L450.2,195.2 L452.5,196.8L457.7,198.6L460.1,200.4L461.9,202.8L467,204.8L472.6,206.2L480.1,214.1L481.5,224.3L480.1,230L481.3,238.7 L480.2,241.5L477.1,242.3L475.6,244.3L479.6,247.6L485.5,248.3L488.7,252.1L490.1,252.8L493.2,253.6L494.7,253.2L493.9,258.1 L491.4,262.4L492.4,264.4L494.6,265.5L496.4,267.1L497.9,268.9L497.2,271L496.9,273.5L495.1,275.8L492.4,277L488.7,281.1 L487.4,286.6L489.3,292.1L486.4,301.8L486.4,307.4L486,310.2L486.7,312.7L483.6,316.9L483.6,318.1L483.4,319.4L481.3,320.9 L481.4,331.4L484.3,335.7L487.8,339.3L490.6,343.2L490.3,347.7L488.7,351.9L486,355L484.1,359.4L481.8,363.5L478.7,366.6 L475.8,367L474,365.2L473,363.6L471.6,362.2L468.6,358.4L462,356.6L459.6,355.7L457.7,357.5L453.5,363.4L447.6,366.6 L445.7,359.5L445,350.9L442.1,349.2L439.7,347.3L439.8,345.4L439.1,343.7L436.7,341.5L432.2,342.2L429.4,347.4L426.8,348.5 L424.3,347.5L423.1,347.4L420.1,345.8L417.7,346L416,345.1L414.9,343.2L412.8,344.1L410.5,344.6L409.2,342.1L406.6,341.1 L404.2,344.3L402.6,345.5L400.8,344.7L398.8,344.4 z" /> 
<path data-name="kogi" data-id="26" id="26" d="M 413.6,438.1L414.9,438.2L415.8,438.4L415.4,442.6L415.6,446.5L416.5,450.2L418.7,453.4L420.8,455.6L422.3,458.2L422.6,460.9L422.4,469.3L423.6,478.1L424.4,481L426.8,482.2L429.6,481.9L431.4,483.2L430,485.7L429.1,487.9L428.9,490.2L427.6,496.1 L424.6,501.1L414.8,506.4L413.6,509.3L413.4,512.6L411.5,513.2L409.1,512.2L406,509.6L403.2,508.2L400.7,506L397.1,505.8 L394.5,507.2L392.1,509L389.8,509.8L388.5,511L384.3,516.5L380.6,519.9L374.5,524.1L371.7,527.5L368.5,530L366.6,529.1 L365.5,527.4L365,527L364.6,525.9L364.6,525.3L364.4,524.7L362,526.2L360,530.1L355,534.8L353.3,538.3L351.7,545.5 L349.3,547.9L347.4,548.2L345.5,547.8L343.8,547.7L343.2,547.8L343.2,546.8L343.1,545.7L341.6,541.5L341.3,538.4L341.6,529 L341.2,525.2L341.3,523.9L342.1,521.1L344,517L344.1,516.3L344.1,513.1L344.2,512.3L344.8,510.6L345.1,506.8L346,504.1 L346.3,502.8L346.2,501.3L346,500.7L344.9,498.1L344.7,497.5L342.8,496.9L341.8,496.4L341.6,495.1L340.8,494.1L339.7,493.2 L337.7,493.4L334.7,494.6L331,495.3L330.1,493.9L329.8,492.5L328.8,491.2L327.2,487.1L325.3,485.5L323.8,485.3L321,486 L319.3,485.9L317.2,483.5L314.8,481.9L313.7,481L312.9,479.7L311.5,480L310,480.9L306.6,482.3L303.3,482.4L301.4,479.9 L302.2,476.7L301.7,475L299.3,474.2L299.6,472.8L298.4,472L296.9,472.3L295.6,471.6L291,466.7L287.4,461L287.8,458.1 L285.6,457.2L279.7,458.2L276.4,457.2L270.6,454.4L269.4,453.4L268.4,453.4L266,451.3L264.9,448.1L265.5,445L267.6,442.4 L269.2,441.4L269.3,439.8L268.2,439L266.9,438.8L264.2,439.1L261.5,439.7L259.5,440.9L258.1,440.3L258,437.2L259.5,435.2 L259,430.8L254,427.8L251.1,425.1L250.3,423.7L249.1,422.6L248,421.3L245.8,417.2L246.3,414.8L254.7,404.3L258,401.4 L260.9,402.5L264.6,406.1L272,408.9L279.2,410.6L289.4,411.1L297.5,412.9L299.9,412.4L301.4,410.6L302.1,408.5L303.3,400.9 L306.3,390.7L309.4,386.7L312.6,386.1L313.9,386.2L314.4,386.7L317.1,388.5L318.6,388.8L319.8,389.4L320.7,390.3L322.5,393.4 L322.6,394.7L322.7,395.3L323.9,397.6L324,398.2L324.5,398.3L324.7,398.9L325.1,401.7L326,405.2L327.7,408.6L328.3,408.9 L335.5,414.4L336.4,415.3L339.2,419.9L342,422.8L342.9,423.3L343,423.7L344.1,424.6L344.3,425.1L345.5,423.8L346,421.9 L346.8,420.1L347.8,419.3L348.8,419.9L349.1,418.7L349,417.1L350.2,415.9L351.7,415.4L353.8,413.4L354.8,410.5L359.3,410.3 L362,410.6L364.7,410.2L365.3,410.1L364.7,412.6L362.9,417.3L366.4,423.6L366.7,428.4L365.6,439.1L364.7,441.5L363.4,443.5 L362.5,446.5L362.4,449.5L363,449.7L364.8,449L367.3,447.4L368.7,446.1L369.2,445.9L369.3,445.5L373.1,443.2L387.9,438.2 L390.4,438L403.3,439.1L413.6,438.1 z" /> 
<path data-name="plateau" data-id="27" id="27" d="M 613.7,322L625.9,329.6L628.2,330.5L629.8,334L630.3,337.9L629.7,342.6L630.5,348.1L631.2,350.2L632.4,352.2L634.5,359.2L634.5,361.4L634,363.6L634.9,368.2L635,371L632.5,375.7L620.9,381.4L603.9,385.5L600.3,389.7L598.6,392.3L594.8,396.9 L592.8,398.7L587.5,401.6L582.7,405L578.4,409.3L573.7,412.9L568.4,414.4L562.8,414.8L558.9,414.5L556.2,410.7L552.2,408.2 L543.6,404.6L539,404.5L534.4,405.9L527.6,407L520.7,407L516.2,405.8L510.1,402.6L508.5,399.5L509,396L508.4,392.9 L506.7,390.5L505.2,386.9L506.5,383.8L508.3,381.6L510.1,379L512.8,378.2L514.5,376.5L517.6,372.3L518.7,369.8L519.1,367.7 L517.7,366L515.7,364.7L513.4,365.3L512.3,365.8L511,366L506,366.1L501.2,365.2L497.7,361.6L496.6,356.6L493,354 L488.7,351.9L490.3,347.7L490.6,343.2L487.8,339.3L484.3,335.7L481.4,331.4L481.3,320.9L483.4,319.4L483.6,318.1L483.6,316.9 L486.7,312.7L486,310.2L486.4,307.4L486.4,301.8L489.3,292.1L487.4,286.6L488.7,281.1L492.4,277L495.1,275.8L496.9,273.5 L497.2,271L497.9,268.9L502.1,268.2L506.4,269.3L509.1,272.5L510.5,276.5L510.9,280.1L510.8,291.8L513.5,293.6L522,292.2 L526.7,293.8L528.3,298.9L528.6,304.9L528,307.1L526.7,309L525.8,311.2L525.4,313.4L527.2,315.2L529.8,316L533.1,319.8 L535.6,324.2L540.2,325.7L550.6,327.5L562.2,327L565,326.4L567.7,325.3L569.8,320.8L571.7,319.2L576.5,317.4L577.2,315 L576.2,312.4L573.4,308.4L574.3,306.7L575.4,306L577.7,305.5L613.7,322 z" /> 
<path data-name="nassarawa" data-id="28" id="28" d="M 552.2,408.2L556.2,410.7L558.9,414.5L556.9,417.7L553.9,419.6L551.8,419.7L549.7,419.4L547.5,418.8L545.4,418.4L543.7,417.5L540.1,416.3L538.3,417L537.1,418.7L536.3,420.6L536,422.8L539.9,427.7L540.1,431.5L540,432.8L540.6,434.1L540.8,436.1 L539.3,437.4L528.7,444.4L526.1,446.6L512.1,436.2L512.1,436.6L509.5,436.9L501.4,436.6L496.1,435.4L481.3,430.5L471.6,431.6 L467.5,435.1L466.3,440.2L468,445.5L471.5,453L471.9,455.6L471,456.8L470.5,456.7L469.6,456.4L468.7,456L466.9,454.6 L463.5,452.7L461.8,450.9L459.7,450.3L457.3,450.1L455,449.4L451.1,447.3L449.1,446.6L442.9,445.6L441.7,445.1L438,442.9 L435.5,442.2L430.3,441.6L427.7,441L424.2,439.9L419.5,439.3L415.8,438.4L414.9,438.2L413.6,438.1L403.3,439.1L390.4,438 L387.9,438.2L373.1,443.2L369.3,445.5L369.2,445.9L368.7,446.1L367.3,447.4L364.8,449L363,449.7L362.4,449.5L362.5,446.5 L363.4,443.5L364.7,441.5L365.6,439.1L366.7,428.4L366.4,423.6L362.9,417.3L364.7,412.6L365.3,410.1L375.9,408.5L386.3,405.7 L395.7,401.1L398.9,397.5L401.5,393.4L404.7,384.6L408.1,369.8L407.8,362.6L408,358.1L409.7,350.2L411,347.8L411.9,347.6 L412.8,347L413,345.6L412.8,344.1L414.9,343.2L416,345.1L417.7,346L420.1,345.8L421.9,347.3L423.1,347.4L426.8,348.5 L429.4,347.4L432.2,342.2L436.7,341.5L439.1,343.7L439.8,345.4L439.7,347.3L442.1,349.2L445,350.9L445.7,359.5L447.6,366.6 L453.5,363.4L457.7,357.5L459.6,355.7L462,356.6L468.6,358.4L471.6,362.2L473,363.6L474,365.2L475.8,367L478.7,366.6 L481.8,363.5L484.1,359.4L486,355L488.7,351.9L493,354L496.6,356.6L497.7,361.6L501.2,365.2L506,366.1L511,366 L512.3,365.8L513.4,365.3L515.7,364.7L517.7,366L519.1,367.7L518.7,369.8L517.6,372.3L514.5,376.5L512.8,378.2L510.1,379 L508.3,381.6L506.5,383.8L505.2,386.9L506.7,390.5L508.4,392.9L509,396L508.5,399.5L510.1,402.6L516.2,405.8L520.7,407 L527.6,407L534.4,405.9L539,404.5L543.6,404.6L552.2,408.2 z" /> 
<path data-name="jigawa" data-id="29" id="29" d="M 511.6,86.7L512,85.5L512.1,84.9L533.4,87.3L536.1,87.3L540.1,86.2L541.4,86.2L557,87.9L558.5,87.8L559,87.6L559.8,87.1L560.7,86.4L561.2,85.8L563.2,86.4L570.2,88.6L576.6,85.9L577.7,84L578.6,82.1L579.9,81.1L585,79.1 L588.6,78.1L595.5,75.4L598.8,74.6L601.8,75.5L603.7,78.3L605.6,85.7L606.4,87.5L609.5,88L614.4,86.6L616.8,86.8 L619.4,88L622.1,88.6L624.6,88.5L626.7,90L628.9,94.8L630.2,105.1L631.8,109.9L622.1,116.2L618.2,115.3L616,113.8 L610.4,114.8L608.2,115.6L606.5,117.2L605.5,120.4L604.8,123.6L599.5,138.2L599,140.6L599.7,143.6L598.4,146.1L576.1,154.5 L573.7,156L571.2,157.2L565,157.7L561.1,161.2L559.6,166.6L562.7,168.7L567.2,167.4L569.8,167.1L572.3,167.7L573.5,170.2 L574.6,175.4L574.6,177.9L572.2,182.4L571.9,184.8L573.4,186.8L575.8,186.8L577,186.4L580.1,191.7L587.1,200.9L592.5,203 L604.2,205.1L610.4,205.4L615.7,207.1L615.4,209.5L613.6,211.5L611.1,213.1L603,216.2L601.4,221.1L602.3,223.8L600.3,225 L597.4,224L594.9,222.7L583.3,223.6L579.1,221.8L577.4,217.8L578,213.1L578,208.3L576.4,203.9L573.2,201L568.9,202 L559.5,202.7L555.8,201.4L552.9,197.8L548.3,198.5L543.6,198.2L539.1,196.3L534.7,195.1L530.2,195L530.4,194.1L530.3,192.1 L530.4,191.1L531.1,188.9L532.3,186.9L538.8,181.1L539.4,179.4L537.8,178.4L536.8,178.1L535.1,177.1L533.1,175L532,173.4 L530.4,169.2L529.6,168.7L527.5,168.4L524.4,168.7L523.2,167.6L524.2,163.2L526.9,159.3L527.5,157.6L527.9,155.8L528.7,153.5 L528.9,151L527.8,146.7L527,144.5L523.6,144.2L521,145.9L516.4,145.9L516.3,144L515.8,142.2L515.3,142L512.2,142.4 L510.5,143.1L509.8,142.8L509,142.2L508.1,140.7L508.7,139.5L509.4,138.5L509.8,137.3L509.7,130.5L506.7,126.7L502,126.2 L497.9,124.9L497.3,122.6L497.4,120.1L496.5,118.1L494.7,116.8L492.7,115.8L491,114.5L490.3,111.9L490.4,109.1L490.1,107.2 L488.3,106.5L483.6,105.2L479.2,104.6L474.9,105.4L471.2,107.3L469,110.5L467.7,114.2L466.9,115.6L465.6,114.8L465.2,113.8 L465.3,112.7L464.8,111.4L461.1,105L460.2,102.8L458.6,101.1L452.8,101L448.9,98.6L448.7,93.9L449.4,89L450.4,87.1 L458.2,85.9L463.5,85.8L468.3,86.4L479.6,85.9L481,87.2L482.3,91L484.3,94.3L486,95.3L487.8,96.1L489.5,96 L491.8,94.7L492.7,95.8L493.7,96.8L496.7,97L500.6,96.1L504.1,94.3L507.4,91.7L508.2,90.5L508.8,89L509.4,88 L510.3,87.2L511.6,86.7 z" /> 
<path data-name="kano" data-id="30" id="30" d="M 437.6,187L428.9,193.4L423.9,193.8L418.8,189.6L417.7,185.9L418.2,182.3L419.4,178.8L421.7,176.1L425.1,175.2L429.2,173.2L432.5,172.4L432.2,169.5L430.5,164.9L429.7,164L429.5,162.9L429.9,161.5L430,160.1L429.6,157.8L428.1,153.1L428.5,137.7 L427.8,130.5L428.7,127.2L434.3,123.4L447.2,118.7L449.9,116.2L452.3,109.1L454.1,106L457.4,105L461.1,105L464.8,111.4 L465.3,112.7L465.2,113.8L465.6,114.8L466.9,115.6L467.7,114.2L469,110.5L471.2,107.3L474.9,105.4L479.2,104.6L483.6,105.2 L488.3,106.5L490.1,107.2L490.4,109.1L490.3,111.9L491,114.5L492.7,115.8L494.7,116.8L496.5,118.1L497.4,120.1L497.3,122.6 L497.9,124.9L502,126.2L506.7,126.7L509.7,130.5L509.8,137.3L509.4,138.5L508.7,139.5L508.1,140.7L509,142.2L509.8,142.8 L510.5,143.1L512.2,142.4L515.3,142L515.8,142.2L516.3,144L516.4,145.9L521,145.9L523.6,144.2L527,144.5L527.8,146.7 L528.9,151L528.7,153.5L527.9,155.8L527.5,157.6L526.9,159.3L524.2,163.2L523.2,167.6L524.4,168.7L527.5,168.4L529.6,168.7 L530.4,169.2L532,173.4L533.1,175L535.1,177.1L536.8,178.1L537.8,178.4L539.4,179.4L538.8,181.1L532.3,186.9L531.1,188.9 L530.4,191.1L530.3,192.1L530.4,194.1L530.2,195L524.6,197.3L523.3,197.5L522,196.9L520.9,196.2L516,198.4L508.5,206.1 L505.6,210.4L503.7,212.5L501,213.7L496.6,213.9L494.4,218.6L494,224.1L494.2,230.2L496.3,235.8L499.6,239.8L500.1,244.8 L498.1,249.6L494.7,253.2L493.2,253.6L490.1,252.8L488.7,252.1L485.5,248.3L479.6,247.6L475.6,244.3L477.1,242.3L480.2,241.5 L481.3,238.7L480.1,230L481.5,224.3L480.1,214.1L472.6,206.2L467,204.8L461.9,202.8L460.1,200.4L457.7,198.6L452.5,196.8 L450.2,195.2L448.7,192.8L449,190.2L450.4,187.8L450.5,185L447.9,183.8L437.6,187 z" /> 
<path data-name="katsina" data-id="31" id="31" d="M 372.6,111.7L370.3,81.4L371.5,73.7L371.9,73.7L373.5,72.9L377,69.9L381.4,64.8L383.1,64.5L390.7,65.8L393.3,65.8L395.7,65.1L422.3,49.4L424.8,48.3L427.4,48L446,50.6L448,51.4L448.8,52L450.5,53.6L452.6,54.9L455,56.8 L456.1,57.3L458.3,57.8L459.3,58.3L460.3,59.1L462.1,61.3L469.5,67.8L470,68.2L470.7,68.5L471,68.5L471.3,68.3 L472.2,67.9L473,67.6L474.8,67.4L475.7,67.4L477.7,67.8L479.4,68.6L482.6,71L484.1,72.5L486.2,76L487.4,77.5 L490.1,79L509.5,84.6L512.1,84.9L512,85.5L511.6,86.7L510.3,87.2L509.4,88L508.8,89L508.2,90.5L507.4,91.7 L504.1,94.3L500.6,96.1L496.7,97L493.7,96.8L492.7,95.8L491.8,94.7L489.5,96L487.8,96.1L486,95.3L484.3,94.3 L482.3,91L481,87.2L479.6,85.9L468.3,86.4L463.5,85.8L458.2,85.9L450.4,87.1L449.4,89L448.7,93.9L448.9,98.6 L452.8,101L458.6,101.1L460.2,102.8L461.1,105L457.4,105L454.1,106L452.3,109.1L449.9,116.2L447.2,118.7L434.3,123.4 L428.7,127.2L427.8,130.5L428.5,137.7L428.1,153.1L429.6,157.8L430,160.1L429.9,161.5L429.5,162.9L429.7,164L430.5,164.9 L432.2,169.5L432.5,172.4L429.2,173.2L425.1,175.2L421.7,176.1L419.4,178.8L418.2,182.3L417.7,185.9L418.8,189.6L423.9,193.8 L421.4,197.6L415.4,200L413.3,199.1L411.9,197.2L409.3,195.4L406.5,194.1L401.2,193.1L396.6,195.7L395.3,198.1L394.9,200.7 L392.9,201.8L390.3,200.9L384.7,200.8L383.5,204.7L384.7,206.6L384.8,208.7L383,210.7L380.6,211.9L378.2,211.6L374.4,207.7 L371.8,206.2L366.4,204.8L366.3,202.7L368.3,200.6L369.5,199.7L369.7,198.3L368.9,196.6L367.3,195.4L363.4,195.4L361.6,194.9 L358.2,193.3L359.4,190L360.1,186.6L359.8,184L360.3,181.6L357.8,177.1L360.6,163.9L364.8,162L370.3,162L370.7,162.1 L371.4,162.8L371.8,163L373,162.4L376.1,160L377.8,158.3L378.2,155.9L379.5,154.7L381.9,155.3L384,154.5L383.2,150.1 L379.2,146.9L376.7,145.7L375.2,143.9L376.4,141.6L378,137.4L378.5,135.5L378.1,133.2L377.4,131.1L376.9,127.3L375.9,123.7 L373.8,119.8L374.2,115.4L372.6,111.7 z" /> 
<path data-name="sokoto" data-id="32" id="32" d="M 161.8,57.6L156.2,57.8L155.6,57.9L155.8,56.2L156,38.7L160.7,38.5L162.9,38.1L165,37.1L176.5,26.3L179.9,23.9L183.9,22.4L207.3,16.8L209.6,16.6L211.3,17.3L212.9,18.8L214.6,19.6L218.9,19.8L226.3,18.5L236.8,19L239.3,18.5 L240.2,18.2L242.4,16.6L243.4,15.4L244.7,12.7L245.5,11.6L247.6,10.6L258.4,8.8L260.8,9.3L302.3,25.4L303,25.7 L303.5,26.1L303.9,26.4L304.7,26.1L308.9,23.8L310.4,23.5L315.7,24.7L320.6,27.4L330.9,37L342.9,49.8L348.8,60.6 L345.2,63.4L339.5,66.6L332.3,66.6L325.2,64.9L323.9,63.8L322.8,62.4L321.5,62L320.1,61.6L318.5,61.4L315.1,61.4 L314,62.3L313.7,64.2L313.6,66.1L312.8,69.1L310.9,69.6L308.1,68.5L302.7,69.2L298.1,71.7L297.3,73.8L298.6,86.4 L296.4,90.3L293.7,91.5L291,92.2L274.5,93.8L270.8,96.7L268,101L264.2,105.8L260.7,108.1L260.3,112.9L261.7,118.3 L262,124L258.4,127.8L235.9,128.8L225.2,127L222.4,135.8L221.9,170.2L220.4,171.1L218.8,171.3L218.1,170.1L216.9,169.4 L216.1,169.7L215.2,170L214.1,169.3L212.5,169L211,169.4L197,175.6L194.5,178.7L191.3,180.7L188,179.6L185.6,176.9 L186.2,169.9L189.5,163L191.9,151.6L191.5,123.4L194.1,118.8L199.3,117.5L204.4,119.1L207.6,117.5L207.9,111.9L205.7,100.1 L206,97.4L206.8,94.6L207.4,89.3L205.7,84.8L203.3,80.6L203.7,77.7L204.5,74.9L205,73.9L205.3,72.7L205.2,71.4 L205.5,70L206.6,67.8L206.8,65.6L205.5,64L203.6,64.6L202.3,66.4L201.1,68.3L198.9,69.6L196.1,69.4L193.4,68.2 L191,66.5L188.5,65.6L185.8,65L180.8,63.1L176.3,60.5L174,58.4L171.8,56.6L169.1,57.2L166.6,58.4L161.8,57.6 z" /> 
<path data-name="zamfara" data-id="33" id="33" d="M 339.5,66.6L345.2,63.4L348.8,60.6L350.6,63.8L355,68.7L357.7,71.1L360,72.9L362.3,73.7L364.7,74L370.2,73.9L371.5,73.7L370.3,81.4L372.6,111.7L374.2,115.4L373.8,119.8L375.9,123.7L376.9,127.3L377.4,131.1L378.1,133.2L378.5,135.5 L378,137.4L376.4,141.6L375.2,143.9L376.7,145.7L379.2,146.9L383.2,150.1L384,154.5L381.9,155.3L379.5,154.7L378.2,155.9 L377.8,158.3L376.1,160L373,162.4L371.8,163L371.4,162.8L370.7,162.1L370.3,162L364.8,162L360.6,163.9L357.8,177.1 L360.3,181.6L359.8,184L360.1,186.6L359.4,190L358.2,193.3L357.1,195.5L355.6,196.9L350.4,200.1L348.9,202L348.1,204.1 L346.7,210.8L346,212.3L345,213.6L343.9,214.6L342.6,215.3L336.4,217.7L335.8,218L335.2,218.1L333.9,218L333.2,218.1 L328.3,219.5L326.7,219.5L325,219.1L320.2,217.4L318.7,217.2L317.2,217.8L316.3,218.8L315,221.6L314.1,222.7L313.4,223.2 L311.6,223.8L310.9,224.3L310.3,225.3L310.2,226.2L310.2,227.2L309.9,228.1L308.8,229.1L305.4,230.2L304.3,225.3L298.7,216 L295.5,212L294.9,200.8L289.3,192L286.4,190.8L285,188.6L286.8,183.1L287.2,178.1L283.7,174.8L280.9,173.8L275.5,172.9 L274.3,173.2L273.1,173.9L262,174.6L257.6,173.7L251.3,171L250.2,168.9L248.4,167.4L244.3,168.1L242.5,167.9L241,167.2 L239.3,167.3L238.1,168.6L237.5,170.3L236.2,171L234.5,171.2L230.6,172.1L229.1,171.8L227.9,170.8L224.9,169.7L221.9,170.2 L222.4,135.8L225.2,127L235.9,128.8L258.4,127.8L262,124L261.7,118.3L260.3,112.9L260.7,108.1L264.2,105.8L268,101 L270.8,96.7L274.5,93.8L291,92.2L293.7,91.5L296.4,90.3L298.6,86.4L297.3,73.8L298.1,71.7L302.7,69.2L308.1,68.5 L310.9,69.6L312.8,69.1L313.6,66.1L313.7,64.2L314,62.3L315.1,61.4L318.5,61.4L320.1,61.6L321.5,62L322.8,62.4 L323.9,63.8L325.2,64.9L332.3,66.6L339.5,66.6 z" /> 
<path data-name="yobe" data-id="34" id="34" d="M 570.2,88.6L563.2,86.4L561.2,85.8L573.8,71.2L576.2,68.9L577.6,68.1L578.4,67.8L578.8,67.8L579.7,67.2L580,66.5L580.3,64.7L580.6,63.9L581.9,62.7L595.8,55L598.9,53.8L636.6,45.8L643.6,45.3L657,46.8L692.7,46.6L714.9,52.1 L723,55.4L733.2,61.5L736.6,64.1L738,64.8L742.4,65.8L744.8,65.6L745.8,65.5L747.4,64.4L748.6,64.2L752.3,65.4 L753.1,65.9L753.4,66.4L753.4,66.8L753.6,67.1L754.1,67.2L754.4,67L754.7,66.6L755.2,66.3L755.9,66.2L756.6,66.6 L757.2,67.2L757.7,67.6L758.4,67.2L759.6,67.5L762.2,67.6L762.2,67.8L760.5,81.8L761.8,86.5L765,90L769,92.9 L769.6,97.4L767.8,101.9L764.6,106.3L756.5,113.8L758,124.8L754.6,149.4L756.3,156.8L755.9,160L751.6,168.6L751.1,171.5 L753.1,172.1L755.5,171.7L758.5,172.7L760.7,175.1L762,177.7L762.3,180.4L754.9,189.4L751.9,194.8L749.9,196.9L748.3,199.3 L747.9,205.5L748.3,211.7L746.1,216.7L741.5,220.1L724.2,226.1L720,230.6L719,236.5L719.5,242.6L718.7,245.2L717,247.4 L714.8,249.2L711.9,249.9L709.1,250.2L704,249.7L703.3,247.5L702.8,242.3L703.8,225.4L703.3,222.9L701.7,221L694.1,213.3 L690.5,208.6L686.4,204.3L681.8,200.7L671.7,195.9L661.5,198.5L657.9,198L656,195.5L658.6,184.2L658.1,177.9L649.3,156.5 L647.1,144.8L647,139.7L646.6,136.5L645.1,133.7L643.6,131.4L643.2,128.8L643.1,125.8L642,120L641,117.3L636.8,113.3 L631.8,109.9L630.2,105.1L628.9,94.8L626.7,90L624.6,88.5L622.1,88.6L619.4,88L616.8,86.8L614.4,86.6L609.5,88 L606.4,87.5L605.6,85.7L603.7,78.3L601.8,75.5L598.8,74.6L595.5,75.4L588.6,78.1L585,79.1L579.9,81.1L578.6,82.1 L577.7,84L576.6,85.9L570.2,88.6 z" /> 
<path data-name="kebbi" data-id="35" id="35" d="M 132.4,211.5L125.7,210.8L125.2,211.3L125,211.3L124.3,211.4L123.7,211.3L122,209.6L108.8,191.4L107.7,189.4L107.6,187.7L109.1,183.7L109.5,182.6L110.4,179.3L115.5,170.8L117.1,169.1L120.9,166.9L121.8,166L122.3,164.4L121.9,162.9L121,161.6 L119.3,159.8L119,159.6L118.3,158.6L118.1,157.9L117.7,153.7L118,152.5L118.8,151.4L120.1,150.2L121.3,147.7L121,145.2 L119.1,139.8L119.2,136.7L121.1,127L120.4,108.7L120.7,108L136.8,96.2L141.5,91.7L153.2,73.6L155.6,57.9L156.2,57.8 L161.8,57.6L166.6,58.4L169.1,57.2L171.8,56.6L174,58.4L176.3,60.5L180.8,63.1L185.8,65L188.5,65.6L191,66.5 L193.4,68.2L196.1,69.4L198.9,69.6L201.1,68.3L202.3,66.4L203.6,64.6L205.5,64L206.8,65.6L206.6,67.8L205.5,70 L205.2,71.4L205.3,72.7L205,73.9L204.5,74.9L203.7,77.7L203.3,80.6L205.7,84.8L207.4,89.3L206.8,94.6L206,97.4 L205.7,100.1L207.9,111.9L207.6,117.5L204.4,119.1L199.3,117.5L194.1,118.8L191.5,123.4L191.9,151.6L189.5,163L186.2,169.9 L185.6,176.9L188,179.6L191.3,180.7L194.5,178.7L197,175.6L211,169.4L212.5,169L214.1,169.3L215.2,170L216.1,169.7 L216.9,169.4L218.1,170.1L218.8,171.3L220.4,171.1L221.9,170.2L224.9,169.7L227.9,170.8L229.1,171.8L230.6,172.1L234.5,171.2 L236.2,171L237.5,170.3L238.1,168.6L239.3,167.3L241,167.2L242.5,167.9L244.3,168.1L248.4,167.4L250.2,168.9L251.3,171 L257.6,173.7L262,174.6L273.1,173.9L274.3,173.2L275.5,172.9L280.9,173.8L283.7,174.8L287.2,178.1L286.8,183.1L285,188.6 L286.4,190.8L289.3,192L294.9,200.8L295.5,212L293.3,210.6L290.7,210.7L289.6,211.5L287.8,213.6L287,214.8L285.1,216.2 L282.6,216.4L280,217.1L267.3,222.4L262.5,223.3L255.1,223.3L253.2,222.6L252.2,220L252.1,217.2L252.5,211.5L251.4,209.1 L249,207.6L246.4,202.9L245.4,197.5L241.1,194.9L235.7,194.7L214,199L204,203.5L202.8,208.1L207.4,211.6L212.7,213.8 L218.3,214.7L219.6,214.7L220.6,215.2L221.2,216.5L222.1,217.1L224.1,217.7L225,219.8L225.7,222.8L225.9,225.7L222.4,230.2 L225.4,233.9L227,238.7L225,240.2L219.8,241.7L214.9,244L209.8,243.3L207.5,244.1L206.2,249L206.6,254.5L206.3,257.1 L206.7,259.5L210.2,264L212.4,269L210.6,273.8L208.5,275.3L206,276.1L197.4,277.9L194.9,278.8L194.1,281.3L194.1,284.3 L193.1,286.2L188.1,286L186.4,284.4L187.5,279L187.9,273.7L186.4,271.9L184.5,270.5L183.3,268L183,265.2L183.5,259.7 L186.3,255.1L194.8,250.3L194.9,249L196.8,247.1L197.3,246.1L197.5,244.9L197.4,242.1L199.9,229L199.8,227.2L195,225.8 L186.2,220L178.7,218.1L171.1,219.2L151,219.7L147.1,219.3L138.9,215.5L132.4,211.5 z" /> 
<path data-name="adamawa" data-id="36" id="36" d="M 847.3,227L858,224.6L862.2,224.4L861.8,225.2L848.8,243.7L846.7,247.9L844,257.1L841.5,271L839.8,275.5L839.8,276.5L840.3,278L840.4,278.8L840.3,279.8L839.1,282.3L838.2,283.4L836.7,284.6L835,285.6L833.6,286.2L827.8,286.8L825.4,287.7 L824.1,290.2L824.1,291.7L825,294.1L825.3,295.5L825,297.2L823.2,299.9L822.7,301.4L822.8,303.1L823.5,304.2L825.7,306.4 L826.5,308.1L826.3,309.3L825.6,310.5L824.9,312.2L824,317.2L823.6,321.9L821.5,327.1L816.8,329L811,329.9L805.9,332.1 L804.9,332.9L802.8,335.6L802,336.4L801.4,336.8L797.1,338.8L796.6,339.2L796.1,340.5L796.4,340.7L798.5,341.1L799.2,342.5 L799.8,344.8L799.7,347.7L799.5,349L799,350.3L795.6,356.3L794.1,359.8L794.1,362.8L794.6,365.5L792.9,379.3L792.1,382.4 L790.5,384.6L789.5,385L788.6,385L787.7,384.8L786.7,384.8L785.8,385.2L785.3,386.1L784.6,388.1L783.6,390.5L782.3,391.9 L774.8,395.9L773.6,396.1L772.5,395.9L770.2,394.8L769.2,394.6L767.9,394.7L767,395.2L766.1,395.8L765,396.3L763.9,396.4 L762.9,396.2L760.9,395.6L761.5,396.6L763.2,400.8L763.4,401.8L763.5,403.9L762.8,404.5L760.6,406.1L760.1,406.8L759.6,407.7 L759,408.5L758.1,409.2L756.6,409.4L753.7,408.9L752.1,409.6L750.5,411.9L749.9,415.1L750.1,418.5L751.2,424.4L751.2,425.8 L750.6,427.4L747.6,431.7L747.2,433.4L747.2,436.3L747.6,439.1L748.1,440.9L748.3,442.1L747.9,443.2L745.1,446.1L737.8,456.2 L735.2,460.9L734.7,462.4L734.5,464L734.6,465.6L735.6,469.9L735.3,471.4L734.4,472.2L733.3,473L731.3,475.9L726.7,480.4 L726.7,480.3L725.8,476.6L724,472.7L723.1,467.9L723.1,462.9L719.5,454.5L712.4,447.8L710.6,445.6L708,444.4L705.6,445.5 L704.2,447.7L702.6,449.7L700.7,451.4L698.3,451.2L696.3,449.1L693.3,443.9L690.1,436L690.8,433.7L694.8,429L699.6,424.8 L718.6,402.2L723.5,398.2L724.2,395.8L723.8,393.1L724.4,388L731.8,372.9L731.3,367.8L728.2,364L723.6,361.8L721.1,357.5 L721,355L721.4,352.4L720.7,350.1L719.3,348L716.8,342.7L712.5,338.9L710.1,338.2L707.6,337.8L705.8,336.1L699.1,323.5 L705.8,322.4L712,319.7L725.6,311.6L728.3,309.4L729.5,306.3L729.1,296.6L729.9,290.3L741.7,290.9L751,284.4L758.6,274.7 L762.8,271.2L768.2,270L774.1,269.4L779.4,267L781.4,264.8L782.7,262.2L784.6,260.8L787.3,260.7L791.6,256.8L795.6,252.2 L801.6,250.9L807.9,251.7L812.9,253.8L817,257.4L821.3,260.2L826.2,261.2L830,259.2L832.6,249.4L836.6,239.6L837.6,234.5 L837.6,229.5L838.2,225.3L840.7,224.9L841.7,225.1L842.5,225.8L844.9,226.6L847.3,227 z" /> 
<path data-name="abuja" data-id="37" id="37" d="M 412.8,344.1L413,345.6L412.8,347L411.9,347.6L411,347.8L409.7,350.2L408,358.1L407.8,362.6L408.1,369.8L404.7,384.6L401.5,393.4L398.9,397.5L395.7,401.1L386.3,405.7L375.9,408.5L365.3,410.1L364.7,410.2L362,410.6L359.3,410.3L354.8,410.5 L351.5,410.1L349.7,407L349.2,405.7L348.5,353.3L348.9,351.2L350.7,350.4L364.2,349.9L368.6,351.2L375.5,357.8L379,359.8 L379.4,359.6L389.7,345.1L396.7,344.3L398.8,344.4L400.8,344.7L402.6,345.5L404.2,344.3L406.6,341.1L409.2,342.1L410.5,344.6 L412.8,344.1 z" />

</g>
</svg>
