<svg width="180" height="146" viewBox="0 0 180 146" fill="none" xmlns="http://www.w3.org/2000/svg">
<path d="M15.0443 9.78C15.0443 9.76 15.0443 9.76 15.0243 9.76H14.9843C14.9443 9.76 14.9243 9.78 14.8843 9.8C14.4843 10.1 14.0243 10.46 12.9043 10.92C12.0643 10.16 10.9643 9.76 9.6643 9.76C7.2443 9.76 5.0043 11.28 5.0043 15C5.0043 18.86 7.6243 20.26 9.4243 20.26C11.4843 20.26 12.2643 18.96 12.4843 18.42L12.2443 20.2C12.2443 20.24 12.2443 20.26 12.2843 20.26H12.3243C12.3843 20.26 12.4643 20.24 12.4843 20.22C13.3843 19.84 14.2043 19.46 16.1643 19.46C16.3643 19.46 16.4643 19.36 16.4643 19.2V18.52C16.4643 18.38 16.4243 18.28 16.2243 18.26C15.2443 18.16 15.0843 17.26 15.0443 16.3V9.78ZM12.2643 17.18C12.2643 17.18 11.8243 18.5 10.3243 18.5C8.6843 18.5 7.5643 16.9 7.5643 14.34C7.5643 12.7 8.0843 11.08 10.0243 11.08C11.6043 11.08 12.1043 12.36 12.2643 13.18V17.18ZM26.8671 9.42C26.8671 9.38 26.8671 9.38 26.8471 9.38H26.7871C26.7671 9.38 26.7271 9.4 26.7071 9.44C26.1671 9.82 24.6471 10.6 22.7471 10.9C22.5471 10.92 22.4671 11 22.4671 11.16V11.84C22.4471 11.98 22.5071 12.08 22.6871 12.1C23.8071 12.22 23.8671 13.32 23.8671 14.4V16.9C23.8671 18 23.4071 18.8 22.4271 18.8H22.3871C22.1871 18.8 22.0871 18.92 22.0871 19.1V19.7C22.0871 19.9 22.1871 20 22.3871 20H28.1871C28.3871 20 28.4871 19.9 28.4871 19.7V19.1C28.4871 18.92 28.3871 18.8 28.1871 18.8H28.1671C27.1871 18.8 26.6871 18 26.6871 16.9V13.22C26.9871 12.5 27.7871 11.5 28.6871 11.5C29.2471 11.5 29.6471 11.8 29.6471 12.52C29.6471 12.8 29.6071 13.14 29.4471 13.54C29.4271 13.6 29.4271 13.66 29.4271 13.7C29.4271 13.82 29.4871 13.9 29.6071 13.9C29.6471 13.9 29.7071 13.88 29.7871 13.86L31.6471 13.08C32.1271 12.88 32.1671 12.42 32.1671 11.82C32.1671 10.44 31.1671 9.76 29.9071 9.76C28.4871 9.76 27.1271 10.56 26.3871 12.1L26.8671 9.42ZM41.3996 13.9C41.5196 13.84 41.5596 13.76 41.5596 13.64C41.5596 12.14 40.0996 9.78 37.4396 9.78C35.0996 9.78 32.6996 11.2 32.6996 14.92C32.6996 17.82 34.7396 20.24 38.0596 20.24C40.0796 20.24 41.3196 19.32 42.0596 17.92C42.1196 17.8 42.1996 17.68 42.1996 17.56C42.1996 17.5 42.1596 17.44 42.0996 17.42C41.4596 17.04 41.4396 17.02 41.3196 17.02C41.2596 17.02 41.1796 17.04 41.1396 17.1C40.4396 18.12 39.4396 18.58 38.5996 18.58C37.0396 18.58 36.0396 17.54 35.5996 16.44L41.3996 13.9ZM35.3596 15.18C35.1796 14.72 35.1596 14.06 35.1596 13.66C35.1596 12.36 35.8596 11.36 36.9596 11.36C37.8796 11.36 38.5596 12.3 38.5596 13.56L35.3596 15.18ZM49.3871 18.06C49.3271 17.96 49.2471 17.9 49.1471 17.9C49.1071 17.9 49.0471 17.92 48.9671 17.96L48.9471 17.98C48.5471 18.24 47.9871 18.54 47.5271 18.54C47.0671 18.54 46.7071 18.22 46.7071 17.18V11.46H49.3671C49.5671 11.46 49.6671 11.36 49.6671 11.16V10.3C49.6671 10.12 49.5671 10 49.3671 10H46.6871V6.64C46.6871 6.62 46.6671 6.62 46.6471 6.62H46.6071C46.5871 6.62 46.5471 6.64 46.5271 6.66C45.7071 7.36 44.6471 8 44.0671 8.3C43.9271 8.38 43.8871 8.52 43.8871 8.68V10H42.4471C42.2471 10 42.1471 10.12 42.1471 10.3V10.9C42.1471 11.1 42.2471 11.2 42.4471 11.2C43.8871 11.2 43.8871 12.42 43.8871 13.48V17.18C43.8871 19.54 44.9671 20.26 46.2071 20.26C47.2071 20.26 48.3071 19.8 49.0071 19.36L49.6071 18.98C49.7071 18.92 49.7671 18.84 49.7671 18.74C49.7671 18.68 49.7471 18.62 49.7071 18.56L49.3871 18.06ZM55.2851 9.42C55.2851 9.38 55.2851 9.38 55.2651 9.38H55.2051C55.1851 9.38 55.1451 9.4 55.1251 9.44C54.5851 9.82 53.0651 10.6 51.1651 10.9C50.9651 10.92 50.8851 11 50.8851 11.16V11.84C50.8651 11.98 50.9251 12.08 51.1051 12.1C52.2251 12.22 52.2851 13.32 52.2851 14.4V16.9C52.2851 18 51.8251 18.8 50.8451 18.8H50.8051C50.6051 18.8 50.5051 18.92 50.5051 19.1V19.7C50.5051 19.9 50.6051 20 50.8051 20H56.6051C56.8051 20 56.9051 19.9 56.9051 19.7V19.1C56.9051 18.92 56.8051 18.8 56.6051 18.8H56.5851C55.6051 18.8 55.1051 18 55.1051 16.9V13.22C55.4051 12.5 56.2051 11.5 57.1051 11.5C57.6651 11.5 58.0651 11.8 58.0651 12.52C58.0651 12.8 58.0251 13.14 57.8651 13.54C57.8451 13.6 57.8451 13.66 57.8451 13.7C57.8451 13.82 57.9051 13.9 58.0251 13.9C58.0651 13.9 58.1251 13.88 58.2051 13.86L60.0651 13.08C60.5451 12.88 60.5851 12.42 60.5851 11.82C60.5851 10.44 59.5851 9.76 58.3251 9.76C56.9051 9.76 55.5451 10.56 54.8051 12.1L55.2851 9.42ZM64.0976 10.2C62.2176 11.04 61.1176 12.92 61.1176 14.9C61.1176 15.62 61.2576 16.38 61.5776 17.08C62.4576 19.06 64.3776 20.26 66.3576 20.26C67.0376 20.26 67.7376 20.12 68.3776 19.82C70.2776 18.98 71.3776 17.1 71.3776 15.12C71.3776 14.38 71.2376 13.64 70.9176 12.92C70.0376 10.94 68.1176 9.76 66.1176 9.76C65.4376 9.76 64.7576 9.9 64.0976 10.2ZM64.6976 11.54C64.9776 11.42 65.2376 11.36 65.4976 11.36C66.7376 11.36 67.7976 12.62 68.4376 14.04C68.7776 14.8 68.9976 15.62 68.9976 16.36C68.9976 17.3 68.6576 18.08 67.7776 18.48C67.5176 18.6 67.2376 18.64 66.9776 18.64C65.7576 18.64 64.6776 17.4 64.0576 15.98C63.7176 15.22 63.4976 14.4 63.4976 13.64C63.4976 12.72 63.8376 11.92 64.6976 11.54ZM81.0713 12.86C81.1913 12.8 81.2313 12.74 81.2313 12.66C81.2313 12.6 81.2113 12.54 81.1913 12.46L80.1913 9.92C80.1313 9.76 80.0113 9.68 79.8513 9.68H79.3313C79.1513 9.68 79.0713 9.76 79.0713 9.9C79.0713 9.94 79.0713 9.98 79.0913 10.02C79.1513 10.24 79.1713 10.44 79.0713 10.44C79.0313 10.44 79.0113 10.44 78.9713 10.42C78.6313 10.22 77.5713 9.76 76.3313 9.76C74.2313 9.76 72.8913 10.92 72.8913 12.5C72.8913 13.82 73.4513 15 76.7113 15.96C78.0713 16.36 79.7513 16.74 79.7513 17.76C79.7513 18.52 79.0513 18.9 77.8113 18.9C76.1913 18.9 74.5713 18.18 73.2913 16.2C73.2313 16.1 73.1513 16.04 73.0513 16.04C72.9913 16.04 72.9313 16.06 72.8713 16.1L72.2713 16.46C72.1513 16.52 72.1113 16.6 72.1113 16.7C72.1113 16.74 72.1113 16.8 72.1513 16.86L73.8713 20.1C73.9513 20.24 74.0713 20.3 74.2313 20.3H74.9513C75.1113 20.3 75.1713 20.24 75.1713 20.14C75.1713 20.1 75.1713 20.04 75.1513 19.98C75.0913 19.8 75.1113 19.68 75.2513 19.68C75.2913 19.68 75.3513 19.68 75.4113 19.72C76.1113 20.06 76.9113 20.24 77.7313 20.24C80.3513 20.24 81.9513 18.86 81.9513 17C81.9513 14.56 79.2913 13.98 77.4313 13.5C76.3313 13.22 75.2113 12.88 75.2113 12C75.2113 11.24 75.8913 10.98 76.6113 10.98C77.5713 10.98 78.9713 11.52 80.1913 13.02C80.2713 13.12 80.3513 13.18 80.4313 13.18C80.4913 13.18 80.5313 13.16 80.5913 13.14L81.0713 12.86ZM86.6448 9.78C86.6448 9.74 86.6248 9.72 86.6048 9.72H86.5648C86.5048 9.72 86.4248 9.74 86.3848 9.76C85.5048 10.16 84.6848 10.54 82.7248 10.54C82.5248 10.54 82.4248 10.62 82.4248 10.8V11.48C82.4248 11.62 82.4648 11.72 82.6648 11.74C83.7648 11.86 83.8448 12.96 83.8448 14.04V20.52V20.9C83.8648 21.98 83.3648 22.8 82.3848 22.8C82.1848 22.8 82.0848 22.9 82.0848 23.1V23.7C82.0848 23.9 82.1848 24 82.3848 24H88.1048C88.3048 24 88.4048 23.9 88.4048 23.7V23.1C88.4048 22.9 88.3048 22.8 88.1048 22.8C87.1248 22.8 86.6248 21.98 86.6248 20.9V19.32C87.3448 19.92 88.2248 20.24 89.2248 20.24C91.6448 20.24 93.9048 18.7 93.9048 15C93.9048 11.14 91.2648 9.72 89.4648 9.72C87.4048 9.72 86.6248 11.04 86.4048 11.56L86.6448 9.78ZM86.6248 12.8C86.6248 12.8 87.0848 11.5 88.5648 11.5C90.2048 11.5 91.3248 13.08 91.3248 15.66C91.3248 17.3 90.8048 18.94 88.8648 18.94C87.5448 18.94 86.7848 17.7 86.6248 16.46V12.8ZM103.802 13.9C103.922 13.84 103.962 13.76 103.962 13.64C103.962 12.14 102.502 9.78 99.842 9.78C97.502 9.78 95.102 11.2 95.102 14.92C95.102 17.82 97.142 20.24 100.462 20.24C102.482 20.24 103.722 19.32 104.462 17.92C104.522 17.8 104.602 17.68 104.602 17.56C104.602 17.5 104.562 17.44 104.502 17.42C103.862 17.04 103.842 17.02 103.722 17.02C103.662 17.02 103.582 17.04 103.542 17.1C102.842 18.12 101.842 18.58 101.002 18.58C99.442 18.58 98.442 17.54 98.002 16.44L103.802 13.9ZM97.762 15.18C97.582 14.72 97.562 14.06 97.562 13.66C97.562 12.36 98.262 11.36 99.362 11.36C100.282 11.36 100.962 12.3 100.962 13.56L97.762 15.18ZM113.598 16.94C113.518 16.9 113.458 16.88 113.398 16.88C113.318 16.88 113.238 16.94 113.178 17.04C112.578 17.92 111.718 18.38 110.938 18.46C110.818 18.48 110.698 18.48 110.578 18.48C108.558 18.48 107.838 16.64 107.838 14.64C107.838 14.4 107.858 14.14 107.878 13.9C107.998 12.52 108.598 11.36 109.878 11.36C111.058 11.36 111.578 12.04 111.498 13.18L111.478 13.38C111.478 13.48 111.538 13.52 111.638 13.52C111.698 13.52 111.738 13.52 111.818 13.5L114.118 12.88C114.258 12.84 114.338 12.76 114.338 12.62V12.54C114.058 11.28 113.138 9.96 110.698 9.8L110.338 9.78C108.078 9.78 105.558 11.22 105.278 14.54C105.058 17.38 107.038 20.2 110.038 20.2C110.218 20.2 110.398 20.18 110.578 20.16C112.478 19.98 113.598 19.04 114.238 17.72C114.298 17.56 114.258 17.42 114.118 17.32L113.598 16.94ZM122.356 18.06C122.296 17.96 122.216 17.9 122.116 17.9C122.076 17.9 122.016 17.92 121.936 17.96L121.916 17.98C121.516 18.24 120.956 18.54 120.496 18.54C120.036 18.54 119.676 18.22 119.676 17.18V11.46H122.336C122.536 11.46 122.636 11.36 122.636 11.16V10.3C122.636 10.12 122.536 10 122.336 10H119.656V6.64C119.656 6.62 119.636 6.62 119.616 6.62H119.576C119.556 6.62 119.516 6.64 119.496 6.66C118.676 7.36 117.616 8 117.036 8.3C116.896 8.38 116.856 8.52 116.856 8.68V10H115.416C115.216 10 115.116 10.12 115.116 10.3V10.9C115.116 11.1 115.216 11.2 115.416 11.2C116.856 11.2 116.856 12.42 116.856 13.48V17.18C116.856 19.54 117.936 20.26 119.176 20.26C120.176 20.26 121.276 19.8 121.976 19.36L122.576 18.98C122.676 18.92 122.736 18.84 122.736 18.74C122.736 18.68 122.716 18.62 122.676 18.56L122.356 18.06ZM126.634 8.22C126.994 8.22 127.294 8.08 127.634 7.72C127.994 7.36 128.134 7.08 128.134 6.72C128.134 6.36 127.994 6.06 127.634 5.72C127.294 5.36 126.994 5.22 126.634 5.22C126.274 5.22 125.994 5.36 125.634 5.72C125.274 6.06 125.134 6.36 125.134 6.72C125.134 7.08 125.274 7.36 125.634 7.72C125.994 8.08 126.274 8.22 126.634 8.22ZM129.514 18.8C128.534 18.8 128.034 18 128.034 16.9V9.42C128.014 9.38 128.014 9.38 127.994 9.38H127.954C127.914 9.38 127.874 9.4 127.854 9.44C127.314 10 126.294 10.76 124.174 11.46C123.994 11.52 123.894 11.56 123.894 11.72V12.4C123.894 12.54 123.934 12.64 124.134 12.66C125.234 12.78 125.314 13.9 125.314 14.78V16.9C125.334 18 124.834 18.8 123.854 18.8H123.834C123.634 18.8 123.534 18.92 123.534 19.1V19.7C123.534 19.9 123.674 20 123.874 20H129.514C129.714 20 129.854 19.9 129.854 19.7V19.1C129.854 18.92 129.754 18.8 129.554 18.8H129.514ZM137.461 10C137.261 10 137.161 10.1 137.161 10.3V10.9C137.161 11.1 137.261 11.2 137.461 11.2H137.861C138.181 11.2 138.301 11.36 138.301 11.62C138.301 11.98 138.061 12.52 137.821 13.1L136.121 17L134.281 13.1C134.061 12.62 133.881 12.14 133.881 11.8C133.881 11.44 134.061 11.2 134.561 11.2H134.601C134.781 11.2 134.881 11.1 134.881 10.9V10.3C134.881 10.1 134.781 10 134.581 10H129.981C129.781 10 129.681 10.1 129.681 10.3V10.9C129.681 11.1 129.781 11.2 129.981 11.2H130.021C130.521 11.2 130.721 11.48 131.181 12.46L134.541 19.78C134.601 19.94 134.721 20 134.881 20H135.941C136.121 20 136.221 19.94 136.301 19.78L139.661 12.46C140.121 11.46 140.421 11.2 140.841 11.2H141.121C141.321 11.2 141.421 11.1 141.421 10.9V10.3C141.421 10.1 141.321 10 141.121 10H137.461ZM150.267 13.9C150.387 13.84 150.427 13.76 150.427 13.64C150.427 12.14 148.967 9.78 146.307 9.78C143.967 9.78 141.567 11.2 141.567 14.92C141.567 17.82 143.607 20.24 146.927 20.24C148.947 20.24 150.187 19.32 150.927 17.92C150.987 17.8 151.067 17.68 151.067 17.56C151.067 17.5 151.027 17.44 150.967 17.42C150.327 17.04 150.307 17.02 150.187 17.02C150.127 17.02 150.047 17.04 150.007 17.1C149.307 18.12 148.307 18.58 147.467 18.58C145.907 18.58 144.907 17.54 144.467 16.44L150.267 13.9ZM144.227 15.18C144.047 14.72 144.027 14.06 144.027 13.66C144.027 12.36 144.727 11.36 145.827 11.36C146.747 11.36 147.427 12.3 147.427 13.56L144.227 15.18ZM159.84 10.2C157.96 11.04 156.86 12.92 156.86 14.9C156.86 15.62 157 16.38 157.32 17.08C158.2 19.06 160.12 20.26 162.1 20.26C162.78 20.26 163.48 20.12 164.12 19.82C166.02 18.98 167.12 17.1 167.12 15.12C167.12 14.38 166.98 13.64 166.66 12.92C165.78 10.94 163.86 9.76 161.86 9.76C161.18 9.76 160.5 9.9 159.84 10.2ZM160.44 11.54C160.72 11.42 160.98 11.36 161.24 11.36C162.48 11.36 163.54 12.62 164.18 14.04C164.52 14.8 164.74 15.62 164.74 16.36C164.74 17.3 164.4 18.08 163.52 18.48C163.26 18.6 162.98 18.64 162.72 18.64C161.5 18.64 160.42 17.4 159.8 15.98C159.46 15.22 159.24 14.4 159.24 13.64C159.24 12.72 159.58 11.92 160.44 11.54ZM169.729 10H168.249C168.049 10 167.949 10.12 167.949 10.3V10.9C167.949 11.1 168.049 11.2 168.249 11.2C169.689 11.2 169.689 12.42 169.689 13.48V16.9C169.709 18 169.209 18.8 168.249 18.8C168.049 18.8 167.949 18.92 167.949 19.1V19.7C167.949 19.9 168.049 20 168.249 20H173.869C174.069 20 174.169 19.9 174.169 19.7V19.1C174.169 18.92 174.069 18.8 173.869 18.8C172.889 18.8 172.409 18 172.409 16.9V11.46H175.069C175.269 11.46 175.369 11.36 175.369 11.16V10.3C175.369 10.12 175.269 10 175.069 10H172.389V8.7C172.409 7.18 172.549 6.14 173.029 5.54C173.269 5.24 173.589 5.1 173.869 5.1C174.369 5.1 174.809 5.52 174.809 6.26C174.809 6.62 174.709 7.06 174.449 7.58C174.349 7.76 174.369 7.98 174.529 7.98H174.589L176.669 7.5C176.969 7.44 177.089 7.34 177.169 7.12C177.309 6.78 177.389 6.44 177.389 6.12C177.389 4.92 176.369 4 174.249 4C170.729 4 169.729 7.48 169.729 9.84V10Z" fill="#56411F"/>
<path d="M29.9951 55.384C29.9951 55.328 29.9951 55.328 29.9391 55.328H29.8271C29.7151 55.328 29.6591 55.384 29.5471 55.44C28.4271 56.28 27.1391 57.288 24.0031 58.576C21.6511 56.448 18.5711 55.328 14.9311 55.328C8.15513 55.328 1.88313 59.584 1.88313 70C1.88313 80.808 9.21913 84.728 14.2591 84.728C20.0271 84.728 22.2111 81.088 22.8271 79.576L22.1551 84.56C22.1551 84.672 22.1551 84.728 22.2671 84.728H22.3791C22.5471 84.728 22.7711 84.672 22.8271 84.616C25.3471 83.552 27.6431 82.488 33.1311 82.488C33.6911 82.488 33.9711 82.208 33.9711 81.76V79.856C33.9711 79.464 33.8591 79.184 33.2991 79.128C30.5551 78.848 30.1071 76.328 29.9951 73.64V55.384ZM22.2111 76.104C22.2111 76.104 20.9791 79.8 16.7791 79.8C12.1871 79.8 9.05113 75.32 9.05113 68.152C9.05113 63.56 10.5071 59.024 15.9391 59.024C20.3631 59.024 21.7631 62.608 22.2111 64.904V76.104ZM48.483 39.312C48.427 39.256 48.427 39.2 48.315 39.2L48.203 39.256C48.091 39.256 48.035 39.312 47.923 39.368C46.467 40.432 43.331 42.56 37.451 44.52C36.891 44.744 36.611 44.8 36.611 45.304V47.208C36.611 47.544 36.723 47.824 37.283 47.88C40.363 48.216 40.587 51.352 40.587 54.32V75.32C40.643 78.4 39.243 80.64 36.555 80.64C35.995 80.64 35.715 80.976 35.715 81.48V83.16C35.715 83.72 35.995 84 36.555 84H52.571C53.131 84 53.411 83.72 53.411 83.16V81.48C53.411 80.976 53.131 80.64 52.571 80.64C49.827 80.64 48.483 78.4 48.483 75.32V39.312ZM56.2469 71.96C56.2469 81.2 62.2949 84.672 69.7429 84.672C78.8149 84.672 84.4149 78.68 84.4149 70.056C84.4149 59.248 76.8549 55.272 70.8629 55.272C67.6709 55.272 65.0389 56.56 64.0869 58.016V39.312C64.0869 39.256 64.0869 39.2 64.0309 39.2H63.8629C63.8069 39.256 63.6949 39.312 63.6389 39.368C62.1269 40.432 58.9909 42.56 53.1109 44.52C52.6069 44.744 52.3269 44.8 52.3269 45.304V47.208C52.2709 47.544 52.3829 47.824 52.9429 47.88C56.0229 48.216 56.2469 51.352 56.2469 54.32V71.96ZM64.0869 61.656C65.4309 60.704 66.8869 60.256 68.3429 60.256C74.0549 60.256 77.1909 64.736 77.1909 71.904C77.1909 76.496 75.7349 81.088 70.3029 81.088C67.1109 81.088 64.0869 78.68 64.0869 73.136V61.656ZM116.843 56.896C116.843 56.336 116.563 56.056 116.003 56.056H104.747C104.243 56.056 103.907 56.336 103.907 56.896V58.576C103.907 59.08 104.243 59.416 104.747 59.416H104.859C107.603 59.416 109.003 61.712 109.003 64.736V75.04C107.995 77.392 104.971 79.8 102.171 79.8C97.8593 79.8 98.1393 76.216 98.1393 73.136V56.896C98.1393 56.336 97.8593 56.056 97.2993 56.056H86.0433H85.9313C85.3713 56.056 85.0913 56.336 85.0913 56.896V58.576C85.0913 59.136 85.3713 59.416 85.9313 59.416H86.1553C88.8993 59.416 90.2433 61.712 90.2433 64.736V73.976C90.2993 79.296 91.7553 84.728 99.7633 84.728C104.915 84.728 108.331 80.696 109.899 77.504L109.059 84.56C109.003 84.672 109.059 84.728 109.115 84.728H109.227C109.395 84.728 109.619 84.672 109.731 84.616C112.251 83.552 114.491 82.488 119.979 82.488C120.539 82.488 120.819 82.208 120.819 81.76V79.856C120.819 79.464 120.707 79.184 120.147 79.128C117.067 78.792 116.843 75.712 116.843 72.688V56.896ZM177.767 80.64C175.023 80.64 173.623 78.4 173.623 75.32V66.08C173.623 60.76 172.111 55.272 164.103 55.272C159.679 55.272 156.319 57.512 153.855 60.76C152.847 57.568 150.439 55.272 144.951 55.272C139.799 55.272 136.831 59.192 135.263 61.712L136.271 54.376C136.271 54.264 136.271 54.264 136.159 54.264H136.047C135.935 54.264 135.879 54.32 135.767 54.432C134.311 55.496 130.055 57.68 124.735 58.52C124.175 58.576 123.895 58.8 123.895 59.248V61.152C123.895 61.544 124.007 61.824 124.567 61.88C127.647 62.216 127.871 65.296 127.871 68.32V75.32C127.871 78.4 126.527 80.64 123.839 80.64H123.727C123.167 80.64 122.887 80.976 122.887 81.48V83.16C122.887 83.72 123.167 84 123.727 84H139.463C140.023 84 140.303 83.72 140.303 83.16V81.48C140.303 80.976 140.023 80.64 139.463 80.64H139.295C137.111 80.64 135.767 78.4 135.767 75.32V65.016C136.719 62.664 139.799 60.256 142.543 60.256C146.855 60.256 146.575 63.28 146.575 66.92V75.32C146.631 79.52 145.231 80.64 143.663 80.64H143.271C142.711 80.64 142.431 80.976 142.431 81.48V83.16C142.431 83.72 142.711 84 143.271 84H158.447C159.007 84 159.287 83.72 159.287 83.16V81.48C159.287 80.976 159.007 80.64 158.447 80.64H157.999C155.871 80.64 154.471 79.52 154.471 75.32V65.52C156.039 62.496 158.503 60.256 161.751 60.256C166.007 60.256 165.783 63.84 165.783 66.92V75.32C165.783 78.96 165.167 80.64 162.871 80.64H162.591C162.031 80.64 161.751 80.976 161.751 81.48V83.16C161.751 83.72 162.031 84 162.591 84H178.327C178.887 84 179.167 83.72 179.167 83.16V81.48C179.167 80.976 178.887 80.64 178.327 80.64H177.767ZM26.6557 131.432C26.4317 131.32 26.2637 131.264 26.0957 131.264C25.8717 131.264 25.6477 131.432 25.4797 131.712C23.7997 134.176 21.3917 135.464 19.2077 135.688C18.8717 135.744 18.5357 135.744 18.1997 135.744C12.5437 135.744 10.5277 130.592 10.5277 124.992C10.5277 124.32 10.5837 123.592 10.6397 122.92C10.9757 119.056 12.6557 115.808 16.2397 115.808C19.5437 115.808 20.9997 117.712 20.7757 120.904L20.7197 121.464C20.7197 121.744 20.8877 121.856 21.1677 121.856C21.3357 121.856 21.4477 121.856 21.6717 121.8L28.1117 120.064C28.5037 119.952 28.7277 119.728 28.7277 119.336V119.112C27.9437 115.584 25.3677 111.888 18.5357 111.44L17.5277 111.384C11.1997 111.384 4.14369 115.416 3.35969 124.712C2.74369 132.664 8.28769 140.56 16.6877 140.56C17.1917 140.56 17.6957 140.504 18.1997 140.448C23.5197 139.944 26.6557 137.312 28.4477 133.616C28.6157 133.168 28.5037 132.776 28.1117 132.496L26.6557 131.432ZM39.5396 112.56C34.2756 114.912 31.1956 120.176 31.1956 125.72C31.1956 127.736 31.5876 129.864 32.4836 131.824C34.9476 137.368 40.3236 140.728 45.8676 140.728C47.7716 140.728 49.7316 140.336 51.5236 139.496C56.8436 137.144 59.9236 131.88 59.9236 126.336C59.9236 124.264 59.5316 122.192 58.6356 120.176C56.1716 114.632 50.7956 111.328 45.1956 111.328C43.2916 111.328 41.3876 111.72 39.5396 112.56ZM41.2196 116.312C42.0036 115.976 42.7316 115.808 43.4596 115.808C46.9316 115.808 49.8996 119.336 51.6916 123.312C52.6436 125.44 53.2596 127.736 53.2596 129.808C53.2596 132.44 52.3076 134.624 49.8436 135.744C49.1156 136.08 48.3316 136.192 47.6036 136.192C44.1876 136.192 41.1636 132.72 39.4276 128.744C38.4756 126.616 37.8596 124.32 37.8596 122.192C37.8596 119.616 38.8116 117.376 41.2196 116.312ZM81.5497 112C80.9897 112 80.7097 112.28 80.7097 112.84V114.52C80.7097 115.08 80.9897 115.36 81.5497 115.36H82.6697C83.5657 115.36 83.9017 115.808 83.9017 116.536C83.9017 117.544 83.2297 119.056 82.5577 120.68L77.7977 131.6L72.6457 120.68C72.0297 119.336 71.5257 117.992 71.5257 117.04C71.5257 116.032 72.0297 115.36 73.4297 115.36H73.5417C74.0457 115.36 74.3257 115.08 74.3257 114.52V112.84C74.3257 112.28 74.0457 112 73.4857 112H60.6057C60.0457 112 59.7657 112.28 59.7657 112.84V114.52C59.7657 115.08 60.0457 115.36 60.6057 115.36H60.7177C62.1177 115.36 62.6777 116.144 63.9657 118.888L73.3737 139.384C73.5417 139.832 73.8777 140 74.3257 140H77.2937C77.7977 140 78.0777 139.832 78.3017 139.384L87.7097 118.888C88.9977 116.088 89.8377 115.36 91.0137 115.36H91.7977C92.3577 115.36 92.6377 115.08 92.6377 114.52V112.84C92.6377 112.28 92.3577 112 91.7977 112H81.5497ZM117.407 122.92C117.743 122.752 117.855 122.528 117.855 122.192C117.855 117.992 113.767 111.384 106.319 111.384C99.7672 111.384 93.0472 115.36 93.0472 125.776C93.0472 133.896 98.7592 140.672 108.055 140.672C113.711 140.672 117.183 138.096 119.255 134.176C119.423 133.84 119.647 133.504 119.647 133.168C119.647 133 119.535 132.832 119.367 132.776C117.575 131.712 117.519 131.656 117.183 131.656C117.015 131.656 116.791 131.712 116.679 131.88C114.719 134.736 111.919 136.024 109.567 136.024C105.199 136.024 102.399 133.112 101.167 130.032L117.407 122.92ZM100.495 126.504C99.9912 125.216 99.9352 123.368 99.9352 122.248C99.9352 118.608 101.895 115.808 104.975 115.808C107.551 115.808 109.455 118.44 109.455 121.968L100.495 126.504ZM134.138 110.376C134.138 110.264 134.138 110.264 134.082 110.264H133.914C133.858 110.264 133.746 110.32 133.69 110.432C132.178 111.496 127.922 113.68 122.602 114.52C122.042 114.576 121.818 114.8 121.818 115.248V117.152C121.762 117.544 121.93 117.824 122.434 117.88C125.57 118.216 125.738 121.296 125.738 124.32V131.32C125.738 134.4 124.45 136.64 121.706 136.64H121.594C121.034 136.64 120.754 136.976 120.754 137.48V139.16C120.754 139.72 121.034 140 121.594 140H137.834C138.394 140 138.674 139.72 138.674 139.16V137.48C138.674 136.976 138.394 136.64 137.834 136.64H137.778C135.034 136.64 133.634 134.4 133.634 131.32V121.016C134.474 119 136.714 116.2 139.234 116.2C140.802 116.2 141.922 117.04 141.922 119.056C141.922 119.84 141.81 120.792 141.362 121.912C141.306 122.08 141.306 122.248 141.306 122.36C141.306 122.696 141.474 122.92 141.81 122.92C141.922 122.92 142.09 122.864 142.314 122.808L147.522 120.624C148.866 120.064 148.978 118.776 148.978 117.096C148.978 113.232 146.178 111.328 142.65 111.328C138.674 111.328 134.866 113.568 132.794 117.88L134.138 110.376ZM174.457 120.008C174.793 119.84 174.905 119.672 174.905 119.448C174.905 119.28 174.849 119.112 174.793 118.888L171.993 111.776C171.825 111.328 171.489 111.104 171.041 111.104H169.585C169.081 111.104 168.857 111.328 168.857 111.72C168.857 111.832 168.857 111.944 168.913 112.056C169.081 112.672 169.137 113.232 168.857 113.232C168.745 113.232 168.689 113.232 168.577 113.176C167.625 112.616 164.657 111.328 161.185 111.328C155.305 111.328 151.553 114.576 151.553 119C151.553 122.696 153.121 126 162.249 128.688C166.057 129.808 170.761 130.872 170.761 133.728C170.761 135.856 168.801 136.92 165.329 136.92C160.793 136.92 156.257 134.904 152.673 129.36C152.505 129.08 152.281 128.912 152.001 128.912C151.833 128.912 151.665 128.968 151.497 129.08L149.817 130.088C149.481 130.256 149.369 130.48 149.369 130.76C149.369 130.872 149.369 131.04 149.481 131.208L154.297 140.28C154.521 140.672 154.857 140.84 155.305 140.84H157.321C157.769 140.84 157.937 140.672 157.937 140.392C157.937 140.28 157.937 140.112 157.881 139.944C157.713 139.44 157.769 139.104 158.161 139.104C158.273 139.104 158.441 139.104 158.609 139.216C160.569 140.168 162.809 140.672 165.105 140.672C172.441 140.672 176.921 136.808 176.921 131.6C176.921 124.768 169.473 123.144 164.265 121.8C161.185 121.016 158.049 120.064 158.049 117.6C158.049 115.472 159.953 114.744 161.969 114.744C164.657 114.744 168.577 116.256 171.993 120.456C172.217 120.736 172.441 120.904 172.665 120.904C172.833 120.904 172.945 120.848 173.113 120.792L174.457 120.008Z" fill="#56411F"/>
</svg>
