<svg width="32" height="32" viewBox="0 0 32 32" fill="none" xmlns="http://www.w3.org/2000/svg">
<path fill-rule="evenodd" clip-rule="evenodd" d="M16 0C7.16347 0 0 7.16347 0 16C0 24.8365 7.16347 32 16 32C24.8365 32 32 24.8365 32 16C32 7.16347 24.8365 0 16 0ZM12.4822 7.5182C13.3924 7.4768 13.6833 7.46667 16.0008 7.46667H15.9981C18.3164 7.46667 18.6061 7.4768 19.5164 7.5182C20.4249 7.5598 21.0453 7.70367 21.5893 7.91467C22.1511 8.13247 22.6257 8.424 23.1004 8.89867C23.5751 9.373 23.8667 9.84907 24.0853 10.4103C24.2951 10.9529 24.4391 11.573 24.4818 12.4815C24.5227 13.3917 24.5333 13.6825 24.5333 16.0001C24.5333 18.3176 24.5227 18.6077 24.4818 19.518C24.4391 20.4261 24.2951 21.0463 24.0853 21.5891C23.8667 22.1502 23.5751 22.6263 23.1004 23.1006C22.6263 23.5753 22.1509 23.8675 21.5899 24.0855C21.0469 24.2965 20.4261 24.4403 19.5177 24.4819C18.6074 24.5234 18.3175 24.5335 15.9997 24.5335C13.6824 24.5335 13.3917 24.5234 12.4815 24.4819C11.5732 24.4403 10.9529 24.2965 10.41 24.0855C9.84907 23.8675 9.373 23.5753 8.89887 23.1006C8.42433 22.6263 8.1328 22.1502 7.91467 21.5889C7.7038 21.0463 7.56 20.4263 7.5182 19.5178C7.477 18.6076 7.46667 18.3176 7.46667 16.0001C7.46667 13.6825 7.47733 13.3915 7.51807 12.4813C7.55893 11.5732 7.70293 10.9529 7.91447 10.4101C8.13313 9.84907 8.42473 9.373 8.8994 8.89867C9.37373 8.4242 9.8498 8.1326 10.4111 7.91467C10.9537 7.70367 11.5737 7.5598 12.4822 7.5182Z" fill="black"/>
<path fill-rule="evenodd" clip-rule="evenodd" d="M15.2355 9.00409C15.3841 9.00389 15.544 9.00395 15.7166 9.00402L16.001 9.00409C18.2794 9.00409 18.5495 9.01229 19.4492 9.05315C20.2812 9.09122 20.7328 9.23022 21.0336 9.34702C21.4318 9.50169 21.7157 9.68662 22.0142 9.98529C22.3129 10.284 22.4978 10.5684 22.6528 10.9666C22.7696 11.2671 22.9088 11.7186 22.9467 12.5506C22.9876 13.4502 22.9964 13.7204 22.9964 15.9978C22.9964 18.2752 22.9876 18.5454 22.9467 19.445C22.9086 20.277 22.7696 20.7285 22.6528 21.029C22.4982 21.4272 22.3129 21.7108 22.0142 22.0092C21.7156 22.3079 21.432 22.4928 21.0336 22.6475C20.7332 22.7648 20.2812 22.9035 19.4492 22.9415C18.5496 22.9824 18.2794 22.9913 16.001 22.9913C13.7224 22.9913 13.4524 22.9824 12.5528 22.9415C11.7208 22.9031 11.2692 22.7641 10.9682 22.6473C10.57 22.4926 10.2856 22.3077 9.9869 22.009C9.68824 21.7104 9.50337 21.4266 9.3483 21.0282C9.2315 20.7278 9.0923 20.2762 9.05444 19.4442C9.01357 18.5447 9.00537 18.2744 9.00537 15.9956C9.00537 13.7169 9.01357 13.4481 9.05444 12.5485C9.0925 11.7165 9.2315 11.265 9.3483 10.9642C9.50297 10.5659 9.68824 10.2815 9.9869 9.98282C10.2856 9.68415 10.57 9.49922 10.9682 9.34422C11.269 9.22689 11.7208 9.08822 12.5528 9.04995C13.34 9.01442 13.6451 9.00375 15.2355 9.00195V9.00409ZM20.5561 10.421C19.9908 10.421 19.532 10.8792 19.532 11.4447C19.532 12.01 19.9908 12.4687 20.5561 12.4687C21.1214 12.4687 21.5801 12.01 21.5801 11.4447C21.5801 10.8794 21.1214 10.4207 20.5561 10.4207V10.421ZM11.6188 15.9998C11.6188 13.5797 13.5808 11.6176 16.0008 11.6175C18.421 11.6175 20.3826 13.5796 20.3826 15.9998C20.3826 18.4199 18.4211 20.3812 16.001 20.3812C13.5809 20.3812 11.6188 18.4199 11.6188 15.9998Z" fill="black"/>
<path d="M16.0007 13.1553C17.5716 13.1553 18.8452 14.4287 18.8452 15.9997C18.8452 17.5706 17.5716 18.8442 16.0007 18.8442C14.4297 18.8442 13.1562 17.5706 13.1562 15.9997C13.1562 14.4287 14.4297 13.1553 16.0007 13.1553Z" fill="black"/>
</svg>
