<svg width="30" height="31" viewBox="0 0 30 31" fill="none" xmlns="http://www.w3.org/2000/svg">
<g clip-path="url(#clip0_515_651)">
<path fill-rule="evenodd" clip-rule="evenodd" d="M15 0.5C6.71575 0.5 0 7.21575 0 15.5C0 23.7843 6.71575 30.5 15 30.5C23.2843 30.5 30 23.7843 30 15.5C30 7.21575 23.2843 0.5 15 0.5ZM11.7021 7.54831C12.5554 7.5095 12.8281 7.5 15.0007 7.5H14.9983C17.1716 7.5 17.4432 7.5095 18.2966 7.54831C19.1483 7.58731 19.7299 7.72219 20.24 7.92C20.7666 8.12419 21.2116 8.3975 21.6566 8.8425C22.1017 9.28719 22.375 9.7335 22.58 10.2597C22.7767 10.7684 22.9117 11.3497 22.9517 12.2014C22.99 13.0548 23 13.3274 23 15.5001C23 17.6727 22.99 17.9447 22.9517 18.7981C22.9117 19.6494 22.7767 20.2309 22.58 20.7398C22.375 21.2658 22.1017 21.7121 21.6566 22.1568C21.2121 22.6018 20.7665 22.8758 20.2405 23.0802C19.7314 23.278 19.1494 23.4128 18.2978 23.4518C17.4444 23.4907 17.1726 23.5002 14.9998 23.5002C12.8272 23.5002 12.5548 23.4907 11.7014 23.4518C10.8499 23.4128 10.2684 23.278 9.75937 23.0802C9.2335 22.8758 8.78719 22.6018 8.34269 22.1568C7.89781 21.7121 7.6245 21.2658 7.42 20.7396C7.22231 20.2309 7.0875 19.6496 7.04831 18.7979C7.00969 17.9446 7 17.6727 7 15.5001C7 13.3274 7.01 13.0546 7.04819 12.2012C7.0865 11.3499 7.2215 10.7684 7.41981 10.2595C7.62481 9.7335 7.89819 9.28719 8.34319 8.8425C8.78788 8.39769 9.23419 8.12431 9.76038 7.92C10.2691 7.72219 10.8504 7.58731 11.7021 7.54831Z" fill="black"/>
<path fill-rule="evenodd" clip-rule="evenodd" d="M14.2822 8.9417C14.4215 8.94151 14.5714 8.94157 14.7332 8.94164L14.9998 8.9417C17.1358 8.9417 17.389 8.94938 18.2325 8.9877C19.0125 9.02338 19.4358 9.1537 19.7178 9.2632C20.0912 9.4082 20.3573 9.58157 20.6372 9.86157C20.9172 10.1416 21.0905 10.4083 21.2359 10.7816C21.3454 11.0633 21.4759 11.4866 21.5114 12.2666C21.5497 13.1099 21.558 13.3633 21.558 15.4983C21.558 17.6333 21.5497 17.8866 21.5114 18.73C21.4757 19.51 21.3454 19.9333 21.2359 20.215C21.0909 20.5883 20.9172 20.8542 20.6372 21.134C20.3572 21.414 20.0913 21.5874 19.7178 21.7324C19.4362 21.8424 19.0125 21.9724 18.2325 22.008C17.3892 22.0464 17.1358 22.0547 14.9998 22.0547C12.8637 22.0547 12.6105 22.0464 11.7671 22.008C10.9871 21.972 10.5638 21.8417 10.2816 21.7322C9.90828 21.5872 9.64159 21.4138 9.36159 21.1338C9.08159 20.8538 8.90828 20.5878 8.76291 20.2143C8.65341 19.9327 8.52291 19.5093 8.48741 18.7293C8.44909 17.886 8.44141 17.6326 8.44141 15.4963C8.44141 13.3599 8.44909 13.1079 8.48741 12.2646C8.52309 11.4846 8.65341 11.0613 8.76291 10.7793C8.90791 10.4059 9.08159 10.1393 9.36159 9.85926C9.64159 9.57926 9.90828 9.40588 10.2816 9.26057C10.5636 9.15057 10.9871 9.02057 11.7671 8.9847C12.5051 8.95138 12.7912 8.94138 14.2822 8.9397V8.9417ZM19.2702 10.2701C18.7402 10.2701 18.3102 10.6996 18.3102 11.2298C18.3102 11.7598 18.7402 12.1898 19.2702 12.1898C19.8002 12.1898 20.2302 11.7598 20.2302 11.2298C20.2302 10.6998 19.8002 10.2698 19.2702 10.2698V10.2701ZM10.8915 15.5001C10.8915 13.2313 12.7308 11.3918 14.9997 11.3918C17.2685 11.3918 19.1075 13.2313 19.1075 15.5001C19.1075 17.769 17.2687 19.6077 14.9998 19.6077C12.731 19.6077 10.8915 17.769 10.8915 15.5001Z" fill="black"/>
<path d="M15.0007 12.8334C16.4734 12.8334 17.6674 14.0272 17.6674 15.5001C17.6674 16.9727 16.4734 18.1667 15.0007 18.1667C13.5279 18.1667 12.334 16.9727 12.334 15.5001C12.334 14.0272 13.5279 12.8334 15.0007 12.8334Z" fill="black"/>
</g>
<defs>
<clipPath id="clip0_515_651">
<rect width="30" height="30" fill="white" transform="translate(0 0.5)"/>
</clipPath>
</defs>
</svg>
