<svg width="30" height="31" viewBox="0 0 30 31" fill="none" xmlns="http://www.w3.org/2000/svg">
<g clip-path="url(#clip0_515_656)">
<path fill-rule="evenodd" clip-rule="evenodd" d="M15 30.5C23.2842 30.5 30 23.7842 30 15.5C30 7.21575 23.2842 0.5 15 0.5C6.71575 0.5 0 7.21575 0 15.5C0 23.7842 6.71575 30.5 15 30.5Z" fill="#12100E"/>
</g>
<g clip-path="url(#clip1_515_656)">
<path d="M13.75 16.125C14.0184 16.4838 14.3608 16.7807 14.7541 16.9956C15.1473 17.2104 15.5822 17.3382 16.0292 17.3702C16.4761 17.4022 16.9247 17.3377 17.3446 17.1811C17.7644 17.0245 18.1457 16.7794 18.4625 16.4625L20.3375 14.5875C20.9067 13.9981 21.2217 13.2087 21.2146 12.3893C21.2075 11.57 20.8788 10.7862 20.2994 10.2068C19.72 9.6274 18.9362 9.29874 18.1169 9.29162C17.2975 9.2845 16.5081 9.59948 15.9188 10.1687L14.8438 11.2375" stroke="white" stroke-width="2" stroke-linecap="round" stroke-linejoin="round"/>
<path d="M16.2499 14.875C15.9815 14.5162 15.639 14.2193 15.2458 14.0044C14.8525 13.7896 14.4177 13.6618 13.9707 13.6298C13.5238 13.5978 13.0751 13.6623 12.6553 13.8189C12.2354 13.9755 11.8542 14.2206 11.5374 14.5375L9.66238 16.4125C9.09314 17.0019 8.77815 17.7913 8.78527 18.6106C8.79239 19.43 9.12105 20.2138 9.70045 20.7932C10.2798 21.3726 11.0636 21.7013 11.883 21.7084C12.7024 21.7155 13.4917 21.4005 14.0811 20.8313L15.1499 19.7625" stroke="white" stroke-width="2" stroke-linecap="round" stroke-linejoin="round"/>
</g>
<defs>
<clipPath id="clip0_515_656">
<rect width="30" height="30" fill="white" transform="translate(0 0.5)"/>
</clipPath>
<clipPath id="clip1_515_656">
<rect width="15" height="15" fill="white" transform="translate(7.5 8)"/>
</clipPath>
</defs>
</svg>
