<svg width="32" height="32" viewBox="0 0 32 32" fill="none" xmlns="http://www.w3.org/2000/svg">
<path fill-rule="evenodd" clip-rule="evenodd" d="M16 32C24.8365 32 32 24.8365 32 16C32 7.16347 24.8365 0 16 0C7.16347 0 0 7.16347 0 16C0 24.8365 7.16347 32 16 32Z" fill="#12100E"/>
<path d="M7.86372 10.8693C7.89018 10.6013 7.79032 10.3364 7.59478 10.156L5.60289 7.70021V7.33334H11.7878L16.5683 18.0635L20.7712 7.33334H26.6673V7.70021L24.9643 9.37134C24.8174 9.48588 24.7446 9.67414 24.775 9.86048V22.1395C24.7446 22.3259 24.8174 22.5141 24.9643 22.6287L26.6275 24.2998V24.6667H18.2614V24.2998L19.9845 22.5879C20.1538 22.4147 20.1538 22.3637 20.1538 22.0987V12.1736L15.3632 24.6259H14.7158L9.13852 12.1736V20.5193C9.09205 20.8702 9.20592 21.2234 9.44725 21.4772L11.6882 24.2591V24.6259H5.33398V24.2591L7.57485 21.4772C7.81452 21.223 7.92172 20.8674 7.86372 20.5193V10.8693Z" fill="white"/>
</svg>
