<svg width="32" height="32" viewBox="0 0 32 32" fill="none" xmlns="http://www.w3.org/2000/svg">
<path fill-rule="evenodd" clip-rule="evenodd" d="M16 32C24.8365 32 32 24.8365 32 16C32 7.16347 24.8365 0 16 0C7.16347 0 0 7.16347 0 16C0 24.8365 7.16347 32 16 32Z" fill="#12100E"/>
<path d="M8.45072 11.4255C8.47636 11.1659 8.37961 10.9093 8.19018 10.7345L6.26051 8.35541V8H12.2522L16.8834 18.395L20.9551 8H26.667V8.35541L25.0171 9.97434C24.8748 10.0853 24.8043 10.2677 24.8338 10.4482V22.3437C24.8043 22.5242 24.8748 22.7066 25.0171 22.8176L26.6284 24.4365V24.7919H18.5237V24.4365L20.1929 22.7781C20.3569 22.6103 20.3569 22.5609 20.3569 22.3042V12.6891L15.716 24.7525H15.0888L9.6857 12.6891V20.7741C9.64068 21.114 9.75099 21.4562 9.98479 21.7021L12.1557 24.3971V24.7525H6V24.3971L8.17087 21.7021C8.40305 21.4558 8.50691 21.1113 8.45072 20.7741V11.4255Z" fill="white"/>
</svg>
