<svg width="30" height="31" viewBox="0 0 30 31" fill="none" xmlns="http://www.w3.org/2000/svg">
<g clip-path="url(#clip0_515_648)">
<path fill-rule="evenodd" clip-rule="evenodd" d="M15 0.5C6.71575 0.5 0 7.21575 0 15.5C0 23.7843 6.71575 30.5 15 30.5C23.2843 30.5 30 23.7843 30 15.5C30 7.21575 23.2843 0.5 15 0.5ZM14.5823 13.2112L14.5508 12.6922C14.4563 11.3469 15.2852 10.1182 16.5968 9.64156C17.0794 9.47206 17.8977 9.45087 18.4329 9.59919C18.6427 9.66275 19.0414 9.87456 19.3247 10.0653L19.8388 10.4148L20.4054 10.2347C20.7202 10.1394 21.1399 9.9805 21.3287 9.87456C21.5071 9.77925 21.6644 9.72625 21.6644 9.75806C21.6644 9.93812 21.2762 10.5525 20.951 10.8914C20.5103 11.3681 20.6362 11.4105 21.5281 11.0927C22.0632 10.9126 22.0736 10.9126 21.9688 11.1139C21.9058 11.2198 21.5805 11.5906 21.2342 11.9295C20.6467 12.5121 20.6153 12.5757 20.6153 13.0629C20.6153 13.815 20.2585 15.3827 19.9018 16.2407C19.2407 17.8507 17.8243 19.5138 16.4079 20.3506C14.4144 21.5264 11.7598 21.8229 9.525 21.1344C8.78006 20.9014 7.5 20.3082 7.5 20.2023C7.5 20.1705 7.88819 20.1281 8.36038 20.1176C9.34663 20.0964 10.3329 19.8209 11.1723 19.3337L11.7389 18.9948L11.0883 18.7723C10.165 18.4545 9.33613 17.7236 9.12631 17.0351C9.06331 16.8127 9.08431 16.8021 9.67188 16.8021L10.2804 16.7915L9.76631 16.5479C9.15775 16.2407 8.60169 15.7216 8.32887 15.192C8.1295 14.8107 7.87775 13.8468 7.95119 13.7726C7.97213 13.7409 8.1925 13.8044 8.44431 13.8891C9.16825 14.1539 9.26269 14.0904 8.843 13.6455C8.05606 12.8405 7.81475 11.6435 8.1925 10.5101L8.37088 10.0017L9.06331 10.6902C10.4798 12.0778 12.1481 12.9041 14.0576 13.1477L14.5823 13.2112Z" fill="black"/>
</g>
<defs>
<clipPath id="clip0_515_648">
<rect width="30" height="30" fill="white" transform="translate(0 0.5)"/>
</clipPath>
</defs>
</svg>
