<svg width="32" height="32" viewBox="0 0 32 32" fill="none" xmlns="http://www.w3.org/2000/svg">
<path fill-rule="evenodd" clip-rule="evenodd" d="M16 0C7.16347 0 0 7.16347 0 16C0 24.8365 7.16347 32 16 32C24.8365 32 32 24.8365 32 16C32 7.16347 24.8365 0 16 0ZM15.5544 13.5587L15.5208 13.005C15.4201 11.5701 16.3042 10.2594 17.7032 9.751C18.218 9.5702 19.0909 9.5476 19.6617 9.7058C19.8855 9.7736 20.3109 9.99953 20.613 10.2029L21.1614 10.5758L21.7657 10.3837C22.1015 10.282 22.5492 10.1125 22.7506 9.99953C22.9409 9.89787 23.1087 9.84133 23.1087 9.87527C23.1087 10.0673 22.6947 10.7227 22.3477 11.0842C21.8777 11.5927 22.012 11.6379 22.9633 11.2989C23.5341 11.1068 23.5452 11.1068 23.4333 11.3215C23.3661 11.4345 23.0192 11.8299 22.6499 12.1915C22.0231 12.8129 21.9896 12.8807 21.9896 13.4005C21.9896 14.2027 21.6091 15.8749 21.2285 16.7901C20.5235 18.5075 19.0126 20.2813 17.5017 21.1739C15.3753 22.4281 12.5438 22.7445 10.16 22.0101C9.3654 21.7615 8 21.1287 8 21.0158C8 20.9819 8.41407 20.9367 8.91773 20.9254C9.96973 20.9028 11.0217 20.609 11.9171 20.0893L12.5215 19.7277L11.8275 19.4905C10.8427 19.1515 9.95853 18.3719 9.73473 17.6375C9.66753 17.4002 9.68993 17.3889 10.3167 17.3889L10.9658 17.3776L10.4174 17.1177C9.76827 16.7901 9.17513 16.2364 8.88413 15.6715C8.67147 15.2647 8.40293 14.2365 8.48127 14.1575C8.5036 14.1236 8.73867 14.1913 9.00727 14.2817C9.77947 14.5642 9.8802 14.4964 9.43253 14.0219C8.59313 13.1632 8.33573 11.8864 8.73867 10.6775L8.92893 10.1351L9.66753 10.8695C11.1785 12.3497 12.9579 13.231 14.9948 13.4909L15.5544 13.5587Z" fill="black"/>
</svg>
