<svg width="32" height="32" viewBox="0 0 32 32" fill="none" xmlns="http://www.w3.org/2000/svg">
<path fill-rule="evenodd" clip-rule="evenodd" d="M16 0C7.16347 0 0 7.16347 0 16C0 24.8365 7.16347 32 16 32C24.8365 32 32 24.8365 32 16C32 7.16347 24.8365 0 16 0ZM22.2681 9.07013C24.2408 9.12793 25.1713 10.4072 25.0573 12.908C24.9719 14.7769 23.6667 17.3355 21.1415 20.5837C18.5311 23.9755 16.3224 25.6721 14.5164 25.6721C13.3967 25.6721 12.4497 24.6397 11.6759 22.5733C11.4753 21.8378 11.2749 21.1023 11.0743 20.3669C10.7585 19.2083 10.4427 18.0497 10.1265 16.8911C9.55173 14.8258 8.9358 13.7921 8.27647 13.7921C8.1328 13.7921 7.6302 14.0943 6.76953 14.6961L5.86667 13.5328C6.81427 12.7005 7.74887 11.8681 8.66833 11.0345C9.93213 9.94293 10.8815 9.3684 11.5139 9.3106C13.0075 9.16687 13.9272 10.188 14.2724 12.374C14.6455 14.7329 14.9038 16.1997 15.0486 16.7738C15.4799 18.7308 15.9539 19.7083 16.4714 19.7083C16.8728 19.7083 17.4768 19.0737 18.2819 17.8037C19.0853 16.5347 19.5162 15.5689 19.5742 14.9051C19.6891 13.8098 19.2583 13.2607 18.2819 13.2607C17.8222 13.2607 17.3481 13.3665 16.8606 13.5755C17.8045 10.4854 19.6072 8.98447 22.2681 9.07013Z" fill="black"/>
</svg>
