<svg width="19" height="35" viewBox="0 0 19 35" version="1.1" xmlns="http://www.w3.org/2000/svg" xmlns:xlink="http://www.w3.org/1999/xlink" xmlns:figma="http://www.figma.com/figma/ns">
<title>,</title>
<desc>Created using Figma</desc>
<g id="Canvas" transform="translate(60 -93)" figma:type="canvas">
<g id="," figma:type="vector">
<use xlink:href="#path0_fill" transform="translate(-59.16 93.584)" fill="#FFFFFF"/>
</g>
</g>
<defs>
<path id="path0_fill" d="M 0 7.776C 0 11.904 2.304 15.264 6.624 15.264C 7.968 15.264 9.216 14.88 10.176 14.208C 10.368 14.784 10.464 15.36 10.464 16.224C 10.464 20.736 7.968 25.536 5.088 29.28C 4.416 30.048 4.224 30.912 4.992 31.68L 7.968 33.792C 8.736 34.464 9.504 34.368 10.176 33.696C 14.016 28.608 17.856 21.888 17.856 12.672C 17.856 4.416 13.536 0 8.256 0C 3.456 0 0 3.36 0 7.776Z"/>
</defs>
</svg>
