<svg width="265" height="28" viewBox="0 0 265 28" fill="none" xmlns="http://www.w3.org/2000/svg">
<path d="M28.8 5.68048V1.10848H0.648V5.68048H12.06V26.9565H17.388V5.68048H28.8ZM53.6169 1.10848V11.4045H37.0209V1.10848H31.7289V26.9565H37.0209V15.9765H53.6169V26.9565H58.9449V1.10848H53.6169ZM63.4399 1.10848V26.9565H88.4599V22.3845H68.6599V15.9765H86.4079V11.4405H68.6599V5.68048H88.4599V1.10848H63.4399ZM123.475 17.0925V1.10848H118.183V16.8405C118.183 20.6565 115.591 22.7085 111.451 22.7085C107.671 22.7085 104.827 20.1885 104.035 17.0925L99.2109 19.8285C100.723 24.2205 105.547 27.3525 111.415 27.3525C118.651 27.3525 123.475 23.2485 123.475 17.0925ZM151.064 0.712481C142.028 0.712481 135.476 6.29248 135.476 13.9605C135.476 21.7005 141.884 27.3525 150.848 27.3525C155.168 27.3525 158.84 25.8045 160.316 23.9325V26.9565H165.284V12.8085H148.724V17.2725H160.352C159.992 20.4765 155.672 22.7445 150.884 22.7445C145.124 22.7445 140.912 19.2525 140.912 14.0325C140.912 8.77648 145.196 5.35648 151.028 5.35648C155.6 5.35648 158.768 7.40848 160.244 10.9365L164.888 8.70448C162.908 3.73648 157.832 0.712481 151.064 0.712481ZM181.789 27.3165C190.825 27.3165 195.073 22.2765 195.073 14.7525V1.10848H189.745V14.4645C189.745 19.3245 187.657 22.6725 181.789 22.6725C175.885 22.6725 173.797 19.3245 173.797 14.4645V1.10848H168.505V14.7525C168.505 22.2765 172.717 27.3165 181.789 27.3165ZM204.189 1.10848H198.897V26.9565H204.189V1.10848ZM208.706 26.9565H221.918C230.99 26.9565 236.714 21.9165 236.714 14.0325C236.714 6.14848 230.99 1.10848 221.918 1.10848H208.706V26.9565ZM213.89 22.4205V5.64448H221.918C227.822 5.64448 231.314 8.92048 231.314 14.0325C231.314 19.1085 227.822 22.4205 221.918 22.4205H213.89ZM239.784 1.10848V26.9565H264.804V22.3845H245.004V15.9765H262.752V11.4405H245.004V5.68048H264.804V1.10848H239.784Z" fill="#6C4E4E"/>
</svg>
