<?xml version="1.0" encoding="UTF-8"?>
<svg xmlns="http://www.w3.org/2000/svg" xmlns:xlink="http://www.w3.org/1999/xlink" version="1.2" >
<font id="Calibre">
<font-face  font-family="Calibre" units-per-em="1000" ascent="650" descent="-350" font-style="normal" font-weight="400" font-stretch="normal" cap-height="614" x-height="444" underline-position="-55" underline-thickness="30" />
<missing-glyph  horiz-adv-x="608" d="" />
<glyph glyph-name="NULL" d="" />
<glyph glyph-name="CR" unicode="&#xd;" horiz-adv-x="250" d="" />
<glyph glyph-name="space" unicode="&#x20;" horiz-adv-x="221" d="" />
<glyph glyph-name="exclam" unicode="&#x21;" horiz-adv-x="203" d="M48 49 C48 18 72 -5 101 -5 C131 -5 155 18 155 49 C155 80 131 104 101 104 C72 104 48 80 48 49 L48 49 Z M74 193 L128 193 L146 614 L57 614 L74 193 Z " />
<glyph glyph-name="quotedbl" unicode="&#x22;" horiz-adv-x="265" d="M40 395 L106 395 L106 614 L40 614 L40 395 Z M159 395 L225 395 L225 614 L159 614 L159 395 Z " />
<glyph glyph-name="numbersign" unicode="&#x23;" horiz-adv-x="576" d="M511 235 L409 235 L443 379 L540 379 L552 438 L457 438 L499 614 L432 614 L389 438 L248 438 L291 614 L223 614 L181 438 L77 438 L65 379 L167 379 L133 235 L36 235 L23 176 L119 176 L77 0 L144 0 L186 176 L327 176 L285 0 L353 0 L395 176 L499 176 L511 235 Z M234 379 L375 379 L341 235 L200 235 L234 379 Z " />
<glyph glyph-name="dollar" unicode="&#x24;" horiz-adv-x="477" d="M210 -89 L279 -89 L279 10 C375 21 444 80 444 176 C444 258 393 309 302 333 L205 358 C145 374 113 397 113 447 C113 506 161 541 229 541 C305 541 348 504 365 453 L439 453 C420 532 367 587 279 602 L279 695 L210 695 L210 605 C111 598 41 535 41 443 C41 354 101 311 180 291 L282 264 C348 247 373 218 373 173 C373 110 321 74 246 74 C177 74 125 103 103 166 L27 166 C46 75 116 21 210 10 L210 -89 Z " />
<glyph glyph-name="percent" unicode="&#x25;" horiz-adv-x="642" d="M99 0 L161 0 L544 614 L482 614 L99 0 Z M92 490 C92 531 125 565 166 565 C207 565 241 531 241 490 C241 449 207 416 166 416 C125 416 92 449 92 490 L92 490 Z M609 124 C609 198 550 257 476 257 C402 257 343 198 343 124 C343 50 402 -9 476 -9 C550 -9 609 50 609 124 L609 124 Z M299 490 C299 564 240 623 166 623 C92 623 33 564 33 490 C33 416 92 357 166 357 C240 357 299 416 299 490 L299 490 Z M550 124 C550 83 517 49 476 49 C435 49 401 83 401 124 C401 165 435 198 476 198 C517 198 550 165 550 124 L550 124 Z " />
<glyph glyph-name="ampersand" unicode="&#x26;" horiz-adv-x="585" d="M434 474 C430 557 374 623 270 623 C175 623 102 564 102 468 C102 419 121 384 151 347 C86 316 39 253 39 179 C39 70 121 -9 238 -9 C310 -9 369 19 414 64 L475 0 L574 0 L459 122 C492 176 510 241 512 308 L442 308 C440 257 430 211 413 172 L241 355 C206 393 175 425 175 470 C175 528 217 562 270 562 C325 562 356 524 359 474 L434 474 Z M238 54 C163 54 111 106 111 179 C111 234 145 282 193 300 L372 109 C339 74 294 54 238 54 L238 54 Z " />
<glyph glyph-name="quotesingle" unicode="&#x27;" horiz-adv-x="148" d="M40 395 L108 395 L108 614 L40 614 L40 395 Z " />
<glyph glyph-name="parenleft" unicode="&#x28;" horiz-adv-x="321" d="M30 283 C30 100 134 -41 298 -84 L298 -4 C191 23 105 129 105 283 C105 437 191 543 298 570 L298 650 C134 607 30 466 30 283 L30 283 Z " />
<glyph glyph-name="parenright" unicode="&#x29;" horiz-adv-x="321" d="M291 283 C291 466 187 607 23 650 L23 570 C130 543 216 437 216 283 C216 129 130 23 23 -4 L23 -84 C187 -41 291 100 291 283 L291 283 Z " />
<glyph glyph-name="asterisk" unicode="&#x2a;" horiz-adv-x="332" d="M121 506 L31 454 L53 416 L144 468 L144 363 L188 363 L188 468 L279 416 L301 454 L210 506 L301 559 L279 597 L188 545 L188 649 L144 649 L144 545 L53 597 L31 559 L121 506 Z " />
<glyph glyph-name="plus" unicode="&#x2b;" horiz-adv-x="540" d="M239 494 L239 328 L73 328 L73 266 L239 266 L239 100 L301 100 L301 266 L467 266 L467 328 L301 328 L301 494 L239 494 Z " />
<glyph glyph-name="comma" unicode="&#x2c;" horiz-adv-x="171" d="M13 -107 L64 -107 L117 -19 C129 0 139 23 139 44 C139 81 116 102 86 102 C56 102 32 80 32 49 C32 20 51 3 76 -1 L13 -107 Z " />
<glyph glyph-name="hyphen" unicode="&#x2d;" horiz-adv-x="321" d="M40 226 L281 226 L281 296 L40 296 L40 226 Z " />
<glyph glyph-name="period" unicode="&#x2e;" horiz-adv-x="171" d="M32 49 C32 18 56 -5 86 -5 C115 -5 139 18 139 49 C139 80 115 104 86 104 C56 104 32 80 32 49 L32 49 Z " />
<glyph glyph-name="slash" unicode="&#x2f;" horiz-adv-x="333" d="M5 -84 L80 -84 L328 650 L253 650 L5 -84 Z " />
<glyph glyph-name="zero" unicode="0" horiz-adv-x="538" d="M269 -9 C406 -9 498 120 498 307 C498 494 406 623 269 623 C132 623 40 494 40 307 C40 120 132 -9 269 -9 L269 -9 Z M269 552 C368 552 421 450 421 307 C421 164 368 62 269 62 C169 62 117 164 117 307 C117 450 169 552 269 552 L269 552 Z " />
<glyph glyph-name="one" unicode="1" horiz-adv-x="329" d="M254 615 L207 615 L25 522 L25 442 L177 520 L177 0 L254 0 L254 615 Z " />
<glyph glyph-name="two" unicode="2" horiz-adv-x="457" d="M341 449 C341 391 291 340 227 270 L29 52 L29 0 L430 0 L430 70 L137 70 L293 241 C355 311 417 372 417 450 C417 555 347 623 230 623 C117 623 41 544 29 430 L110 430 C116 501 156 553 230 553 C298 553 341 512 341 449 L341 449 Z " />
<glyph glyph-name="three" unicode="3" horiz-adv-x="460" d="M184 281 L227 281 C297 281 352 240 352 171 C352 103 302 59 229 59 C152 59 105 104 94 175 L17 175 C27 64 110 -9 230 -9 C353 -9 427 71 427 172 C427 241 385 296 319 315 C375 332 415 387 415 455 C415 553 345 623 228 623 C119 623 44 550 29 446 L106 446 C115 510 159 555 228 555 C297 555 340 510 340 451 C340 385 290 348 225 348 L184 348 L184 281 Z " />
<glyph glyph-name="four" unicode="4" horiz-adv-x="509" d="M338 614 L258 614 L22 195 L22 139 L305 139 L305 0 L378 0 L378 139 L486 139 L486 205 L378 205 L378 353 L305 353 L305 205 L109 205 L338 614 Z " />
<glyph glyph-name="five" unicode="5" horiz-adv-x="469" d="M237 330 C312 330 363 271 363 194 C363 117 312 59 238 59 C161 59 117 103 104 175 L27 175 C41 61 121 -9 238 -9 C354 -9 437 78 437 194 C437 312 357 398 244 398 C194 398 153 378 132 359 L132 544 L402 544 L402 614 L66 614 L66 277 L128 277 C151 305 188 330 237 330 L237 330 Z " />
<glyph glyph-name="six" unicode="6" horiz-adv-x="500" d="M127 196 C127 279 182 336 260 336 C337 336 392 278 392 196 C392 115 337 58 260 58 C181 58 127 116 127 196 L127 196 Z M456 471 C432 565 373 623 265 623 C132 623 40 495 40 296 C40 224 50 163 76 108 C114 31 179 -9 259 -9 C385 -9 465 84 465 197 C465 308 385 401 266 401 C194 401 131 358 111 296 C111 302 110 317 110 323 C110 455 175 558 265 558 C327 558 361 523 378 471 L456 471 Z " />
<glyph glyph-name="seven" unicode="7" horiz-adv-x="440" d="M415 553 L415 614 L18 614 L18 544 L334 544 L117 0 L196 0 L415 553 Z " />
<glyph glyph-name="eight" unicode="8" horiz-adv-x="487" d="M243 55 C166 55 110 103 110 173 C110 242 166 290 243 290 C321 290 377 242 377 173 C377 103 321 55 243 55 L243 55 Z M243 356 C180 356 131 397 131 457 C131 518 180 559 243 559 C307 559 356 518 356 457 C356 397 307 356 243 356 L243 356 Z M243 -9 C362 -9 453 61 453 167 C453 247 400 305 333 323 C389 343 431 394 431 461 C431 560 348 623 243 623 C139 623 56 560 56 461 C56 394 97 343 154 323 C86 305 34 247 34 167 C34 61 125 -9 243 -9 L243 -9 Z " />
<glyph glyph-name="nine" unicode="9" horiz-adv-x="500" d="M373 418 C373 335 318 278 240 278 C163 278 108 336 108 418 C108 499 163 556 240 556 C319 556 373 498 373 418 L373 418 Z M44 143 C68 49 127 -9 235 -9 C368 -9 460 119 460 318 C460 390 450 451 424 506 C386 583 321 623 241 623 C115 623 35 530 35 417 C35 306 115 213 234 213 C306 213 369 256 389 318 C389 312 390 297 390 291 C390 159 325 56 235 56 C173 56 139 91 122 143 L44 143 Z " />
<glyph glyph-name="colon" unicode="&#x3a;" horiz-adv-x="171" d="M32 49 C32 18 56 -5 86 -5 C115 -5 139 18 139 49 C139 80 115 104 86 104 C56 104 32 80 32 49 L32 49 Z M32 363 C32 332 56 309 86 309 C115 309 139 332 139 363 C139 394 115 418 86 418 C56 418 32 394 32 363 L32 363 Z " />
<glyph glyph-name="semicolon" unicode="&#x3b;" horiz-adv-x="171" d="M13 -107 L64 -107 L117 -19 C129 0 139 23 139 44 C139 81 116 102 86 102 C56 102 32 80 32 49 C32 20 51 3 76 -1 L13 -107 Z M32 363 C32 332 56 309 86 309 C115 309 139 332 139 363 C139 394 115 418 86 418 C56 418 32 394 32 363 L32 363 Z " />
<glyph glyph-name="less" unicode="&#x3c;" horiz-adv-x="423" d="M62 256 L358 105 L358 176 L120 295 L358 414 L358 485 L62 334 L62 256 Z " />
<glyph glyph-name="equal" unicode="&#x3d;" horiz-adv-x="551" d="M79 199 L473 199 L473 257 L79 257 L79 199 Z M79 337 L473 337 L473 397 L79 397 L79 337 Z " />
<glyph glyph-name="greater" unicode="&#x3e;" horiz-adv-x="423" d="M362 334 L65 485 L65 414 L303 295 L65 176 L65 105 L362 256 L362 334 Z " />
<glyph glyph-name="question" unicode="&#x3f;" horiz-adv-x="432" d="M170 49 C170 18 194 -5 223 -5 C253 -5 277 18 277 49 C277 80 253 104 223 104 C194 104 170 80 170 49 L170 49 Z M408 451 C408 556 338 623 221 623 C109 623 32 544 20 430 L101 430 C107 502 148 553 221 553 C289 553 332 513 332 450 C332 391 282 353 247 313 C207 269 192 243 189 193 L263 193 C264 217 272 239 306 275 C353 325 408 377 408 451 L408 451 Z " />
<glyph glyph-name="at" unicode="&#x40;" horiz-adv-x="774" d="M560 381 L493 381 L486 344 C472 367 440 390 395 390 C287 390 213 288 213 179 C213 96 261 31 345 31 C385 31 427 55 447 88 C461 51 500 30 547 30 C646 30 742 108 742 271 C742 439 608 566 411 566 C184 566 32 397 32 188 C32 -52 218 -154 412 -154 C500 -154 579 -133 629 -109 L629 -52 C572 -78 501 -98 412 -98 C262 -98 94 -25 94 188 C94 373 223 510 411 510 C568 510 682 416 682 271 C682 152 628 84 557 84 C525 84 510 98 517 138 L560 381 Z M450 151 C429 119 400 93 359 93 C311 93 282 129 282 182 C282 254 327 328 399 328 C435 328 462 305 473 275 L450 151 Z " />
<glyph glyph-name="A" unicode="A" horiz-adv-x="596" d="M261 614 L21 0 L101 0 L171 185 L424 185 L495 0 L575 0 L335 614 L261 614 Z M297 516 L397 254 L197 254 L297 516 Z " />
<glyph glyph-name="B" unicode="B" horiz-adv-x="538" d="M388 318 C436 333 478 378 478 451 C478 557 402 614 275 614 L73 614 L73 0 L295 0 C421 0 499 61 499 173 C499 242 454 301 388 318 L388 318 Z M150 347 L150 545 L275 545 C357 545 402 514 402 447 C402 380 357 347 275 347 L150 347 Z M150 281 L295 281 C378 281 422 240 422 175 C422 111 378 69 295 69 L150 69 L150 281 Z " />
<glyph glyph-name="C" unicode="C" horiz-adv-x="586" d="M37 307 C37 116 157 -9 312 -9 C440 -9 526 66 551 181 L473 181 C448 109 397 62 312 62 C194 62 116 162 116 307 C116 453 195 552 312 552 C397 552 448 505 473 434 L551 434 C526 548 441 623 312 623 C157 623 37 498 37 307 L37 307 Z " />
<glyph glyph-name="D" unicode="D" horiz-adv-x="605" d="M152 71 L152 544 L269 544 C408 544 490 451 490 307 C490 163 408 71 269 71 L152 71 Z M73 0 L270 0 C450 0 568 120 568 307 C568 494 450 614 270 614 L73 614 L73 0 Z " />
<glyph glyph-name="E" unicode="E" horiz-adv-x="515" d="M73 614 L73 0 L464 0 L464 71 L151 71 L151 280 L435 280 L435 350 L151 350 L151 544 L464 544 L464 614 L73 614 Z " />
<glyph glyph-name="F" unicode="F" horiz-adv-x="485" d="M152 0 L152 267 L430 267 L430 337 L152 337 L152 544 L448 544 L448 614 L73 614 L73 0 L152 0 Z " />
<glyph glyph-name="G" unicode="G" horiz-adv-x="610" d="M498 235 C489 128 426 61 319 61 C197 61 116 160 116 307 C116 454 198 552 317 552 C404 552 454 506 480 434 L559 434 C534 548 448 623 317 623 C160 623 37 499 37 307 C37 115 159 -9 319 -9 C469 -9 573 97 573 261 L573 303 L351 303 L351 235 L498 235 Z " />
<glyph glyph-name="H" unicode="H" horiz-adv-x="651" d="M499 614 L499 351 L152 351 L152 614 L73 614 L73 0 L152 0 L152 280 L499 280 L499 0 L578 0 L578 614 L499 614 Z " />
<glyph glyph-name="I" unicode="I" horiz-adv-x="225" d="M152 614 L73 614 L73 0 L152 0 L152 614 Z " />
<glyph glyph-name="J" unicode="J" horiz-adv-x="479" d="M17 174 C25 66 97 -9 218 -9 C335 -9 418 61 418 204 L418 614 L339 614 L339 204 C339 105 292 63 217 63 C148 63 106 105 98 174 L17 174 Z " />
<glyph glyph-name="K" unicode="K" horiz-adv-x="564" d="M152 614 L73 614 L73 0 L152 0 L152 209 L218 280 L449 0 L547 0 L275 334 L538 614 L438 614 L152 307 L152 614 Z " />
<glyph glyph-name="L" unicode="L" horiz-adv-x="504" d="M73 0 L465 0 L465 71 L152 71 L152 614 L73 614 L73 0 Z " />
<glyph glyph-name="M" unicode="M" horiz-adv-x="736" d="M396 0 L588 468 L588 0 L663 0 L663 614 L577 614 L370 110 L162 614 L73 614 L73 0 L148 0 L148 468 L342 0 L396 0 Z " />
<glyph glyph-name="N" unicode="N" horiz-adv-x="623" d="M550 614 L475 614 L475 147 L148 614 L73 614 L73 0 L149 0 L149 488 L492 0 L550 0 L550 614 Z " />
<glyph glyph-name="O" unicode="O" horiz-adv-x="629" d="M592 307 C592 493 476 623 314 623 C153 623 37 493 37 307 C37 122 153 -9 314 -9 C476 -9 592 122 592 307 L592 307 Z M513 307 C513 163 433 62 314 62 C196 62 116 163 116 307 C116 451 196 552 314 552 C433 552 513 451 513 307 L513 307 Z " />
<glyph glyph-name="P" unicode="P" horiz-adv-x="537" d="M303 246 C427 246 505 310 505 430 C505 551 427 614 303 614 L73 614 L73 0 L152 0 L152 246 L303 246 Z M427 430 C427 361 384 316 301 316 L152 316 L152 545 L301 545 C384 545 427 500 427 430 L427 430 Z " />
<glyph glyph-name="Q" unicode="Q" horiz-adv-x="628" d="M500 -36 L554 5 L503 69 C558 125 592 208 592 307 C592 493 476 623 314 623 C153 623 37 493 37 307 C37 122 153 -9 314 -9 C364 -9 410 4 450 27 L500 -36 Z M513 307 C513 228 493 167 458 125 L408 189 L354 149 L406 83 C380 69 348 62 314 62 C196 62 116 163 116 307 C116 451 196 552 314 552 C433 552 513 451 513 307 L513 307 Z " />
<glyph glyph-name="R" unicode="R" horiz-adv-x="552" d="M261 260 L437 0 L527 0 L346 263 C442 276 502 334 502 436 C502 552 424 614 301 614 L73 614 L73 0 L152 0 L152 260 L261 260 Z M152 545 L299 545 C380 545 424 504 424 436 C424 368 380 327 299 327 L152 327 L152 545 Z " />
<glyph glyph-name="S" unicode="S" horiz-adv-x="509" d="M23 160 C46 52 137 -9 259 -9 C381 -9 471 58 471 169 C471 256 416 309 318 334 L213 361 C149 378 115 403 115 455 C115 518 169 556 242 556 C323 556 369 516 388 461 L467 461 C444 558 369 623 242 623 C126 623 40 553 40 449 C40 356 102 313 187 291 L297 262 C368 244 395 213 395 165 C395 97 339 58 259 58 C184 58 126 92 103 160 L23 160 Z " />
<glyph glyph-name="T" unicode="T" horiz-adv-x="567" d="M30 544 L244 544 L244 0 L323 0 L323 544 L537 544 L537 614 L30 614 L30 544 Z " />
<glyph glyph-name="U" unicode="U" horiz-adv-x="607" d="M303 -9 C443 -9 544 75 544 243 L544 614 L465 614 L465 253 C465 122 402 61 303 61 C204 61 141 122 141 253 L141 614 L63 614 L63 244 C63 75 164 -9 303 -9 L303 -9 Z " />
<glyph glyph-name="V" unicode="V" horiz-adv-x="590" d="M332 0 L569 614 L489 614 L296 104 L104 614 L21 614 L258 0 L332 0 Z " />
<glyph glyph-name="W" unicode="W" horiz-adv-x="767" d="M353 614 L223 126 L97 614 L19 614 L182 0 L253 0 L384 479 L513 0 L585 0 L748 614 L672 614 L546 126 L416 614 L353 614 Z " />
<glyph glyph-name="X" unicode="X" horiz-adv-x="557" d="M532 614 L445 614 L279 375 L115 614 L25 614 L234 312 L17 0 L104 0 L277 250 L451 0 L541 0 L323 314 L532 614 Z " />
<glyph glyph-name="Y" unicode="Y" horiz-adv-x="557" d="M280 324 L103 614 L17 614 L239 253 L239 0 L317 0 L317 253 L541 614 L457 614 L280 324 Z " />
<glyph glyph-name="Z" unicode="Z" horiz-adv-x="534" d="M492 71 L140 71 L488 558 L488 614 L46 614 L46 544 L390 544 L41 57 L41 0 L492 0 L492 71 Z " />
<glyph glyph-name="bracketleft" unicode="&#x5b;" horiz-adv-x="313" d="M145 582 L290 582 L290 650 L73 650 L73 -84 L290 -84 L290 -16 L145 -16 L145 582 Z " />
<glyph glyph-name="backslash" unicode="&#x5c;" horiz-adv-x="333" d="M80 650 L5 650 L253 -84 L328 -84 L80 650 Z " />
<glyph glyph-name="bracketright" unicode="&#x5d;" horiz-adv-x="313" d="M168 -16 L23 -16 L23 -84 L240 -84 L240 650 L23 650 L23 582 L168 582 L168 -16 Z " />
<glyph glyph-name="asciicircum" unicode="&#x5e;" horiz-adv-x="357" d="M142 614 L17 420 L96 420 L179 548 L262 420 L340 420 L216 614 L142 614 Z " />
<glyph glyph-name="underscore" unicode="&#x5f;" horiz-adv-x="367" d="M20 -110 L347 -110 L347 -42 L20 -42 L20 -110 Z " />
<glyph glyph-name="grave" unicode="&#x60;" horiz-adv-x="500" d="M329 516 L249 650 L171 650 L260 516 L329 516 Z " />
<glyph glyph-name="a" unicode="a" horiz-adv-x="450" d="M389 0 L389 296 C389 393 326 453 220 453 C135 453 69 402 54 327 L128 327 C142 368 172 388 219 388 C283 388 317 348 317 293 L317 237 C298 254 251 273 205 273 C110 273 35 217 35 134 C35 46 110 -8 200 -8 C253 -8 300 15 317 33 L317 0 L389 0 Z M317 110 C304 77 259 55 213 55 C159 55 107 80 107 134 C107 187 159 211 213 211 C259 211 304 189 317 156 L317 110 Z " />
<glyph glyph-name="b" unicode="b" horiz-adv-x="502" d="M142 52 C164 20 212 -9 267 -9 C397 -9 467 96 467 222 C467 347 397 453 267 453 C212 453 164 424 142 392 L142 650 L66 650 L66 0 L142 0 L142 52 Z M142 312 C165 358 209 385 256 385 C341 385 391 316 391 222 C391 128 341 59 256 59 C209 59 165 86 142 132 L142 312 Z " />
<glyph glyph-name="c" unicode="c" horiz-adv-x="446" d="M35 222 C35 84 118 -9 237 -9 C337 -9 400 49 415 134 L338 134 C328 86 290 57 237 57 C161 57 111 125 111 222 C111 319 161 387 237 387 C290 387 328 358 338 310 L415 310 C400 395 337 453 237 453 C118 453 35 360 35 222 L35 222 Z " />
<glyph glyph-name="d" unicode="d" horiz-adv-x="502" d="M360 0 L436 0 L436 650 L360 650 L360 392 C338 424 290 453 235 453 C105 453 35 347 35 222 C35 96 105 -9 235 -9 C290 -9 338 20 360 52 L360 0 Z M360 132 C337 86 293 59 246 59 C161 59 111 128 111 222 C111 316 161 385 246 385 C293 385 337 358 360 312 L360 132 Z " />
<glyph glyph-name="e" unicode="e" horiz-adv-x="457" d="M347 133 C335 83 294 55 239 55 C164 55 111 113 110 208 L424 208 L424 235 C424 364 359 453 237 453 C116 453 35 354 35 221 C35 84 118 -9 239 -9 C339 -9 402 49 418 133 L347 133 Z M238 389 C312 389 347 331 348 265 L112 265 C123 343 171 389 238 389 L238 389 Z " />
<glyph glyph-name="f" unicode="f" horiz-adv-x="289" d="M289 649 C272 656 255 659 231 659 C153 659 95 607 95 518 L95 444 L20 444 L20 380 L95 380 L95 0 L169 0 L169 380 L269 380 L269 444 L169 444 L169 512 C169 565 198 593 242 593 C258 593 275 590 289 581 L289 649 Z " />
<glyph glyph-name="g" unicode="g" horiz-adv-x="501" d="M358 30 C358 -66 316 -116 236 -116 C175 -116 133 -89 120 -33 L46 -33 C60 -124 128 -180 236 -180 C350 -180 434 -111 434 35 L434 444 L358 444 L358 394 C336 425 289 453 234 453 C104 453 35 346 35 228 C35 111 104 3 234 3 C289 3 336 32 358 63 L358 30 Z M358 140 C335 98 293 71 245 71 C161 71 112 137 112 228 C112 320 161 386 245 386 C293 386 335 359 358 317 L358 140 Z " />
<glyph glyph-name="h" unicode="h" horiz-adv-x="489" d="M67 0 L142 0 L142 301 C158 349 203 384 255 384 C322 384 353 341 353 279 L353 0 L429 0 L429 291 C429 388 374 453 273 453 C216 453 168 423 142 388 L142 650 L67 650 L67 0 Z " />
<glyph glyph-name="i" unicode="i" horiz-adv-x="209" d="M142 444 L67 444 L67 0 L142 0 L142 444 Z M153 578 C153 605 131 626 104 626 C78 626 56 605 56 578 C56 552 78 530 104 530 C131 530 153 552 153 578 L153 578 Z " />
<glyph glyph-name="j" unicode="j" horiz-adv-x="207" d="M142 444 L67 444 L67 -46 C67 -96 46 -114 7 -114 C-2 -114 -13 -112 -19 -111 L-19 -175 C-11 -178 4 -179 13 -179 C96 -179 142 -134 142 -51 L142 444 Z M153 578 C153 605 131 626 104 626 C78 626 56 605 56 578 C56 552 78 530 104 530 C131 530 153 552 153 578 L153 578 Z " />
<glyph glyph-name="k" unicode="k" horiz-adv-x="464" d="M359 0 L451 0 L244 252 L444 444 L345 444 L142 247 L142 650 L67 650 L67 0 L142 0 L142 159 L190 205 L359 0 Z " />
<glyph glyph-name="l" unicode="l" horiz-adv-x="209" d="M142 650 L67 650 L67 0 L142 0 L142 650 Z " />
<glyph glyph-name="m" unicode="m" horiz-adv-x="717" d="M382 382 C361 424 318 453 262 453 C207 453 164 427 142 392 L142 444 L67 444 L67 0 L142 0 L142 306 C156 354 195 385 240 385 C297 385 324 344 324 282 L324 0 L399 0 L399 306 C413 354 452 385 497 385 C554 385 581 344 581 282 L581 0 L657 0 L657 294 C657 390 607 453 517 453 C455 453 410 422 382 382 L382 382 Z " />
<glyph glyph-name="n" unicode="n" horiz-adv-x="489" d="M67 0 L142 0 L142 301 C158 349 203 384 255 384 C322 384 353 341 353 279 L353 0 L429 0 L429 291 C429 388 374 453 273 453 C216 453 168 423 142 388 L142 444 L67 444 L67 0 Z " />
<glyph glyph-name="o" unicode="o" horiz-adv-x="478" d="M443 222 C443 358 360 453 239 453 C117 453 35 358 35 222 C35 86 117 -9 239 -9 C360 -9 443 86 443 222 L443 222 Z M367 222 C367 125 319 57 239 57 C159 57 111 125 111 222 C111 319 159 387 239 387 C319 387 367 319 367 222 L367 222 Z " />
<glyph glyph-name="p" unicode="p" horiz-adv-x="502" d="M142 52 C165 20 212 -9 267 -9 C398 -9 467 99 467 222 C467 345 398 453 267 453 C212 453 165 424 142 392 L142 444 L67 444 L67 -170 L142 -170 L142 52 Z M142 312 C165 358 209 385 256 385 C341 385 391 316 391 222 C391 128 341 59 256 59 C209 59 165 86 142 132 L142 312 Z " />
<glyph glyph-name="q" unicode="q" horiz-adv-x="502" d="M360 -170 L435 -170 L435 444 L360 444 L360 392 C337 424 290 453 235 453 C104 453 35 345 35 222 C35 99 104 -9 235 -9 C290 -9 337 20 360 52 L360 -170 Z M360 132 C337 86 293 59 246 59 C161 59 111 128 111 222 C111 316 161 385 246 385 C293 385 337 358 360 312 L360 132 Z " />
<glyph glyph-name="r" unicode="r" horiz-adv-x="321" d="M295 446 C287 450 271 453 252 453 C203 453 161 424 142 386 L142 444 L67 444 L67 0 L142 0 L142 298 C157 350 198 381 245 381 C264 381 283 377 295 369 L295 446 Z " />
<glyph glyph-name="s" unicode="s" horiz-adv-x="414" d="M30 122 C44 40 115 -9 212 -9 C307 -9 377 41 377 125 C377 187 340 229 264 249 L178 270 C136 282 116 296 116 326 C116 369 157 390 201 390 C255 390 286 367 299 327 L374 327 C358 405 300 453 202 453 C112 453 43 401 43 322 C43 253 87 221 150 205 L238 182 C284 170 304 151 304 120 C304 75 266 54 213 54 C161 54 122 76 108 122 L30 122 Z " />
<glyph glyph-name="t" unicode="t" horiz-adv-x="317" d="M88 112 C88 30 138 -9 210 -9 C237 -9 263 -3 280 6 L280 76 C265 66 243 58 222 58 C184 58 163 77 163 120 L163 380 L270 380 L270 444 L163 444 L163 561 L88 561 L88 444 L16 444 L16 380 L88 380 L88 112 Z " />
<glyph glyph-name="u" unicode="u" horiz-adv-x="487" d="M421 444 L345 444 L345 143 C329 95 286 60 234 60 C167 60 137 103 137 165 L137 444 L61 444 L61 153 C61 56 115 -9 216 -9 C273 -9 320 21 345 56 L345 0 L421 0 L421 444 Z " />
<glyph glyph-name="v" unicode="v" horiz-adv-x="455" d="M264 0 L437 444 L358 444 L229 95 L99 444 L18 444 L190 0 L264 0 Z " />
<glyph glyph-name="w" unicode="w" horiz-adv-x="629" d="M349 444 L282 444 L191 105 L93 444 L18 444 L149 0 L222 0 L315 337 L407 0 L480 0 L611 444 L538 444 L440 105 L349 444 Z " />
<glyph glyph-name="x" unicode="x" horiz-adv-x="449" d="M422 444 L340 444 L225 285 L113 444 L27 444 L182 227 L18 0 L99 0 L223 173 L346 0 L431 0 L266 230 L422 444 Z " />
<glyph glyph-name="y" unicode="y" horiz-adv-x="455" d="M198 -170 L437 444 L359 444 L230 94 L99 444 L18 444 L191 -3 L124 -170 L198 -170 Z " />
<glyph glyph-name="z" unicode="z" horiz-adv-x="434" d="M390 64 L139 64 L386 395 L386 444 L49 444 L49 380 L290 380 L41 49 L41 0 L390 0 L390 64 Z " />
<glyph glyph-name="braceleft" unicode="&#x7b;" horiz-adv-x="339" d="M175 206 C175 244 157 268 132 283 C157 298 175 322 175 360 L175 545 C175 569 188 582 211 582 L316 582 L316 650 L212 650 C147 650 101 604 101 538 L101 355 C101 330 90 318 66 318 L20 318 L20 248 L66 248 C90 248 101 235 101 211 L101 28 C101 -38 147 -84 212 -84 L316 -84 L316 -16 L211 -16 C188 -16 175 -3 175 21 L175 206 Z " />
<glyph glyph-name="bar" unicode="&#x7c;" horiz-adv-x="219" d="M73 -84 L146 -84 L146 650 L73 650 L73 -84 Z " />
<glyph glyph-name="braceright" unicode="&#x7d;" horiz-adv-x="339" d="M164 21 C164 -3 151 -16 128 -16 L23 -16 L23 -84 L127 -84 C192 -84 238 -38 238 28 L238 211 C238 235 249 248 273 248 L319 248 L319 318 L273 318 C249 318 238 330 238 355 L238 538 C238 604 192 650 127 650 L23 650 L23 582 L128 582 C151 582 164 569 164 545 L164 360 C164 322 182 298 207 283 C182 268 164 244 164 206 L164 21 Z " />
<glyph glyph-name="asciitilde" unicode="&#x7e;" horiz-adv-x="418" d="M315 335 C315 295 299 272 272 272 C229 272 198 338 137 338 C76 338 40 290 40 210 L103 210 C103 250 118 272 146 272 C188 272 219 206 281 206 C342 206 378 254 378 335 L315 335 Z " />
<glyph glyph-name="uni00A0" unicode="&#xa0;" horiz-adv-x="221" d="" />
<glyph glyph-name="exclamdown" unicode="&#xa1;" horiz-adv-x="209" d="M48 469 C48 438 72 414 101 414 C131 414 155 438 155 469 C155 500 131 523 101 523 C72 523 48 500 48 469 L48 469 Z M57 -96 L146 -96 L128 325 L74 325 L57 -96 Z " />
<glyph glyph-name="cent" unicode="&#xa2;" horiz-adv-x="446" d="M35 232 C35 106 104 17 207 3 L207 -87 L276 -87 L276 4 C355 18 403 73 414 149 L339 149 C330 98 291 67 237 67 C160 67 111 135 111 232 C111 329 160 397 237 397 C291 397 330 366 339 315 L414 315 C402 391 355 446 276 460 L276 548 L207 548 L207 461 C104 446 35 358 35 232 L35 232 Z " />
<glyph glyph-name="sterling" unicode="&#xa3;" horiz-adv-x="488" d="M187 425 C187 506 226 557 293 557 C348 557 380 528 389 478 L462 478 C449 564 390 623 293 623 C185 623 114 540 114 425 L114 334 L31 334 L31 272 L114 272 L114 156 C114 112 105 88 92 65 L31 65 L31 0 L460 0 L460 65 L164 65 C179 85 187 121 187 156 L187 272 L341 272 L341 334 L187 334 L187 425 Z " />
<glyph glyph-name="yen" unicode="&#xa5;" horiz-adv-x="535" d="M71 264 L228 264 L228 194 L71 194 L71 134 L228 134 L228 0 L306 0 L306 134 L463 134 L463 194 L306 194 L306 264 L463 264 L463 323 L336 323 L509 614 L428 614 L269 339 L109 614 L25 614 L198 323 L71 323 L71 264 Z " />
<glyph glyph-name="section" unicode="&#xa7;" horiz-adv-x="455" d="M363 88 C405 110 431 154 431 202 C431 267 385 305 330 341 L204 425 C168 449 148 463 148 498 C148 540 186 561 231 561 C289 561 319 533 330 489 L404 489 C391 570 331 623 231 623 C141 623 75 575 75 495 C75 470 81 449 91 433 C49 410 23 368 23 320 C23 255 69 218 124 182 L251 97 C287 74 306 59 306 24 C306 -18 269 -39 224 -39 C166 -39 135 -11 124 33 L51 33 C64 -48 123 -101 224 -101 C314 -101 379 -53 379 27 C379 52 373 71 363 88 L363 88 Z M159 242 C126 264 94 286 94 322 C94 351 109 376 139 386 L295 280 C328 258 361 236 361 200 C361 171 345 146 315 137 L159 242 Z " />
<glyph glyph-name="dieresis" unicode="&#xa8;" horiz-adv-x="500" d="M133 571 C133 546 154 525 180 525 C205 525 226 546 226 571 C226 598 205 618 180 618 C154 618 133 598 133 571 L133 571 Z M274 571 C274 546 294 525 319 525 C345 525 366 546 366 571 C366 598 345 618 319 618 C294 618 274 598 274 571 L274 571 Z " />
<glyph glyph-name="copyright" unicode="&#xa9;" horiz-adv-x="706" d="M669 307 C669 491 527 623 353 623 C179 623 37 491 37 307 C37 123 179 -9 353 -9 C527 -9 669 123 669 307 L669 307 Z M630 307 C630 146 505 30 353 30 C201 30 76 146 76 307 C76 468 201 584 353 584 C505 584 630 468 630 307 L630 307 Z M176 309 C176 190 252 110 357 110 C445 110 500 162 515 237 L441 237 C428 199 399 178 357 178 C293 178 250 231 250 309 C250 387 293 440 357 440 C399 440 428 419 441 381 L515 381 C500 456 446 508 357 508 C252 508 176 428 176 309 L176 309 Z " />
<glyph glyph-name="ordfeminine" unicode="&#xaa;" horiz-adv-x="292" d="M264 321 L264 513 C264 582 220 624 145 624 C81 624 36 586 26 533 L90 533 C97 556 116 568 143 568 C180 568 199 545 199 514 L199 481 C186 491 156 504 126 504 C63 504 13 466 13 410 C13 350 63 316 123 316 C157 316 188 330 199 342 L199 321 L264 321 Z M199 397 C191 379 165 366 138 366 C108 366 78 380 78 411 C78 441 108 455 138 455 C165 455 191 442 199 424 L199 397 Z " />
<glyph glyph-name="guillemotleft" unicode="&#xab;" horiz-adv-x="357" d="M187 74 L95 222 L187 370 L117 370 L25 222 L117 74 L187 74 Z M332 74 L240 222 L332 370 L262 370 L170 222 L262 74 L332 74 Z " />
<glyph glyph-name="registered" unicode="&#xae;" horiz-adv-x="412" d="M387 440 C387 546 305 623 206 623 C107 623 25 546 25 440 C25 334 107 257 206 257 C305 257 387 334 387 440 L387 440 Z M356 440 C356 351 289 287 206 287 C123 287 55 351 55 440 C55 530 123 594 206 594 C289 594 356 530 356 440 L356 440 Z M202 414 L247 346 L294 346 L245 418 C271 425 287 445 287 475 C287 515 261 538 219 538 L135 538 L135 346 L177 346 L177 414 L202 414 Z M247 475 C247 461 236 449 217 449 L177 449 L177 502 L217 502 C236 502 247 490 247 475 L247 475 Z " />
<glyph glyph-name="macron" unicode="&#xaf;" horiz-adv-x="500" d="M143 530 L356 530 L356 591 L143 591 L143 530 Z " />
<glyph glyph-name="degree" unicode="&#xb0;" horiz-adv-x="336" d="M100 499 C100 537 131 568 168 568 C205 568 236 537 236 499 C236 461 205 431 168 431 C131 431 100 461 100 499 L100 499 Z M291 499 C291 568 236 623 168 623 C100 623 45 568 45 499 C45 430 100 375 168 375 C236 375 291 430 291 499 L291 499 Z " />
<glyph glyph-name="plusminus" unicode="&#xb1;" horiz-adv-x="544" d="M241 518 L241 389 L78 389 L78 327 L241 327 L241 198 L303 198 L303 327 L467 327 L467 389 L303 389 L303 518 L241 518 Z M78 88 L467 88 L467 150 L78 150 L78 88 Z " />
<glyph glyph-name="twosuperior" unicode="&#xb2;" horiz-adv-x="276" d="M184 519 C184 494 166 474 135 442 L23 325 L23 282 L249 282 L249 336 L108 336 L182 412 C215 447 246 478 246 521 C246 580 205 619 138 619 C72 619 29 573 22 511 L88 511 C90 539 108 563 138 563 C165 563 184 546 184 519 L184 519 Z " />
<glyph glyph-name="threesuperior" unicode="&#xb3;" horiz-adv-x="281" d="M114 427 L140 427 C171 427 194 410 194 380 C194 349 173 331 141 331 C109 331 89 351 85 382 L20 382 C26 318 69 277 140 277 C211 277 253 320 253 378 C253 412 234 440 203 451 C229 461 248 490 248 523 C248 580 207 619 138 619 C74 619 33 575 25 517 L88 517 C91 545 112 566 140 566 C170 566 189 547 189 521 C189 491 167 475 138 475 L114 475 L114 427 Z " />
<glyph glyph-name="acute" unicode="&#xb4;" horiz-adv-x="500" d="M240 516 L329 650 L251 650 L171 516 L240 516 Z " />
<glyph glyph-name="paragraph" unicode="&#xb6;" horiz-adv-x="489" d="M353 -90 L416 -90 L416 614 L353 614 L353 -90 Z M220 -90 L283 -90 L283 614 L220 614 C122 614 15 568 15 458 C15 348 122 301 220 301 L220 -90 Z " />
<glyph glyph-name="periodcentered" unicode="&#xb7;" horiz-adv-x="176" d="M34 262 C34 231 58 208 88 208 C117 208 141 231 141 262 C141 293 117 317 88 317 C58 317 34 293 34 262 L34 262 Z " />
<glyph glyph-name="cedilla" unicode="&#xb8;" horiz-adv-x="500" d="M250 -183 L319 -51 L245 -51 L179 -183 L250 -183 Z " />
<glyph glyph-name="onesuperior" unicode="&#xb9;" horiz-adv-x="221" d="M170 615 L128 615 L19 561 L19 497 L107 541 L107 282 L170 282 L170 615 Z " />
<glyph glyph-name="ordmasculine" unicode="&#xba;" horiz-adv-x="310" d="M296 469 C296 560 239 624 155 624 C71 624 13 560 13 469 C13 378 71 314 155 314 C239 314 296 378 296 469 L296 469 Z M228 469 C228 412 200 373 155 373 C110 373 82 412 82 469 C82 526 110 566 155 566 C200 566 228 526 228 469 L228 469 Z " />
<glyph glyph-name="guillemotright" unicode="&#xbb;" horiz-adv-x="357" d="M240 74 L332 222 L240 370 L170 370 L262 222 L170 74 L240 74 Z M95 74 L187 222 L95 370 L25 370 L117 222 L25 74 L95 74 Z " />
<glyph glyph-name="onequarter" unicode="&#xbc;" horiz-adv-x="667" d="M569 614 L502 614 L73 0 L140 0 L569 614 Z M191 615 L149 615 L41 561 L41 497 L129 541 L129 282 L191 282 L191 615 Z M536 333 L474 333 L360 116 L360 69 L510 69 L510 0 L566 0 L566 69 L618 69 L618 122 L566 122 L566 189 L510 189 L510 122 L429 122 L536 333 Z " />
<glyph glyph-name="onehalf" unicode="&#xbd;" horiz-adv-x="682" d="M569 614 L502 614 L73 0 L140 0 L569 614 Z M191 615 L149 615 L41 561 L41 497 L129 541 L129 282 L191 282 L191 615 Z M560 237 C560 213 542 192 511 160 L400 43 L400 0 L626 0 L626 54 L485 54 L559 130 C592 165 623 196 623 239 C623 298 581 338 514 338 C448 338 405 291 399 229 L464 229 C466 258 485 281 515 281 C542 281 560 264 560 237 L560 237 Z " />
<glyph glyph-name="threequarters" unicode="&#xbe;" horiz-adv-x="706" d="M608 614 L541 614 L112 0 L179 0 L608 614 Z M140 426 L166 426 C197 426 220 409 220 379 C220 349 199 330 167 330 C135 330 115 351 111 382 L46 382 C52 318 95 276 166 276 C237 276 279 319 279 378 C279 411 260 440 229 450 C255 461 274 489 274 523 C274 579 233 619 164 619 C100 619 59 574 51 516 L114 516 C117 544 138 565 166 565 C196 565 215 546 215 520 C215 491 193 475 164 475 L140 475 L140 426 Z M575 333 L513 333 L399 116 L399 69 L549 69 L549 0 L605 0 L605 69 L657 69 L657 122 L605 122 L605 189 L549 189 L549 122 L468 122 L575 333 Z " />
<glyph glyph-name="questiondown" unicode="&#xbf;" horiz-adv-x="432" d="M262 469 C262 500 238 523 209 523 C179 523 155 500 155 469 C155 438 179 414 209 414 C238 414 262 438 262 469 L262 469 Z M24 67 C24 -38 94 -105 211 -105 C323 -105 400 -26 412 88 L331 88 C325 16 284 -35 211 -35 C143 -35 100 5 100 68 C100 127 150 165 185 205 C225 249 240 275 243 325 L169 325 C168 301 160 279 126 243 C79 193 24 141 24 67 L24 67 Z " />
<glyph glyph-name="Agrave" unicode="&#xc0;" horiz-adv-x="596" d="M261 614 L21 0 L101 0 L171 185 L424 185 L495 0 L575 0 L335 614 L261 614 Z M297 516 L397 254 L197 254 L297 516 Z M337 668 L257 785 L170 785 L262 668 L337 668 Z " />
<glyph glyph-name="Aacute" unicode="&#xc1;" horiz-adv-x="596" d="M261 614 L21 0 L101 0 L171 185 L424 185 L495 0 L575 0 L335 614 L261 614 Z M297 516 L397 254 L197 254 L297 516 Z M333 668 L424 785 L337 785 L257 668 L333 668 Z " />
<glyph glyph-name="Acircumflex" unicode="&#xc2;" horiz-adv-x="596" d="M261 614 L21 0 L101 0 L171 185 L424 185 L495 0 L575 0 L335 614 L261 614 Z M297 516 L397 254 L197 254 L297 516 Z M333 791 L263 791 L171 669 L239 669 L298 740 L357 669 L425 669 L333 791 Z " />
<glyph glyph-name="Atilde" unicode="&#xc3;" horiz-adv-x="596" d="M261 614 L21 0 L101 0 L171 185 L424 185 L495 0 L575 0 L335 614 L261 614 Z M297 516 L397 254 L197 254 L297 516 Z M384 784 C383 750 372 731 350 731 C313 731 289 787 239 787 C189 787 163 739 163 668 L212 668 C212 702 223 721 246 721 C282 721 307 665 356 665 C406 665 432 713 432 784 L384 784 Z " />
<glyph glyph-name="Adieresis" unicode="&#xc4;" horiz-adv-x="596" d="M261 614 L21 0 L101 0 L171 185 L424 185 L495 0 L575 0 L335 614 L261 614 Z M297 516 L397 254 L197 254 L297 516 Z M182 722 C182 696 203 676 229 676 C254 676 275 696 275 722 C275 748 254 768 229 768 C203 768 182 748 182 722 L182 722 Z M323 722 C323 696 343 676 368 676 C394 676 415 696 415 722 C415 748 394 768 368 768 C343 768 323 748 323 722 L323 722 Z " />
<glyph glyph-name="Aring" unicode="&#xc5;" horiz-adv-x="596" d="M261 614 L21 0 L101 0 L171 185 L424 185 L495 0 L575 0 L335 614 L261 614 Z M297 516 L397 254 L197 254 L297 516 Z M385 734 C385 783 347 821 298 821 C249 821 211 783 211 734 C211 686 249 648 298 648 C347 648 385 686 385 734 L385 734 Z M343 734 C343 709 323 689 298 689 C273 689 253 709 253 734 C253 760 273 780 298 780 C323 780 343 760 343 734 L343 734 Z " />
<glyph glyph-name="AE" unicode="&#xc6;" horiz-adv-x="862" d="M390 614 L21 0 L103 0 L215 185 L437 185 L437 0 L811 0 L811 71 L514 71 L514 280 L782 280 L782 350 L514 350 L514 544 L811 544 L811 614 L390 614 Z M437 550 L437 254 L257 254 L437 550 Z " />
<glyph glyph-name="Ccedilla" unicode="&#xc7;" horiz-adv-x="586" d="M37 307 C37 116 157 -9 312 -9 C440 -9 526 66 551 181 L473 181 C448 109 397 62 312 62 C194 62 116 162 116 307 C116 453 195 552 312 552 C397 552 448 505 473 434 L551 434 C526 548 441 623 312 623 C157 623 37 498 37 307 L37 307 Z M287 -183 L356 -51 L282 -51 L216 -183 L287 -183 Z " />
<glyph glyph-name="Egrave" unicode="&#xc8;" horiz-adv-x="515" d="M313 668 L233 785 L146 785 L238 668 L313 668 Z M73 614 L73 0 L464 0 L464 71 L151 71 L151 280 L435 280 L435 350 L151 350 L151 544 L464 544 L464 614 L73 614 Z " />
<glyph glyph-name="Eacute" unicode="&#xc9;" horiz-adv-x="515" d="M305 668 L396 785 L309 785 L229 668 L305 668 Z M73 614 L73 0 L464 0 L464 71 L151 71 L151 280 L435 280 L435 350 L151 350 L151 544 L464 544 L464 614 L73 614 Z " />
<glyph glyph-name="Ecircumflex" unicode="&#xca;" horiz-adv-x="515" d="M73 614 L73 0 L464 0 L464 71 L151 71 L151 280 L435 280 L435 350 L151 350 L151 544 L464 544 L464 614 L73 614 Z M308 791 L238 791 L146 669 L214 669 L273 740 L332 669 L400 669 L308 791 Z " />
<glyph glyph-name="Edieresis" unicode="&#xcb;" horiz-adv-x="515" d="M157 722 C157 696 178 676 204 676 C229 676 250 696 250 722 C250 748 229 768 204 768 C178 768 157 748 157 722 L157 722 Z M298 722 C298 696 318 676 343 676 C369 676 390 696 390 722 C390 748 369 768 343 768 C318 768 298 748 298 722 L298 722 Z M73 614 L73 0 L464 0 L464 71 L151 71 L151 280 L435 280 L435 350 L151 350 L151 544 L464 544 L464 614 L73 614 Z " />
<glyph glyph-name="Igrave" unicode="&#xcc;" horiz-adv-x="225" d="M152 614 L73 614 L73 0 L152 0 L152 614 Z M153 668 L73 785 L-14 785 L78 668 L153 668 Z " />
<glyph glyph-name="Iacute" unicode="&#xcd;" horiz-adv-x="225" d="M152 614 L73 614 L73 0 L152 0 L152 614 Z M144 668 L235 785 L148 785 L68 668 L144 668 Z " />
<glyph glyph-name="Icircumflex" unicode="&#xce;" horiz-adv-x="225" d="M152 614 L73 614 L73 0 L152 0 L152 614 Z M147 791 L77 791 L-15 669 L53 669 L112 740 L171 669 L239 669 L147 791 Z " />
<glyph glyph-name="Idieresis" unicode="&#xcf;" horiz-adv-x="225" d="M152 614 L73 614 L73 0 L152 0 L152 614 Z M-4 722 C-4 696 17 676 43 676 C68 676 89 696 89 722 C89 748 68 768 43 768 C17 768 -4 748 -4 722 L-4 722 Z M137 722 C137 696 157 676 182 676 C208 676 229 696 229 722 C229 748 208 768 182 768 C157 768 137 748 137 722 L137 722 Z " />
<glyph glyph-name="Eth" unicode="&#xd0;" horiz-adv-x="620" d="M32 284 L88 284 L88 0 L285 0 C465 0 583 120 583 307 C583 494 465 614 285 614 L88 614 L88 351 L32 351 L32 284 Z M167 71 L167 284 L290 284 L290 351 L167 351 L167 544 L284 544 C423 544 505 451 505 307 C505 163 423 71 284 71 L167 71 Z " />
<glyph glyph-name="Ntilde" unicode="&#xd1;" horiz-adv-x="623" d="M398 784 C397 750 386 731 364 731 C327 731 303 787 253 787 C203 787 177 739 177 668 L226 668 C226 702 237 721 260 721 C296 721 321 665 370 665 C420 665 446 713 446 784 L398 784 Z M550 614 L475 614 L475 147 L148 614 L73 614 L73 0 L149 0 L149 488 L492 0 L550 0 L550 614 Z " />
<glyph glyph-name="Ograve" unicode="&#xd2;" horiz-adv-x="629" d="M355 668 L275 785 L188 785 L280 668 L355 668 Z M592 307 C592 493 476 623 314 623 C153 623 37 493 37 307 C37 122 153 -9 314 -9 C476 -9 592 122 592 307 L592 307 Z M513 307 C513 163 433 62 314 62 C196 62 116 163 116 307 C116 451 196 552 314 552 C433 552 513 451 513 307 L513 307 Z " />
<glyph glyph-name="Oacute" unicode="&#xd3;" horiz-adv-x="629" d="M346 668 L437 785 L350 785 L270 668 L346 668 Z M592 307 C592 493 476 623 314 623 C153 623 37 493 37 307 C37 122 153 -9 314 -9 C476 -9 592 122 592 307 L592 307 Z M513 307 C513 163 433 62 314 62 C196 62 116 163 116 307 C116 451 196 552 314 552 C433 552 513 451 513 307 L513 307 Z " />
<glyph glyph-name="Ocircumflex" unicode="&#xd4;" horiz-adv-x="629" d="M592 307 C592 493 476 623 314 623 C153 623 37 493 37 307 C37 122 153 -9 314 -9 C476 -9 592 122 592 307 L592 307 Z M513 307 C513 163 433 62 314 62 C196 62 116 163 116 307 C116 451 196 552 314 552 C433 552 513 451 513 307 L513 307 Z M349 791 L279 791 L187 669 L255 669 L314 740 L373 669 L441 669 L349 791 Z " />
<glyph glyph-name="Otilde" unicode="&#xd5;" horiz-adv-x="629" d="M401 784 C400 750 389 731 367 731 C330 731 306 787 256 787 C206 787 180 739 180 668 L229 668 C229 702 240 721 263 721 C299 721 324 665 373 665 C423 665 449 713 449 784 L401 784 Z M592 307 C592 493 476 623 314 623 C153 623 37 493 37 307 C37 122 153 -9 314 -9 C476 -9 592 122 592 307 L592 307 Z M513 307 C513 163 433 62 314 62 C196 62 116 163 116 307 C116 451 196 552 314 552 C433 552 513 451 513 307 L513 307 Z " />
<glyph glyph-name="Odieresis" unicode="&#xd6;" horiz-adv-x="629" d="M198 722 C198 696 219 676 245 676 C270 676 291 696 291 722 C291 748 270 768 245 768 C219 768 198 748 198 722 L198 722 Z M339 722 C339 696 359 676 384 676 C410 676 431 696 431 722 C431 748 410 768 384 768 C359 768 339 748 339 722 L339 722 Z M592 307 C592 493 476 623 314 623 C153 623 37 493 37 307 C37 122 153 -9 314 -9 C476 -9 592 122 592 307 L592 307 Z M513 307 C513 163 433 62 314 62 C196 62 116 163 116 307 C116 451 196 552 314 552 C433 552 513 451 513 307 L513 307 Z " />
<glyph glyph-name="multiply" unicode="&#xd7;" horiz-adv-x="470" d="M193 295 L71 173 L114 130 L234 252 L356 130 L399 173 L277 295 L399 416 L356 458 L234 336 L114 458 L71 416 L193 295 Z " />
<glyph glyph-name="Oslash" unicode="&#xd8;" horiz-adv-x="639" d="M56 18 L103 -15 L153 48 C198 11 255 -9 319 -9 C481 -9 597 122 597 307 C597 393 572 468 528 523 L582 590 L536 623 L489 563 C443 601 385 623 319 623 C158 623 42 493 42 307 C42 219 68 144 112 89 L56 18 Z M121 307 C121 451 201 552 319 552 C369 552 412 535 444 506 L160 149 C134 190 121 245 121 307 L121 307 Z M518 307 C518 163 438 62 319 62 C270 62 229 77 198 105 L480 462 C505 421 518 367 518 307 L518 307 Z " />
<glyph glyph-name="Ugrave" unicode="&#xd9;" horiz-adv-x="607" d="M344 668 L264 785 L177 785 L269 668 L344 668 Z M303 -9 C443 -9 544 75 544 243 L544 614 L465 614 L465 253 C465 122 402 61 303 61 C204 61 141 122 141 253 L141 614 L63 614 L63 244 C63 75 164 -9 303 -9 L303 -9 Z " />
<glyph glyph-name="Uacute" unicode="&#xda;" horiz-adv-x="607" d="M335 668 L426 785 L339 785 L259 668 L335 668 Z M303 -9 C443 -9 544 75 544 243 L544 614 L465 614 L465 253 C465 122 402 61 303 61 C204 61 141 122 141 253 L141 614 L63 614 L63 244 C63 75 164 -9 303 -9 L303 -9 Z " />
<glyph glyph-name="Ucircumflex" unicode="&#xdb;" horiz-adv-x="607" d="M303 -9 C443 -9 544 75 544 243 L544 614 L465 614 L465 253 C465 122 402 61 303 61 C204 61 141 122 141 253 L141 614 L63 614 L63 244 C63 75 164 -9 303 -9 L303 -9 Z M338 791 L268 791 L176 669 L244 669 L303 740 L362 669 L430 669 L338 791 Z " />
<glyph glyph-name="Udieresis" unicode="&#xdc;" horiz-adv-x="607" d="M187 722 C187 696 208 676 234 676 C259 676 280 696 280 722 C280 748 259 768 234 768 C208 768 187 748 187 722 L187 722 Z M328 722 C328 696 348 676 373 676 C399 676 420 696 420 722 C420 748 399 768 373 768 C348 768 328 748 328 722 L328 722 Z M303 -9 C443 -9 544 75 544 243 L544 614 L465 614 L465 253 C465 122 402 61 303 61 C204 61 141 122 141 253 L141 614 L63 614 L63 244 C63 75 164 -9 303 -9 L303 -9 Z " />
<glyph glyph-name="Yacute" unicode="&#xdd;" horiz-adv-x="557" d="M280 324 L103 614 L17 614 L239 253 L239 0 L317 0 L317 253 L541 614 L457 614 L280 324 Z M311 668 L402 785 L315 785 L235 668 L311 668 Z " />
<glyph glyph-name="Thorn" unicode="&#xde;" horiz-adv-x="537" d="M303 131 C427 131 505 195 505 315 C505 436 427 499 303 499 L152 499 L152 614 L73 614 L73 0 L152 0 L152 131 L303 131 Z M427 315 C427 246 384 200 301 200 L152 200 L152 430 L301 430 C384 430 427 385 427 315 L427 315 Z " />
<glyph glyph-name="germandbls" unicode="&#xdf;" horiz-adv-x="510" d="M342 367 C388 385 426 431 426 501 C426 589 364 659 252 659 C136 659 67 578 67 463 L67 0 L141 0 L141 463 C141 538 176 594 253 594 C315 594 354 553 354 497 C354 435 312 396 248 396 L206 396 L206 330 L248 330 C342 330 402 280 402 195 C402 111 354 62 276 62 C245 62 217 67 196 80 L196 11 C222 -1 249 -6 282 -6 C394 -6 474 65 474 188 C474 286 412 351 342 367 L342 367 Z " />
<glyph glyph-name="agrave" unicode="&#xe0;" horiz-adv-x="450" d="M389 0 L389 296 C389 393 326 453 220 453 C135 453 69 402 54 327 L128 327 C142 368 172 388 219 388 C283 388 317 348 317 293 L317 237 C298 254 251 273 205 273 C110 273 35 217 35 134 C35 46 110 -8 200 -8 C253 -8 300 15 317 33 L317 0 L389 0 Z M317 110 C304 77 259 55 213 55 C159 55 107 80 107 134 C107 187 159 211 213 211 C259 211 304 189 317 156 L317 110 Z M271 516 L191 650 L113 650 L202 516 L271 516 Z " />
<glyph glyph-name="aacute" unicode="&#xe1;" horiz-adv-x="450" d="M389 0 L389 296 C389 393 326 453 220 453 C135 453 69 402 54 327 L128 327 C142 368 172 388 219 388 C283 388 317 348 317 293 L317 237 C298 254 251 273 205 273 C110 273 35 217 35 134 C35 46 110 -8 200 -8 C253 -8 300 15 317 33 L317 0 L389 0 Z M317 110 C304 77 259 55 213 55 C159 55 107 80 107 134 C107 187 159 211 213 211 C259 211 304 189 317 156 L317 110 Z M260 516 L349 650 L271 650 L191 516 L260 516 Z " />
<glyph glyph-name="acircumflex" unicode="&#xe2;" horiz-adv-x="450" d="M264 645 L194 645 L102 509 L167 509 L229 597 L291 509 L356 509 L264 645 Z M389 0 L389 296 C389 393 326 453 220 453 C135 453 69 402 54 327 L128 327 C142 368 172 388 219 388 C283 388 317 348 317 293 L317 237 C298 254 251 273 205 273 C110 273 35 217 35 134 C35 46 110 -8 200 -8 C253 -8 300 15 317 33 L317 0 L389 0 Z M317 110 C304 77 259 55 213 55 C159 55 107 80 107 134 C107 187 159 211 213 211 C259 211 304 189 317 156 L317 110 Z " />
<glyph glyph-name="atilde" unicode="&#xe3;" horiz-adv-x="450" d="M389 0 L389 296 C389 393 326 453 220 453 C135 453 69 402 54 327 L128 327 C142 368 172 388 219 388 C283 388 317 348 317 293 L317 237 C298 254 251 273 205 273 C110 273 35 217 35 134 C35 46 110 -8 200 -8 C253 -8 300 15 317 33 L317 0 L389 0 Z M317 110 C304 77 259 55 213 55 C159 55 107 80 107 134 C107 187 159 211 213 211 C259 211 304 189 317 156 L317 110 Z M312 633 C311 599 300 578 278 578 C246 578 221 636 174 636 C124 636 98 589 98 518 L146 518 C146 552 157 573 180 573 C212 573 238 515 284 515 C334 515 360 562 360 633 L312 633 Z " />
<glyph glyph-name="adieresis" unicode="&#xe4;" horiz-adv-x="450" d="M113 571 C113 546 134 525 160 525 C185 525 206 546 206 571 C206 598 185 618 160 618 C134 618 113 598 113 571 L113 571 Z M254 571 C254 546 274 525 299 525 C325 525 346 546 346 571 C346 598 325 618 299 618 C274 618 254 598 254 571 L254 571 Z M389 0 L389 296 C389 393 326 453 220 453 C135 453 69 402 54 327 L128 327 C142 368 172 388 219 388 C283 388 317 348 317 293 L317 237 C298 254 251 273 205 273 C110 273 35 217 35 134 C35 46 110 -8 200 -8 C253 -8 300 15 317 33 L317 0 L389 0 Z M317 110 C304 77 259 55 213 55 C159 55 107 80 107 134 C107 187 159 211 213 211 C259 211 304 189 317 156 L317 110 Z " />
<glyph glyph-name="aring" unicode="&#xe5;" horiz-adv-x="450" d="M389 0 L389 296 C389 393 326 453 220 453 C135 453 69 402 54 327 L128 327 C142 368 172 388 219 388 C283 388 317 348 317 293 L317 237 C298 254 251 273 205 273 C110 273 35 217 35 134 C35 46 110 -8 200 -8 C253 -8 300 15 317 33 L317 0 L389 0 Z M317 110 C304 77 259 55 213 55 C159 55 107 80 107 134 C107 187 159 211 213 211 C259 211 304 189 317 156 L317 110 Z M314 580 C314 629 276 666 227 666 C178 666 140 629 140 580 C140 531 178 494 227 494 C276 494 314 531 314 580 L314 580 Z M272 580 C272 554 252 535 227 535 C202 535 182 554 182 580 C182 606 202 625 227 625 C252 625 272 606 272 580 L272 580 Z " />
<glyph glyph-name="ae" unicode="&#xe6;" horiz-adv-x="731" d="M199 55 C149 55 105 80 105 132 C105 184 156 207 210 207 L315 207 L315 136 C298 89 257 55 199 55 L199 55 Z M621 133 C609 83 567 55 512 55 C438 55 385 112 383 208 L698 208 L698 235 C698 364 632 453 510 453 C447 453 396 420 363 372 C341 422 291 453 219 453 C134 453 68 402 53 327 L125 327 C139 368 171 388 218 388 C282 388 315 348 315 293 L315 266 L205 266 C109 266 34 214 34 128 C34 45 104 -8 193 -8 C266 -8 318 30 351 75 C386 22 443 -9 512 -9 C612 -9 676 49 692 133 L621 133 Z M511 389 C585 389 620 331 622 265 L385 265 C396 343 444 389 511 389 L511 389 Z " />
<glyph glyph-name="ccedilla" unicode="&#xe7;" horiz-adv-x="446" d="M35 222 C35 84 118 -9 237 -9 C337 -9 400 49 415 134 L338 134 C328 86 290 57 237 57 C161 57 111 125 111 222 C111 319 161 387 237 387 C290 387 328 358 338 310 L415 310 C400 395 337 453 237 453 C118 453 35 360 35 222 L35 222 Z M212 -183 L281 -51 L207 -51 L141 -183 L212 -183 Z " />
<glyph glyph-name="egrave" unicode="&#xe8;" horiz-adv-x="457" d="M347 133 C335 83 294 55 239 55 C164 55 111 113 110 208 L424 208 L424 235 C424 364 359 453 237 453 C116 453 35 354 35 221 C35 84 118 -9 239 -9 C339 -9 402 49 418 133 L347 133 Z M238 389 C312 389 347 331 348 265 L112 265 C123 343 171 389 238 389 L238 389 Z M279 516 L199 650 L121 650 L210 516 L279 516 Z " />
<glyph glyph-name="eacute" unicode="&#xe9;" horiz-adv-x="457" d="M270 516 L359 650 L281 650 L201 516 L270 516 Z M347 133 C335 83 294 55 239 55 C164 55 111 113 110 208 L424 208 L424 235 C424 364 359 453 237 453 C116 453 35 354 35 221 C35 84 118 -9 239 -9 C339 -9 402 49 418 133 L347 133 Z M238 389 C312 389 347 331 348 265 L112 265 C123 343 171 389 238 389 L238 389 Z " />
<glyph glyph-name="ecircumflex" unicode="&#xea;" horiz-adv-x="457" d="M275 645 L205 645 L113 509 L178 509 L240 597 L302 509 L367 509 L275 645 Z M347 133 C335 83 294 55 239 55 C164 55 111 113 110 208 L424 208 L424 235 C424 364 359 453 237 453 C116 453 35 354 35 221 C35 84 118 -9 239 -9 C339 -9 402 49 418 133 L347 133 Z M238 389 C312 389 347 331 348 265 L112 265 C123 343 171 389 238 389 L238 389 Z " />
<glyph glyph-name="edieresis" unicode="&#xeb;" horiz-adv-x="457" d="M125 571 C125 546 146 525 172 525 C197 525 218 546 218 571 C218 598 197 618 172 618 C146 618 125 598 125 571 L125 571 Z M266 571 C266 546 286 525 311 525 C337 525 358 546 358 571 C358 598 337 618 311 618 C286 618 266 598 266 571 L266 571 Z M347 133 C335 83 294 55 239 55 C164 55 111 113 110 208 L424 208 L424 235 C424 364 359 453 237 453 C116 453 35 354 35 221 C35 84 118 -9 239 -9 C339 -9 402 49 418 133 L347 133 Z M238 389 C312 389 347 331 348 265 L112 265 C123 343 171 389 238 389 L238 389 Z " />
<glyph glyph-name="igrave" unicode="&#xec;" horiz-adv-x="209" d="M142 444 L67 444 L67 0 L142 0 L142 444 Z M143 516 L63 650 L-15 650 L74 516 L143 516 Z " />
<glyph glyph-name="iacute" unicode="&#xed;" horiz-adv-x="209" d="M134 516 L223 650 L145 650 L65 516 L134 516 Z M142 444 L67 444 L67 0 L142 0 L142 444 Z " />
<glyph glyph-name="icircumflex" unicode="&#xee;" horiz-adv-x="209" d="M139 645 L70 645 L-4 509 L59 509 L104 594 L149 509 L213 509 L139 645 Z M142 444 L67 444 L67 0 L142 0 L142 444 Z " />
<glyph glyph-name="idieresis" unicode="&#xef;" horiz-adv-x="209" d="M-3 571 C-3 546 17 525 43 525 C68 525 89 546 89 571 C89 598 68 618 43 618 C17 618 -3 598 -3 571 L-3 571 Z M121 571 C121 546 141 525 166 525 C192 525 213 546 213 571 C213 598 192 618 166 618 C141 618 121 598 121 571 L121 571 Z M142 444 L67 444 L67 0 L142 0 L142 444 Z " />
<glyph glyph-name="eth" unicode="&#xf0;" horiz-adv-x="478" d="M139 494 L243 528 C288 483 322 440 337 406 L334 406 C311 431 278 450 231 450 C117 450 35 356 35 220 C35 85 117 -9 239 -9 C360 -9 443 85 443 226 C443 349 392 462 312 552 L375 573 L358 620 L273 591 C250 613 225 632 199 650 L101 650 L101 646 C136 621 170 594 201 567 L121 541 L139 494 Z M367 220 C367 123 319 57 239 57 C159 57 111 123 111 220 C111 317 159 384 239 384 C319 384 367 317 367 220 L367 220 Z " />
<glyph glyph-name="ntilde" unicode="&#xf1;" horiz-adv-x="489" d="M67 0 L142 0 L142 301 C158 349 203 384 255 384 C322 384 353 341 353 279 L353 0 L429 0 L429 291 C429 388 374 453 273 453 C216 453 168 423 142 388 L142 444 L67 444 L67 0 Z M331 633 C330 599 319 578 297 578 C265 578 240 636 193 636 C143 636 117 589 117 518 L165 518 C165 552 176 573 199 573 C231 573 257 515 303 515 C353 515 379 562 379 633 L331 633 Z " />
<glyph glyph-name="ograve" unicode="&#xf2;" horiz-adv-x="478" d="M443 222 C443 358 360 453 239 453 C117 453 35 358 35 222 C35 86 117 -9 239 -9 C360 -9 443 86 443 222 L443 222 Z M367 222 C367 125 319 57 239 57 C159 57 111 125 111 222 C111 319 159 387 239 387 C319 387 367 319 367 222 L367 222 Z M277 516 L197 650 L119 650 L208 516 L277 516 Z " />
<glyph glyph-name="oacute" unicode="&#xf3;" horiz-adv-x="478" d="M268 516 L357 650 L279 650 L199 516 L268 516 Z M443 222 C443 358 360 453 239 453 C117 453 35 358 35 222 C35 86 117 -9 239 -9 C360 -9 443 86 443 222 L443 222 Z M367 222 C367 125 319 57 239 57 C159 57 111 125 111 222 C111 319 159 387 239 387 C319 387 367 319 367 222 L367 222 Z " />
<glyph glyph-name="ocircumflex" unicode="&#xf4;" horiz-adv-x="478" d="M274 645 L204 645 L112 509 L177 509 L239 597 L301 509 L366 509 L274 645 Z M443 222 C443 358 360 453 239 453 C117 453 35 358 35 222 C35 86 117 -9 239 -9 C360 -9 443 86 443 222 L443 222 Z M367 222 C367 125 319 57 239 57 C159 57 111 125 111 222 C111 319 159 387 239 387 C319 387 367 319 367 222 L367 222 Z " />
<glyph glyph-name="otilde" unicode="&#xf5;" horiz-adv-x="478" d="M443 222 C443 358 360 453 239 453 C117 453 35 358 35 222 C35 86 117 -9 239 -9 C360 -9 443 86 443 222 L443 222 Z M367 222 C367 125 319 57 239 57 C159 57 111 125 111 222 C111 319 159 387 239 387 C319 387 367 319 367 222 L367 222 Z M322 633 C321 599 310 578 288 578 C256 578 231 636 184 636 C134 636 108 589 108 518 L156 518 C156 552 167 573 190 573 C222 573 248 515 294 515 C344 515 370 562 370 633 L322 633 Z " />
<glyph glyph-name="odieresis" unicode="&#xf6;" horiz-adv-x="478" d="M123 571 C123 546 144 525 170 525 C195 525 216 546 216 571 C216 598 195 618 170 618 C144 618 123 598 123 571 L123 571 Z M264 571 C264 546 284 525 309 525 C335 525 356 546 356 571 C356 598 335 618 309 618 C284 618 264 598 264 571 L264 571 Z M443 222 C443 358 360 453 239 453 C117 453 35 358 35 222 C35 86 117 -9 239 -9 C360 -9 443 86 443 222 L443 222 Z M367 222 C367 125 319 57 239 57 C159 57 111 125 111 222 C111 319 159 387 239 387 C319 387 367 319 367 222 L367 222 Z " />
<glyph glyph-name="divide" unicode="&#xf7;" horiz-adv-x="540" d="M73 266 L467 266 L467 328 L73 328 L73 266 Z M220 458 C220 430 242 407 270 407 C298 407 321 430 321 458 C321 486 298 509 270 509 C242 509 220 486 220 458 L220 458 Z M220 136 C220 108 242 85 270 85 C298 85 321 108 321 136 C321 164 298 187 270 187 C242 187 220 164 220 136 L220 136 Z " />
<glyph glyph-name="oslash" unicode="&#xf8;" horiz-adv-x="488" d="M40 1 L81 -28 L125 29 C157 4 197 -9 244 -9 C365 -9 448 86 448 222 C448 285 429 340 398 380 L444 440 L403 469 L361 416 C329 440 289 453 244 453 C122 453 40 358 40 222 C40 158 57 104 89 64 L40 1 Z M373 222 C373 125 324 57 244 57 C213 57 187 66 167 83 L351 321 C365 294 373 260 373 222 L373 222 Z M115 222 C115 319 164 387 244 387 C274 387 299 378 319 361 L135 124 C122 150 115 184 115 222 L115 222 Z " />
<glyph glyph-name="ugrave" unicode="&#xf9;" horiz-adv-x="487" d="M421 444 L345 444 L345 143 C329 95 286 60 234 60 C167 60 137 103 137 165 L137 444 L61 444 L61 153 C61 56 115 -9 216 -9 C273 -9 320 21 345 56 L345 0 L421 0 L421 444 Z M281 516 L201 650 L123 650 L212 516 L281 516 Z " />
<glyph glyph-name="uacute" unicode="&#xfa;" horiz-adv-x="487" d="M272 516 L361 650 L283 650 L203 516 L272 516 Z M421 444 L345 444 L345 143 C329 95 286 60 234 60 C167 60 137 103 137 165 L137 444 L61 444 L61 153 C61 56 115 -9 216 -9 C273 -9 320 21 345 56 L345 0 L421 0 L421 444 Z " />
<glyph glyph-name="ucircumflex" unicode="&#xfb;" horiz-adv-x="487" d="M278 645 L208 645 L116 509 L181 509 L243 597 L305 509 L370 509 L278 645 Z M421 444 L345 444 L345 143 C329 95 286 60 234 60 C167 60 137 103 137 165 L137 444 L61 444 L61 153 C61 56 115 -9 216 -9 C273 -9 320 21 345 56 L345 0 L421 0 L421 444 Z " />
<glyph glyph-name="udieresis" unicode="&#xfc;" horiz-adv-x="487" d="M127 571 C127 546 148 525 174 525 C199 525 220 546 220 571 C220 598 199 618 174 618 C148 618 127 598 127 571 L127 571 Z M268 571 C268 546 288 525 313 525 C339 525 360 546 360 571 C360 598 339 618 313 618 C288 618 268 598 268 571 L268 571 Z M421 444 L345 444 L345 143 C329 95 286 60 234 60 C167 60 137 103 137 165 L137 444 L61 444 L61 153 C61 56 115 -9 216 -9 C273 -9 320 21 345 56 L345 0 L421 0 L421 444 Z " />
<glyph glyph-name="yacute" unicode="&#xfd;" horiz-adv-x="455" d="M198 -170 L437 444 L359 444 L230 94 L99 444 L18 444 L191 -3 L124 -170 L198 -170 Z M257 516 L346 650 L268 650 L188 516 L257 516 Z " />
<glyph glyph-name="thorn" unicode="&#xfe;" horiz-adv-x="502" d="M142 52 C165 20 212 -9 267 -9 C398 -9 467 99 467 222 C467 345 398 453 267 453 C212 453 165 424 142 392 L142 650 L67 650 L67 -170 L142 -170 L142 52 Z M142 312 C165 358 209 385 256 385 C341 385 391 316 391 222 C391 128 341 59 256 59 C209 59 165 86 142 132 L142 312 Z " />
<glyph glyph-name="ydieresis" unicode="&#xff;" horiz-adv-x="455" d="M198 -170 L437 444 L359 444 L230 94 L99 444 L18 444 L191 -3 L124 -170 L198 -170 Z M111 571 C111 546 132 525 158 525 C183 525 204 546 204 571 C204 598 183 618 158 618 C132 618 111 598 111 571 L111 571 Z M252 571 C252 546 272 525 297 525 C323 525 344 546 344 571 C344 598 323 618 297 618 C272 618 252 598 252 571 L252 571 Z " />
<glyph glyph-name="Amacron" unicode="&#x100;" horiz-adv-x="596" d="M261 614 L21 0 L101 0 L171 185 L424 185 L495 0 L575 0 L335 614 L261 614 Z M297 516 L397 254 L197 254 L297 516 Z M192 671 L405 671 L405 732 L192 732 L192 671 Z " />
<glyph glyph-name="amacron" unicode="&#x101;" horiz-adv-x="450" d="M389 0 L389 296 C389 393 326 453 220 453 C135 453 69 402 54 327 L128 327 C142 368 172 388 219 388 C283 388 317 348 317 293 L317 237 C298 254 251 273 205 273 C110 273 35 217 35 134 C35 46 110 -8 200 -8 C253 -8 300 15 317 33 L317 0 L389 0 Z M317 110 C304 77 259 55 213 55 C159 55 107 80 107 134 C107 187 159 211 213 211 C259 211 304 189 317 156 L317 110 Z M123 530 L336 530 L336 591 L123 591 L123 530 Z " />
<glyph glyph-name="Abreve" unicode="&#x102;" horiz-adv-x="596" d="M261 614 L21 0 L101 0 L171 185 L424 185 L495 0 L575 0 L335 614 L261 614 Z M297 516 L397 254 L197 254 L297 516 Z M298 666 C368 666 414 708 414 786 L357 786 C357 743 333 722 298 722 C264 722 240 743 240 786 L183 786 C183 708 230 666 298 666 L298 666 Z " />
<glyph glyph-name="abreve" unicode="&#x103;" horiz-adv-x="450" d="M389 0 L389 296 C389 393 326 453 220 453 C135 453 69 402 54 327 L128 327 C142 368 172 388 219 388 C283 388 317 348 317 293 L317 237 C298 254 251 273 205 273 C110 273 35 217 35 134 C35 46 110 -8 200 -8 C253 -8 300 15 317 33 L317 0 L389 0 Z M317 110 C304 77 259 55 213 55 C159 55 107 80 107 134 C107 187 159 211 213 211 C259 211 304 189 317 156 L317 110 Z M227 500 C294 500 341 545 341 628 L284 628 C284 583 264 555 227 555 C190 555 170 583 170 628 L113 628 C113 545 160 500 227 500 L227 500 Z " />
<glyph glyph-name="Aogonek" unicode="&#x104;" horiz-adv-x="596" d="M261 614 L21 0 L101 0 L171 185 L424 185 L495 0 L519 0 C487 -51 466 -83 466 -120 C466 -160 490 -186 533 -186 C554 -186 570 -178 585 -167 L585 -117 C570 -127 561 -132 548 -132 C534 -132 525 -123 525 -106 C525 -82 535 -66 575 0 L335 614 L261 614 Z M297 516 L398 254 L197 254 L297 516 Z " />
<glyph glyph-name="aogonek" unicode="&#x105;" horiz-adv-x="450" d="M316 110 C304 77 259 55 213 55 C159 55 107 80 107 134 C107 187 159 211 213 211 C259 211 304 189 316 156 L316 110 Z M333 0 C302 -50 281 -83 281 -120 C281 -160 304 -186 347 -186 C368 -186 385 -178 399 -167 L399 -117 C385 -127 375 -132 362 -132 C349 -132 340 -123 340 -106 C340 -82 350 -65 389 0 L389 296 C389 393 326 453 220 453 C135 453 69 402 54 327 L127 327 C140 368 172 388 219 388 C283 388 316 348 316 293 L316 237 C297 254 251 273 205 273 C110 273 35 217 35 134 C35 46 110 -8 200 -8 C253 -8 299 15 316 33 L316 0 L333 0 Z " />
<glyph glyph-name="Cacute" unicode="&#x106;" horiz-adv-x="586" d="M37 307 C37 116 157 -9 312 -9 C440 -9 526 66 551 181 L473 181 C448 109 397 62 312 62 C194 62 116 162 116 307 C116 453 195 552 312 552 C397 552 448 505 473 434 L551 434 C526 548 441 623 312 623 C157 623 37 498 37 307 L37 307 Z M349 668 L440 785 L353 785 L273 668 L349 668 Z " />
<glyph glyph-name="cacute" unicode="&#x107;" horiz-adv-x="446" d="M270 516 L359 650 L281 650 L201 516 L270 516 Z M35 222 C35 84 118 -9 237 -9 C337 -9 400 49 415 134 L338 134 C328 86 290 57 237 57 C161 57 111 125 111 222 C111 319 161 387 237 387 C290 387 328 358 338 310 L415 310 C400 395 337 453 237 453 C118 453 35 360 35 222 L35 222 Z " />
<glyph glyph-name="Ccircumflex" unicode="&#x108;" horiz-adv-x="586" d="M37 307 C37 116 157 -9 312 -9 C440 -9 526 66 551 181 L473 181 C448 109 397 62 312 62 C194 62 116 162 116 307 C116 453 195 552 312 552 C397 552 448 505 473 434 L551 434 C526 548 441 623 312 623 C157 623 37 498 37 307 L37 307 Z M353 791 L283 791 L191 669 L259 669 L318 740 L377 669 L445 669 L353 791 Z " />
<glyph glyph-name="ccircumflex" unicode="&#x109;" horiz-adv-x="446" d="M276 645 L206 645 L114 509 L179 509 L241 597 L303 509 L368 509 L276 645 Z M35 222 C35 84 118 -9 237 -9 C337 -9 400 49 415 134 L338 134 C328 86 290 57 237 57 C161 57 111 125 111 222 C111 319 161 387 237 387 C290 387 328 358 338 310 L415 310 C400 395 337 453 237 453 C118 453 35 360 35 222 L35 222 Z " />
<glyph glyph-name="Cdotaccent" unicode="&#x10a;" horiz-adv-x="586" d="M363 721 C363 748 341 770 315 770 C289 770 267 748 267 721 C267 695 289 673 315 673 C341 673 363 695 363 721 L363 721 Z M37 307 C37 116 157 -9 312 -9 C440 -9 526 66 551 181 L473 181 C448 109 397 62 312 62 C194 62 116 162 116 307 C116 453 195 552 312 552 C397 552 448 505 473 434 L551 434 C526 548 441 623 312 623 C157 623 37 498 37 307 L37 307 Z " />
<glyph glyph-name="cdotaccent" unicode="&#x10b;" horiz-adv-x="446" d="M35 222 C35 84 118 -9 237 -9 C337 -9 400 49 415 134 L338 134 C328 86 290 57 237 57 C161 57 111 125 111 222 C111 319 161 387 237 387 C290 387 328 358 338 310 L415 310 C400 395 337 453 237 453 C118 453 35 360 35 222 L35 222 Z M289 578 C289 605 267 626 241 626 C215 626 193 605 193 578 C193 552 215 530 241 530 C267 530 289 552 289 578 L289 578 Z " />
<glyph glyph-name="Ccaron" unicode="&#x10c;" horiz-adv-x="586" d="M280 666 L350 666 L442 787 L374 787 L315 716 L256 787 L188 787 L280 666 Z M37 307 C37 116 157 -9 312 -9 C440 -9 526 66 551 181 L473 181 C448 109 397 62 312 62 C194 62 116 162 116 307 C116 453 195 552 312 552 C397 552 448 505 473 434 L551 434 C526 548 441 623 312 623 C157 623 37 498 37 307 L37 307 Z " />
<glyph glyph-name="ccaron" unicode="&#x10d;" horiz-adv-x="446" d="M368 646 L303 646 L241 559 L179 646 L114 646 L206 510 L276 510 L368 646 Z M35 222 C35 84 118 -9 237 -9 C337 -9 400 49 415 134 L338 134 C328 86 290 57 237 57 C161 57 111 125 111 222 C111 319 161 387 237 387 C290 387 328 358 338 310 L415 310 C400 395 337 453 237 453 C118 453 35 360 35 222 L35 222 Z " />
<glyph glyph-name="Dcaron" unicode="&#x10e;" horiz-adv-x="605" d="M245 666 L315 666 L407 787 L339 787 L280 716 L221 787 L153 787 L245 666 Z M152 71 L152 544 L269 544 C408 544 490 451 490 307 C490 163 408 71 269 71 L152 71 Z M73 0 L270 0 C450 0 568 120 568 307 C568 494 450 614 270 614 L73 614 L73 0 Z " />
<glyph glyph-name="dcaron" unicode="&#x10f;" horiz-adv-x="502" d="M549 486 L582 650 L522 650 L489 486 L549 486 Z M360 0 L436 0 L436 650 L360 650 L360 392 C338 424 290 453 235 453 C105 453 35 347 35 222 C35 96 105 -9 235 -9 C290 -9 338 20 360 52 L360 0 Z M360 132 C337 86 293 59 246 59 C161 59 111 128 111 222 C111 316 161 385 246 385 C293 385 337 358 360 312 L360 132 Z " />
<glyph glyph-name="Dcroat" unicode="&#x110;" horiz-adv-x="620" d="M32 284 L88 284 L88 0 L285 0 C465 0 583 120 583 307 C583 494 465 614 285 614 L88 614 L88 351 L32 351 L32 284 Z M167 71 L167 284 L290 284 L290 351 L167 351 L167 544 L284 544 C423 544 505 451 505 307 C505 163 423 71 284 71 L167 71 Z " />
<glyph glyph-name="dcroat" unicode="&#x111;" horiz-adv-x="502" d="M252 511 L360 511 L360 392 C338 424 290 453 235 453 C105 453 35 347 35 222 C35 96 105 -9 235 -9 C290 -9 338 20 360 52 L360 0 L436 0 L436 511 L492 511 L492 565 L436 565 L436 650 L360 650 L360 565 L252 565 L252 511 Z M360 132 C337 86 293 59 246 59 C161 59 111 128 111 222 C111 316 161 385 246 385 C293 385 337 358 360 312 L360 132 Z " />
<glyph glyph-name="Emacron" unicode="&#x112;" horiz-adv-x="515" d="M167 671 L380 671 L380 732 L167 732 L167 671 Z M73 614 L73 0 L464 0 L464 71 L151 71 L151 280 L435 280 L435 350 L151 350 L151 544 L464 544 L464 614 L73 614 Z " />
<glyph glyph-name="emacron" unicode="&#x113;" horiz-adv-x="457" d="M135 530 L348 530 L348 591 L135 591 L135 530 Z M347 133 C335 83 294 55 239 55 C164 55 111 113 110 208 L424 208 L424 235 C424 364 359 453 237 453 C116 453 35 354 35 221 C35 84 118 -9 239 -9 C339 -9 402 49 418 133 L347 133 Z M238 389 C312 389 347 331 348 265 L112 265 C123 343 171 389 238 389 L238 389 Z " />
<glyph glyph-name="Ebreve" unicode="&#x114;" horiz-adv-x="515" d="M273 666 C343 666 389 708 389 786 L332 786 C332 743 308 722 273 722 C239 722 215 743 215 786 L158 786 C158 708 205 666 273 666 L273 666 Z M73 614 L73 0 L464 0 L464 71 L151 71 L151 280 L435 280 L435 350 L151 350 L151 544 L464 544 L464 614 L73 614 Z " />
<glyph glyph-name="ebreve" unicode="&#x115;" horiz-adv-x="457" d="M347 133 C335 83 294 55 239 55 C164 55 111 113 110 208 L424 208 L424 235 C424 364 359 453 237 453 C116 453 35 354 35 221 C35 84 118 -9 239 -9 C339 -9 402 49 418 133 L347 133 Z M238 389 C312 389 347 331 348 265 L112 265 C123 343 171 389 238 389 L238 389 Z M241 500 C308 500 355 545 355 628 L298 628 C298 583 278 555 241 555 C204 555 184 583 184 628 L127 628 C127 545 174 500 241 500 L241 500 Z " />
<glyph glyph-name="Edotaccent" unicode="&#x116;" horiz-adv-x="515" d="M321 721 C321 748 299 770 273 770 C247 770 225 748 225 721 C225 695 247 673 273 673 C299 673 321 695 321 721 L321 721 Z M73 614 L73 0 L464 0 L464 71 L151 71 L151 280 L435 280 L435 350 L151 350 L151 544 L464 544 L464 614 L73 614 Z " />
<glyph glyph-name="edotaccent" unicode="&#x117;" horiz-adv-x="457" d="M347 133 C335 83 294 55 239 55 C164 55 111 113 110 208 L424 208 L424 235 C424 364 359 453 237 453 C116 453 35 354 35 221 C35 84 118 -9 239 -9 C339 -9 402 49 418 133 L347 133 Z M238 389 C312 389 347 331 348 265 L112 265 C123 343 171 389 238 389 L238 389 Z M289 578 C289 605 267 626 241 626 C215 626 193 605 193 578 C193 552 215 530 241 530 C267 530 289 552 289 578 L289 578 Z " />
<glyph glyph-name="Eogonek" unicode="&#x118;" horiz-adv-x="515" d="M73 614 L73 0 L375 0 C344 -50 323 -83 323 -120 C323 -160 346 -186 389 -186 C410 -186 427 -178 441 -167 L441 -117 C427 -127 417 -132 404 -132 C391 -132 382 -123 382 -106 C382 -82 393 -62 431 0 L464 0 L464 71 L151 71 L151 280 L435 280 L435 350 L151 350 L151 544 L464 544 L464 614 L73 614 Z " />
<glyph glyph-name="eogonek" unicode="&#x119;" horiz-adv-x="457" d="M238 389 C312 389 347 331 348 265 L112 265 C123 343 171 389 238 389 L238 389 Z M280 -3 C245 -44 224 -78 224 -118 C224 -158 249 -186 292 -186 C313 -186 330 -178 344 -167 L344 -117 C330 -127 320 -132 307 -132 C292 -132 283 -122 283 -103 C283 -66 311 -23 358 25 C391 59 411 92 418 133 L347 133 C335 83 293 55 239 55 C164 55 111 113 110 208 L424 208 L424 235 C424 364 359 453 237 453 C116 453 35 354 35 221 C35 84 118 -9 239 -9 C253 -9 267 -7 280 -3 L280 -3 Z " />
<glyph glyph-name="Ecaron" unicode="&#x11a;" horiz-adv-x="515" d="M242 666 L312 666 L404 787 L336 787 L277 716 L218 787 L150 787 L242 666 Z M73 614 L73 0 L464 0 L464 71 L151 71 L151 280 L435 280 L435 350 L151 350 L151 544 L464 544 L464 614 L73 614 Z " />
<glyph glyph-name="ecaron" unicode="&#x11b;" horiz-adv-x="457" d="M368 646 L303 646 L241 559 L179 646 L114 646 L206 510 L276 510 L368 646 Z M347 133 C335 83 294 55 239 55 C164 55 111 113 110 208 L424 208 L424 235 C424 364 359 453 237 453 C116 453 35 354 35 221 C35 84 118 -9 239 -9 C339 -9 402 49 418 133 L347 133 Z M238 389 C312 389 347 331 348 265 L112 265 C123 343 171 389 238 389 L238 389 Z " />
<glyph glyph-name="Gcircumflex" unicode="&#x11c;" horiz-adv-x="610" d="M353 791 L283 791 L191 669 L259 669 L318 740 L377 669 L445 669 L353 791 Z M498 235 C489 128 426 61 319 61 C197 61 116 160 116 307 C116 454 198 552 317 552 C404 552 454 506 480 434 L559 434 C534 548 448 623 317 623 C160 623 37 499 37 307 C37 115 159 -9 319 -9 C469 -9 573 97 573 261 L573 303 L351 303 L351 235 L498 235 Z " />
<glyph glyph-name="gcircumflex" unicode="&#x11d;" horiz-adv-x="501" d="M294 645 L224 645 L132 509 L197 509 L259 597 L321 509 L386 509 L294 645 Z M358 30 C358 -66 316 -116 236 -116 C175 -116 133 -89 120 -33 L46 -33 C60 -124 128 -180 236 -180 C350 -180 434 -111 434 35 L434 444 L358 444 L358 394 C336 425 289 453 234 453 C104 453 35 346 35 228 C35 111 104 3 234 3 C289 3 336 32 358 63 L358 30 Z M358 140 C335 98 293 71 245 71 C161 71 112 137 112 228 C112 320 161 386 245 386 C293 386 335 359 358 317 L358 140 Z " />
<glyph glyph-name="Gbreve" unicode="&#x11e;" horiz-adv-x="610" d="M319 666 C389 666 435 708 435 786 L378 786 C378 743 354 722 319 722 C285 722 261 743 261 786 L204 786 C204 708 251 666 319 666 L319 666 Z M498 235 C489 128 426 61 319 61 C197 61 116 160 116 307 C116 454 198 552 317 552 C404 552 454 506 480 434 L559 434 C534 548 448 623 317 623 C160 623 37 499 37 307 C37 115 159 -9 319 -9 C469 -9 573 97 573 261 L573 303 L351 303 L351 235 L498 235 Z " />
<glyph glyph-name="gbreve" unicode="&#x11f;" horiz-adv-x="501" d="M358 30 C358 -66 316 -116 236 -116 C175 -116 133 -89 120 -33 L46 -33 C60 -124 128 -180 236 -180 C350 -180 434 -111 434 35 L434 444 L358 444 L358 394 C336 425 289 453 234 453 C104 453 35 346 35 228 C35 111 104 3 234 3 C289 3 336 32 358 63 L358 30 Z M358 140 C335 98 293 71 245 71 C161 71 112 137 112 228 C112 320 161 386 245 386 C293 386 335 359 358 317 L358 140 Z M259 500 C326 500 373 545 373 628 L316 628 C316 583 296 555 259 555 C222 555 202 583 202 628 L145 628 C145 545 192 500 259 500 L259 500 Z " />
<glyph glyph-name="Gdotaccent" unicode="&#x120;" horiz-adv-x="610" d="M368 721 C368 748 346 770 320 770 C294 770 272 748 272 721 C272 695 294 673 320 673 C346 673 368 695 368 721 L368 721 Z M498 235 C489 128 426 61 319 61 C197 61 116 160 116 307 C116 454 198 552 317 552 C404 552 454 506 480 434 L559 434 C534 548 448 623 317 623 C160 623 37 499 37 307 C37 115 159 -9 319 -9 C469 -9 573 97 573 261 L573 303 L351 303 L351 235 L498 235 Z " />
<glyph glyph-name="gdotaccent" unicode="&#x121;" horiz-adv-x="501" d="M307 578 C307 605 285 626 259 626 C233 626 211 605 211 578 C211 552 233 530 259 530 C285 530 307 552 307 578 L307 578 Z M358 30 C358 -66 316 -116 236 -116 C175 -116 133 -89 120 -33 L46 -33 C60 -124 128 -180 236 -180 C350 -180 434 -111 434 35 L434 444 L358 444 L358 394 C336 425 289 453 234 453 C104 453 35 346 35 228 C35 111 104 3 234 3 C289 3 336 32 358 63 L358 30 Z M358 140 C335 98 293 71 245 71 C161 71 112 137 112 228 C112 320 161 386 245 386 C293 386 335 359 358 317 L358 140 Z " />
<glyph glyph-name="Gcommaaccent" unicode="&#x122;" horiz-adv-x="610" d="M271 -201 L318 -201 L347 -152 C358 -135 369 -117 369 -95 C369 -65 347 -45 320 -45 C292 -45 270 -65 270 -93 C270 -117 287 -134 310 -137 L271 -201 Z M498 235 C489 128 426 61 319 61 C197 61 116 160 116 307 C116 454 198 552 317 552 C404 552 454 506 480 434 L559 434 C534 548 448 623 317 623 C160 623 37 499 37 307 C37 115 159 -9 319 -9 C469 -9 573 97 573 261 L573 303 L351 303 L351 235 L498 235 Z " />
<glyph glyph-name="gcommaaccent" unicode="&#x123;" horiz-adv-x="501" d="M307 680 L258 680 L229 631 C217 613 207 594 207 572 C207 541 229 521 257 521 C286 521 308 541 308 569 C308 595 291 612 267 615 L307 680 Z M358 30 C358 -66 316 -116 236 -116 C175 -116 133 -89 120 -33 L46 -33 C60 -124 128 -180 236 -180 C350 -180 434 -111 434 35 L434 444 L358 444 L358 394 C336 425 289 453 234 453 C104 453 35 346 35 228 C35 111 104 3 234 3 C289 3 336 32 358 63 L358 30 Z M358 140 C335 98 293 71 245 71 C161 71 112 137 112 228 C112 320 161 386 245 386 C293 386 335 359 358 317 L358 140 Z " />
<glyph glyph-name="Hcircumflex" unicode="&#x124;" horiz-adv-x="651" d="M499 614 L499 351 L152 351 L152 614 L73 614 L73 0 L152 0 L152 280 L499 280 L499 0 L578 0 L578 614 L499 614 Z M360 791 L290 791 L198 669 L266 669 L325 740 L384 669 L452 669 L360 791 Z " />
<glyph glyph-name="hcircumflex" unicode="&#x125;" horiz-adv-x="489" d="M67 0 L142 0 L142 301 C158 349 203 384 255 384 C322 384 353 341 353 279 L353 0 L429 0 L429 291 C429 388 374 453 273 453 C216 453 168 423 142 388 L142 650 L67 650 L67 0 Z M282 804 L212 804 L120 682 L188 682 L247 753 L306 682 L374 682 L282 804 Z " />
<glyph glyph-name="Hbar" unicode="&#x126;" horiz-adv-x="679" d="M32 430 L87 430 L87 0 L166 0 L166 244 L513 244 L513 0 L592 0 L592 430 L647 430 L647 496 L592 496 L592 614 L513 614 L513 496 L166 496 L166 614 L87 614 L87 496 L32 496 L32 430 Z M166 310 L166 430 L513 430 L513 310 L166 310 Z " />
<glyph glyph-name="hbar" unicode="&#x127;" horiz-adv-x="489" d="M10 511 L67 511 L67 0 L142 0 L142 301 C158 349 203 384 255 384 C322 384 353 341 353 279 L353 0 L429 0 L429 291 C429 388 374 453 273 453 C216 453 168 423 142 388 L142 511 L250 511 L250 565 L142 565 L142 650 L67 650 L67 565 L10 565 L10 511 Z " />
<glyph glyph-name="Itilde" unicode="&#x128;" horiz-adv-x="225" d="M152 614 L73 614 L73 0 L152 0 L152 614 Z M199 784 C198 750 187 731 165 731 C128 731 104 787 54 787 C4 787 -22 739 -22 668 L27 668 C27 702 38 721 61 721 C97 721 122 665 171 665 C221 665 247 713 247 784 L199 784 Z " />
<glyph glyph-name="itilde" unicode="&#x129;" horiz-adv-x="209" d="M168 633 C167 599 159 580 142 580 C118 580 96 636 57 636 C16 636 -7 589 -7 518 L39 518 C40 552 48 571 66 571 C90 571 111 515 150 515 C191 515 214 562 214 633 L168 633 Z M142 444 L67 444 L67 0 L142 0 L142 444 Z " />
<glyph glyph-name="Imacron" unicode="&#x12a;" horiz-adv-x="225" d="M152 614 L73 614 L73 0 L152 0 L152 614 Z M6 671 L219 671 L219 732 L6 732 L6 671 Z " />
<glyph glyph-name="imacron" unicode="&#x12b;" horiz-adv-x="209" d="M142 444 L67 444 L67 0 L142 0 L142 444 Z M16 530 L193 530 L193 591 L16 591 L16 530 Z " />
<glyph glyph-name="Ibreve" unicode="&#x12c;" horiz-adv-x="225" d="M152 614 L73 614 L73 0 L152 0 L152 614 Z M112 666 C182 666 228 708 228 786 L171 786 C171 743 147 722 112 722 C78 722 54 743 54 786 L-3 786 C-3 708 44 666 112 666 L112 666 Z " />
<glyph glyph-name="ibreve" unicode="&#x12d;" horiz-adv-x="209" d="M105 500 C165 500 206 545 206 628 L151 628 C151 583 137 555 105 555 C72 555 58 583 58 628 L3 628 C3 545 45 500 105 500 L105 500 Z M142 444 L67 444 L67 0 L142 0 L142 444 Z " />
<glyph glyph-name="Iogonek" unicode="&#x12e;" horiz-adv-x="225" d="M152 614 L73 614 L73 0 L96 0 C65 -50 44 -83 44 -120 C44 -160 67 -186 110 -186 C131 -186 148 -178 162 -167 L162 -117 C148 -127 138 -132 125 -132 C112 -132 102 -123 102 -106 C102 -82 112 -65 152 0 L152 614 Z " />
<glyph glyph-name="iogonek" unicode="&#x12f;" horiz-adv-x="209" d="M142 444 L67 444 L67 0 L86 0 C55 -50 34 -83 34 -120 C34 -160 57 -186 101 -186 C121 -186 138 -178 153 -167 L153 -117 C138 -127 129 -132 116 -132 C102 -132 93 -123 93 -106 C93 -82 103 -65 142 0 L142 444 Z M153 578 C153 605 131 626 104 626 C78 626 56 605 56 578 C56 552 78 530 104 530 C131 530 153 552 153 578 L153 578 Z " />
<glyph glyph-name="Idotaccent" unicode="&#x130;" horiz-adv-x="225" d="M152 614 L73 614 L73 0 L152 0 L152 614 Z M160 721 C160 748 138 770 112 770 C86 770 64 748 64 721 C64 695 86 673 112 673 C138 673 160 695 160 721 L160 721 Z " />
<glyph glyph-name="dotlessi" unicode="&#x131;" horiz-adv-x="209" d="M142 444 L67 444 L67 0 L142 0 L142 444 Z " />
<glyph glyph-name="IJ" unicode="&#x132;" horiz-adv-x="668" d="M206 174 C215 66 286 -9 408 -9 C525 -9 607 61 607 204 L607 614 L528 614 L528 204 C528 105 481 63 406 63 C338 63 296 105 288 174 L206 174 Z M152 614 L73 614 L73 0 L152 0 L152 614 Z " />
<glyph glyph-name="ij" unicode="&#x133;" horiz-adv-x="416" d="M142 444 L67 444 L67 0 L142 0 L142 444 Z M153 578 C153 605 131 626 104 626 C78 626 56 605 56 578 C56 552 78 530 104 530 C131 530 153 552 153 578 L153 578 Z M351 444 L276 444 L276 -46 C276 -96 255 -114 216 -114 C207 -114 196 -112 190 -111 L190 -175 C198 -178 213 -179 222 -179 C305 -179 351 -134 351 -51 L351 444 Z M362 578 C362 605 340 626 313 626 C287 626 265 605 265 578 C265 552 287 530 313 530 C340 530 362 552 362 578 L362 578 Z " />
<glyph glyph-name="Jcircumflex" unicode="&#x134;" horiz-adv-x="479" d="M17 174 C25 66 97 -9 218 -9 C335 -9 418 61 418 204 L418 614 L339 614 L339 204 C339 105 292 63 217 63 C148 63 106 105 98 174 L17 174 Z M414 791 L344 791 L252 669 L320 669 L379 740 L438 669 L506 669 L414 791 Z " />
<glyph glyph-name="jcircumflex" unicode="&#x135;" horiz-adv-x="207" d="M139 645 L70 645 L-4 509 L59 509 L104 594 L149 509 L213 509 L139 645 Z M142 444 L67 444 L67 -46 C67 -96 46 -114 7 -114 C-2 -114 -13 -112 -19 -111 L-19 -175 C-11 -178 4 -179 13 -179 C96 -179 142 -134 142 -51 L142 444 Z " />
<glyph glyph-name="Kcommaaccent" unicode="&#x136;" horiz-adv-x="564" d="M216 -201 L263 -201 L292 -152 C303 -135 314 -117 314 -95 C314 -65 292 -45 265 -45 C237 -45 215 -65 215 -93 C215 -117 232 -134 255 -137 L216 -201 Z M152 614 L73 614 L73 0 L152 0 L152 209 L218 280 L449 0 L547 0 L275 334 L538 614 L438 614 L152 307 L152 614 Z " />
<glyph glyph-name="kcommaaccent" unicode="&#x137;" horiz-adv-x="464" d="M179 -201 L226 -201 L255 -152 C266 -135 277 -117 277 -95 C277 -65 255 -45 228 -45 C200 -45 178 -65 178 -93 C178 -117 195 -134 218 -137 L179 -201 Z M359 0 L451 0 L244 252 L444 444 L345 444 L142 247 L142 650 L67 650 L67 0 L142 0 L142 159 L190 205 L359 0 Z " />
<glyph glyph-name="kgreenlandic" unicode="&#x138;" horiz-adv-x="464" d="M359 0 L451 0 L244 252 L444 444 L345 444 L142 247 L142 444 L67 444 L67 0 L142 0 L142 159 L190 205 L359 0 Z " />
<glyph glyph-name="Lacute" unicode="&#x139;" horiz-adv-x="504" d="M156 668 L247 785 L160 785 L80 668 L156 668 Z M73 0 L465 0 L465 71 L152 71 L152 614 L73 614 L73 0 Z " />
<glyph glyph-name="lacute" unicode="&#x13a;" horiz-adv-x="209" d="M142 695 L233 812 L146 812 L66 695 L142 695 Z M142 650 L67 650 L67 0 L142 0 L142 650 Z " />
<glyph glyph-name="Lcommaaccent" unicode="&#x13b;" horiz-adv-x="504" d="M231 -201 L278 -201 L307 -152 C318 -135 329 -117 329 -95 C329 -65 307 -45 280 -45 C252 -45 230 -65 230 -93 C230 -117 247 -134 270 -137 L231 -201 Z M73 0 L465 0 L465 71 L152 71 L152 614 L73 614 L73 0 Z " />
<glyph glyph-name="lcommaaccent" unicode="&#x13c;" horiz-adv-x="209" d="M56 -201 L103 -201 L132 -152 C143 -135 154 -117 154 -95 C154 -65 132 -45 105 -45 C77 -45 55 -65 55 -93 C55 -117 72 -134 95 -137 L56 -201 Z M142 650 L67 650 L67 0 L142 0 L142 650 Z " />
<glyph glyph-name="Lcaron" unicode="&#x13d;" horiz-adv-x="504" d="M321 450 L354 614 L294 614 L261 450 L321 450 Z M73 0 L465 0 L465 71 L152 71 L152 614 L73 614 L73 0 Z " />
<glyph glyph-name="lcaron" unicode="&#x13e;" horiz-adv-x="209" d="M256 486 L289 650 L229 650 L196 486 L256 486 Z M142 650 L67 650 L67 0 L142 0 L142 650 Z " />
<glyph glyph-name="Ldot" unicode="&#x13f;" horiz-adv-x="504" d="M73 0 L465 0 L465 71 L152 71 L152 614 L73 614 L73 0 Z M412 307 C412 334 390 355 364 355 C338 355 316 334 316 307 C316 281 338 259 364 259 C390 259 412 281 412 307 L412 307 Z " />
<glyph glyph-name="ldot" unicode="&#x140;" horiz-adv-x="332" d="M142 650 L67 650 L67 0 L142 0 L142 650 Z M317 325 C317 352 295 373 269 373 C243 373 221 352 221 325 C221 299 243 277 269 277 C295 277 317 299 317 325 L317 325 Z " />
<glyph glyph-name="Lslash" unicode="&#x141;" horiz-adv-x="523" d="M30 226 L92 251 L92 0 L484 0 L484 71 L171 71 L171 281 L325 344 L325 416 L171 354 L171 614 L92 614 L92 324 L30 299 L30 226 Z " />
<glyph glyph-name="lslash" unicode="&#x142;" horiz-adv-x="246" d="M161 650 L86 650 L86 378 L30 342 L30 275 L86 310 L86 0 L161 0 L161 346 L221 385 L221 453 L161 414 L161 650 Z " />
<glyph glyph-name="Nacute" unicode="&#x143;" horiz-adv-x="623" d="M343 668 L434 785 L347 785 L267 668 L343 668 Z M550 614 L475 614 L475 147 L148 614 L73 614 L73 0 L149 0 L149 488 L492 0 L550 0 L550 614 Z " />
<glyph glyph-name="nacute" unicode="&#x144;" horiz-adv-x="489" d="M280 516 L369 650 L291 650 L211 516 L280 516 Z M67 0 L142 0 L142 301 C158 349 203 384 255 384 C322 384 353 341 353 279 L353 0 L429 0 L429 291 C429 388 374 453 273 453 C216 453 168 423 142 388 L142 444 L67 444 L67 0 Z " />
<glyph glyph-name="Ncommaaccent" unicode="&#x145;" horiz-adv-x="623" d="M266 -201 L313 -201 L342 -152 C353 -135 364 -117 364 -95 C364 -65 342 -45 315 -45 C287 -45 265 -65 265 -93 C265 -117 282 -134 305 -137 L266 -201 Z M550 614 L475 614 L475 147 L148 614 L73 614 L73 0 L149 0 L149 488 L492 0 L550 0 L550 614 Z " />
<glyph glyph-name="ncommaaccent" unicode="&#x146;" horiz-adv-x="489" d="M205 -201 L252 -201 L281 -152 C292 -135 303 -117 303 -95 C303 -65 281 -45 254 -45 C226 -45 204 -65 204 -93 C204 -117 221 -134 244 -137 L205 -201 Z M67 0 L142 0 L142 301 C158 349 203 384 255 384 C322 384 353 341 353 279 L353 0 L429 0 L429 291 C429 388 374 453 273 453 C216 453 168 423 142 388 L142 444 L67 444 L67 0 Z " />
<glyph glyph-name="Ncaron" unicode="&#x147;" horiz-adv-x="623" d="M277 666 L347 666 L439 787 L371 787 L312 716 L253 787 L185 787 L277 666 Z M550 614 L475 614 L475 147 L148 614 L73 614 L73 0 L149 0 L149 488 L492 0 L550 0 L550 614 Z " />
<glyph glyph-name="ncaron" unicode="&#x148;" horiz-adv-x="489" d="M378 646 L313 646 L251 559 L189 646 L124 646 L216 510 L286 510 L378 646 Z M67 0 L142 0 L142 301 C158 349 203 384 255 384 C322 384 353 341 353 279 L353 0 L429 0 L429 291 C429 388 374 453 273 453 C216 453 168 423 142 388 L142 444 L67 444 L67 0 Z " />
<glyph glyph-name="Eng" unicode="&#x14a;" horiz-adv-x="623" d="M266 -159 C292 -173 329 -187 372 -187 C488 -187 550 -121 550 27 L550 614 L475 614 L475 147 L148 614 L73 614 L73 0 L149 0 L149 488 L475 25 C474 -76 440 -114 368 -114 C329 -114 299 -103 266 -81 L266 -159 Z " />
<glyph glyph-name="eng" unicode="&#x14b;" horiz-adv-x="489" d="M353 -46 C353 -96 332 -114 293 -114 C284 -114 274 -112 268 -111 L268 -175 C275 -178 291 -179 300 -179 C383 -179 429 -134 429 -51 L429 291 C429 388 374 453 273 453 C216 453 168 423 142 388 L142 444 L67 444 L67 0 L142 0 L142 301 C158 349 203 384 255 384 C322 384 353 341 353 279 L353 -46 Z " />
<glyph glyph-name="Omacron" unicode="&#x14c;" horiz-adv-x="629" d="M208 671 L421 671 L421 732 L208 732 L208 671 Z M592 307 C592 493 476 623 314 623 C153 623 37 493 37 307 C37 122 153 -9 314 -9 C476 -9 592 122 592 307 L592 307 Z M513 307 C513 163 433 62 314 62 C196 62 116 163 116 307 C116 451 196 552 314 552 C433 552 513 451 513 307 L513 307 Z " />
<glyph glyph-name="omacron" unicode="&#x14d;" horiz-adv-x="478" d="M133 530 L346 530 L346 591 L133 591 L133 530 Z M443 222 C443 358 360 453 239 453 C117 453 35 358 35 222 C35 86 117 -9 239 -9 C360 -9 443 86 443 222 L443 222 Z M367 222 C367 125 319 57 239 57 C159 57 111 125 111 222 C111 319 159 387 239 387 C319 387 367 319 367 222 L367 222 Z " />
<glyph glyph-name="Obreve" unicode="&#x14e;" horiz-adv-x="629" d="M314 666 C384 666 430 708 430 786 L373 786 C373 743 349 722 314 722 C280 722 256 743 256 786 L199 786 C199 708 246 666 314 666 L314 666 Z M592 307 C592 493 476 623 314 623 C153 623 37 493 37 307 C37 122 153 -9 314 -9 C476 -9 592 122 592 307 L592 307 Z M513 307 C513 163 433 62 314 62 C196 62 116 163 116 307 C116 451 196 552 314 552 C433 552 513 451 513 307 L513 307 Z " />
<glyph glyph-name="obreve" unicode="&#x14f;" horiz-adv-x="478" d="M443 222 C443 358 360 453 239 453 C117 453 35 358 35 222 C35 86 117 -9 239 -9 C360 -9 443 86 443 222 L443 222 Z M367 222 C367 125 319 57 239 57 C159 57 111 125 111 222 C111 319 159 387 239 387 C319 387 367 319 367 222 L367 222 Z M239 500 C306 500 353 545 353 628 L296 628 C296 583 276 555 239 555 C202 555 182 583 182 628 L125 628 C125 545 172 500 239 500 L239 500 Z " />
<glyph glyph-name="Ohungarumlaut" unicode="&#x150;" horiz-adv-x="629" d="M592 307 C592 493 476 623 314 623 C153 623 37 493 37 307 C37 122 153 -9 314 -9 C476 -9 592 122 592 307 L592 307 Z M513 307 C513 163 433 62 314 62 C196 62 116 163 116 307 C116 451 196 552 314 552 C433 552 513 451 513 307 L513 307 Z M290 668 L358 785 L292 785 L225 668 L290 668 Z M413 668 L481 785 L414 785 L348 668 L413 668 Z " />
<glyph glyph-name="ohungarumlaut" unicode="&#x151;" horiz-adv-x="478" d="M207 516 L275 650 L210 650 L144 516 L207 516 Z M326 516 L394 650 L330 650 L263 516 L326 516 Z M443 222 C443 358 360 453 239 453 C117 453 35 358 35 222 C35 86 117 -9 239 -9 C360 -9 443 86 443 222 L443 222 Z M367 222 C367 125 319 57 239 57 C159 57 111 125 111 222 C111 319 159 387 239 387 C319 387 367 319 367 222 L367 222 Z " />
<glyph glyph-name="OE" unicode="&#x152;" horiz-adv-x="830" d="M780 614 L335 614 C155 614 37 494 37 307 C37 120 155 0 335 0 L780 0 L780 71 L482 71 L482 280 L750 280 L750 350 L482 350 L482 544 L780 544 L780 614 Z M337 71 C197 71 116 163 116 307 C116 451 197 544 337 544 L405 544 L405 71 L337 71 Z " />
<glyph glyph-name="oe" unicode="&#x153;" horiz-adv-x="787" d="M568 -9 C669 -9 732 49 748 133 L677 133 C665 83 624 55 568 55 C494 55 441 113 439 208 L754 208 L754 235 C754 364 689 453 567 453 C493 453 437 417 402 360 C369 417 311 453 239 453 C117 453 35 358 35 222 C35 86 117 -9 239 -9 C310 -9 368 25 402 82 C437 25 496 -9 568 -9 L568 -9 Z M367 222 C367 125 319 57 239 57 C159 57 111 125 111 222 C111 319 159 387 239 387 C319 387 367 319 367 222 L367 222 Z M567 389 C642 389 676 331 678 265 L442 265 C453 342 500 389 567 389 L567 389 Z " />
<glyph glyph-name="Racute" unicode="&#x154;" horiz-adv-x="552" d="M261 260 L437 0 L527 0 L346 263 C442 276 502 334 502 436 C502 552 424 614 301 614 L73 614 L73 0 L152 0 L152 260 L261 260 Z M152 545 L299 545 C380 545 424 504 424 436 C424 368 380 327 299 327 L152 327 L152 545 Z M303 668 L394 785 L307 785 L227 668 L303 668 Z " />
<glyph glyph-name="racute" unicode="&#x155;" horiz-adv-x="321" d="M210 516 L299 650 L221 650 L141 516 L210 516 Z M295 446 C287 450 271 453 252 453 C203 453 161 424 142 386 L142 444 L67 444 L67 0 L142 0 L142 298 C157 350 198 381 245 381 C264 381 283 377 295 369 L295 446 Z " />
<glyph glyph-name="Rcommaaccent" unicode="&#x156;" horiz-adv-x="552" d="M261 260 L437 0 L527 0 L346 263 C442 276 502 334 502 436 C502 552 424 614 301 614 L73 614 L73 0 L152 0 L152 260 L261 260 Z M152 545 L299 545 C380 545 424 504 424 436 C424 368 380 327 299 327 L152 327 L152 545 Z M225 -201 L272 -201 L301 -152 C312 -135 323 -117 323 -95 C323 -65 301 -45 274 -45 C246 -45 224 -65 224 -93 C224 -117 241 -134 264 -137 L225 -201 Z " />
<glyph glyph-name="rcommaaccent" unicode="&#x157;" horiz-adv-x="321" d="M54 -201 L101 -201 L130 -152 C141 -135 152 -117 152 -95 C152 -65 130 -45 103 -45 C75 -45 53 -65 53 -93 C53 -117 70 -134 93 -137 L54 -201 Z M295 446 C287 450 271 453 252 453 C203 453 161 424 142 386 L142 444 L67 444 L67 0 L142 0 L142 298 C157 350 198 381 245 381 C264 381 283 377 295 369 L295 446 Z " />
<glyph glyph-name="Rcaron" unicode="&#x158;" horiz-adv-x="552" d="M261 260 L437 0 L527 0 L346 263 C442 276 502 334 502 436 C502 552 424 614 301 614 L73 614 L73 0 L152 0 L152 260 L261 260 Z M152 545 L299 545 C380 545 424 504 424 436 C424 368 380 327 299 327 L152 327 L152 545 Z M236 666 L306 666 L398 787 L330 787 L271 716 L212 787 L144 787 L236 666 Z " />
<glyph glyph-name="rcaron" unicode="&#x159;" horiz-adv-x="321" d="M308 646 L243 646 L181 559 L119 646 L54 646 L146 510 L216 510 L308 646 Z M295 446 C287 450 271 453 252 453 C203 453 161 424 142 386 L142 444 L67 444 L67 0 L142 0 L142 298 C157 350 198 381 245 381 C264 381 283 377 295 369 L295 446 Z " />
<glyph glyph-name="Sacute" unicode="&#x15a;" horiz-adv-x="509" d="M23 160 C46 52 137 -9 259 -9 C381 -9 471 58 471 169 C471 256 416 309 318 334 L213 361 C149 378 115 403 115 455 C115 518 169 556 242 556 C323 556 369 516 388 461 L467 461 C444 558 369 623 242 623 C126 623 40 553 40 449 C40 356 102 313 187 291 L297 262 C368 244 395 213 395 165 C395 97 339 58 259 58 C184 58 126 92 103 160 L23 160 Z M279 668 L370 785 L283 785 L203 668 L279 668 Z " />
<glyph glyph-name="sacute" unicode="&#x15b;" horiz-adv-x="414" d="M236 516 L325 650 L247 650 L167 516 L236 516 Z M30 122 C44 40 115 -9 212 -9 C307 -9 377 41 377 125 C377 187 340 229 264 249 L178 270 C136 282 116 296 116 326 C116 369 157 390 201 390 C255 390 286 367 299 327 L374 327 C358 405 300 453 202 453 C112 453 43 401 43 322 C43 253 87 221 150 205 L238 182 C284 170 304 151 304 120 C304 75 266 54 213 54 C161 54 122 76 108 122 L30 122 Z " />
<glyph glyph-name="Scircumflex" unicode="&#x15c;" horiz-adv-x="509" d="M23 160 C46 52 137 -9 259 -9 C381 -9 471 58 471 169 C471 256 416 309 318 334 L213 361 C149 378 115 403 115 455 C115 518 169 556 242 556 C323 556 369 516 388 461 L467 461 C444 558 369 623 242 623 C126 623 40 553 40 449 C40 356 102 313 187 291 L297 262 C368 244 395 213 395 165 C395 97 339 58 259 58 C184 58 126 92 103 160 L23 160 Z M286 791 L216 791 L124 669 L192 669 L251 740 L310 669 L378 669 L286 791 Z " />
<glyph glyph-name="scircumflex" unicode="&#x15d;" horiz-adv-x="414" d="M242 645 L172 645 L80 509 L145 509 L207 597 L269 509 L334 509 L242 645 Z M30 122 C44 40 115 -9 212 -9 C307 -9 377 41 377 125 C377 187 340 229 264 249 L178 270 C136 282 116 296 116 326 C116 369 157 390 201 390 C255 390 286 367 299 327 L374 327 C358 405 300 453 202 453 C112 453 43 401 43 322 C43 253 87 221 150 205 L238 182 C284 170 304 151 304 120 C304 75 266 54 213 54 C161 54 122 76 108 122 L30 122 Z " />
<glyph glyph-name="Scedilla" unicode="&#x15e;" horiz-adv-x="509" d="M23 160 C46 52 137 -9 259 -9 C381 -9 471 58 471 169 C471 256 416 309 318 334 L213 361 C149 378 115 403 115 455 C115 518 169 556 242 556 C323 556 369 516 388 461 L467 461 C444 558 369 623 242 623 C126 623 40 553 40 449 C40 356 102 313 187 291 L297 262 C368 244 395 213 395 165 C395 97 339 58 259 58 C184 58 126 92 103 160 L23 160 Z M219 -183 L288 -51 L214 -51 L148 -183 L219 -183 Z " />
<glyph glyph-name="scedilla" unicode="&#x15f;" horiz-adv-x="414" d="M30 122 C44 40 115 -9 212 -9 C307 -9 377 41 377 125 C377 187 340 229 264 249 L178 270 C136 282 116 296 116 326 C116 369 157 390 201 390 C255 390 286 367 299 327 L374 327 C358 405 300 453 202 453 C112 453 43 401 43 322 C43 253 87 221 150 205 L238 182 C284 170 304 151 304 120 C304 75 266 54 213 54 C161 54 122 76 108 122 L30 122 Z M179 -183 L248 -51 L174 -51 L108 -183 L179 -183 Z " />
<glyph glyph-name="Scaron" unicode="&#x160;" horiz-adv-x="509" d="M216 666 L286 666 L378 787 L310 787 L251 716 L192 787 L124 787 L216 666 Z M23 160 C46 52 137 -9 259 -9 C381 -9 471 58 471 169 C471 256 416 309 318 334 L213 361 C149 378 115 403 115 455 C115 518 169 556 242 556 C323 556 369 516 388 461 L467 461 C444 558 369 623 242 623 C126 623 40 553 40 449 C40 356 102 313 187 291 L297 262 C368 244 395 213 395 165 C395 97 339 58 259 58 C184 58 126 92 103 160 L23 160 Z " />
<glyph glyph-name="scaron" unicode="&#x161;" horiz-adv-x="414" d="M334 646 L269 646 L207 559 L145 646 L80 646 L172 510 L242 510 L334 646 Z M30 122 C44 40 115 -9 212 -9 C307 -9 377 41 377 125 C377 187 340 229 264 249 L178 270 C136 282 116 296 116 326 C116 369 157 390 201 390 C255 390 286 367 299 327 L374 327 C358 405 300 453 202 453 C112 453 43 401 43 322 C43 253 87 221 150 205 L238 182 C284 170 304 151 304 120 C304 75 266 54 213 54 C161 54 122 76 108 122 L30 122 Z " />
<glyph glyph-name="Tcedilla" unicode="&#x162;" horiz-adv-x="567" d="M238 -201 L285 -201 L314 -152 C325 -135 336 -117 336 -95 C336 -65 314 -45 287 -45 C259 -45 237 -65 237 -93 C237 -117 254 -134 277 -137 L238 -201 Z M30 544 L244 544 L244 0 L323 0 L323 544 L537 544 L537 614 L30 614 L30 544 Z " />
<glyph glyph-name="tcedilla" unicode="&#x163;" horiz-adv-x="317" d="M88 112 C88 30 138 -9 210 -9 C237 -9 263 -3 280 6 L280 76 C265 66 243 58 222 58 C184 58 163 77 163 120 L163 380 L270 380 L270 444 L163 444 L163 561 L88 561 L88 444 L16 444 L16 380 L88 380 L88 112 Z M139 -201 L186 -201 L215 -152 C226 -135 237 -117 237 -95 C237 -65 215 -45 188 -45 C160 -45 138 -65 138 -93 C138 -117 155 -134 178 -137 L139 -201 Z " />
<glyph glyph-name="Tcaron" unicode="&#x164;" horiz-adv-x="567" d="M249 666 L319 666 L411 787 L343 787 L284 716 L225 787 L157 787 L249 666 Z M30 544 L244 544 L244 0 L323 0 L323 544 L537 544 L537 614 L30 614 L30 544 Z " />
<glyph glyph-name="tcaron" unicode="&#x165;" horiz-adv-x="317" d="M88 112 C88 30 138 -9 210 -9 C237 -9 263 -3 280 6 L280 76 C265 66 243 58 222 58 C184 58 163 77 163 120 L163 380 L270 380 L270 444 L163 444 L163 561 L88 561 L88 444 L16 444 L16 380 L88 380 L88 112 Z M276 496 L309 660 L249 660 L216 496 L276 496 Z " />
<glyph glyph-name="Tbar" unicode="&#x166;" horiz-adv-x="567" d="M30 544 L244 544 L244 351 L131 351 L131 284 L244 284 L244 0 L323 0 L323 284 L436 284 L436 351 L323 351 L323 544 L537 544 L537 614 L30 614 L30 544 Z " />
<glyph glyph-name="tbar" unicode="&#x167;" horiz-adv-x="321" d="M29 219 L92 219 L92 112 C92 30 141 -9 214 -9 C241 -9 267 -3 284 6 L284 76 C269 66 247 58 226 58 C188 58 167 77 167 120 L167 219 L258 219 L258 280 L167 280 L167 380 L274 380 L274 444 L167 444 L167 561 L92 561 L92 444 L20 444 L20 380 L92 380 L92 280 L29 280 L29 219 Z " />
<glyph glyph-name="Utilde" unicode="&#x168;" horiz-adv-x="607" d="M390 784 C389 750 378 731 356 731 C319 731 295 787 245 787 C195 787 169 739 169 668 L218 668 C218 702 229 721 252 721 C288 721 313 665 362 665 C412 665 438 713 438 784 L390 784 Z M303 -9 C443 -9 544 75 544 243 L544 614 L465 614 L465 253 C465 122 402 61 303 61 C204 61 141 122 141 253 L141 614 L63 614 L63 244 C63 75 164 -9 303 -9 L303 -9 Z " />
<glyph glyph-name="utilde" unicode="&#x169;" horiz-adv-x="487" d="M421 444 L345 444 L345 143 C329 95 286 60 234 60 C167 60 137 103 137 165 L137 444 L61 444 L61 153 C61 56 115 -9 216 -9 C273 -9 320 21 345 56 L345 0 L421 0 L421 444 Z M327 633 C326 599 315 578 293 578 C261 578 236 636 189 636 C139 636 113 589 113 518 L161 518 C161 552 172 573 195 573 C227 573 253 515 299 515 C349 515 375 562 375 633 L327 633 Z " />
<glyph glyph-name="Umacron" unicode="&#x16a;" horiz-adv-x="607" d="M197 671 L410 671 L410 732 L197 732 L197 671 Z M303 -9 C443 -9 544 75 544 243 L544 614 L465 614 L465 253 C465 122 402 61 303 61 C204 61 141 122 141 253 L141 614 L63 614 L63 244 C63 75 164 -9 303 -9 L303 -9 Z " />
<glyph glyph-name="umacron" unicode="&#x16b;" horiz-adv-x="487" d="M421 444 L345 444 L345 143 C329 95 286 60 234 60 C167 60 137 103 137 165 L137 444 L61 444 L61 153 C61 56 115 -9 216 -9 C273 -9 320 21 345 56 L345 0 L421 0 L421 444 Z M137 530 L350 530 L350 591 L137 591 L137 530 Z " />
<glyph glyph-name="Ubreve" unicode="&#x16c;" horiz-adv-x="607" d="M303 666 C373 666 419 708 419 786 L362 786 C362 743 338 722 303 722 C269 722 245 743 245 786 L188 786 C188 708 235 666 303 666 L303 666 Z M303 -9 C443 -9 544 75 544 243 L544 614 L465 614 L465 253 C465 122 402 61 303 61 C204 61 141 122 141 253 L141 614 L63 614 L63 244 C63 75 164 -9 303 -9 L303 -9 Z " />
<glyph glyph-name="ubreve" unicode="&#x16d;" horiz-adv-x="487" d="M421 444 L345 444 L345 143 C329 95 286 60 234 60 C167 60 137 103 137 165 L137 444 L61 444 L61 153 C61 56 115 -9 216 -9 C273 -9 320 21 345 56 L345 0 L421 0 L421 444 Z M243 500 C310 500 357 545 357 628 L300 628 C300 583 280 555 243 555 C206 555 186 583 186 628 L129 628 C129 545 176 500 243 500 L243 500 Z " />
<glyph glyph-name="Uring" unicode="&#x16e;" horiz-adv-x="607" d="M303 -9 C443 -9 544 75 544 243 L544 614 L465 614 L465 253 C465 122 402 61 303 61 C204 61 141 122 141 253 L141 614 L63 614 L63 244 C63 75 164 -9 303 -9 L303 -9 Z M390 734 C390 783 352 821 303 821 C254 821 216 783 216 734 C216 686 254 648 303 648 C352 648 390 686 390 734 L390 734 Z M348 734 C348 709 328 689 303 689 C278 689 258 709 258 734 C258 760 278 780 303 780 C328 780 348 760 348 734 L348 734 Z " />
<glyph glyph-name="uring" unicode="&#x16f;" horiz-adv-x="487" d="M330 580 C330 629 292 666 243 666 C194 666 156 629 156 580 C156 531 194 494 243 494 C292 494 330 531 330 580 L330 580 Z M288 580 C288 554 268 535 243 535 C218 535 198 554 198 580 C198 606 218 625 243 625 C268 625 288 606 288 580 L288 580 Z M421 444 L345 444 L345 143 C329 95 286 60 234 60 C167 60 137 103 137 165 L137 444 L61 444 L61 153 C61 56 115 -9 216 -9 C273 -9 320 21 345 56 L345 0 L421 0 L421 444 Z " />
<glyph glyph-name="Uhungarumlaut" unicode="&#x170;" horiz-adv-x="607" d="M303 -9 C443 -9 544 75 544 243 L544 614 L465 614 L465 253 C465 122 402 61 303 61 C204 61 141 122 141 253 L141 614 L63 614 L63 244 C63 75 164 -9 303 -9 L303 -9 Z M279 668 L347 785 L281 785 L214 668 L279 668 Z M402 668 L470 785 L403 785 L337 668 L402 668 Z " />
<glyph glyph-name="uhungarumlaut" unicode="&#x171;" horiz-adv-x="487" d="M421 444 L345 444 L345 143 C329 95 286 60 234 60 C167 60 137 103 137 165 L137 444 L61 444 L61 153 C61 56 115 -9 216 -9 C273 -9 320 21 345 56 L345 0 L421 0 L421 444 Z M212 516 L280 650 L215 650 L149 516 L212 516 Z M331 516 L399 650 L335 650 L268 516 L331 516 Z " />
<glyph glyph-name="Uogonek" unicode="&#x172;" horiz-adv-x="607" d="M303 -9 C311 -9 333 -8 341 -6 C303 -42 284 -82 284 -119 C284 -160 308 -186 351 -186 C372 -186 388 -178 403 -167 L403 -117 C388 -127 379 -132 366 -132 C352 -132 343 -122 343 -106 C343 -73 364 -29 435 21 C504 70 544 132 544 243 L544 614 L465 614 L465 253 C465 122 402 61 303 61 C204 61 141 122 141 253 L141 614 L63 614 L63 244 C63 75 164 -9 303 -9 L303 -9 Z " />
<glyph glyph-name="uogonek" unicode="&#x173;" horiz-adv-x="487" d="M421 444 L345 444 L345 143 C329 95 286 60 234 60 C167 60 137 103 137 165 L137 444 L61 444 L61 153 C61 56 115 -9 216 -9 C273 -9 320 21 345 56 L345 0 L365 0 C334 -50 313 -83 313 -120 C313 -160 336 -186 379 -186 C400 -186 417 -178 431 -167 L431 -117 C417 -127 407 -132 394 -132 C381 -132 372 -123 372 -106 C372 -82 382 -65 421 0 L421 444 Z " />
<glyph glyph-name="Wcircumflex" unicode="&#x174;" horiz-adv-x="767" d="M353 614 L223 126 L97 614 L19 614 L182 0 L253 0 L384 479 L513 0 L585 0 L748 614 L672 614 L546 126 L416 614 L353 614 Z M418 791 L348 791 L256 669 L324 669 L383 740 L442 669 L510 669 L418 791 Z " />
<glyph glyph-name="wcircumflex" unicode="&#x175;" horiz-adv-x="629" d="M350 645 L280 645 L188 509 L253 509 L315 597 L377 509 L442 509 L350 645 Z M349 444 L282 444 L191 105 L93 444 L18 444 L149 0 L222 0 L315 337 L407 0 L480 0 L611 444 L538 444 L440 105 L349 444 Z " />
<glyph glyph-name="Ycircumflex" unicode="&#x176;" horiz-adv-x="557" d="M280 324 L103 614 L17 614 L239 253 L239 0 L317 0 L317 253 L541 614 L457 614 L280 324 Z M314 791 L244 791 L152 669 L220 669 L279 740 L338 669 L406 669 L314 791 Z " />
<glyph glyph-name="ycircumflex" unicode="&#x177;" horiz-adv-x="455" d="M198 -170 L437 444 L359 444 L230 94 L99 444 L18 444 L191 -3 L124 -170 L198 -170 Z M263 645 L193 645 L101 509 L166 509 L228 597 L290 509 L355 509 L263 645 Z " />
<glyph glyph-name="Ydieresis" unicode="&#x178;" horiz-adv-x="557" d="M280 324 L103 614 L17 614 L239 253 L239 0 L317 0 L317 253 L541 614 L457 614 L280 324 Z M162 722 C162 696 183 676 209 676 C234 676 255 696 255 722 C255 748 234 768 209 768 C183 768 162 748 162 722 L162 722 Z M303 722 C303 696 323 676 348 676 C374 676 395 696 395 722 C395 748 374 768 348 768 C323 768 303 748 303 722 L303 722 Z " />
<glyph glyph-name="Zacute" unicode="&#x179;" horiz-adv-x="534" d="M492 71 L140 71 L488 558 L488 614 L46 614 L46 544 L390 544 L41 57 L41 0 L492 0 L492 71 Z M319 668 L410 785 L323 785 L243 668 L319 668 Z " />
<glyph glyph-name="zacute" unicode="&#x17a;" horiz-adv-x="434" d="M253 516 L342 650 L264 650 L184 516 L253 516 Z M390 64 L139 64 L386 395 L386 444 L49 444 L49 380 L290 380 L41 49 L41 0 L390 0 L390 64 Z " />
<glyph glyph-name="Zdotaccent" unicode="&#x17b;" horiz-adv-x="534" d="M335 721 C335 748 313 770 287 770 C261 770 239 748 239 721 C239 695 261 673 287 673 C313 673 335 695 335 721 L335 721 Z M492 71 L140 71 L488 558 L488 614 L46 614 L46 544 L390 544 L41 57 L41 0 L492 0 L492 71 Z " />
<glyph glyph-name="zdotaccent" unicode="&#x17c;" horiz-adv-x="434" d="M390 64 L139 64 L386 395 L386 444 L49 444 L49 380 L290 380 L41 49 L41 0 L390 0 L390 64 Z M272 578 C272 605 250 626 224 626 C198 626 176 605 176 578 C176 552 198 530 224 530 C250 530 272 552 272 578 L272 578 Z " />
<glyph glyph-name="Zcaron" unicode="&#x17d;" horiz-adv-x="534" d="M252 666 L322 666 L414 787 L346 787 L287 716 L228 787 L160 787 L252 666 Z M492 71 L140 71 L488 558 L488 614 L46 614 L46 544 L390 544 L41 57 L41 0 L492 0 L492 71 Z " />
<glyph glyph-name="zcaron" unicode="&#x17e;" horiz-adv-x="434" d="M351 646 L286 646 L224 559 L162 646 L97 646 L189 510 L259 510 L351 646 Z M390 64 L139 64 L386 395 L386 444 L49 444 L49 380 L290 380 L41 49 L41 0 L390 0 L390 64 Z " />
<glyph glyph-name="florin" unicode="&#x192;" horiz-adv-x="405" d="M68 281 L139 281 L84 -33 C75 -81 61 -111 17 -111 C-1 -111 -25 -106 -42 -97 L-42 -165 C-25 -173 -7 -177 18 -177 C105 -177 143 -124 158 -39 L214 281 L322 281 L322 344 L225 344 L249 476 C258 528 288 557 331 557 C354 557 374 552 391 543 L391 611 C374 619 353 623 330 623 C246 623 191 570 175 482 L150 344 L68 344 L68 281 Z " />
<glyph glyph-name="Aringacute" unicode="&#x1fa;" horiz-adv-x="596" d="M261 614 L21 0 L101 0 L171 185 L424 185 L495 0 L575 0 L335 614 L261 614 Z M297 516 L397 254 L197 254 L297 516 Z M386 711 C386 752 347 785 297 785 C248 785 209 752 209 711 C209 669 248 637 297 637 C347 637 386 669 386 711 L386 711 Z M339 808 L406 894 L320 894 L265 808 L339 808 Z M344 711 C344 689 323 675 297 675 C272 675 251 689 251 711 C251 733 272 747 297 747 C323 747 344 733 344 711 L344 711 Z " />
<glyph glyph-name="aringacute" unicode="&#x1fb;" horiz-adv-x="450" d="M316 550 C316 592 277 624 227 624 C178 624 139 592 139 550 C139 509 178 476 227 476 C277 476 316 509 316 550 L316 550 Z M274 550 C274 528 253 514 227 514 C202 514 181 528 181 550 C181 572 202 587 227 587 C253 587 274 572 274 550 L274 550 Z M268 647 L336 733 L250 733 L194 647 L268 647 Z M389 0 L389 296 C389 393 326 453 220 453 C135 453 69 402 54 327 L128 327 C142 368 172 388 219 388 C283 388 317 348 317 293 L317 237 C298 254 251 273 205 273 C110 273 35 217 35 134 C35 46 110 -8 200 -8 C253 -8 300 15 317 33 L317 0 L389 0 Z M317 110 C304 77 259 55 213 55 C159 55 107 80 107 134 C107 187 159 211 213 211 C259 211 304 189 317 156 L317 110 Z " />
<glyph glyph-name="AEacute" unicode="&#x1fc;" horiz-adv-x="862" d="M390 614 L21 0 L103 0 L215 185 L437 185 L437 0 L811 0 L811 71 L514 71 L514 280 L782 280 L782 350 L514 350 L514 544 L811 544 L811 614 L390 614 Z M437 550 L437 254 L257 254 L437 550 Z M620 668 L711 785 L624 785 L544 668 L620 668 Z " />
<glyph glyph-name="aeacute" unicode="&#x1fd;" horiz-adv-x="731" d="M415 516 L504 650 L426 650 L346 516 L415 516 Z M199 55 C149 55 105 80 105 132 C105 184 156 207 210 207 L315 207 L315 136 C298 89 257 55 199 55 L199 55 Z M621 133 C609 83 567 55 512 55 C438 55 385 112 383 208 L698 208 L698 235 C698 364 632 453 510 453 C447 453 396 420 363 372 C341 422 291 453 219 453 C134 453 68 402 53 327 L125 327 C139 368 171 388 218 388 C282 388 315 348 315 293 L315 266 L205 266 C109 266 34 214 34 128 C34 45 104 -8 193 -8 C266 -8 318 30 351 75 C386 22 443 -9 512 -9 C612 -9 676 49 692 133 L621 133 Z M511 389 C585 389 620 331 622 265 L385 265 C396 343 444 389 511 389 L511 389 Z " />
<glyph glyph-name="Oslashacute" unicode="&#x1fe;" horiz-adv-x="639" d="M56 18 L103 -15 L153 48 C198 11 255 -9 319 -9 C481 -9 597 122 597 307 C597 393 572 468 528 523 L582 590 L536 623 L489 563 C443 601 385 623 319 623 C158 623 42 493 42 307 C42 219 68 144 112 89 L56 18 Z M121 307 C121 451 201 552 319 552 C369 552 412 535 444 506 L160 149 C134 190 121 245 121 307 L121 307 Z M518 307 C518 163 438 62 319 62 C270 62 229 77 198 105 L480 462 C505 421 518 367 518 307 L518 307 Z M351 668 L442 785 L355 785 L275 668 L351 668 Z " />
<glyph glyph-name="oslashacute" unicode="&#x1ff;" horiz-adv-x="488" d="M40 1 L81 -28 L125 29 C157 4 197 -9 244 -9 C365 -9 448 86 448 222 C448 285 429 340 398 380 L444 440 L403 469 L361 416 C329 440 289 453 244 453 C122 453 40 358 40 222 C40 158 57 104 89 64 L40 1 Z M373 222 C373 125 324 57 244 57 C213 57 187 66 167 83 L351 321 C365 294 373 260 373 222 L373 222 Z M115 222 C115 319 164 387 244 387 C274 387 299 378 319 361 L135 124 C122 150 115 184 115 222 L115 222 Z M272 516 L361 650 L283 650 L203 516 L272 516 Z " />
<glyph glyph-name="Scommaaccent" unicode="&#x218;" horiz-adv-x="509" d="M201 -201 L248 -201 L277 -152 C288 -135 299 -117 299 -95 C299 -65 277 -45 250 -45 C222 -45 200 -65 200 -93 C200 -117 217 -134 240 -137 L201 -201 Z M23 160 C46 52 137 -9 259 -9 C381 -9 471 58 471 169 C471 256 416 309 318 334 L213 361 C149 378 115 403 115 455 C115 518 169 556 242 556 C323 556 369 516 388 461 L467 461 C444 558 369 623 242 623 C126 623 40 553 40 449 C40 356 102 313 187 291 L297 262 C368 244 395 213 395 165 C395 97 339 58 259 58 C184 58 126 92 103 160 L23 160 Z " />
<glyph glyph-name="scommaaccent" unicode="&#x219;" horiz-adv-x="414" d="M161 -201 L208 -201 L237 -152 C248 -135 259 -117 259 -95 C259 -65 237 -45 210 -45 C182 -45 160 -65 160 -93 C160 -117 177 -134 200 -137 L161 -201 Z M30 122 C44 40 115 -9 212 -9 C307 -9 377 41 377 125 C377 187 340 229 264 249 L178 270 C136 282 116 296 116 326 C116 369 157 390 201 390 C255 390 286 367 299 327 L374 327 C358 405 300 453 202 453 C112 453 43 401 43 322 C43 253 87 221 150 205 L238 182 C284 170 304 151 304 120 C304 75 266 54 213 54 C161 54 122 76 108 122 L30 122 Z " />
<glyph glyph-name="uni0237" unicode="&#x237;" horiz-adv-x="207" d="M142 444 L67 444 L67 -46 C67 -96 46 -114 7 -114 C-2 -114 -13 -112 -19 -111 L-19 -175 C-11 -178 4 -179 13 -179 C96 -179 142 -134 142 -51 L142 444 Z " />
<glyph glyph-name="circumflex" unicode="&#x2c6;" horiz-adv-x="500" d="M285 645 L215 645 L123 509 L188 509 L250 597 L312 509 L377 509 L285 645 Z " />
<glyph glyph-name="caron" unicode="&#x2c7;" horiz-adv-x="500" d="M377 646 L312 646 L250 559 L188 646 L123 646 L215 510 L285 510 L377 646 Z " />
<glyph glyph-name="breve" unicode="&#x2d8;" horiz-adv-x="500" d="M250 500 C317 500 364 545 364 628 L307 628 C307 583 287 555 250 555 C213 555 193 583 193 628 L136 628 C136 545 183 500 250 500 L250 500 Z " />
<glyph glyph-name="dotaccent" unicode="&#x2d9;" horiz-adv-x="500" d="M298 578 C298 605 276 626 250 626 C224 626 202 605 202 578 C202 552 224 530 250 530 C276 530 298 552 298 578 L298 578 Z " />
<glyph glyph-name="ring" unicode="&#x2da;" horiz-adv-x="500" d="M337 580 C337 629 299 666 250 666 C201 666 163 629 163 580 C163 531 201 494 250 494 C299 494 337 531 337 580 L337 580 Z M295 580 C295 554 275 535 250 535 C225 535 205 554 205 580 C205 606 225 625 250 625 C275 625 295 606 295 580 L295 580 Z " />
<glyph glyph-name="ogonek" unicode="&#x2db;" horiz-adv-x="500" d="M249 4 C216 -49 194 -82 194 -120 C194 -160 217 -186 260 -186 C281 -186 298 -178 312 -167 L312 -117 C298 -127 288 -132 275 -132 C262 -132 253 -123 253 -106 C253 -82 265 -62 305 4 L249 4 Z " />
<glyph glyph-name="tilde" unicode="&#x2dc;" horiz-adv-x="500" d="M333 633 C332 599 321 578 299 578 C267 578 242 636 195 636 C145 636 119 589 119 518 L167 518 C167 552 178 573 201 573 C233 573 259 515 305 515 C355 515 381 562 381 633 L333 633 Z " />
<glyph glyph-name="hungarumlaut" unicode="&#x2dd;" horiz-adv-x="500" d="M188 516 L256 650 L191 650 L125 516 L188 516 Z M307 516 L375 650 L311 650 L244 516 L307 516 Z " />
<glyph glyph-name="Wgrave" unicode="&#x1e80;" horiz-adv-x="767" d="M421 668 L341 785 L254 785 L346 668 L421 668 Z M353 614 L223 126 L97 614 L19 614 L182 0 L253 0 L384 479 L513 0 L585 0 L748 614 L672 614 L546 126 L416 614 L353 614 Z " />
<glyph glyph-name="wgrave" unicode="&#x1e81;" horiz-adv-x="629" d="M349 444 L282 444 L191 105 L93 444 L18 444 L149 0 L222 0 L315 337 L407 0 L480 0 L611 444 L538 444 L440 105 L349 444 Z M353 516 L273 650 L195 650 L284 516 L353 516 Z " />
<glyph glyph-name="Wacute" unicode="&#x1e82;" horiz-adv-x="767" d="M420 668 L511 785 L424 785 L344 668 L420 668 Z M353 614 L223 126 L97 614 L19 614 L182 0 L253 0 L384 479 L513 0 L585 0 L748 614 L672 614 L546 126 L416 614 L353 614 Z " />
<glyph glyph-name="wacute" unicode="&#x1e83;" horiz-adv-x="629" d="M344 516 L433 650 L355 650 L275 516 L344 516 Z M349 444 L282 444 L191 105 L93 444 L18 444 L149 0 L222 0 L315 337 L407 0 L480 0 L611 444 L538 444 L440 105 L349 444 Z " />
<glyph glyph-name="Wdieresis" unicode="&#x1e84;" horiz-adv-x="767" d="M267 722 C267 696 288 676 314 676 C339 676 360 696 360 722 C360 748 339 768 314 768 C288 768 267 748 267 722 L267 722 Z M408 722 C408 696 428 676 453 676 C479 676 500 696 500 722 C500 748 479 768 453 768 C428 768 408 748 408 722 L408 722 Z M353 614 L223 126 L97 614 L19 614 L182 0 L253 0 L384 479 L513 0 L585 0 L748 614 L672 614 L546 126 L416 614 L353 614 Z " />
<glyph glyph-name="wdieresis" unicode="&#x1e85;" horiz-adv-x="629" d="M198 571 C198 546 219 525 245 525 C270 525 291 546 291 571 C291 598 270 618 245 618 C219 618 198 598 198 571 L198 571 Z M339 571 C339 546 359 525 384 525 C410 525 431 546 431 571 C431 598 410 618 384 618 C359 618 339 598 339 571 L339 571 Z M349 444 L282 444 L191 105 L93 444 L18 444 L149 0 L222 0 L315 337 L407 0 L480 0 L611 444 L538 444 L440 105 L349 444 Z " />
<glyph glyph-name="Ygrave" unicode="&#x1ef2;" horiz-adv-x="557" d="M280 324 L103 614 L17 614 L239 253 L239 0 L317 0 L317 253 L541 614 L457 614 L280 324 Z M319 668 L239 785 L152 785 L244 668 L319 668 Z " />
<glyph glyph-name="ygrave" unicode="&#x1ef3;" horiz-adv-x="455" d="M198 -170 L437 444 L359 444 L230 94 L99 444 L18 444 L191 -3 L124 -170 L198 -170 Z M266 516 L186 650 L108 650 L197 516 L266 516 Z " />
<glyph glyph-name="endash" unicode="&#x2013;" horiz-adv-x="475" d="M40 231 L435 231 L435 292 L40 292 L40 231 Z " />
<glyph glyph-name="emdash" unicode="&#x2014;" horiz-adv-x="846" d="M40 231 L806 231 L806 292 L40 292 L40 231 Z " />
<glyph glyph-name="quoteleft" unicode="&#x2018;" horiz-adv-x="168" d="M149 614 L98 614 L47 529 C35 509 25 487 25 466 C25 429 48 408 78 408 C108 408 132 430 132 461 C132 489 113 507 88 511 L149 614 Z " />
<glyph glyph-name="quoteright" unicode="&#x2019;" horiz-adv-x="168" d="M19 417 L70 417 L121 502 C133 522 143 544 143 565 C143 602 120 623 90 623 C60 623 36 601 36 570 C36 542 55 524 80 520 L19 417 Z " />
<glyph glyph-name="quotesinglbase" unicode="&#x201a;" horiz-adv-x="161" d="M19 -103 L70 -103 L121 -18 C133 2 143 24 143 45 C143 82 120 103 90 103 C60 103 36 81 36 50 C36 22 55 4 80 0 L19 -103 Z " />
<glyph glyph-name="quotedblleft" unicode="&#x201c;" horiz-adv-x="321" d="M149 614 L98 614 L47 529 C35 509 25 487 25 466 C25 429 48 408 78 408 C108 408 132 430 132 461 C132 489 113 507 88 511 L149 614 Z M302 614 L251 614 L200 529 C188 509 178 487 178 466 C178 429 201 408 231 408 C261 408 285 430 285 461 C285 489 266 507 241 511 L302 614 Z " />
<glyph glyph-name="quotedblright" unicode="&#x201d;" horiz-adv-x="321" d="M19 417 L70 417 L121 502 C133 522 143 544 143 565 C143 602 120 623 90 623 C60 623 36 601 36 570 C36 542 55 524 80 520 L19 417 Z M172 417 L223 417 L274 502 C286 522 296 544 296 565 C296 602 273 623 243 623 C213 623 189 601 189 570 C189 542 208 524 233 520 L172 417 Z " />
<glyph glyph-name="quotedblbase" unicode="&#x201e;" horiz-adv-x="321" d="M19 -103 L70 -103 L121 -18 C133 2 143 24 143 45 C143 82 120 103 90 103 C60 103 36 81 36 50 C36 22 55 4 80 0 L19 -103 Z M172 -103 L223 -103 L274 -18 C286 2 296 24 296 45 C296 82 273 103 243 103 C213 103 189 81 189 50 C189 22 208 4 233 0 L172 -103 Z " />
<glyph glyph-name="dagger" unicode="&#x2020;" horiz-adv-x="317" d="M30 502 L129 502 L129 295 L187 295 L187 502 L286 502 L286 558 L187 558 L187 650 L129 650 L129 558 L30 558 L30 502 Z " />
<glyph glyph-name="daggerdbl" unicode="&#x2021;" horiz-adv-x="325" d="M34 512 L133 512 L133 432 L34 432 L34 380 L133 380 L133 295 L191 295 L191 380 L292 380 L292 432 L191 432 L191 512 L292 512 L292 565 L191 565 L191 650 L133 650 L133 565 L34 565 L34 512 Z " />
<glyph glyph-name="bullet" unicode="&#x2022;" horiz-adv-x="343" d="M308 261 C308 341 247 397 171 397 C95 397 35 341 35 261 C35 181 95 125 171 125 C247 125 308 181 308 261 L308 261 Z " />
<glyph glyph-name="ellipsis" unicode="&#x2026;" horiz-adv-x="554" d="M32 49 C32 18 56 -5 86 -5 C115 -5 139 18 139 49 C139 80 115 104 86 104 C56 104 32 80 32 49 L32 49 Z M224 49 C224 18 248 -5 277 -5 C307 -5 331 18 331 49 C331 80 307 104 277 104 C248 104 224 80 224 49 L224 49 Z M415 49 C415 18 439 -5 469 -5 C498 -5 522 18 522 49 C522 80 498 104 469 104 C439 104 415 80 415 49 L415 49 Z " />
<glyph glyph-name="perthousand" unicode="&#x2030;" horiz-adv-x="941" d="M99 0 L161 0 L544 614 L482 614 L99 0 Z M33 490 C33 416 92 357 166 357 C240 357 299 416 299 490 C299 564 240 623 166 623 C92 623 33 564 33 490 L33 490 Z M609 124 C609 198 550 257 476 257 C402 257 343 198 343 124 C343 50 402 -9 476 -9 C550 -9 609 50 609 124 L609 124 Z M550 124 C550 83 517 49 476 49 C435 49 401 83 401 124 C401 165 435 198 476 198 C517 198 550 165 550 124 L550 124 Z M908 124 C908 198 849 257 775 257 C701 257 642 198 642 124 C642 50 701 -9 775 -9 C849 -9 908 50 908 124 L908 124 Z M849 124 C849 83 816 49 775 49 C734 49 700 83 700 124 C700 165 734 198 775 198 C816 198 849 165 849 124 L849 124 Z M92 490 C92 531 125 565 166 565 C207 565 241 531 241 490 C241 449 207 416 166 416 C125 416 92 449 92 490 L92 490 Z " />
<glyph glyph-name="guilsinglleft" unicode="&#x2039;" horiz-adv-x="215" d="M190 74 L98 222 L190 370 L117 370 L25 222 L117 74 L190 74 Z " />
<glyph glyph-name="guilsinglright" unicode="&#x203a;" horiz-adv-x="215" d="M98 74 L190 222 L98 370 L25 370 L117 222 L25 74 L98 74 Z " />
<glyph glyph-name="fraction" unicode="&#x2044;" horiz-adv-x="210" d="M330 614 L263 614 L-120 0 L-53 0 L330 614 Z " />
<glyph glyph-name="Euro" unicode="&#x20ac;" horiz-adv-x="543" d="M29 339 L82 339 C81 328 81 318 81 307 C81 294 81 282 82 270 L29 270 L29 210 L90 210 C119 74 207 -9 320 -9 C422 -9 494 53 517 159 L445 159 C427 98 384 60 320 60 C243 60 189 118 167 210 L337 210 L349 270 L158 270 C157 282 157 294 157 307 C157 318 157 328 158 339 L359 339 L371 399 L166 399 C187 493 242 554 320 554 C384 554 427 516 445 455 L517 455 C494 561 422 623 320 623 C206 623 116 538 89 399 L29 399 L29 339 Z " />
<glyph glyph-name="uni2117" unicode="&#x2117;" horiz-adv-x="706" d="M669 307 C669 491 527 623 353 623 C179 623 37 491 37 307 C37 123 179 -9 353 -9 C527 -9 669 123 669 307 L669 307 Z M630 307 C630 146 505 30 353 30 C201 30 76 146 76 307 C76 468 201 584 353 584 C505 584 630 468 630 307 L630 307 Z M389 254 C466 254 517 296 517 374 C517 451 466 493 389 493 L237 493 L237 124 L306 124 L306 254 L389 254 Z M449 374 C449 338 427 316 385 316 L306 316 L306 432 L385 432 C427 432 449 409 449 374 L449 374 Z " />
<glyph glyph-name="trademark" unicode="&#x2122;" horiz-adv-x="586" d="M18 568 L100 568 L100 360 L154 360 L154 568 L235 568 L235 614 L18 614 L18 568 Z M427 360 L492 528 L492 360 L542 360 L542 614 L478 614 L409 434 L340 614 L276 614 L276 360 L326 360 L326 528 L391 360 L427 360 Z " />
<glyph glyph-name="uni2153" unicode="&#x2153;" horiz-adv-x="685" d="M569 614 L502 614 L73 0 L140 0 L569 614 Z M492 145 L517 145 C548 145 571 128 571 98 C571 67 550 49 519 49 C486 49 466 69 462 100 L398 100 C404 36 447 -5 517 -5 C589 -5 631 38 631 97 C631 130 612 158 580 169 C606 179 626 208 626 241 C626 298 585 338 516 338 C452 338 410 293 403 235 L465 235 C469 263 489 284 518 284 C547 284 567 265 567 239 C567 209 545 193 515 193 L492 193 L492 145 Z M191 615 L149 615 L41 561 L41 497 L129 541 L129 282 L191 282 L191 615 Z " />
<glyph glyph-name="uni2154" unicode="&#x2154;" horiz-adv-x="745" d="M629 614 L562 614 L133 0 L200 0 L629 614 Z M210 522 C210 497 192 476 161 444 L49 327 L49 284 L275 284 L275 339 L134 339 L208 414 C241 449 272 480 272 523 C272 582 231 622 164 622 C98 622 55 576 48 513 L114 513 C116 542 134 566 164 566 C191 566 210 548 210 522 L210 522 Z M552 145 L577 145 C608 145 631 128 631 98 C631 67 610 49 579 49 C546 49 526 69 523 100 L458 100 C464 36 507 -5 577 -5 C649 -5 691 38 691 97 C691 130 672 158 641 169 C666 179 686 208 686 241 C686 298 645 338 576 338 C512 338 470 293 463 235 L525 235 C529 263 549 284 578 284 C607 284 627 265 627 239 C627 209 605 193 575 193 L552 193 L552 145 Z " />
<glyph glyph-name="uni215B" unicode="&#x215b;" horiz-adv-x="691" d="M569 614 L502 614 L73 0 L140 0 L569 614 Z M519 46 C485 46 461 67 461 97 C461 126 485 147 519 147 C553 147 577 126 577 97 C577 67 553 46 519 46 L519 46 Z M519 199 C490 199 469 218 469 244 C469 271 490 289 519 289 C547 289 568 271 568 244 C568 218 547 199 519 199 L519 199 Z M519 -4 C586 -4 638 33 638 92 C638 133 613 162 579 172 C608 185 627 212 627 245 C627 304 578 338 519 338 C459 338 411 304 411 245 C411 212 429 185 458 172 C425 162 399 133 399 92 C399 33 452 -4 519 -4 L519 -4 Z M191 615 L149 615 L41 561 L41 497 L129 541 L129 282 L191 282 L191 615 Z " />
<glyph glyph-name="uni215C" unicode="&#x215c;" horiz-adv-x="730" d="M558 46 C524 46 500 67 500 97 C500 126 524 147 558 147 C591 147 616 126 616 97 C616 67 591 46 558 46 L558 46 Z M558 199 C529 199 507 218 507 244 C507 271 529 289 558 289 C586 289 607 271 607 244 C607 218 586 199 558 199 L558 199 Z M558 -4 C625 -4 677 33 677 92 C677 133 652 162 618 172 C646 185 666 212 666 245 C666 304 616 338 558 338 C498 338 449 304 449 245 C449 212 468 185 497 172 C464 162 438 133 438 92 C438 33 491 -4 558 -4 L558 -4 Z M608 614 L540 614 L112 0 L179 0 L608 614 Z M140 427 L166 427 C197 427 220 410 220 380 C220 349 199 331 167 331 C135 331 115 351 111 382 L46 382 C52 318 95 277 166 277 C237 277 279 320 279 378 C279 412 260 440 229 451 C255 461 274 490 274 523 C274 580 233 619 164 619 C100 619 59 575 51 517 L114 517 C117 545 138 566 166 566 C196 566 215 547 215 521 C215 491 193 475 164 475 L140 475 L140 427 Z " />
<glyph glyph-name="uni215D" unicode="&#x215d;" horiz-adv-x="733" d="M562 46 C528 46 504 67 504 97 C504 126 528 147 562 147 C595 147 620 126 620 97 C620 67 595 46 562 46 L562 46 Z M562 199 C533 199 511 218 511 244 C511 271 533 289 562 289 C590 289 611 271 611 244 C611 218 590 199 562 199 L562 199 Z M562 -4 C629 -4 681 33 681 92 C681 133 655 162 622 172 C650 185 670 212 670 245 C670 304 620 338 562 338 C502 338 453 304 453 245 C453 212 472 185 501 172 C468 162 442 133 442 92 C442 33 494 -4 562 -4 L562 -4 Z M612 614 L544 614 L116 0 L183 0 L612 614 Z M171 447 C203 447 225 421 225 388 C225 356 203 331 172 331 C139 331 119 352 114 382 L50 382 C56 318 101 277 171 277 C239 277 285 322 285 389 C285 453 242 499 177 499 C154 499 133 491 121 482 L121 559 L263 559 L263 614 L69 614 L69 423 L123 423 C133 436 150 447 171 447 L171 447 Z " />
<glyph glyph-name="uni215E" unicode="&#x215e;" horiz-adv-x="673" d="M502 46 C468 46 444 67 444 97 C444 126 468 147 502 147 C535 147 560 126 560 97 C560 67 535 46 502 46 L502 46 Z M502 199 C473 199 451 218 451 244 C451 271 473 289 502 289 C530 289 551 271 551 244 C551 218 530 199 502 199 L502 199 Z M502 -4 C569 -4 621 33 621 92 C621 133 595 162 562 172 C590 185 610 212 610 245 C610 304 560 338 502 338 C442 338 393 304 393 245 C393 212 412 185 441 172 C408 162 382 133 382 92 C382 33 434 -4 502 -4 L502 -4 Z M551 614 L484 614 L56 0 L123 0 L551 614 Z M270 568 L270 614 L46 614 L46 558 L203 558 L96 281 L161 281 L270 568 Z " />
<glyph glyph-name="minus" unicode="&#x2212;" horiz-adv-x="540" d="M73 266 L467 266 L467 328 L73 328 L73 266 Z " />
<glyph glyph-name="approxequal" unicode="&#x2248;" horiz-adv-x="551" d="M79 308 C116 338 152 351 185 351 C251 351 297 309 364 309 C397 309 433 321 473 351 L473 412 C433 382 397 369 364 369 C298 369 252 410 185 410 C152 410 116 399 79 370 L79 308 Z M79 184 C116 213 152 226 185 226 C251 226 297 185 364 185 C397 185 433 196 473 226 L473 287 C433 256 397 244 364 244 C298 244 252 286 185 286 C152 286 116 275 79 245 L79 184 Z " />
<glyph glyph-name="notequal" unicode="&#x2260;" horiz-adv-x="551" d="M79 338 L275 338 L215 256 L79 256 L79 199 L174 199 L107 107 L166 107 L233 199 L473 199 L473 256 L274 256 L334 338 L473 338 L473 395 L376 395 L444 488 L385 488 L317 395 L79 395 L79 338 Z " />
<glyph glyph-name="lessequal" unicode="&#x2264;" horiz-adv-x="427" d="M63 308 L360 187 L360 254 L130 345 L360 435 L360 503 L63 382 L63 308 Z M63 91 L360 91 L360 153 L63 153 L63 91 Z " />
<glyph glyph-name="greaterequal" unicode="&#x2265;" horiz-adv-x="427" d="M364 382 L67 503 L67 435 L296 345 L67 254 L67 187 L364 308 L364 382 Z M364 153 L67 153 L67 91 L364 91 L364 153 Z " />
<glyph glyph-name="fi" unicode="&#xfb01;" horiz-adv-x="498" d="M431 444 L356 444 L356 0 L431 0 L431 444 Z M442 578 C442 605 420 626 393 626 C367 626 345 605 345 578 C345 552 367 530 393 530 C420 530 442 552 442 578 L442 578 Z M289 649 C272 656 255 659 231 659 C153 659 95 607 95 518 L95 444 L20 444 L20 380 L95 380 L95 0 L169 0 L169 380 L269 380 L269 444 L169 444 L169 512 C169 565 198 593 242 593 C258 593 275 590 289 581 L289 649 Z " />
<glyph glyph-name="fl" unicode="&#xfb02;" horiz-adv-x="498" d="M431 650 L356 650 L356 0 L431 0 L431 650 Z M289 649 C272 656 255 659 231 659 C153 659 95 607 95 518 L95 444 L20 444 L20 380 L95 380 L95 0 L169 0 L169 380 L269 380 L269 444 L169 444 L169 512 C169 565 198 593 242 593 C258 593 275 590 289 581 L289 649 Z " />
</font>
</svg>
