<?xml version="1.0" standalone="no"?>
<!DOCTYPE svg PUBLIC "-//W3C//DTD SVG 1.1//EN" "http://www.w3.org/Graphics/SVG/1.1/DTD/svg11.dtd" >
<svg xmlns="http://www.w3.org/2000/svg">
<metadata></metadata>
<defs>
<font id="fagocotfblack" horiz-adv-x="1024" >
<font-face units-per-em="2048" ascent="1638" descent="-410" />
<missing-glyph horiz-adv-x="552" />
<glyph unicode="&#xfb01;" horiz-adv-x="1146" d="M0 838v247h123v93q0 113 37 179t93 102t122.5 46.5t124.5 10.5q49 0 100 -6.5t92 -14.5q49 -8 96 -20v-256q-35 6 -71 12q-31 4 -68 8t-65 4q-41 0 -56.5 -25.5t-15.5 -62.5v-70h553v-1085h-389v838h-164v-838h-389v838h-123z" />
<glyph unicode="&#xfb02;" horiz-adv-x="1146" d="M0 838v247h123v93q0 113 38 179t93 102t118.5 46.5t116.5 10.5q59 0 117 -12.5t105 -28.5q53 -18 100 -41l254 41v-1475h-389v1217q-10 6 -25 12q-12 4 -29.5 9t-37.5 5q-41 0 -56.5 -25.5t-15.5 -62.5v-70h102l-30 -247h-72v-838h-389v838h-123z" />
<glyph horiz-adv-x="2048" />
<glyph horiz-adv-x="2048" />
<glyph unicode="&#xd;" horiz-adv-x="552" />
<glyph unicode=" "  horiz-adv-x="552" />
<glyph unicode="&#x09;" horiz-adv-x="552" />
<glyph unicode="&#xa0;" horiz-adv-x="552" />
<glyph unicode="!" horiz-adv-x="595" d="M82 119q0 45 16.5 85t46 69.5t68.5 47t86 17.5t86 -17.5t67.5 -47t45 -69.5t16.5 -85q0 -43 -16.5 -83t-45 -71t-67.5 -49t-86 -18t-87 17t-68.5 48t-45 71t-16.5 85zM88 1434h422l-72 -942h-278z" />
<glyph unicode="&#x22;" horiz-adv-x="1009" d="M61 1434h396l-60 -625h-278zM553 1434h395l-59 -625h-279z" />
<glyph unicode="#" d="M20 307v283h82v254h-82v282h82v308h349v-308h122v308h349v-308h84l-13 -282h-71v-254h82v-283h-82v-307h-349v307h-122v-307h-349v307h-82zM451 569h122v295h-122v-295z" />
<glyph unicode="$" d="M123 1026q0 174 86 272.5t242 126.5v254h204v-247q35 -4 69 -11.5t62 -17.5q31 -10 60 -23v-284q-43 16 -84 28q-35 10 -77 19.5t-75 9.5q-45 0 -73.5 -19.5t-28.5 -78.5q0 -27 10 -47.5t27.5 -40t41 -39t50.5 -43.5l80 -74q35 -33 67.5 -71t59 -84t42 -100t15.5 -120 q0 -174 -68.5 -273.5t-197.5 -139.5v-269h-205v244q-59 2 -112.5 9t-94.5 16q-47 8 -86 20v297q49 -16 99 -27q41 -10 87 -17t80 -7q63 0 86 28.5t23 83.5q0 41 -28.5 80t-73.5 80l-72 66q-37 35 -76 74.5t-69.5 88t-50 106.5t-19.5 130z" />
<glyph unicode="%" horiz-adv-x="1863" d="M41 1075q0 119 31.5 197t84 123t119 62.5t138.5 17.5q76 0 143.5 -18.5t118.5 -64.5t80.5 -123t29.5 -194t-31.5 -193.5t-84 -122.5t-119 -64.5t-137.5 -18.5q-68 0 -134.5 17.5t-120 62.5t-86 121.5t-32.5 197.5zM348 1075q0 -98 12.5 -145t53.5 -47t53 46t12 146 q0 117 -12 157t-53 40t-53.5 -42t-12.5 -155zM479 -20l553 1474h344l-553 -1474h-344zM1077 379q0 119 32 196.5t84 122.5t118.5 62.5t138.5 17.5q76 0 143.5 -18.5t118.5 -64.5t81 -122.5t30 -193.5t-32 -193.5t-84 -123t-118.5 -64.5t-138.5 -18q-68 0 -134.5 17 t-119.5 62t-86 122t-33 198zM1384 379q0 -98 12.5 -145.5t53.5 -47.5t53.5 46.5t12.5 146.5q0 117 -12.5 156.5t-53.5 39.5t-53.5 -41.5t-12.5 -154.5z" />
<glyph unicode="&#x26;" horiz-adv-x="1376" d="M41 381q0 111 42 182.5t98.5 114.5t114.5 62.5t91 25.5q-29 10 -70 33.5t-79.5 64.5t-66.5 100.5t-28 141.5q0 186 115 267t322 81q219 0 337.5 -75.5t118.5 -248.5q0 -88 -27.5 -150t-70.5 -105.5t-95 -70t-102 -40.5l183 -223q14 33 27.5 78t23.5 91t15 89t5 73h328 q0 -80 -14.5 -160.5t-41 -156.5t-64.5 -140.5t-83 -109.5l256 -305l-403 -20l-88 120q-68 -57 -155 -88.5t-181 -31.5q-96 0 -188.5 14t-163 57t-113.5 122t-43 208zM430 399q0 -98 39 -137t106 -39q35 0 63 11.5t50 27.5q25 16 47 39l-203 268q-29 -10 -51 -32 q-20 -18 -35.5 -51t-15.5 -87zM506 1100q0 -49 10 -83t25 -54q16 -23 37 -37q25 18 47 45q16 23 31.5 57.5t15.5 81.5q0 59 -14.5 96t-65.5 37t-68.5 -36t-17.5 -107z" />
<glyph unicode="'" horiz-adv-x="518" d="M61 1434h396l-60 -625h-278z" />
<glyph unicode="(" horiz-adv-x="641" d="M61 717q0 203 46.5 380t101.5 312q66 158 149 291h344q-66 -121 -116 -275q-43 -131 -79 -311t-36 -397t36 -397.5t79 -311.5q51 -154 116 -274h-344q-84 131 -149 289q-55 135 -101.5 312t-46.5 382z" />
<glyph unicode=")" horiz-adv-x="641" d="M-61 -266q63 121 114 274q43 131 80 311.5t37 397.5t-37 397t-80 311q-51 154 -114 275h344q82 -133 147 -291q55 -135 102.5 -312t47.5 -380q0 -205 -47.5 -382t-102.5 -312q-66 -158 -147 -289h-344z" />
<glyph unicode="*" horiz-adv-x="1021" d="M51 1018l283 80l-283 80l160 278l209 -203l-70 283h322l-70 -283l209 203l160 -278l-285 -80l285 -80l-160 -279l-207 203l68 -283h-322l66 281l-205 -201z" />
<glyph unicode="+" horiz-adv-x="1187" d="M61 522v328h338v348h389v-348h338v-328h-338v-348h-389v348h-338z" />
<glyph unicode="," horiz-adv-x="550" d="M102 -348l21 665h366l-157 -665h-230z" />
<glyph unicode="-" horiz-adv-x="901" d="M61 492v319h779v-319h-779z" />
<glyph unicode="." horiz-adv-x="595" d="M82 160q0 45 16.5 85t46 69.5t68.5 47t86 17.5t86 -17.5t67.5 -47t45 -69.5t16.5 -85q0 -43 -16.5 -83t-45 -71t-67.5 -49t-86 -18t-87 17t-68.5 48t-45 71t-16.5 85z" />
<glyph unicode="/" horiz-adv-x="659" d="M20 -20l287 1474h332l-287 -1474h-332z" />
<glyph unicode="0" d="M31 717q0 233 36.5 377.5t102.5 224.5t153 107.5t189 27.5q100 0 187 -27.5t153 -107.5t103.5 -224.5t37.5 -377.5q0 -238 -35.5 -382.5t-100 -223t-153 -105t-192.5 -26.5t-193.5 28.5t-153 109.5t-99 225t-35.5 374zM420 717q0 -133 2 -227.5t11 -154t27.5 -86 t51.5 -26.5t51.5 25.5t27.5 84t11 153t2 231.5v217t-8 153.5t-26.5 91t-57.5 29.5q-37 0 -55.5 -30.5t-26.5 -92t-9 -153.5t-1 -215z" />
<glyph unicode="1" d="M51 934v293l359 207h307v-1149h276v-285h-921v285h256v788z" />
<glyph unicode="2" d="M84 0v274l262 289q37 39 74 81t66.5 92t49 109.5t19.5 137.5q0 115 -43 156t-127 41q-57 0 -109.5 -7.5t-93.5 -17.5q-47 -10 -88 -25v265q41 16 94 28q47 10 110.5 20.5t150.5 10.5q246 0 369.5 -102.5t123.5 -339.5q0 -109 -29.5 -199t-74.5 -165t-99.5 -134 t-101.5 -106l-131 -132h442l-28 -276h-836z" />
<glyph unicode="3" d="M92 20v267q49 -12 101 -21q43 -8 91 -14t89 -6q86 0 129 41t43 162q0 106 -55.5 145t-159.5 39h-137v248h139q94 0 137 35.5t43 130.5q0 70 -29.5 104.5t-109.5 34.5q-43 0 -92.5 -6t-90.5 -15q-49 -8 -98 -20v260q39 14 92 25q45 10 106.5 17t135.5 7q94 0 180 -14.5 t150.5 -52t103.5 -103t39 -168.5q0 -92 -27.5 -154.5t-71.5 -101.5t-97.5 -58.5t-102.5 -27.5q55 -6 113.5 -25.5t106.5 -59.5t80 -103.5t32 -161.5q0 -135 -43 -221t-116 -136.5t-168 -68.5t-199 -18q-72 0 -129.5 6t-98.5 14q-49 8 -86 20z" />
<glyph unicode="4" d="M25 264v283l96 887h422l-164 -883h139l105 453h284v-453h107l-27 -287h-80v-264h-389v264h-493z" />
<glyph unicode="5" d="M90 676l14 758h799l-33 -285h-405l-21 -264q18 16 43 28q23 10 57 20.5t83 10.5q61 0 116.5 -14.5t98.5 -62.5t67.5 -136.5t24.5 -238.5q0 -176 -52.5 -278.5t-134 -155t-180 -65.5t-190.5 -13q-57 0 -108.5 6t-90.5 14q-45 8 -84 20v275q49 -14 99 -25q41 -10 88 -16 t84 -6q96 0 138 48t42 171q0 113 -17.5 162t-83.5 49q-23 0 -49 -11.5t-49 -23.5q-27 -16 -55 -35z" />
<glyph unicode="6" d="M31 635q0 414 146.5 616.5t443.5 202.5q66 0 112.5 -7t79.5 -17q37 -10 64 -23v-260q-41 12 -82 22q-35 8 -77 15.5t-81 7.5q-57 0 -96 -15.5t-63.5 -49t-37 -88t-14.5 -134.5q25 18 57 33q29 12 68 23.5t90 11.5q68 0 131.5 -18.5t112.5 -68.5t78.5 -138.5t29.5 -225.5 q0 -164 -37.5 -269.5t-103.5 -165.5t-155 -83.5t-189 -23.5t-187.5 26.5t-152 98t-101 199.5t-36.5 331zM416 553q0 -164 12 -244t78 -80q61 0 79.5 53.5t18.5 194.5q0 68 -1 115t-8 76.5t-21.5 42t-41.5 12.5q-29 0 -49 -6t-34 -15q-16 -8 -27 -20q-2 -27 -4 -49 q-2 -20 -2 -43v-37z" />
<glyph unicode="7" d="M51 1149v285h922v-265q-131 -139 -199.5 -258.5t-99.5 -251t-34 -288t-3 -371.5h-389q0 223 12 387t53 295t116 241.5t202 225.5h-580z" />
<glyph unicode="8" d="M14 375q0 119 37 190.5t82 108.5q53 43 121 59q-63 18 -115 60q-43 35 -77.5 100t-34.5 172q0 98 26.5 171t85 121t150.5 72.5t223 24.5q252 0 368.5 -93t116.5 -294q0 -106 -37.5 -169.5t-85.5 -98.5q-53 -41 -120 -60q72 -16 127 -59q47 -37 88 -107.5t41 -191.5 q0 -213 -119 -307t-379 -94q-150 0 -246 25.5t-152.5 74.5t-78 122.5t-21.5 172.5zM399 387q0 -92 26 -141t87 -49q49 0 80 47t31 143q0 72 -29 116t-76 75l-37 24q-23 -23 -41 -55q-16 -29 -28.5 -69t-12.5 -91zM412 1055q0 -47 10 -80t25.5 -54.5t32 -35t28.5 -21.5 l22 -16q23 20 43 49q16 25 29.5 64t13.5 94q0 86 -20.5 132t-83.5 46q-59 0 -79.5 -44t-20.5 -134z" />
<glyph unicode="9" d="M31 903q0 285 117.5 418t353.5 133q129 0 222 -40t152.5 -125t88 -219t28.5 -320q0 -223 -37.5 -371t-110.5 -237t-176.5 -125.5t-234.5 -36.5q-66 0 -116 4t-85 10q-41 6 -71 14v264q37 -6 76 -12q35 -4 74.5 -8t80.5 -4q72 0 115 15.5t66.5 48t30.5 82.5t7 118 q-27 -20 -57 -37q-27 -14 -63.5 -24.5t-77.5 -10.5q-61 0 -129 18.5t-124.5 70t-93 141.5t-36.5 233zM420 926q0 -123 14.5 -179.5t61.5 -56.5q20 0 38.5 6t34.5 15q19 8 35 22q0 113 1 201t-5 148.5t-24.5 92t-55.5 31.5q-35 0 -54.5 -16t-29.5 -50t-13 -87.5t-3 -126.5z " />
<glyph unicode=":" horiz-adv-x="595" d="M82 160q0 45 16.5 85t46 69.5t68.5 47t86 17.5t86 -17.5t67.5 -47t45 -69.5t16.5 -85q0 -43 -16.5 -83t-45 -71t-67.5 -49t-86 -18t-87 17t-68.5 48t-45 71t-16.5 85zM82 928q0 45 16.5 85t46 69.5t68.5 47t86 17.5t86 -17.5t67.5 -47t45 -69.5t16.5 -85q0 -43 -16.5 -83 t-45 -71t-67.5 -49t-86 -18t-87 17t-68.5 48t-45 71t-16.5 85z" />
<glyph unicode=";" horiz-adv-x="595" d="M82 928q0 45 16.5 85t46 69.5t68.5 47t86 17.5t86 -17.5t67.5 -47t45 -69.5t16.5 -85q0 -43 -16.5 -83t-45 -71t-67.5 -49t-86 -18t-87 17t-68.5 48t-45 71t-16.5 85zM102 -348l21 665h366l-157 -665h-230z" />
<glyph unicode="&#x3c;" horiz-adv-x="1044" d="M20 543v286l963 502v-426l-549 -215l549 -223v-426z" />
<glyph unicode="=" horiz-adv-x="1085" d="M61 266v328h963v-328h-963zM61 778v328h963v-328h-963z" />
<glyph unicode="&#x3e;" horiz-adv-x="1044" d="M61 41v426l549 223l-549 215v426l963 -502v-286z" />
<glyph unicode="?" horiz-adv-x="794" d="M51 1110v289q51 14 109 26q47 10 108.5 19.5t124.5 9.5t128 -13.5t117 -47t84 -92t32 -150.5q0 -63 -14.5 -108.5t-37 -79t-50 -60t-52.5 -51.5q-41 -39 -68.5 -89t-27.5 -140q0 -59 14 -131h-336q-14 78 -14 147q0 57 9 100t23.5 77t34 59.5t37.5 48.5q37 41 67 76.5 t30 95.5q0 35 -23.5 48t-58.5 13q-29 0 -70 -7t-78 -17q-43 -10 -88 -23zM141 119q0 45 16.5 85t46 69.5t68.5 47t86 17.5t86 -17.5t68 -47t45 -69.5t16 -85q0 -43 -16 -83t-45 -71t-67.5 -49t-86.5 -18q-47 0 -87 17t-68.5 48t-45 71t-16.5 85z" />
<glyph unicode="@" horiz-adv-x="1902" d="M51 463q0 260 81 452.5t216 318.5t308 188.5t358 62.5q182 0 335.5 -48t265 -146.5t174 -248t62.5 -354.5q0 -188 -37.5 -317t-99 -211t-142.5 -118t-167 -36q-102 0 -155.5 36t-78.5 81q-29 53 -32 119q-27 -68 -72 -121q-39 -47 -101.5 -84t-154.5 -37 q-55 0 -112.5 17.5t-104.5 63.5t-77 126t-30 205q0 154 38 267.5t100.5 189t146.5 113.5t176 38q47 0 80 -11.5t55 -25.5q25 -16 43 -37l50 58h243l-90 -551q-6 -37 -6 -73t9 -62.5t29.5 -43t55.5 -16.5q27 0 49.5 21.5t37 69.5t22.5 126t8 193q0 133 -27.5 235.5t-89 173 t-161 106.5t-242.5 36q-150 0 -268.5 -53.5t-202.5 -153t-129 -238.5t-45 -311q0 -182 44 -304t117.5 -196t168 -105.5t192.5 -31.5q96 0 183 10t153 23q78 14 143 32v-266q-61 -18 -137 -33q-66 -12 -153 -22t-189 -10q-147 0 -298 41t-270.5 143t-195.5 276.5t-76 442.5z M813 416q0 -106 12.5 -143t51.5 -37q33 0 58.5 32.5t45.5 73.5q23 47 41 109l51 313q-12 6 -26 12q-12 4 -30 9.5t-36 5.5q-43 0 -75 -37t-52 -92.5t-30.5 -121t-10.5 -124.5z" />
<glyph unicode="A" horiz-adv-x="1085" d="M-20 0l321 1434h485l320 -1434h-406l-30 238h-254l-31 -238h-405zM453 520h180l-25 213q-6 51 -17 142.5t-22 181.5q-12 104 -26 219q-14 -119 -27 -223q-6 -45 -11 -91.5t-11.5 -89.5t-10.5 -78.5t-6 -60.5z" />
<glyph unicode="B" horiz-adv-x="1075" d="M82 0v1434h444q117 0 203 -18.5t142.5 -61.5t84 -114t27.5 -175q0 -94 -21.5 -152.5t-55.5 -92.5t-77 -49t-88 -26q47 -4 97.5 -19t91.5 -52t67.5 -101.5t26.5 -166.5q0 -117 -28.5 -195t-90 -125t-156 -66.5t-223.5 -19.5h-444zM471 252h29q29 0 53.5 6t42.5 23.5 t28.5 49.5t10.5 83q0 63 -9.5 101t-27.5 57.5t-47 25.5t-66 6h-14v-352zM471 850h25q27 0 48 6t35.5 25.5t21.5 55.5t7 93q0 90 -20.5 121t-75.5 31h-41v-332z" />
<glyph unicode="C" horiz-adv-x="839" d="M51 707q0 170 26.5 292.5t69.5 205.5t99.5 132t118 75t121 34t110.5 8q57 0 101 -8t73 -19q35 -10 59 -24v-293q-29 12 -61 23q-29 8 -64.5 15t-76.5 7q-39 0 -73 -17.5t-59.5 -65.5t-40 -136t-14.5 -229q0 -131 11.5 -214t32 -129.5t50 -63.5t68.5 -17q37 0 76 8t74 18 q39 10 77 27v-301q-39 -16 -81 -29q-37 -10 -87.5 -18t-105.5 -8q-53 0 -110.5 5t-114 28.5t-106.5 68.5t-89 126t-61.5 202.5t-22.5 296.5z" />
<glyph unicode="D" horiz-adv-x="1095" d="M82 0v1434h403q70 0 139.5 -7.5t131 -31t115 -69.5t92 -126t60 -198.5t21.5 -284.5q0 -244 -45 -386.5t-121.5 -216t-178 -94t-214.5 -20.5h-403zM471 291h27q45 0 75.5 12t49 56t26.5 129.5t8 228.5q0 139 -7 223t-25.5 130t-49 60.5t-75.5 14.5h-29v-854z" />
<glyph unicode="E" horiz-adv-x="870" d="M82 0v1434h768l-41 -306h-338v-247h317v-283h-317v-293h369v-305h-758z" />
<glyph unicode="F" horiz-adv-x="829" d="M82 0v1434h758l-52 -308h-317v-245h317v-283h-317v-598h-389z" />
<glyph unicode="G" horiz-adv-x="1146" d="M51 696q0 172 31 295t81 207t114.5 134t133 78t137 36t124.5 8q74 0 135 -10t104 -21q51 -14 93 -30v-289q-51 14 -105 24q-47 10 -103.5 18.5t-113.5 8.5t-102 -17.5t-76 -66.5t-47.5 -139t-16.5 -236q0 -139 12.5 -220t34 -123t49 -53t56.5 -11q12 0 27.5 1t31.5 3 t35 6v301h-102l-21 281h512v-832q-80 -20 -162 -35q-72 -14 -157.5 -24t-167.5 -10q-53 0 -113.5 5t-120 26.5t-114 65.5t-96.5 124t-67.5 200.5t-25.5 294.5z" />
<glyph unicode="H" horiz-adv-x="1146" d="M82 0v1434h389v-553h205v553h389v-1434h-389v598h-205v-598h-389z" />
<glyph unicode="I" horiz-adv-x="557" d="M82 0v1434h393v-1434h-393z" />
<glyph unicode="J" horiz-adv-x="675" d="M0 20v275q29 -6 55 -10q23 -4 46.5 -6.5t39.5 -2.5q31 0 47.5 17.5t16.5 71.5v1069h389v-1102q0 -113 -26.5 -182.5t-71.5 -107.5t-102.5 -50t-121.5 -12q-59 0 -108 6t-86 14q-43 8 -78 20z" />
<glyph unicode="K" horiz-adv-x="1116" d="M82 0v1434h389v-1434h-389zM475 758l203 676h428l-262 -666l282 -768l-419 -20z" />
<glyph unicode="L" horiz-adv-x="768" d="M82 0v1434h389v-1129h297l-51 -305h-635z" />
<glyph unicode="M" horiz-adv-x="1433" d="M72 0l49 1434h321l275 -537l276 537h320l49 -1434h-387l-8 371q-1 25 -1 50q0 51 3 107q4 84 10 156q8 82 16 166q-25 -59 -49 -117q-23 -51 -51.5 -108.5t-58.5 -110.5l-119 -201l-127 213q-31 49 -57.5 106.5t-49.5 106.5q-25 57 -45 115q8 -80 17 -162q6 -72 10 -160 q3 -59 3 -117q0 -29 -1 -59l-8 -356h-387z" />
<glyph unicode="N" horiz-adv-x="1126" d="M82 0v1434h344l115 -271q23 -53 50 -126.5t52 -141.5q29 -80 57 -162q-8 72 -16 146q-6 63 -10 138t-4 142v275h374v-1434h-319l-127 291q-25 55 -55.5 135t-57.5 152q-31 84 -61 174q8 -78 16 -158q6 -68 11.5 -145.5t5.5 -143.5v-305h-375z" />
<glyph unicode="O" horiz-adv-x="1126" d="M51 717q0 166 21.5 284.5t59.5 200.5t88 132t107.5 77t118 35t117.5 8q59 0 120.5 -9t118 -37t106.5 -78t87 -132t58.5 -199.5t21.5 -281.5t-21.5 -283t-57 -200.5t-86 -131t-106.5 -77t-117.5 -36.5t-123.5 -9q-57 0 -117.5 8t-117 33.5t-107.5 74.5t-89 131t-59.5 202 t-21.5 288zM440 717q0 -152 7.5 -243t22.5 -139t38.5 -63.5t54.5 -15.5t53.5 13.5t38 60.5t23.5 138t8 249q0 141 -5 230t-18.5 140.5t-37 71t-62.5 19.5q-35 0 -57.5 -15.5t-37.5 -63.5t-21.5 -139.5t-6.5 -242.5z" />
<glyph unicode="P" horiz-adv-x="1009" d="M82 0v1434h403q125 0 220.5 -22.5t158 -78t94 -151t31.5 -240.5q0 -147 -34.5 -244.5t-100.5 -157t-162 -86t-221 -30.5v-424h-389zM471 668q43 8 70.5 23.5t43 46t20.5 79.5t5 125q0 129 -21.5 179t-80.5 50h-37v-503z" />
<glyph unicode="Q" horiz-adv-x="1126" d="M51 717q0 166 21.5 284.5t59.5 200.5t88 132t107.5 77t118 35t117.5 8q55 0 114.5 -9t117 -37t108.5 -78t89 -132t60.5 -199.5t22.5 -281.5q0 -203 -33.5 -337t-88 -217t-125 -122t-144.5 -51l242 -379h-410l-84 379q-74 12 -142.5 51t-121.5 121t-85 216t-32 339z M440 717q0 -152 7.5 -243t22.5 -139t38.5 -63.5t54.5 -15.5t53.5 13.5t38 60.5t23.5 138t8 249q0 141 -5 230t-18.5 140.5t-37 71t-62.5 19.5q-35 0 -57.5 -15.5t-37.5 -63.5t-21.5 -139.5t-6.5 -242.5z" />
<glyph unicode="R" horiz-adv-x="1054" d="M82 0v1434h465q100 0 185 -15.5t144.5 -60.5t93.5 -127t34 -217q0 -139 -44.5 -224t-123.5 -135q76 -59 106.5 -154t42.5 -194l39 -307h-410l-26 285q-18 203 -68 274l-49 -6v-553h-389zM471 791q43 6 71.5 17t44 33.5t21.5 62t6 102.5q0 96 -24.5 130.5t-77.5 34.5h-41 v-380z" />
<glyph unicode="S" horiz-adv-x="880" d="M41 1022q0 129 44 212t111.5 132t150.5 68.5t161 19.5q66 0 120 -7t95 -17q45 -10 82 -23v-291q-43 12 -86 21q-39 8 -84 15t-86 7q-57 0 -90 -27.5t-33 -87.5q0 -55 35 -88.5t84 -70.5l96 -72q39 -29 75 -64.5t63.5 -83t44 -109.5t16.5 -144q0 -141 -44 -226.5 t-114 -131.5t-157 -60t-173 -14q-66 0 -121 6t-96 16q-47 10 -86 25v299q53 -14 103 -23q41 -10 85 -16t70 -6q66 0 105 23.5t39 94.5q0 41 -29 74t-72 68l-98 80q-35 29 -73 63.5t-68.5 82.5t-50 109.5t-19.5 145.5z" />
<glyph unicode="T" horiz-adv-x="880" d="M0 1126v308h942l-51 -308h-225v-1126h-390v1126h-276z" />
<glyph unicode="U" horiz-adv-x="1118" d="M82 430v1004h389v-1063q0 -61 23.5 -81t64.5 -20q39 0 63.5 20.5t24.5 80.5v1063h389v-1004q0 -125 -31.5 -211t-93 -139t-150.5 -76.5t-202 -23.5q-119 0 -208 22.5t-149.5 75.5t-90 139t-29.5 213z" />
<glyph unicode="V" d="M-31 1434h426l66 -656q8 -82 17 -182t18 -190q8 -104 16 -211q10 106 18 213q8 90 17.5 191t17.5 179l64 656h426l-277 -1434h-532z" />
<glyph unicode="W" horiz-adv-x="1667" d="M0 1434h403l29 -682q4 -70 7 -158t7 -168q4 -94 11 -190q10 96 18 190q8 80 16.5 169t18.5 159l86 680h475l86 -682q10 -74 18.5 -164t16.5 -168q8 -92 18 -184q4 94 11 186q4 78 8 168t8 162l27 682h403l-190 -1434h-500l-96 709q-10 63 -18.5 149t-14.5 164 q-8 90 -14 184q-10 -94 -19 -186q-8 -78 -16 -164t-17 -147l-84 -709h-508z" />
<glyph unicode="X" d="M-31 0l281 745l-260 689h434l88 -494l88 494h434l-258 -689l279 -745h-432l-111 492l-113 -492h-430z" />
<glyph unicode="Y" d="M-31 1434h424l119 -574l119 574h424l-348 -895v-539h-390v539z" />
<glyph unicode="Z" horiz-adv-x="942" d="M61 0v279l402 860h-402v295h820v-279l-402 -860h412l-41 -295h-789z" />
<glyph unicode="[" horiz-adv-x="614" d="M82 -266v1966h614v-289h-225v-1388h225v-289h-614z" />
<glyph unicode="\" horiz-adv-x="659" d="M20 1454h332l287 -1474h-332z" />
<glyph unicode="]" horiz-adv-x="614" d="M-82 23h225v1388h-225v289h614v-1966h-614v289z" />
<glyph unicode="^" horiz-adv-x="1036" d="M20 778l295 799h406l295 -799h-414l-84 459l-84 -459h-414z" />
<glyph unicode="_" horiz-adv-x="1085" d="M0 -131h1085v-320h-1085v320z" />
<glyph unicode="`" horiz-adv-x="688" d="M20 1597h447l201 -327h-312z" />
<glyph unicode="a" horiz-adv-x="1013" d="M41 330q0 131 46 205.5t111.5 112.5t140.5 48.5t130 10.5h74v43q0 37 -19.5 52t-72.5 15q-41 0 -91.5 -8t-97.5 -18q-53 -12 -108 -27v278q53 16 118 31q55 12 127 22.5t154 10.5t151.5 -14.5t121 -51t79 -101.5t27.5 -165v-774h-322l-61 76q-20 -27 -49 -49 q-25 -18 -64 -32.5t-92 -14.5q-43 0 -95 9t-98.5 45t-78 105.5t-31.5 190.5zM416 352q0 -72 17.5 -102.5t58.5 -30.5q18 0 34 6q8 2 17 6v291l-33 -2q-29 -2 -46.5 -10t-28.5 -26.5t-15 -50.5t-4 -81z" />
<glyph unicode="b" horiz-adv-x="1085" d="M82 33v1442h389v-445q23 20 53 37q27 14 63 26.5t83 12.5q51 0 114.5 -11.5t118.5 -64.5t93 -163.5t38 -309.5q0 -209 -48 -325.5t-124 -172t-167 -67.5t-177 -12q-78 0 -154.5 8t-140.5 18q-74 10 -141 27zM471 252q10 -2 21 -4q10 -2 21 -2h24q23 0 43 7t34.5 38 t22.5 93t8 173q0 88 -5 140.5t-15.5 80t-25.5 35.5t-36 8q-18 0 -34.5 -5t-28.5 -9l-29 -14v-541z" />
<glyph unicode="c" horiz-adv-x="768" d="M51 537q0 137 27.5 233t73 159.5t100.5 99.5t110.5 52.5t105.5 20.5t81 4q37 0 72.5 -6t64.5 -13q33 -8 62 -18v-289q-29 6 -60 15q-27 6 -56.5 11t-56.5 5t-51 -10t-42.5 -40t-30 -83t-11.5 -141q0 -145 30 -200.5t89 -55.5q33 0 65.5 5t61.5 11q33 8 62 16v-297 q-31 -10 -68 -18q-31 -8 -72 -13t-82 -5t-91 3t-103 19t-103.5 51t-90.5 96.5t-63.5 155.5t-23.5 232z" />
<glyph unicode="d" horiz-adv-x="1095" d="M51 543q0 199 45 311.5t109.5 168.5t134.5 69.5t121 13.5q41 0 71.5 -8t51.5 -19q23 -10 41 -24v420h389v-1475h-314l-53 66q-25 -25 -57 -43q-29 -16 -66 -29.5t-84 -13.5q-35 0 -78 5t-86 22.5t-83.5 54t-71.5 99t-50.5 156t-19.5 226.5zM440 543q0 -90 5.5 -144.5 t17.5 -83t30.5 -38t45.5 -9.5q18 0 34.5 5.5t26.5 11.5q12 8 25 16v500q-14 4 -27 8q-10 4 -23.5 7t-25.5 3q-31 0 -51.5 -10t-33.5 -39t-18.5 -84t-5.5 -143z" />
<glyph unicode="e" horiz-adv-x="1005" d="M51 539q0 172 40 282.5t107.5 173t153.5 87t178 24.5q94 0 174 -26.5t137.5 -92t90.5 -174t33 -270.5v-129h-527q0 -88 41 -114t113 -26q43 0 98 6.5t105 14.5q57 8 114 22v-282q-45 -16 -98 -29q-45 -10 -102.5 -18t-116.5 -8q-92 0 -187.5 14t-174 70.5t-129 168 t-50.5 306.5zM438 625h164v92t-6 79.5t-21.5 56t-44.5 21.5q-37 0 -55 -20t-26.5 -55t-8.5 -80t-2 -94z" />
<glyph unicode="f" horiz-adv-x="716" d="M0 838v247h143v93q0 113 37 179t93.5 102t123 46.5t123.5 10.5q59 0 110.5 -6.5t92.5 -14.5q47 -8 86 -20v-256q-35 6 -72 12q-31 4 -67.5 8t-65.5 4q-41 0 -56.5 -25.5t-15.5 -62.5v-70h205l-51 -247h-154v-838h-389v838h-143z" />
<glyph unicode="g" horiz-adv-x="1052" d="M0 -156q0 78 46 135.5t99 81.5q-104 59 -104 183q0 68 42 112.5t89 67.5q-59 47 -97 122t-38 185q0 113 39 186.5t103.5 114.5t148.5 57.5t174 16.5q55 0 99 -10.5t83 -10.5h389v-241l-149 6q18 -33 29.5 -66.5t11.5 -68.5q0 -117 -35 -191.5t-97.5 -118t-147.5 -58.5 t-183 -15q-63 0 -96 6q-20 2 -33 6q-4 -4 -6 -10q-6 -10 -7 -27q0 -23 16.5 -32t57.5 -13l268 -22q80 -6 144.5 -22.5t109.5 -50.5t70 -91.5t25 -147.5q0 -102 -37 -169.5t-110 -107.5t-179.5 -55.5t-247.5 -15.5q-115 0 -203 11.5t-149.5 40t-93 80.5t-31.5 132zM383 -104 q0 -57 30.5 -82t84.5 -25q80 0 123 21.5t43 87.5q0 55 -32 69.5t-73 18.5l-143 14q-8 -14 -17 -33q-6 -16 -11 -34.5t-5 -36.5zM422 731q0 -70 4 -108.5t13.5 -58t24.5 -24.5t38 -5t39 6t25 25.5t13.5 58t4.5 106.5q0 61 -5.5 95t-15.5 51.5t-25.5 21.5t-35.5 4 q-16 0 -31.5 -5t-26 -22.5t-16.5 -51t-6 -93.5z" />
<glyph unicode="h" horiz-adv-x="1095" d="M82 0v1475h389v-459q37 25 82 45q39 16 90 30.5t111 14.5q139 0 204.5 -75t65.5 -228v-803h-389v709q0 41 -11.5 53t-41.5 12q-16 0 -36 -5t-36 -11q-20 -8 -39 -17v-741h-389z" />
<glyph unicode="i" horiz-adv-x="552" d="M82 0v1085h389v-1085h-389zM84 1413q0 39 14.5 75t41 62.5t61.5 42t75 15.5q41 0 76 -15.5t61.5 -42t41 -62.5t14.5 -75q0 -41 -14.5 -75.5t-41 -61.5t-61.5 -42t-76 -15t-75.5 15t-61 42t-41 61.5t-14.5 75.5z" />
<glyph unicode="j" horiz-adv-x="552" d="M-143 -92q31 -6 57 -10q23 -4 48.5 -6.5t41.5 -2.5q33 0 55.5 14.5t22.5 82.5v1099h389v-1148q0 -106 -27.5 -174t-74.5 -106t-108.5 -52.5t-131.5 -14.5q-43 0 -90 6.5t-88 14.5q-47 8 -94 20v277zM84 1413q0 39 14.5 75t41 62.5t61.5 42t75 15.5q41 0 76 -15.5 t61.5 -42t41 -62.5t14.5 -75q0 -41 -14.5 -75.5t-41 -61.5t-61.5 -42t-76 -15t-75.5 15t-61 42t-41 61.5t-14.5 75.5z" />
<glyph unicode="k" horiz-adv-x="1085" d="M82 0v1475h389v-1475h-389zM475 614l152 471h428l-219 -456l260 -629l-420 -20z" />
<glyph unicode="l" horiz-adv-x="552" d="M82 0v1475h389v-1475h-389z" />
<glyph unicode="m" horiz-adv-x="1607" d="M82 0v1085h311l72 -84q31 29 72 52q35 20 86 36.5t116 16.5q172 0 232 -123q14 14 42.5 35.5t67.5 41t87.5 33t103.5 13.5q139 0 201.5 -75t62.5 -228v-803h-389v709q0 41 -11.5 53t-41.5 12q-16 0 -33 -3t-29 -7l-28 -8v-756h-390v709q0 41 -11 53t-42 12 q-16 0 -32.5 -3t-28.5 -7q-14 -4 -29 -8v-756h-389z" />
<glyph unicode="n" horiz-adv-x="1095" d="M82 0v1085h311l72 -79q35 27 80 49q39 18 91 34.5t118 16.5q139 0 204.5 -75t65.5 -228v-803h-389v709q0 41 -11.5 53t-41.5 12q-16 0 -36 -5l-36 -9q-20 -8 -39 -15v-745h-389z" />
<glyph unicode="o" horiz-adv-x="1093" d="M51 543q0 168 38 276.5t105.5 172t157.5 89t195 25.5q98 0 187 -22.5t158 -85t109.5 -172t40.5 -283.5q0 -176 -40.5 -286t-109.5 -171t-158 -83.5t-187 -22.5q-100 0 -190.5 22.5t-158 85t-107.5 172t-40 283.5zM440 543q0 -90 7.5 -147.5t21.5 -90.5t33.5 -44t44.5 -11 t44 10t32.5 42t21.5 89.5t8 151.5q0 96 -5 154.5t-17.5 89t-32.5 41t-51 10.5q-29 0 -49.5 -9.5t-32.5 -40t-18.5 -89t-6.5 -156.5z" />
<glyph unicode="p" horiz-adv-x="1085" d="M82 -389v1474h315l58 -67q25 23 61 43q29 16 73 30.5t97 14.5q59 0 121.5 -15.5t113 -71.5t82 -166.5t31.5 -303.5q0 -141 -21.5 -237.5t-57 -160t-81 -98.5t-92.5 -51t-93 -19t-81 -3q-45 0 -90 10q-23 6 -47 12v-391h-389zM471 262q12 -4 23 -6q10 -2 21 -3t22 -1 q25 0 45 12t34.5 46t21.5 91.5t7 147.5q0 92 -4 145.5t-13.5 81t-24.5 35.5t-40 8q-14 0 -29.5 -5t-29.5 -11q-16 -8 -33 -17v-524z" />
<glyph unicode="q" horiz-adv-x="1095" d="M51 549q0 201 45 313.5t109.5 166.5t133.5 65.5t118 11.5q47 0 80.5 -13.5t58.5 -29.5q27 -20 49 -43l62 65h307v-1474h-389v418q-23 -14 -50 -25q-23 -10 -54.5 -17t-69.5 -7q-59 0 -129 14t-130.5 71.5t-100.5 171t-40 312.5zM440 549q0 -96 7.5 -152.5t19.5 -86 t29.5 -38t40.5 -8.5q35 0 61 10q14 6 27 13v499q-12 6 -27 13q-12 4 -27.5 8t-31.5 4q-25 0 -43.5 -9t-30.5 -38t-18.5 -80t-6.5 -135z" />
<glyph unicode="r" horiz-adv-x="753" d="M82 0v1085h309l58 -104q16 51 61 88t113 37q33 0 56 -4t38 -8q16 -6 26 -11v-323q-23 4 -45 10q-20 4 -45.5 7t-52.5 3q-29 0 -52.5 -6t-39.5 -12q-20 -8 -37 -19v-743h-389z" />
<glyph unicode="s" horiz-adv-x="827" d="M41 752q0 109 39 178t99.5 108t134 53.5t145.5 14.5q66 0 119 -8t90 -19q43 -10 77 -24v-273q-41 12 -81 21q-35 8 -78 15t-84 7q-35 0 -58.5 -11t-23.5 -42q0 -37 28.5 -54.5t67.5 -33.5l41 -18q37 -16 77 -39t73.5 -60t56 -90t22.5 -129q0 -123 -40.5 -195.5 t-102 -111.5t-135.5 -50t-139 -11q-61 0 -117.5 7t-99.5 17q-51 10 -95 27v280q53 -14 101 -24q41 -10 81 -16.5t62 -6.5q45 0 75 10.5t30 51.5q0 35 -26 52t-67 36l-49 22q-35 16 -73.5 40t-72.5 59.5t-55.5 89t-21.5 127.5z" />
<glyph unicode="t" horiz-adv-x="737" d="M0 838v247h143l50 246l339 82v-328h205l-51 -247h-154v-476q0 -55 16.5 -71.5t49.5 -16.5q10 0 33.5 2.5t46.5 6.5q27 4 59 8v-277q-47 -10 -94 -18q-41 -6 -89 -11t-93 -5q-41 0 -96.5 6t-104.5 36.5t-83 94t-34 176.5v545h-143z" />
<glyph unicode="u" horiz-adv-x="1075" d="M72 338v747h389v-686q0 -53 13 -72.5t42 -19.5q31 0 59 15q14 6 29 14v749h389v-1085h-323l-54 74q-27 -27 -61 -47q-31 -18 -74 -32.5t-102 -14.5q-57 0 -112.5 12t-98.5 51t-69.5 109.5t-26.5 185.5z" />
<glyph unicode="v" horiz-adv-x="1003" d="M-20 1085h419l64 -512q4 -39 11 -102t13 -127q8 -74 15 -154q6 80 14 154q6 63 12.5 128t10.5 101l65 512h420l-285 -1085h-475z" />
<glyph unicode="w" horiz-adv-x="1638" d="M0 1085h387l31 -487q4 -49 7 -117.5t7 -132.5q4 -74 10 -149q10 76 21 149q10 63 18 132t19 118l86 487h467l86 -487q8 -47 18 -114.5t19 -131.5q8 -74 18 -153q4 82 10 157q4 66 8.5 132.5t8.5 109.5l34 487h383l-190 -1085h-492l-71 440q-10 59 -21.5 137t-21.5 148 q-12 82 -23 166q-12 -82 -22 -164q-10 -70 -21.5 -146.5t-21.5 -138.5l-76 -442h-488z" />
<glyph unicode="x" horiz-adv-x="1044" d="M-20 0l290 569l-270 516h438l84 -327l84 327h438l-270 -516l291 -569h-436l-107 348l-106 -348h-436z" />
<glyph unicode="y" horiz-adv-x="993" d="M-20 1085h423l121 -739l82 739h408l-307 -1159q-27 -98 -63 -162.5t-83 -102.5t-105.5 -54.5t-127.5 -16.5q-53 0 -104.5 5.5t-94.5 13.5q-51 8 -96 18v289q45 -10 88 -18q37 -6 77 -11.5t68 -5.5q76 0 92 78l9 37z" />
<glyph unicode="z" horiz-adv-x="942" d="M61 0v256l363 549h-363v280h809v-256l-362 -548h383l-21 -281h-809z" />
<glyph unicode="{" horiz-adv-x="661" d="M0 586v266q41 12 74 37q29 23 52.5 61.5t23.5 104.5v250q0 111 32.5 186.5t89 121.5t132 66.5t161.5 20.5h178v-283h-34q-98 0 -134 -35.5t-36 -124.5v-243q0 -72 -17.5 -122t-48.5 -85t-71 -56.5t-83 -33.5q94 -23 157 -89.5t63 -203.5v-248q0 -84 33.5 -122t136.5 -38 h34v-282h-178q-92 0 -169 20.5t-131 66.5t-84.5 121.5t-30.5 186.5v254q0 66 -24 105.5t-52 62.5q-33 25 -74 35z" />
<glyph unicode="|" horiz-adv-x="552" d="M82 -225v1884h389v-1884h-389z" />
<glyph unicode="}" horiz-adv-x="661" d="M-82 16h35q102 0 136 38t34 122v248q0 137 62.5 203.5t156.5 89.5q-43 12 -83 33.5t-70.5 56.5t-48 85t-17.5 122v243q0 88 -36 124t-134 36h-35v283h178q86 0 162 -20.5t132 -66.5t89 -122t33 -186v-250q0 -66 22.5 -105t51.5 -61q33 -25 76 -37v-266q-43 -10 -76 -35 q-29 -23 -51.5 -62.5t-22.5 -105.5v-254q0 -111 -30.5 -186.5t-85 -121.5t-131.5 -66.5t-169 -20.5h-178v282z" />
<glyph unicode="~" horiz-adv-x="1187" d="M61 522v328q41 25 89 45q41 16 93 30.5t111 14.5q90 0 160 -21.5t130.5 -48t113.5 -48t110 -21.5q41 0 86 13t84 30q45 20 88 45v-326q-37 -25 -79 -45q-37 -16 -84.5 -29.5t-98.5 -13.5q-78 0 -146.5 21.5t-131 47t-120.5 47t-114 21.5q-53 0 -105 -14t-93 -31 q-49 -20 -93 -45z" />
<glyph unicode="&#xa1;" horiz-adv-x="595" d="M82 926q0 43 16.5 83t45 70.5t67.5 49t86 18.5t87 -17.5t68.5 -48t45 -70.5t16.5 -85t-16.5 -85t-46 -70t-69.5 -47t-85 -17q-47 0 -86 17t-67.5 47t-45 70t-16.5 85zM86 -389l72 942h278l72 -942h-422z" />
<glyph unicode="&#xa2;" d="M164 537q0 147 28.5 246.5t74.5 163t102.5 96t111.5 47.5v221h226v-209q29 -4 56.5 -10.5t49.5 -10.5q25 -6 47 -12v-289q-29 6 -59 15q-27 6 -56.5 11t-56.5 5q-29 0 -53.5 -10t-43 -40t-28.5 -83t-10 -141q0 -145 32.5 -200.5t86.5 -55.5q33 0 65.5 5t61.5 11 q33 8 61 16v-297q-20 -6 -45 -12q-23 -4 -50.5 -10t-57.5 -10v-209h-226v217q-57 12 -113.5 41.5t-101.5 91t-73.5 161t-28.5 251.5z" />
<glyph unicode="&#xa3;" d="M43 0v289h184v346h-164v278h164v131q0 113 35 192t95.5 127t143.5 69.5t179 21.5q72 0 128 -9t95 -20q45 -12 80 -28v-289q-37 14 -78 25q-35 10 -82 18t-100 8q-70 0 -90.5 -34.5t-20.5 -80.5v-131h336l-30 -278h-306v-346h371v-289h-940z" />
<glyph unicode="&#xa4;" d="M27 416l20 241h66q-2 12 -2 23q-2 10 -2 20.5v16.5v12t2 16q0 8 2 21h-86l20 242h103q25 154 88 242.5t142 134t161 57.5t147 12q66 0 124 -8t99 -19q49 -12 88 -26v-262q-49 12 -100 22q-43 8 -94 15.5t-96 7.5q-78 0 -129.5 -49.5t-61.5 -126.5h369l-21 -242h-379 q-2 -10 -2 -18q-2 -8 -2 -17.5v-13.5v-16.5t2 -20.5q0 -10 2 -23h400l-21 -241h-346q10 -72 56.5 -114t111.5 -42q47 0 101.5 7t101.5 18q53 10 108 24v-270q-41 -18 -94 -31q-45 -10 -105.5 -19t-131.5 -9q-76 0 -161 14t-160 60t-130 132t-72 230h-118z" />
<glyph unicode="&#xa5;" d="M0 1434h424l88 -615l88 615h424l-199 -588h127v-275h-245v-137h245v-274h-245v-160h-390v160h-245v274h245v137h-245v275h127z" />
<glyph unicode="&#xa6;" horiz-adv-x="552" d="M82 -225v798h389v-798h-389zM82 860v799h389v-799h-389z" />
<glyph unicode="&#xa7;" horiz-adv-x="983" d="M41 623q0 72 31.5 117.5t72.5 72.5q45 31 105 45q-43 20 -76 57q-29 31 -52.5 81.5t-23.5 125.5q0 90 37 149.5t100.5 95.5t149.5 51.5t182 15.5q80 0 142.5 -10.5t105.5 -20.5q51 -14 90 -31v-276q-59 16 -119 30q-51 10 -108 20.5t-105 10.5q-41 0 -65.5 -13.5 t-24.5 -49.5q0 -35 42 -54.5t102 -48.5l108 -51q39 -18 77 -40.5t66.5 -54.5t46 -75t17.5 -102q0 -80 -30.5 -128t-67.5 -77q-43 -33 -99 -45q39 -23 70 -58q27 -29 48.5 -74.5t21.5 -109.5q0 -100 -37 -163.5t-99.5 -98.5t-143.5 -48t-169 -13q-74 0 -139.5 7t-114.5 17 q-57 10 -104 25v284q66 -18 125 -30q51 -10 102 -19.5t84 -9.5q47 0 79 13.5t32 54.5q0 35 -36 53t-87 41l-98 43q-43 18 -86 42.5t-77 58.5t-54.5 80t-20.5 110zM395 657q0 -41 24.5 -65.5t57.5 -38.5l62 -27q14 12 26 29q10 14 18.5 31.5t8.5 40.5q0 45 -16.5 66.5 t-51.5 37.5l-61 29q-20 -12 -35 -29q-12 -14 -22.5 -32.5t-10.5 -41.5z" />
<glyph unicode="&#xa8;" horiz-adv-x="915" d="M20 1413q0 76 52.5 130t130.5 54t130 -54t52 -130t-52 -130t-130 -54t-130.5 54t-52.5 130zM530 1413q0 76 52.5 130t130.5 54t130 -54t52 -130t-52 -130t-130 -54t-130.5 54t-52.5 130z" />
<glyph unicode="&#xa9;" horiz-adv-x="1597" d="M51 707q0 195 57.5 342t158 246.5t236.5 149.5t296 50t296 -52t236.5 -151.5t157.5 -247t57 -337.5q0 -193 -57 -340.5t-157.5 -247t-237 -150.5t-295.5 -51q-160 0 -296 49t-236.5 147.5t-158 247t-57.5 345.5zM358 707q0 -139 32 -242t89.5 -169.5t139 -99t180.5 -32.5 q205 0 322.5 133.5t117.5 409.5q0 260 -111.5 401t-328.5 141t-329 -133t-112 -409zM479 711q0 129 39 207.5t96.5 121.5t125 58.5t122.5 15.5q35 0 63.5 -5t49.5 -11q23 -8 41 -17v-194q-23 6 -45 14q-20 6 -45 11.5t-54 5.5q-66 0 -104.5 -46.5t-38.5 -160.5 q0 -96 33 -150.5t98 -54.5q29 0 56.5 4t50.5 10q25 6 49 15v-201q-20 -8 -45 -17q-23 -6 -53.5 -10t-67.5 -4q-55 0 -119.5 14.5t-120 57.5t-93.5 123t-38 213z" />
<glyph unicode="&#xaa;" horiz-adv-x="813" d="M20 0v319h752v-319h-752zM20 807q0 109 39 171t96.5 94t120 40t109.5 8h61v37q0 31 -16 44t-61 13q-35 0 -79 -7t-83 -15q-47 -8 -92 -21v234q47 14 102 25q47 10 108.5 17t129.5 7q70 0 128 -11t100 -42t65.5 -85t23.5 -138v-646h-270l-51 62q-18 -23 -43 -41 q-23 -16 -54.5 -27.5t-72.5 -11.5q-35 0 -80 7t-85 36t-68 87t-28 163zM354 825q0 -59 11.5 -85.5t37.5 -26.5q12 0 29 4q8 2 14 6v244l-28 -2q-37 -4 -50.5 -31t-13.5 -109z" />
<glyph unicode="&#xab;" horiz-adv-x="1105" d="M41 563v246l471 491v-469l-176 -141l176 -149v-469zM573 563v246l471 491v-469l-176 -141l176 -149v-469z" />
<glyph unicode="&#xac;" horiz-adv-x="1249" d="M61 532v328h1127v-657h-348v329h-779z" />
<glyph unicode="&#xad;" horiz-adv-x="901" d="M61 492v319h779v-319h-779z" />
<glyph unicode="&#xae;" horiz-adv-x="1597" d="M51 707q0 195 57.5 342t158 246.5t236.5 149.5t296 50t296 -52t236.5 -151.5t157.5 -247t57 -337.5q0 -193 -57 -340.5t-157.5 -247t-237 -150.5t-295.5 -51q-160 0 -296 49t-236.5 147.5t-158 247t-57.5 345.5zM358 707q0 -139 32 -242t89.5 -169.5t139 -99t180.5 -32.5 q205 0 322.5 133.5t117.5 409.5q0 260 -111.5 401t-328.5 141t-329 -133t-112 -409zM528 342v758h248q59 0 117.5 -5t106 -28t76 -68t28.5 -122q0 -80 -41 -124t-111 -75q51 -31 76 -77t43 -99l53 -160h-252l-22 121q-10 53 -21.5 89t-40.5 64l-32 -6v-268h-228zM756 745 q37 8 60.5 15.5t35.5 21t17 32.5t5 52q0 31 -7 48.5t-19 25.5t-29.5 10t-40.5 2h-22v-207z" />
<glyph unicode="&#xaf;" horiz-adv-x="686" d="M20 1311v286h646v-286h-646z" />
<glyph unicode="&#xb0;" horiz-adv-x="888" d="M41 1055q0 123 36 203.5t93 129t130 68t144 19.5q80 0 153 -19.5t129 -67t89 -128t33 -205.5q0 -117 -37 -197t-95.5 -130t-130 -71.5t-141.5 -21.5q-72 0 -143.5 18.5t-129.5 66.5t-94 129t-36 206zM369 1055q0 -104 11 -150.5t64 -46.5q45 0 60.5 43t15.5 154 q0 115 -14 157.5t-62 42.5q-43 0 -59 -44t-16 -156z" />
<glyph unicode="&#xb1;" horiz-adv-x="1187" d="M61 -143v319h1065v-319h-1065zM61 584v327h338v349h389v-349h338v-327h-338v-287h-389v287h-338z" />
<glyph unicode="&#xb2;" horiz-adv-x="602" d="M25 569v183l161 176q49 53 85 101t36 128q0 59 -20.5 82t-61.5 23q-35 0 -68.5 -6.5t-62.5 -12.5q-33 -8 -63 -18v188q27 12 63 21q31 8 73 14t95 6q154 0 236 -64.5t82 -213.5q0 -59 -14.5 -109.5t-39 -93.5t-57.5 -82t-72 -76l-51 -49h240l-23 -197h-538z" />
<glyph unicode="&#xb3;" horiz-adv-x="602" d="M29 578v188q37 -8 71 -14q29 -6 62 -10.5t55 -4.5q43 0 63.5 20.5t20.5 86.5q0 51 -24.5 69.5t-83.5 18.5h-105v178h105q49 0 70.5 18.5t21.5 65.5q0 37 -14.5 54.5t-53.5 17.5q-25 0 -57.5 -5.5t-61.5 -11.5q-35 -8 -69 -14v184q29 8 65 17q31 6 70 12t86 6 q57 0 111.5 -9t97.5 -32.5t68.5 -66.5t25.5 -111q0 -86 -36 -128t-103 -71q70 -16 114.5 -65.5t44.5 -141.5q0 -86 -28.5 -140t-75.5 -86t-107.5 -43t-123.5 -11q-45 0 -82 4t-66 10q-33 6 -61 15z" />
<glyph unicode="&#xb4;" horiz-adv-x="688" d="M20 1270l201 327h447l-336 -327h-312z" />
<glyph unicode="&#xb6;" horiz-adv-x="1392" d="M41 932q0 162 41 260t110.5 152.5t160.5 72t190 17.5h297v-1434h-348v428q-90 0 -172 20.5t-143.5 76t-98.5 153.5t-37 254zM403 932q0 -80 4.5 -125t15.5 -67.5t27.5 -28.5t41.5 -6v456q-25 0 -41.5 -7t-26.5 -31.5t-15.5 -69.5t-5.5 -121zM963 0v1434h348v-1434h-348z " />
<glyph unicode="&#xb7;" horiz-adv-x="595" d="M82 774q0 45 16.5 85t46 69.5t68.5 47t86 17.5t86 -17.5t67.5 -47t45 -69.5t16.5 -85q0 -43 -16.5 -83t-45 -70.5t-67.5 -49t-86 -18.5t-87 17.5t-68.5 48t-45 70.5t-16.5 85z" />
<glyph unicode="&#xb8;" horiz-adv-x="561" d="M20 -160q35 -12 66 -20q27 -8 53.5 -13.5t42.5 -5.5q33 0 50.5 9.5t17.5 42.5q0 29 -11.5 59.5t-25.5 54.5q-16 29 -37 53h193q49 -18 86 -47q33 -25 59.5 -63.5t26.5 -93.5q0 -68 -24.5 -112t-65.5 -68.5t-95.5 -35t-113.5 -10.5q-43 0 -83 6.5t-71 14.5q-37 8 -68 20 v209z" />
<glyph unicode="&#xb9;" horiz-adv-x="602" d="M53 1094v211l230 129h211v-865h-275v607z" />
<glyph unicode="&#xba;" horiz-adv-x="899" d="M31 0v319h837v-319h-837zM31 983q0 141 33.5 233.5t91 144.5t133.5 72.5t160 20.5q82 0 157.5 -19.5t134 -71.5t93 -143.5t34.5 -236.5q0 -147 -34.5 -239.5t-93 -144.5t-134.5 -70.5t-157 -18.5q-84 0 -160 18.5t-133.5 70.5t-91 144.5t-33.5 239.5zM381 983 q0 -78 3 -125t10 -74.5t20.5 -37t34.5 -9.5q20 0 33.5 8.5t21.5 35t11 74.5t3 128q0 74 -1 122t-8 74.5t-21.5 37t-38.5 10.5q-23 0 -35.5 -10.5t-20.5 -38t-10 -74.5t-2 -121z" />
<glyph unicode="&#xbb;" horiz-adv-x="1105" d="M61 72v469l177 149l-177 141v469l471 -491v-246zM594 72v469l176 149l-176 141v469l471 -491v-246z" />
<glyph unicode="&#xbc;" horiz-adv-x="1716" d="M53 1094v211l230 129h211v-865h-275v607zM356 -225l738 1884h266l-737 -1884h-267zM1114 322l45 542h297l-96 -528h43l82 282h188v-282h43l-4 -201h-39v-135h-274v135h-281z" />
<glyph unicode="&#xbd;" horiz-adv-x="1716" d="M53 1094v211l230 129h211v-865h-275v607zM356 -225l738 1884h266l-737 -1884h-267zM1139 0v182l161 176q49 53 85 101.5t36 128.5q0 59 -20.5 81.5t-61.5 22.5q-35 0 -68.5 -6t-62.5 -12q-33 -8 -63 -19v189q27 12 63 20q31 8 73 14.5t95 6.5q154 0 236 -64.5t82 -214.5 q0 -59 -14.5 -109.5t-39 -93.5t-57.5 -81.5t-72 -75.5l-51 -49h240l-23 -197h-538z" />
<glyph unicode="&#xbe;" horiz-adv-x="1716" d="M29 578v188q37 -8 71 -14q29 -6 62 -10.5t55 -4.5q43 0 63.5 20.5t20.5 86.5q0 51 -24.5 69.5t-83.5 18.5h-105v178h105q49 0 70.5 18.5t21.5 65.5q0 37 -14.5 54.5t-53.5 17.5q-25 0 -57.5 -5.5t-61.5 -11.5q-35 -8 -69 -14v184q29 8 65 17q31 6 70 12t86 6 q57 0 111.5 -9t97.5 -32.5t68.5 -66.5t25.5 -111q0 -86 -36 -128t-103 -71q70 -16 114.5 -65.5t44.5 -141.5q0 -86 -28.5 -140t-75.5 -86t-107.5 -43t-123.5 -11q-45 0 -82 4t-66 10q-33 6 -61 15zM356 -225l738 1884h266l-737 -1884h-267zM1114 322l45 542h297l-96 -528h43 l82 282h188v-282h43l-4 -201h-39v-135h-274v135h-281z" />
<glyph unicode="&#xbf;" horiz-adv-x="794" d="M41 -106q0 63 14.5 108t37 79t50 60.5t52.5 51.5q20 18 37.5 39.5t30.5 48t20.5 61.5t7.5 80q0 59 -15 131h336q14 -78 15 -147q0 -57 -9.5 -100.5t-23.5 -77t-33.5 -59.5t-38.5 -48q-37 -41 -66.5 -77t-29.5 -95q0 -35 23.5 -48.5t58.5 -13.5q29 0 69.5 6.5t77.5 16.5 q43 10 88 24v-288q-53 -16 -108 -29q-49 -10 -109.5 -18.5t-124.5 -8.5q-66 0 -129 12.5t-115.5 46.5t-84 93t-31.5 152zM221 926q0 43 16.5 83t45 70.5t67.5 49t86 18.5t87 -17.5t69 -48t45 -70.5t16 -85t-16 -85t-46 -70t-70 -47t-85 -17q-47 0 -86 17t-67.5 47t-45 70 t-16.5 85z" />
<glyph unicode="&#xc0;" horiz-adv-x="1085" d="M-20 0l321 1434h485l320 -1434h-406l-30 238h-254l-31 -238h-405zM55 1802h457l190 -266h-311zM453 520h180l-25 213q-6 51 -17 142.5t-22 181.5q-12 104 -26 219q-14 -119 -27 -223q-6 -45 -11 -91.5t-11.5 -89.5t-10.5 -78.5t-6 -60.5z" />
<glyph unicode="&#xc1;" horiz-adv-x="1085" d="M-20 0l321 1434h485l320 -1434h-406l-30 238h-254l-31 -238h-405zM389 1536l191 266h456l-336 -266h-311zM453 520h180l-25 213q-6 51 -17 142.5t-22 181.5q-12 104 -26 219q-14 -119 -27 -223q-6 -45 -11 -91.5t-11.5 -89.5t-10.5 -78.5t-6 -60.5z" />
<glyph unicode="&#xc2;" horiz-adv-x="1085" d="M-20 0l321 1434h485l320 -1434h-406l-30 238h-254l-31 -238h-405zM117 1536l252 266h348l252 -266h-312l-104 117l-104 -117h-332zM453 520h180l-25 213q-6 51 -17 142.5t-22 181.5q-12 104 -26 219q-14 -119 -27 -223q-6 -45 -11 -91.5t-11.5 -89.5t-10.5 -78.5 t-6 -60.5z" />
<glyph unicode="&#xc3;" horiz-adv-x="1085" d="M-20 0l321 1434h485l320 -1434h-406l-30 238h-254l-31 -238h-405zM195 1516v266q47 29 101 43t97 14q49 0 97.5 -11t92.5 -23.5t84 -24t72 -11.5q29 0 70 13.5t82 38.5v-265q-41 -27 -88 -40t-82 -13q-43 0 -88 11.5t-90 25.5t-88 25.5t-84 11.5q-35 0 -82 -15.5 t-94 -45.5zM453 520h180l-25 213q-6 51 -17 142.5t-22 181.5q-12 104 -26 219q-14 -119 -27 -223q-6 -45 -11 -91.5t-11.5 -89.5t-10.5 -78.5t-6 -60.5z" />
<glyph unicode="&#xc4;" horiz-adv-x="1085" d="M-20 0l321 1434h485l320 -1434h-406l-30 238h-254l-31 -238h-405zM106 1700q0 76 52.5 130t130.5 54t130 -54t52 -130t-52 -130t-130 -54t-130.5 54t-52.5 130zM453 520h180l-25 213q-6 51 -17 142.5t-22 181.5q-12 104 -26 219q-14 -119 -27 -223q-6 -45 -11 -91.5 t-11.5 -89.5t-10.5 -78.5t-6 -60.5zM616 1700q0 76 52.5 130t130.5 54t130 -54t52 -130t-52 -130t-130 -54t-130.5 54t-52.5 130z" />
<glyph unicode="&#xc5;" horiz-adv-x="1085" d="M-20 0l321 1434h485l320 -1434h-406l-30 238h-254l-31 -238h-405zM219 1696q0 72 24.5 121t67.5 79.5t102.5 45t129.5 14.5q63 0 121.5 -14.5t103.5 -46t71.5 -80.5t26.5 -119q0 -72 -25.5 -121t-69.5 -80t-103.5 -45t-124.5 -14q-66 0 -124.5 13t-103.5 44t-70.5 80 t-25.5 123zM449 1696q0 -49 25.5 -75t68.5 -26q41 0 67.5 26t26.5 75q0 100 -94 100q-53 0 -73.5 -27.5t-20.5 -72.5zM453 520h180l-25 213q-6 51 -17 142.5t-22 181.5q-12 104 -26 219q-14 -119 -27 -223q-6 -45 -11 -91.5t-11.5 -89.5t-10.5 -78.5t-6 -60.5z" />
<glyph unicode="&#xc6;" horiz-adv-x="1310" d="M-41 0l373 1434h958l-41 -306h-276v-247h256v-283h-256v-293h307v-305h-696v238h-174l-37 -238h-414zM453 520h131v754q-20 -119 -39 -225q-16 -92 -31.5 -181.5t-24.5 -134.5z" />
<glyph unicode="&#xc7;" horiz-adv-x="839" d="M51 707q0 170 26.5 292.5t69.5 205.5t99.5 132t118 75t121 34t110.5 8q57 0 101 -8t73 -19q35 -10 59 -24v-293q-29 12 -61 23q-29 8 -64.5 15t-76.5 7q-39 0 -73 -17.5t-59.5 -65.5t-40 -136t-14.5 -229q0 -131 11.5 -214t32 -129.5t50 -63.5t68.5 -17q37 0 76 8t74 18 q39 10 77 27v-301q-27 -12 -59 -21q-29 -10 -65.5 -18t-79.5 -12q35 -25 67.5 -66t32.5 -102q0 -68 -24.5 -112t-65.5 -68.5t-95.5 -35t-113.5 -10.5q-43 0 -83 6.5t-71 14.5q-37 8 -67 20v209q35 -12 65 -20q27 -8 53.5 -13.5t43.5 -5.5q33 0 50 9.5t17 42.5 q0 41 -20.5 81.5t-36.5 63.5q-63 16 -121.5 57t-104 122t-73 209t-27.5 321z" />
<glyph unicode="&#xc8;" horiz-adv-x="870" d="M0 1802h457l190 -266h-311zM82 0v1434h768l-41 -306h-338v-247h317v-283h-317v-293h369v-305h-758z" />
<glyph unicode="&#xc9;" horiz-adv-x="870" d="M82 0v1434h768l-41 -306h-338v-247h317v-283h-317v-293h369v-305h-758zM266 1536l191 266h456l-335 -266h-312z" />
<glyph unicode="&#xca;" horiz-adv-x="870" d="M31 1536l252 266h348l252 -266h-312l-104 117l-105 -117h-331zM82 0v1434h768l-41 -306h-338v-247h317v-283h-317v-293h369v-305h-758z" />
<glyph unicode="&#xcb;" horiz-adv-x="870" d="M20 1700q0 76 52.5 130t130.5 54t130 -54t52 -130t-52 -130t-130 -54t-130.5 54t-52.5 130zM82 0v1434h768l-41 -306h-338v-247h317v-283h-317v-293h369v-305h-758zM530 1700q0 76 52.5 130t130.5 54t130 -54t52 -130t-52 -130t-130 -54t-130.5 54t-52.5 130z" />
<glyph unicode="&#xcc;" horiz-adv-x="557" d="M-215 1802h457l190 -266h-311zM82 0v1434h393v-1434h-393z" />
<glyph unicode="&#xcd;" horiz-adv-x="557" d="M82 0v1434h393v-1434h-393zM113 1536l190 266h457l-336 -266h-311z" />
<glyph unicode="&#xce;" horiz-adv-x="557" d="M-147 1536l251 266h349l252 -266h-312l-104 117l-105 -117h-331zM82 0v1434h393v-1434h-393z" />
<glyph unicode="&#xcf;" horiz-adv-x="557" d="M-158 1700q0 76 52.5 130t130.5 54t130 -54t52 -130t-52.5 -130t-129.5 -54q-78 0 -130.5 54t-52.5 130zM82 0v1434h393v-1434h-393zM352 1700q0 76 52.5 130t130.5 54t130 -54t52 -130t-52.5 -130t-129.5 -54q-78 0 -130.5 54t-52.5 130z" />
<glyph unicode="&#xd0;" horiz-adv-x="1126" d="M0 618v222h113v594h403q70 0 139.5 -7.5t131 -31t114.5 -69.5t92 -126t60.5 -198.5t21.5 -284.5q0 -244 -45 -386.5t-122 -216t-178 -94t-214 -20.5h-403v618h-113zM502 295h26q45 0 76 12t49.5 55.5t26.5 127.5t8 227q0 139 -7 222t-25.5 128t-49.5 58.5t-76 13.5h-28 v-299h112v-222h-112v-323z" />
<glyph unicode="&#xd1;" horiz-adv-x="1126" d="M82 0v1434h344l115 -271q23 -53 50 -126.5t52 -141.5q29 -80 57 -162q-8 72 -16 146q-6 63 -10 138t-4 142v275h374v-1434h-319l-127 291q-25 55 -55.5 135t-57.5 152q-31 84 -61 174q8 -78 16 -158q6 -68 11.5 -145.5t5.5 -143.5v-305h-375zM215 1516v266 q47 29 101.5 43t97.5 14q49 0 97 -11t92 -23.5t84 -24t73 -11.5q29 0 69.5 13.5t81.5 38.5v-265q-41 -27 -88 -40t-82 -13q-43 0 -88 11.5t-90 25.5t-88 25.5t-84 11.5q-35 0 -82 -15.5t-94 -45.5z" />
<glyph unicode="&#xd2;" horiz-adv-x="1126" d="M51 717q0 166 21.5 284.5t59.5 200.5t88 132t107.5 77t118 35t117.5 8q59 0 120.5 -9t118 -37t106.5 -78t87 -132t58.5 -199.5t21.5 -281.5t-21.5 -283t-57 -200.5t-86 -131t-106.5 -77t-117.5 -36.5t-123.5 -9q-57 0 -117.5 8t-117 33.5t-107.5 74.5t-89 131t-59.5 202 t-21.5 288zM82 1802h457l190 -266h-311zM440 717q0 -152 7.5 -243t22.5 -139t38.5 -63.5t54.5 -15.5t53.5 13.5t38 60.5t23.5 138t8 249q0 141 -5 230t-18.5 140.5t-37 71t-62.5 19.5q-35 0 -57.5 -15.5t-37.5 -63.5t-21.5 -139.5t-6.5 -242.5z" />
<glyph unicode="&#xd3;" horiz-adv-x="1126" d="M51 717q0 166 21.5 284.5t59.5 200.5t88 132t107.5 77t118 35t117.5 8q59 0 120.5 -9t118 -37t106.5 -78t87 -132t58.5 -199.5t21.5 -281.5t-21.5 -283t-57 -200.5t-86 -131t-106.5 -77t-117.5 -36.5t-123.5 -9q-57 0 -117.5 8t-117 33.5t-107.5 74.5t-89 131t-59.5 202 t-21.5 288zM369 1536l190 266h457l-336 -266h-311zM440 717q0 -152 7.5 -243t22.5 -139t38.5 -63.5t54.5 -15.5t53.5 13.5t38 60.5t23.5 138t8 249q0 141 -5 230t-18.5 140.5t-37 71t-62.5 19.5q-35 0 -57.5 -15.5t-37.5 -63.5t-21.5 -139.5t-6.5 -242.5z" />
<glyph unicode="&#xd4;" horiz-adv-x="1126" d="M51 717q0 166 21.5 284.5t59.5 200.5t88 132t107.5 77t118 35t117.5 8q59 0 120.5 -9t118 -37t106.5 -78t87 -132t58.5 -199.5t21.5 -281.5t-21.5 -283t-57 -200.5t-86 -131t-106.5 -77t-117.5 -36.5t-123.5 -9q-57 0 -117.5 8t-117 33.5t-107.5 74.5t-89 131t-59.5 202 t-21.5 288zM137 1536l252 266h348l252 -266h-311l-105 117l-104 -117h-332zM440 717q0 -152 7.5 -243t22.5 -139t38.5 -63.5t54.5 -15.5t53.5 13.5t38 60.5t23.5 138t8 249q0 141 -5 230t-18.5 140.5t-37 71t-62.5 19.5q-35 0 -57.5 -15.5t-37.5 -63.5t-21.5 -139.5 t-6.5 -242.5z" />
<glyph unicode="&#xd5;" horiz-adv-x="1126" d="M51 717q0 166 21.5 284.5t59.5 200.5t88 132t107.5 77t118 35t117.5 8q59 0 120.5 -9t118 -37t106.5 -78t87 -132t58.5 -199.5t21.5 -281.5t-21.5 -283t-57 -200.5t-86 -131t-106.5 -77t-117.5 -36.5t-123.5 -9q-57 0 -117.5 8t-117 33.5t-107.5 74.5t-89 131t-59.5 202 t-21.5 288zM215 1516v266q47 29 101.5 43t97.5 14q49 0 97 -11t92 -23.5t84 -24t73 -11.5q29 0 69.5 13.5t81.5 38.5v-265q-41 -27 -88 -40t-82 -13q-43 0 -88 11.5t-90 25.5t-88 25.5t-84 11.5q-35 0 -82 -15.5t-94 -45.5zM440 717q0 -152 7.5 -243t22.5 -139t38.5 -63.5 t54.5 -15.5t53.5 13.5t38 60.5t23.5 138t8 249q0 141 -5 230t-18.5 140.5t-37 71t-62.5 19.5q-35 0 -57.5 -15.5t-37.5 -63.5t-21.5 -139.5t-6.5 -242.5z" />
<glyph unicode="&#xd6;" horiz-adv-x="1126" d="M51 717q0 166 21.5 284.5t59.5 200.5t88 132t107.5 77t118 35t117.5 8q59 0 120.5 -9t118 -37t106.5 -78t87 -132t58.5 -199.5t21.5 -281.5t-21.5 -283t-57 -200.5t-86 -131t-106.5 -77t-117.5 -36.5t-123.5 -9q-57 0 -117.5 8t-117 33.5t-107.5 74.5t-89 131t-59.5 202 t-21.5 288zM127 1700q0 76 52 130t130 54t130.5 -54t52.5 -130t-52.5 -130t-130.5 -54t-130 54t-52 130zM440 717q0 -152 7.5 -243t22.5 -139t38.5 -63.5t54.5 -15.5t53.5 13.5t38 60.5t23.5 138t8 249q0 141 -5 230t-18.5 140.5t-37 71t-62.5 19.5q-35 0 -57.5 -15.5 t-37.5 -63.5t-21.5 -139.5t-6.5 -242.5zM637 1700q0 76 52 130t130 54t130 -54t52 -130t-52 -130t-130 -54t-130 54t-52 130z" />
<glyph unicode="&#xd7;" horiz-adv-x="1138" d="M61 438l240 240l-233 233l276 277l234 -234l239 240l260 -260l-239 -240l233 -233l-276 -277l-234 234l-239 -240z" />
<glyph unicode="&#xd8;" horiz-adv-x="1126" d="M51 717q0 166 21.5 284.5t59.5 200.5t88 132t107.5 77t118 35t117.5 8q39 0 78 -4t80 -14l78 223h180l-105 -301q86 -72 143.5 -223.5t57.5 -417.5q0 -164 -21.5 -283t-59.5 -200.5t-89 -131t-107.5 -77t-116.5 -36.5t-118 -9q-39 0 -79 3t-81 13l-75 -221h-181l103 297 q-43 35 -80 89t-62.5 132t-41 182.5t-15.5 241.5zM440 639q0 -37 2 -70l199 572q-25 37 -78 37q-35 0 -57.5 -15.5t-37.5 -63.5t-21.5 -139.5t-6.5 -242.5v-78zM487 295q14 -23 34 -31t42 -8q31 0 53.5 13.5t38 60.5t23.5 138t8 249v79t-2 70z" />
<glyph unicode="&#xd9;" horiz-adv-x="1118" d="M82 430v1004h389v-1063q0 -61 23.5 -81t64.5 -20q39 0 63.5 20.5t24.5 80.5v1063h389v-1004q0 -125 -31.5 -211t-93 -139t-150.5 -76.5t-202 -23.5q-119 0 -208 22.5t-149.5 75.5t-90 139t-29.5 213zM82 1802h457l190 -266h-311z" />
<glyph unicode="&#xda;" horiz-adv-x="1118" d="M82 430v1004h389v-1063q0 -61 23.5 -81t64.5 -20q39 0 63.5 20.5t24.5 80.5v1063h389v-1004q0 -125 -31.5 -211t-93 -139t-150.5 -76.5t-202 -23.5q-119 0 -208 22.5t-149.5 75.5t-90 139t-29.5 213zM377 1536l190 266h457l-336 -266h-311z" />
<glyph unicode="&#xdb;" horiz-adv-x="1118" d="M82 430v1004h389v-1063q0 -61 23.5 -81t64.5 -20q39 0 63.5 20.5t24.5 80.5v1063h389v-1004q0 -125 -31.5 -211t-93 -139t-150.5 -76.5t-202 -23.5q-119 0 -208 22.5t-149.5 75.5t-90 139t-29.5 213zM133 1536l252 266h348l252 -266h-311l-105 117l-104 -117h-332z" />
<glyph unicode="&#xdc;" horiz-adv-x="1118" d="M82 430v1004h389v-1063q0 -61 23.5 -81t64.5 -20q39 0 63.5 20.5t24.5 80.5v1063h389v-1004q0 -125 -31.5 -211t-93 -139t-150.5 -76.5t-202 -23.5q-119 0 -208 22.5t-149.5 75.5t-90 139t-29.5 213zM123 1700q0 76 52 130t130 54t130 -54t52 -130t-52 -130t-130 -54 t-130 54t-52 130zM633 1700q0 76 52 130t130 54t130 -54t52 -130t-52 -130t-130 -54t-130 54t-52 130z" />
<glyph unicode="&#xdd;" d="M-31 1434h424l119 -574l119 574h424l-348 -895v-539h-390v539zM342 1536l190 266h457l-336 -266h-311z" />
<glyph unicode="&#xde;" horiz-adv-x="1009" d="M82 0v1434h389v-205h14q125 0 220.5 -22.5t158 -78t94 -151t31.5 -240.5q0 -147 -34.5 -244.5t-100.5 -157t-162 -86t-221 -30.5v-219h-389zM471 463q43 8 70.5 23.5t43 46t20.5 79.5t5 125q0 129 -21.5 179.5t-80.5 50.5h-37v-504z" />
<glyph unicode="&#xdf;" horiz-adv-x="1167" d="M82 0v1075q0 119 32.5 200t94 130t148.5 69.5t196 20.5q98 0 177 -19.5t136.5 -59.5t88 -101.5t30.5 -145.5q0 -94 -25.5 -147t-54.5 -88q-23 -29 -42 -58.5t-19 -64.5q0 -31 21.5 -57.5t56.5 -51.5l55 -40q25 -18 51.5 -46t48 -69t35.5 -97.5t14 -136.5 q0 -98 -26.5 -162.5t-70.5 -102.5t-100.5 -53t-117.5 -15q-47 0 -93 4t-83 8q-43 6 -84 14v287q25 -4 47 -8q20 -4 42 -6.5t38 -2.5q29 0 46 16.5t17 61.5q0 35 -18 60.5t-41 50.5l-49 53q-35 37 -61.5 93.5t-26.5 148.5q0 55 15 109.5t38 99.5q16 35 28.5 74.5t12.5 95.5 q0 82 -84 82q-41 0 -62.5 -28t-21.5 -77v-1116h-389z" />
<glyph unicode="&#xe0;" horiz-adv-x="1013" d="M41 330q0 131 46 205.5t111.5 112.5t140.5 48.5t130 10.5h74v43q0 37 -19.5 52t-72.5 15q-41 0 -91.5 -8t-97.5 -18q-53 -12 -108 -27v278q53 16 118 31q55 12 127 22.5t154 10.5t151.5 -14.5t121 -51t79 -101.5t27.5 -165v-774h-322l-61 76q-20 -27 -49 -49 q-25 -18 -64 -32.5t-92 -14.5q-43 0 -95 9t-98.5 45t-78 105.5t-31.5 190.5zM41 1597h446l201 -327h-311zM416 352q0 -72 17.5 -102.5t58.5 -30.5q18 0 34 6q8 2 17 6v291l-33 -2q-29 -2 -46.5 -10t-28.5 -26.5t-15 -50.5t-4 -81z" />
<glyph unicode="&#xe1;" horiz-adv-x="1013" d="M41 330q0 131 46 205.5t111.5 112.5t140.5 48.5t130 10.5h74v43q0 37 -19.5 52t-72.5 15q-41 0 -91.5 -8t-97.5 -18q-53 -12 -108 -27v278q53 16 118 31q55 12 127 22.5t154 10.5t151.5 -14.5t121 -51t79 -101.5t27.5 -165v-774h-322l-61 76q-20 -27 -49 -49 q-25 -18 -64 -32.5t-92 -14.5q-43 0 -95 9t-98.5 45t-78 105.5t-31.5 190.5zM348 1270l201 327h446l-336 -327h-311zM416 352q0 -72 17.5 -102.5t58.5 -30.5q18 0 34 6q8 2 17 6v291l-33 -2q-29 -2 -46.5 -10t-28.5 -26.5t-15 -50.5t-4 -81z" />
<glyph unicode="&#xe2;" horiz-adv-x="1013" d="M41 330q0 131 46 205.5t111.5 112.5t140.5 48.5t130 10.5h74v43q0 37 -19.5 52t-72.5 15q-41 0 -91.5 -8t-97.5 -18q-53 -12 -108 -27v278q53 16 118 31q55 12 127 22.5t154 10.5t151.5 -14.5t121 -51t79 -101.5t27.5 -165v-774h-322l-61 76q-20 -27 -49 -49 q-25 -18 -64 -32.5t-92 -14.5q-43 0 -95 9t-98.5 45t-78 105.5t-31.5 190.5zM82 1270l262 327h328l262 -327h-311l-105 147l-104 -147h-332zM416 352q0 -72 17.5 -102.5t58.5 -30.5q18 0 34 6q8 2 17 6v291l-33 -2q-29 -2 -46.5 -10t-28.5 -26.5t-15 -50.5t-4 -81z" />
<glyph unicode="&#xe3;" horiz-adv-x="1013" d="M41 330q0 131 46 205.5t111.5 112.5t140.5 48.5t130 10.5h74v43q0 37 -19.5 52t-72.5 15q-41 0 -91.5 -8t-97.5 -18q-53 -12 -108 -27v278q53 16 118 31q55 12 127 22.5t154 10.5t151.5 -14.5t121 -51t79 -101.5t27.5 -165v-774h-322l-61 76q-20 -27 -49 -49 q-25 -18 -64 -32.5t-92 -14.5q-43 0 -95 9t-98.5 45t-78 105.5t-31.5 190.5zM160 1270v266q47 29 101 43t97 14q63 0 109.5 -14t84.5 -30.5t74 -31t79 -14.5q29 0 69.5 13.5t81.5 37.5v-264q-41 -27 -88 -40t-82 -13q-55 0 -96 14.5t-80 33t-79 32.5t-95 14q-35 0 -82 -15.5 t-94 -45.5zM416 352q0 -72 17.5 -102.5t58.5 -30.5q18 0 34 6q8 2 17 6v291l-33 -2q-29 -2 -46.5 -10t-28.5 -26.5t-15 -50.5t-4 -81z" />
<glyph unicode="&#xe4;" horiz-adv-x="1013" d="M41 330q0 131 46 205.5t111.5 112.5t140.5 48.5t130 10.5h74v43q0 37 -19.5 52t-72.5 15q-41 0 -91.5 -8t-97.5 -18q-53 -12 -108 -27v278q53 16 118 31q55 12 127 22.5t154 10.5t151.5 -14.5t121 -51t79 -101.5t27.5 -165v-774h-322l-61 76q-20 -27 -49 -49 q-25 -18 -64 -32.5t-92 -14.5q-43 0 -95 9t-98.5 45t-78 105.5t-31.5 190.5zM70 1413q0 76 52 130t130 54t130 -54t52 -130t-52 -130t-130 -54t-130 54t-52 130zM416 352q0 -72 17.5 -102.5t58.5 -30.5q18 0 34 6q8 2 17 6v291l-33 -2q-29 -2 -46.5 -10t-28.5 -26.5 t-15 -50.5t-4 -81zM580 1413q0 76 52 130t130 54t130 -54t52 -130t-52 -130t-130 -54t-130 54t-52 130z" />
<glyph unicode="&#xe5;" horiz-adv-x="1013" d="M41 330q0 131 46 205.5t111.5 112.5t140.5 48.5t130 10.5h74v43q0 37 -19.5 52t-72.5 15q-41 0 -91.5 -8t-97.5 -18q-53 -12 -108 -27v278q53 16 118 31q55 12 127 22.5t154 10.5t151.5 -14.5t121 -51t79 -101.5t27.5 -165v-774h-322l-61 76q-20 -27 -49 -49 q-25 -18 -64 -32.5t-92 -14.5q-43 0 -95 9t-98.5 45t-78 105.5t-31.5 190.5zM190 1399q0 72 24 123t66 83.5t100 48t128 15.5q63 0 120.5 -16.5t101.5 -49t69.5 -83.5t25.5 -121q0 -72 -24.5 -123t-67.5 -84t-101.5 -48.5t-123.5 -15.5q-66 0 -123 15.5t-100 47.5t-69 83 t-26 125zM416 352q0 -72 17.5 -102.5t58.5 -30.5q18 0 34 6q8 2 17 6v291l-33 -2q-29 -2 -46.5 -10t-28.5 -26.5t-15 -50.5t-4 -81zM420 1399q0 -49 22.5 -78t65.5 -29q41 0 64.5 29t23.5 78t-20.5 77.5t-67.5 28.5q-53 0 -70.5 -30.5t-17.5 -75.5z" />
<glyph unicode="&#xe6;" horiz-adv-x="1497" d="M41 330q0 131 46 205.5t111.5 112.5t140.5 48.5t130 10.5h74v43q0 37 -19.5 52t-72.5 15q-41 0 -91.5 -8t-97.5 -18q-53 -12 -108 -27v278q53 16 116 31q53 12 125 22.5t154 10.5q76 0 140.5 -21.5t101.5 -62.5q43 39 102 61.5t139 22.5q90 0 168 -26.5t134.5 -92 t89 -174t32.5 -270.5v-129h-526q0 -47 10 -74t30.5 -42t48.5 -19.5t64 -4.5q43 0 98.5 6.5t104.5 14.5q57 8 115 22v-282q-45 -16 -98 -29q-45 -10 -102.5 -18t-117.5 -8q-61 0 -117.5 5t-106.5 21.5t-94 45t-79 77.5q-51 -68 -135 -108.5t-166 -40.5q-43 0 -101.5 8 t-112.5 43t-92 105.5t-38 193.5zM416 352q0 -72 18.5 -102.5t50.5 -30.5q18 0 29.5 9.5t18 21.5t8.5 24.5t2 18.5v229l-33 -2q-29 -2 -46.5 -10t-28.5 -26.5t-15 -50.5t-4 -81zM930 625h164v92t-6.5 79.5t-21.5 56t-44 21.5q-37 0 -55.5 -20t-26.5 -55t-8 -80t-2 -94z" />
<glyph unicode="&#xe7;" horiz-adv-x="768" d="M51 537q0 137 27.5 233t73 159.5t100.5 99.5t110.5 52.5t105.5 20.5t81 4q37 0 72.5 -6t64.5 -13q33 -8 62 -18v-289q-29 6 -60 15q-27 6 -56.5 11t-56.5 5t-51 -10t-42.5 -40t-30 -83t-11.5 -141q0 -145 30 -200.5t89 -55.5q33 0 65.5 5t61.5 11q33 8 62 16v-297 q-20 -6 -43 -12q-20 -4 -47 -10t-56 -10q35 -25 69 -66t34 -102q0 -68 -25 -112t-66 -68.5t-95 -35t-113 -10.5q-43 0 -83 6.5t-71 14.5q-37 8 -68 20v209q35 -12 66 -20q27 -8 53.5 -13.5t42.5 -5.5q33 0 50.5 9.5t17.5 42.5q0 41 -19.5 78.5t-36.5 62.5q-55 12 -110 44 t-99.5 94.5t-71 160.5t-26.5 244z" />
<glyph unicode="&#xe8;" horiz-adv-x="1005" d="M41 1597h446l201 -327h-311zM51 539q0 172 40 282.5t107.5 173t153.5 87t178 24.5q94 0 174 -26.5t137.5 -92t90.5 -174t33 -270.5v-129h-527q0 -88 41 -114t113 -26q43 0 98 6.5t105 14.5q57 8 114 22v-282q-45 -16 -98 -29q-45 -10 -102.5 -18t-116.5 -8 q-92 0 -187.5 14t-174 70.5t-129 168t-50.5 306.5zM438 625h164v92t-6 79.5t-21.5 56t-44.5 21.5q-37 0 -55 -20t-26.5 -55t-8.5 -80t-2 -94z" />
<glyph unicode="&#xe9;" horiz-adv-x="1005" d="M51 539q0 172 40 282.5t107.5 173t153.5 87t178 24.5q94 0 174 -26.5t137.5 -92t90.5 -174t33 -270.5v-129h-527q0 -88 41 -114t113 -26q43 0 98 6.5t105 14.5q57 8 114 22v-282q-45 -16 -98 -29q-45 -10 -102.5 -18t-116.5 -8q-92 0 -187.5 14t-174 70.5t-129 168 t-50.5 306.5zM348 1270l201 327h446l-336 -327h-311zM438 625h164v92t-6 79.5t-21.5 56t-44.5 21.5q-37 0 -55 -20t-26.5 -55t-8.5 -80t-2 -94z" />
<glyph unicode="&#xea;" horiz-adv-x="1005" d="M51 539q0 172 40 282.5t107.5 173t153.5 87t178 24.5q94 0 174 -26.5t137.5 -92t90.5 -174t33 -270.5v-129h-527q0 -88 41 -114t113 -26q43 0 98 6.5t105 14.5q57 8 114 22v-282q-45 -16 -98 -29q-45 -10 -102.5 -18t-116.5 -8q-92 0 -187.5 14t-174 70.5t-129 168 t-50.5 306.5zM82 1270l262 327h328l262 -327h-311l-105 147l-104 -147h-332zM438 625h164v92t-6 79.5t-21.5 56t-44.5 21.5q-37 0 -55 -20t-26.5 -55t-8.5 -80t-2 -94z" />
<glyph unicode="&#xeb;" horiz-adv-x="1005" d="M51 539q0 172 40 282.5t107.5 173t153.5 87t178 24.5q94 0 174 -26.5t137.5 -92t90.5 -174t33 -270.5v-129h-527q0 -88 41 -114t113 -26q43 0 98 6.5t105 14.5q57 8 114 22v-282q-45 -16 -98 -29q-45 -10 -102.5 -18t-116.5 -8q-92 0 -187.5 14t-174 70.5t-129 168 t-50.5 306.5zM66 1413q0 76 52 130t130 54t130 -54t52 -130t-52 -130t-130 -54t-130 54t-52 130zM438 625h164v92t-6 79.5t-21.5 56t-44.5 21.5q-37 0 -55 -20t-26.5 -55t-8.5 -80t-2 -94zM575 1413q0 76 52.5 130t130.5 54t130 -54t52 -130t-52 -130t-130 -54t-130.5 54 t-52.5 130z" />
<glyph unicode="&#xec;" horiz-adv-x="552" d="M-223 1597h446l201 -327h-311zM82 0v1085h389v-1085h-389z" />
<glyph unicode="&#xed;" horiz-adv-x="552" d="M82 0v1085h389v-1085h-389zM117 1270l200 327h447l-336 -327h-311z" />
<glyph unicode="&#xee;" horiz-adv-x="552" d="M-150 1270l263 327h327l262 -327h-311l-104 147l-105 -147h-332zM82 0v1085h389v-1085h-389z" />
<glyph unicode="&#xef;" horiz-adv-x="552" d="M-160 1413q0 76 52.5 130t130.5 54t130 -54t52 -130t-52.5 -130t-129.5 -54q-78 0 -130.5 54t-52.5 130zM82 0v1085h389v-1085h-389zM350 1413q0 76 52.5 130t129.5 54q78 0 130.5 -54t52.5 -130t-52.5 -130t-130.5 -54t-130 54t-52 130z" />
<glyph unicode="&#xf0;" horiz-adv-x="1075" d="M41 475q0 154 42 248t102.5 145.5t127 67.5t117.5 16q53 0 91 -10t63 -22q27 -14 45 -33q-12 127 -82 203l-271 -127v188l84 39q-47 12 -100 17t-113 5v263q348 0 553 -127l263 122v-188l-119 -55q94 -111 137 -268.5t43 -364.5q0 -193 -40 -312.5t-108.5 -187t-163 -91 t-200.5 -23.5q-84 0 -168 17t-151.5 69.5t-109.5 150.5t-42 258zM430 477q0 -68 5 -113t17.5 -71.5t32 -37.5t47.5 -11q33 0 54.5 14t33 49t14.5 94.5t1 151.5l-2 115q-12 4 -31 8q-16 4 -36.5 7t-47.5 3q-55 0 -71.5 -52t-16.5 -157z" />
<glyph unicode="&#xf1;" horiz-adv-x="1095" d="M82 0v1085h311l72 -79q35 27 80 49q39 18 91 34.5t118 16.5q139 0 204.5 -75t65.5 -228v-803h-389v709q0 41 -11.5 53t-41.5 12q-16 0 -36 -5l-36 -9q-20 -8 -39 -15v-745h-389zM201 1270v266q47 29 101 43t97 14q63 0 109.5 -14t84.5 -30.5t73.5 -31t78.5 -14.5 q29 0 70 13.5t82 37.5v-264q-41 -27 -88 -40t-82 -13q-55 0 -96 14.5t-80 33t-79 32.5t-95 14q-35 0 -82 -15.5t-94 -45.5z" />
<glyph unicode="&#xf2;" horiz-adv-x="1093" d="M51 543q0 168 38 276.5t105.5 172t157.5 89t195 25.5q98 0 187 -22.5t158 -85t109.5 -172t40.5 -283.5q0 -176 -40.5 -286t-109.5 -171t-158 -83.5t-187 -22.5q-100 0 -190.5 22.5t-158 85t-107.5 172t-40 283.5zM82 1597h446l201 -327h-311zM440 543q0 -90 7.5 -147.5 t21.5 -90.5t33.5 -44t44.5 -11t44 10t32.5 42t21.5 89.5t8 151.5q0 96 -5 154.5t-17.5 89t-32.5 41t-51 10.5q-29 0 -49.5 -9.5t-32.5 -40t-18.5 -89t-6.5 -156.5z" />
<glyph unicode="&#xf3;" horiz-adv-x="1093" d="M51 543q0 168 38 276.5t105.5 172t157.5 89t195 25.5q98 0 187 -22.5t158 -85t109.5 -172t40.5 -283.5q0 -176 -40.5 -286t-109.5 -171t-158 -83.5t-187 -22.5q-100 0 -190.5 22.5t-158 85t-107.5 172t-40 283.5zM369 1270l200 327h447l-336 -327h-311zM440 543 q0 -90 7.5 -147.5t21.5 -90.5t33.5 -44t44.5 -11t44 10t32.5 42t21.5 89.5t8 151.5q0 96 -5 154.5t-17.5 89t-32.5 41t-51 10.5q-29 0 -49.5 -9.5t-32.5 -40t-18.5 -89t-6.5 -156.5z" />
<glyph unicode="&#xf4;" horiz-adv-x="1093" d="M51 543q0 168 38 276.5t105.5 172t157.5 89t195 25.5q98 0 187 -22.5t158 -85t109.5 -172t40.5 -283.5q0 -176 -40.5 -286t-109.5 -171t-158 -83.5t-187 -22.5q-100 0 -190.5 22.5t-158 85t-107.5 172t-40 283.5zM121 1270l262 327h328l262 -327h-311l-105 147l-104 -147 h-332zM440 543q0 -90 7.5 -147.5t21.5 -90.5t33.5 -44t44.5 -11t44 10t32.5 42t21.5 89.5t8 151.5q0 96 -5 154.5t-17.5 89t-32.5 41t-51 10.5q-29 0 -49.5 -9.5t-32.5 -40t-18.5 -89t-6.5 -156.5z" />
<glyph unicode="&#xf5;" horiz-adv-x="1093" d="M51 543q0 168 38 276.5t105.5 172t157.5 89t195 25.5q98 0 187 -22.5t158 -85t109.5 -172t40.5 -283.5q0 -176 -40.5 -286t-109.5 -171t-158 -83.5t-187 -22.5q-100 0 -190.5 22.5t-158 85t-107.5 172t-40 283.5zM199 1270v266q47 29 101 43t97 14q63 0 109.5 -14 t84.5 -30.5t73.5 -31t78.5 -14.5q29 0 70 13.5t82 37.5v-264q-41 -27 -88 -40t-82 -13q-55 0 -96 14.5t-80 33t-79 32.5t-95 14q-35 0 -82 -15.5t-94 -45.5zM440 543q0 -90 7.5 -147.5t21.5 -90.5t33.5 -44t44.5 -11t44 10t32.5 42t21.5 89.5t8 151.5q0 96 -5 154.5 t-17.5 89t-32.5 41t-51 10.5q-29 0 -49.5 -9.5t-32.5 -40t-18.5 -89t-6.5 -156.5z" />
<glyph unicode="&#xf6;" horiz-adv-x="1093" d="M51 543q0 168 38 276.5t105.5 172t157.5 89t195 25.5q98 0 187 -22.5t158 -85t109.5 -172t40.5 -283.5q0 -176 -40.5 -286t-109.5 -171t-158 -83.5t-187 -22.5q-100 0 -190.5 22.5t-158 85t-107.5 172t-40 283.5zM111 1413q0 76 52 130t130 54t130 -54t52 -130t-52 -130 t-130 -54t-130 54t-52 130zM440 543q0 -90 7.5 -147.5t21.5 -90.5t33.5 -44t44.5 -11t44 10t32.5 42t21.5 89.5t8 151.5q0 96 -5 154.5t-17.5 89t-32.5 41t-51 10.5q-29 0 -49.5 -9.5t-32.5 -40t-18.5 -89t-6.5 -156.5zM621 1413q0 76 52 130t130 54t130 -54t52 -130 t-52 -130t-130 -54t-130 54t-52 130z" />
<glyph unicode="&#xf7;" horiz-adv-x="1087" d="M61 526v320h965v-320h-965zM338 190q0 43 16.5 81t44 67t65.5 45t81 16q45 0 82 -16t64.5 -45t43 -67t15.5 -81t-15.5 -80.5t-43 -66.5t-64.5 -46t-82 -17t-83 17t-65.5 46t-43 66.5t-15.5 80.5zM338 1184q0 43 16.5 81t44 66.5t65.5 45t81 16.5q45 0 82 -16.5t64.5 -45 t43 -66.5t15.5 -81t-15.5 -81t-43 -66.5t-64.5 -46t-82 -17.5t-83 17.5t-65.5 46t-43 66.5t-15.5 81z" />
<glyph unicode="&#xf8;" horiz-adv-x="1093" d="M51 543q0 168 40 276.5t108.5 172t159 89t188.5 25.5q35 0 67.5 -2t65.5 -8l86 215h180l-108 -271q92 -55 148 -172.5t56 -324.5q0 -176 -40.5 -286t-109.5 -171t-158 -83.5t-187 -22.5q-35 0 -68 2t-65 8l-86 -215h-181l109 270q-92 55 -148.5 173t-56.5 325zM440 497.5 q0 -20.5 2 -40.5l152 374q-18 6 -47 7q-29 0 -49.5 -9.5t-32.5 -40t-18.5 -89t-6.5 -156.5v-45.5zM504 262q18 -12 43 -12t44 10t32.5 42t21.5 89.5t8 151.5q0 25 -1 46t-1 42z" />
<glyph unicode="&#xf9;" horiz-adv-x="1075" d="M41 1597h446l201 -327h-311zM72 338v747h389v-686q0 -53 13 -72.5t42 -19.5q31 0 59 15q14 6 29 14v749h389v-1085h-323l-54 74q-27 -27 -61 -47q-31 -18 -74 -32.5t-102 -14.5q-57 0 -112.5 12t-98.5 51t-69.5 109.5t-26.5 185.5z" />
<glyph unicode="&#xfa;" horiz-adv-x="1075" d="M72 338v747h389v-686q0 -53 13 -72.5t42 -19.5q31 0 59 15q14 6 29 14v749h389v-1085h-323l-54 74q-27 -27 -61 -47q-31 -18 -74 -32.5t-102 -14.5q-57 0 -112.5 12t-98.5 51t-69.5 109.5t-26.5 185.5zM369 1270l200 327h447l-336 -327h-311z" />
<glyph unicode="&#xfb;" horiz-adv-x="1075" d="M72 338v747h389v-686q0 -53 13 -72.5t42 -19.5q31 0 59 15q14 6 29 14v749h389v-1085h-323l-54 74q-27 -27 -61 -47q-31 -18 -74 -32.5t-102 -14.5q-57 0 -112.5 12t-98.5 51t-69.5 109.5t-26.5 185.5zM113 1270l262 327h327l263 -327h-312l-104 147l-105 -147h-331z" />
<glyph unicode="&#xfc;" horiz-adv-x="1075" d="M72 338v747h389v-686q0 -53 13 -72.5t42 -19.5q31 0 59 15q14 6 29 14v749h389v-1085h-323l-54 74q-27 -27 -61 -47q-31 -18 -74 -32.5t-102 -14.5q-57 0 -112.5 12t-98.5 51t-69.5 109.5t-26.5 185.5zM100 1413q0 76 52.5 130t130.5 54t130 -54t52 -130t-52.5 -130 t-129.5 -54q-78 0 -130.5 54t-52.5 130zM610 1413q0 76 52.5 130t130.5 54t130 -54t52 -130t-52.5 -130t-129.5 -54q-78 0 -130.5 54t-52.5 130z" />
<glyph unicode="&#xfd;" horiz-adv-x="993" d="M-20 1085h423l121 -739l82 739h408l-307 -1159q-27 -98 -63 -162.5t-83 -102.5t-105.5 -54.5t-127.5 -16.5q-53 0 -104.5 5.5t-94.5 13.5q-51 8 -96 18v289q45 -10 88 -18q37 -6 77 -11.5t68 -5.5q76 0 92 78l9 37zM328 1270l200 327h447l-336 -327h-311z" />
<glyph unicode="&#xfe;" horiz-adv-x="1085" d="M82 -389v1864h389v-449q23 20 55 39q29 16 68 28.5t92 12.5q59 0 121.5 -15.5t113 -71.5t82 -166.5t31.5 -303.5q0 -141 -21.5 -237.5t-56 -160t-80 -98.5t-92.5 -51t-91 -19t-79 -3q-29 0 -53 5t-45 11q-23 8 -45 16v-401h-389zM471 266q12 -4 23 -8q18 -6 43 -6t45 12 t34.5 46t21.5 91.5t7 147.5q0 92 -4 145.5t-13.5 81t-24.5 35.5t-40 8q-14 0 -29.5 -5t-29.5 -11q-16 -8 -33 -17v-520z" />
<glyph unicode="&#xff;" horiz-adv-x="993" d="M-20 1085h423l121 -739l82 739h408l-307 -1159q-27 -98 -63 -162.5t-83 -102.5t-105.5 -54.5t-127.5 -16.5q-53 0 -104.5 5.5t-94.5 13.5q-51 8 -96 18v289q45 -10 88 -18q37 -6 77 -11.5t68 -5.5q76 0 92 78l9 37zM59 1413q0 76 52.5 130t130.5 54t130 -54t52 -130 t-52.5 -130t-129.5 -54q-78 0 -130.5 54t-52.5 130zM569 1413q0 76 52.5 130t130.5 54t130 -54t52 -130t-52.5 -130t-129.5 -54q-78 0 -130.5 54t-52.5 130z" />
<glyph unicode="&#x152;" horiz-adv-x="1331" d="M51 717q0 166 21.5 284.5t59.5 200.5t88 132t107.5 77t118 35t117.5 8q20 0 42 -3t40 -7l41 -10h625l-41 -306h-277v-247h256v-283h-256v-293h307v-305h-610q-20 -6 -43 -10q-41 -10 -84 -10q-57 0 -117.5 8t-117 33.5t-107.5 74.5t-89 131t-59.5 202t-21.5 288zM440 717 q0 -152 7.5 -243t22.5 -139t38.5 -63.5t54.5 -15.5h12.5t14.5 2q8 0 14 2v914q-6 0 -14 2q-6 0 -13.5 1t-13.5 1q-35 0 -57.5 -15.5t-37.5 -63.5t-21.5 -139.5t-6.5 -242.5z" />
<glyph unicode="&#x153;" horiz-adv-x="1607" d="M51 543q0 168 40 276.5t108.5 172t159 89t188.5 25.5q84 0 166 -20.5t135 -71.5q51 53 129 72.5t156 19.5q94 0 173.5 -26.5t137 -92t90.5 -174t33 -270.5v-129h-527q0 -47 10.5 -74t31 -42t48 -19.5t64.5 -4.5q43 0 98.5 6.5t104.5 14.5q57 8 114 22v-282 q-45 -16 -98 -29q-45 -10 -102.5 -18t-116.5 -8q-92 0 -184 16t-164 76q-61 -53 -139 -72.5t-160 -19.5q-100 0 -190.5 22.5t-158 85t-107.5 172t-40 283.5zM440 543q0 -90 7.5 -147.5t21.5 -90.5t33.5 -44t44.5 -11t44 10t32.5 42t21.5 89.5t8 151.5q0 96 -4 154.5t-16 89 t-32.5 41t-53.5 10.5q-29 0 -49.5 -9.5t-32.5 -40t-18.5 -89t-6.5 -156.5zM1040 625h164v92t-6 79.5t-21.5 56t-43.5 21.5q-37 0 -55.5 -20t-27 -55t-8.5 -80t-2 -94z" />
<glyph unicode="&#x178;" d="M-31 1434h424l119 -574l119 574h424l-348 -895v-539h-390v539zM76 1700q0 76 52 130t130 54t130 -54t52 -130t-52 -130t-130 -54t-130 54t-52 130zM586 1700q0 76 52 130t130 54t130 -54t52 -130t-52 -130t-130 -54t-130 54t-52 130z" />
<glyph unicode="&#x2c6;" horiz-adv-x="892" d="M20 1270l263 327h327l262 -327h-311l-104 147l-105 -147h-332z" />
<glyph unicode="&#x2dc;" horiz-adv-x="737" d="M20 1270v266q47 29 101.5 43t97.5 14q63 0 109.5 -14t84.5 -30.5t73.5 -31t78.5 -14.5q29 0 70 13.5t82 37.5v-264q-41 -27 -88 -40t-82 -13q-55 0 -96 14.5t-80 33t-79 32.5t-95 14q-35 0 -82 -15.5t-95 -45.5z" />
<glyph unicode="&#x2000;" horiz-adv-x="978" />
<glyph unicode="&#x2001;" horiz-adv-x="1956" />
<glyph unicode="&#x2002;" horiz-adv-x="978" />
<glyph unicode="&#x2003;" horiz-adv-x="1956" />
<glyph unicode="&#x2004;" horiz-adv-x="652" />
<glyph unicode="&#x2005;" horiz-adv-x="489" />
<glyph unicode="&#x2006;" horiz-adv-x="326" />
<glyph unicode="&#x2007;" horiz-adv-x="326" />
<glyph unicode="&#x2008;" horiz-adv-x="244" />
<glyph unicode="&#x2009;" horiz-adv-x="391" />
<glyph unicode="&#x200a;" horiz-adv-x="108" />
<glyph unicode="&#x2010;" horiz-adv-x="901" d="M61 492v319h779v-319h-779z" />
<glyph unicode="&#x2011;" horiz-adv-x="901" d="M61 492v319h779v-319h-779z" />
<glyph unicode="&#x2012;" horiz-adv-x="901" d="M61 492v319h779v-319h-779z" />
<glyph unicode="&#x2013;" horiz-adv-x="1105" d="M61 492v319h983v-319h-983z" />
<glyph unicode="&#x2014;" horiz-adv-x="1310" d="M61 492v319h1188v-319h-1188z" />
<glyph unicode="&#x2018;" horiz-adv-x="583" d="M41 829l195 687h245l-22 -687h-418z" />
<glyph unicode="&#x2019;" horiz-adv-x="583" d="M102 829l23 687h418l-195 -687h-246z" />
<glyph unicode="&#x201a;" horiz-adv-x="583" d="M102 -369l23 686h418l-195 -686h-246z" />
<glyph unicode="&#x201c;" horiz-adv-x="1062" d="M41 829l195 687h245l-22 -687h-418zM520 829l195 687h246l-23 -687h-418z" />
<glyph unicode="&#x201d;" horiz-adv-x="1062" d="M102 829l23 687h418l-195 -687h-246zM582 829l22 687h418l-195 -687h-245z" />
<glyph unicode="&#x201e;" horiz-adv-x="1062" d="M102 -369l23 686h418l-195 -686h-246zM582 -369l22 686h418l-195 -686h-245z" />
<glyph unicode="&#x2022;" horiz-adv-x="718" d="M82 774q0 61 21.5 112.5t59.5 88.5t88 57.5t109 20.5t110.5 -21.5t88.5 -58.5t57.5 -88.5t20.5 -110.5t-20.5 -110.5t-57.5 -89t-87 -59t-112 -21.5q-59 0 -110 21.5t-88 58t-58.5 88t-21.5 112.5z" />
<glyph unicode="&#x2026;" horiz-adv-x="1705" d="M82 160q0 45 16.5 85t46 69.5t68.5 47t86 17.5t86 -17.5t67.5 -47t45 -69.5t16.5 -85q0 -43 -16.5 -83t-45 -71t-67.5 -49t-86 -18t-87 17t-68.5 48t-45 71t-16.5 85zM637 160q0 45 16.5 85t46 69.5t68.5 47t86 17.5t86 -17.5t67.5 -47t45 -69.5t16.5 -85 q0 -43 -16.5 -83t-45 -71t-67.5 -49t-86 -18t-87 17t-68.5 48t-45 71t-16.5 85zM1192 160q0 45 16.5 85t46 69.5t68.5 47t86 17.5t86 -17.5t67.5 -47t45 -69.5t16.5 -85q0 -43 -16.5 -83t-45 -71t-67.5 -49t-86 -18t-87 17t-68.5 48t-45 71t-16.5 85z" />
<glyph unicode="&#x202f;" horiz-adv-x="391" />
<glyph unicode="&#x2039;" horiz-adv-x="573" d="M41 563v246l471 491v-469l-176 -141l176 -149v-469z" />
<glyph unicode="&#x203a;" horiz-adv-x="573" d="M61 72v469l177 149l-177 141v469l471 -491v-246z" />
<glyph unicode="&#x205f;" horiz-adv-x="489" />
<glyph unicode="&#x2122;" horiz-adv-x="1566" d="M0 1186v248h887l172 -304l160 304h254l32 -861h-301l-2 414l-143 -252l-148 244l-6 -406h-305l31 613h-148v-613h-305v613h-178z" />
<glyph unicode="&#xe000;" horiz-adv-x="1085" d="M0 0v1085h1085v-1085h-1085z" />
</font>
</defs>
</svg>
