<?xml version="1.0" encoding="utf-8"?>
<!-- Generator: Adobe Illustrator 18.0.0, SVG Export Plug-In . SVG Version: 6.00 Build 0)  -->
<!DOCTYPE svg PUBLIC "-//W3C//DTD SVG 1.1//EN" "http://www.w3.org/Graphics/SVG/1.1/DTD/svg11.dtd">
<svg version="1.1" id="Layer_1" xmlns="http://www.w3.org/2000/svg" xmlns:xlink="http://www.w3.org/1999/xlink" x="0px" y="0px"
	 viewBox="0 0 144.7 32.3" enable-background="new 0 0 144.7 32.3" xml:space="preserve">
<path fill="#ADADAD" d="M88.4,25.7c0-6.4,0-12.8,0-19.2c0.1,0,0.2,0,0.3,0c3.8,0,7.5,0,11.3,0c3.1,0,5.5,2.8,5.3,5.8
	c-0.1,1.4-0.5,2.6-1.7,3.5c0.1,0.1,0.1,0.1,0.2,0.2c2.5,1.6,3.1,4.7,1.4,7.1c-1.2,1.7-2.9,2.6-5,2.6c-3.8,0-7.5,0-11.3,0
	C88.7,25.7,88.6,25.7,88.4,25.7z M93,21.7c0.1,0,0.2,0,0.2,0c2.2,0,4.3,0,6.5,0c0.2,0,0.4,0,0.5-0.1c1.1-0.2,1.8-1.3,1.5-2.3
	c-0.2-0.9-1.1-1.5-2.2-1.5c-2,0-4.1,0-6.1,0c-0.1,0-0.2,0-0.4,0C93,19.2,93,20.4,93,21.7z M93,13.9c0.7,0,1.4,0,2.1,0
	c1.5,0,2.9,0,4.4,0c0.7,0,1.3-0.3,1.6-0.9c0.3-0.6,0.3-1.1-0.1-1.6c-0.4-0.6-1-0.8-1.7-0.8c-2,0-4,0-6,0c-0.1,0-0.2,0-0.4,0
	C93,11.7,93,12.7,93,13.9z"/>
<path fill="#ADADAD" d="M0,16.1C0.1,6.9,7.5-0.1,16.2,0c9.1,0.1,16.2,7.3,16.1,16.3c-0.1,8.9-7.4,16.1-16.3,16
	C7.2,32.2,0,25.1,0,16.1z M2.3,16.1c0,7.6,6.1,13.8,13.8,13.8C23.8,30,30,23.8,30,16.1c0-7.6-6.2-13.8-13.8-13.8
	C8.5,2.3,2.3,8.5,2.3,16.1z"/>
<path fill="#ADADAD" d="M73.9,10.7c0,5,0,10,0,15.1c-1.5,0-3,0-4.6,0c0-6.4,0-12.8,0-19.2c0.1,0,0.3,0,0.4,0c3.1,0,6.3,0,9.4,0
	c1.7,0,3.3,0.2,4.7,1.1c1.6,1,2.5,2.5,2.7,4.5c0.1,1.1,0,2.2-0.4,3.3c-0.6,1.6-1.8,2.6-3.4,3.2c-0.2,0.1-0.3,0.1-0.5,0.2
	c1.4,2.3,2.7,4.6,4.1,7c-0.2,0-0.4,0-0.6,0c-1.3,0-2.5,0-3.8,0c-0.1,0-0.3-0.1-0.4-0.2c-1.9-3.4-3.8-6.7-5.7-10.1
	c0-0.1-0.1-0.2-0.1-0.3c0.2,0,0.3,0,0.4,0c1.3,0,2.6,0,3.8-0.1c1.3,0,2-0.9,2-2.2c0-1.3-0.8-2.2-2-2.3C78,10.6,76,10.6,73.9,10.7
	C74,10.6,74,10.6,73.9,10.7z"/>
<path fill="#ADADAD" d="M143.9,7.8c-0.5,1.3-1,2.5-1.5,3.8c-0.3-0.2-0.6-0.3-0.9-0.4c-1.7-0.8-3.5-1.4-5.5-1.3
	c-0.8,0-1.6,0.2-2.3,0.4c-0.9,0.2-1.3,0.9-1,1.6c0.1,0.3,0.4,0.6,0.6,0.8c0.9,0.4,1.7,0.7,2.6,0.9c1.4,0.4,2.8,0.7,4.1,1.1
	c1.2,0.4,2.2,1,3.1,1.8c2.4,2.4,1.9,6.6-1.1,8.4c-1.3,0.8-2.7,1.1-4.2,1.2c-3.7,0.3-7.1-0.7-10.4-2.2c0,0-0.1-0.1-0.2-0.1
	c0.5-1.2,0.9-2.5,1.4-3.7c0.6,0.2,1.2,0.5,1.8,0.7c2,0.7,4,1.3,6.2,1.2c0.7,0,1.4-0.2,2.1-0.4c0.5-0.1,0.9-0.5,0.9-1.1
	c0-0.6-0.3-1.1-0.8-1.3c-1.1-0.4-2.1-0.7-3.2-1c-1.6-0.4-3.3-0.7-4.8-1.4c-1.3-0.6-2.4-1.5-2.8-2.9c-0.8-2.4,0.3-5.1,2.6-6.5
	c1.3-0.8,2.7-1.1,4.1-1.2C137.4,5.8,141.4,6.6,143.9,7.8z"/>
<path fill="#ADADAD" d="M61.4,25.7c-0.1,0-0.2,0-0.3,0c-1.7,0-3.4,0-5,0c-0.3,0-0.4-0.1-0.6-0.3c-1.9-4-3.9-7.9-5.8-11.9
	c-0.1-0.1-0.1-0.2-0.2-0.4c-0.8,1.8-1.6,3.5-2.5,5.3c0.8,0,1.4,0,2.1,0c0.4,0,0.6,0.1,0.8,0.5c0.6,1.2,1.2,2.4,1.8,3.7
	c-0.2,0-0.3,0-0.5,0c-1.9,0-3.8,0-5.7,0c-0.3,0-0.5,0.1-0.6,0.4c-0.4,0.8-0.7,1.6-1.1,2.4c-0.1,0.1-0.2,0.3-0.3,0.3
	c-1.8,0-3.5,0-5.3,0c0,0-0.1,0-0.2,0c0.3-0.7,0.7-1.3,1-2c2.8-5.6,5.7-11.3,8.5-16.9c0.1-0.2,0.2-0.3,0.5-0.3c1.1,0,2.1,0,3.2,0
	c0.2,0,0.4,0.1,0.5,0.3c2.9,5.5,5.7,10.9,8.6,16.4c0.4,0.7,0.8,1.4,1.1,2.1C61.3,25.5,61.4,25.6,61.4,25.7z"/>
<path fill="#ADADAD" d="M107.6,6.5c1.6,0,3.1,0,4.8,0c0,0.2,0,0.3,0,0.5c0,3.3,0,6.7,0,10c0,0.8,0.1,1.6,0.3,2.3
	c0.6,1.8,2.3,2.8,4.3,2.6c2.4-0.2,3.9-1.8,3.9-4.3c0-3.6,0-7.2,0-10.8c0-0.1,0-0.3,0-0.4c1.6,0,3.1,0,4.7,0c0,0.1,0,0.2,0,0.3
	c0,3.6,0,7.3,0,10.9c0,1.4-0.2,2.8-0.8,4.1c-0.8,2-2.3,3.3-4.3,3.9c-2.5,0.8-5.1,0.8-7.7,0.1c-3-0.8-4.6-2.9-5.1-5.9
	c-0.2-0.9-0.2-1.8-0.2-2.7c0-3.5,0-7,0-10.4C107.6,6.7,107.6,6.6,107.6,6.5z"/>
<path fill="#ADADAD" d="M62.5,6.6c1.6,0,3.1,0,4.7,0c0,6.4,0,12.8,0,19.1c-1.6,0-3.1,0-4.7,0C62.5,19.3,62.5,13,62.5,6.6z"/>
<path fill="#ADADAD" d="M5.5,24c0.1,0.1,0.2,0.2,0.3,0.2c2.5,2.4,5.5,3.4,8.9,3.1c5.2-0.4,9.5-4.6,10.2-9.8c0-0.4,0.1-0.8,0.1-1.2
	c0-0.1-0.1-0.3-0.2-0.3c-0.8,0-1.5,0-2.3,0c-0.5,5.1-3,8.5-8,9.7c-3.8,0.9-7.6-0.7-9.7-3.5c3.5,3,7.3,3.6,11.2,1.1
	c2.6-1.6,3.8-4.2,3.9-7.3c-0.8,0-1.6,0-2.4,0c-0.1,0-0.2,0.2-0.2,0.3c-0.1,0.7-0.2,1.4-0.4,2.1c-1.1,3.4-4.6,5.5-8.1,4.9
	c-3.3-0.6-5.7-3-6.2-6.3c0-0.3,0-0.6-0.1-1c0.6,0,1.2,0,1.7,0c0.5,0,0.5,0,0.5-0.5C5,9.9,9.4,4.9,15,3.9c4.4-0.7,8.1,0.5,11.2,3.6
	c0.1,0.1,0.2,0.2,0.3,0.4c-4.6-3.7-9.4-4.3-14.4-1C8.9,9,7.5,12.2,7.3,16.2c0.8,0,1.6,0,2.4,0c0.1,0,0.2-0.2,0.2-0.3
	c0.1-1.7,0.5-3.2,1.3-4.6c2-3.4,5.8-5.4,9.7-4.9c2.6,0.3,4.7,1.5,6.4,3.4c0,0,0.1,0.1,0.1,0.1c0,0,0,0,0,0c-3.4-2.9-7.1-3.5-11-1.2
	c-2.7,1.6-4,4.2-4.1,7.4c0.9,0,1.7,0,2.5,0c0.1-2.8,1.3-4.9,3.7-6.4c1.6-1,3.4-1.2,5.2-0.9c4,0.8,6,4.4,5.9,7.2c-0.7,0-1.4,0-2.1,0
	c-0.6,6.4-3.7,10.7-10,12.2C12.9,29.4,8.2,27.4,5.5,24z"/>
</svg>
