<?xml version="1.0" encoding="utf-8"?>
<!-- Generator: Adobe Illustrator 18.0.0, SVG Export Plug-In . SVG Version: 6.00 Build 0)  -->
<!DOCTYPE svg PUBLIC "-//W3C//DTD SVG 1.1//EN" "http://www.w3.org/Graphics/SVG/1.1/DTD/svg11.dtd">
<svg version="1.1" id="Layer_1" xmlns="http://www.w3.org/2000/svg" xmlns:xlink="http://www.w3.org/1999/xlink" x="0px" y="0px"
	 viewBox="0 0 144.5 35.3" enable-background="new 0 0 144.5 35.3" xml:space="preserve">
<path fill="#ADADAD" d="M22.4,21.4c0,0.6-0.5,1.1-1.1,1.1h-7.5c-0.6,0-1.1-0.5-1.1-1.1v-7.5c0-0.6,0.5-1.1,1.1-1.1h7.5
	c0.6,0,1.1,0.5,1.1,1.1V21.4z M28.9,27c0,1-0.8,1.9-1.9,1.9H8.3c-1,0-1.9-0.8-1.9-1.9V8.3c0-1,0.8-1.9,1.9-1.9H27
	c1,0,1.9,0.8,1.9,1.9V27z M29.4,0H5.9C2.6,0,0,2.6,0,5.9v23.5c0,3.2,2.6,5.9,5.9,5.9h23.5c3.2,0,5.9-2.6,5.9-5.9V5.9
	C35.3,2.6,32.6,0,29.4,0"/>
<path fill="#ADADAD" d="M51.6,29.2c-2.1,0-4.1-0.8-5.5-2.2c-1.3-1.3-2-2.9-2-4.6h2.1c0,1.1,0.5,2.3,1.3,3.1c1,1,2.5,1.6,4,1.6h0
	c3,0,5.4-2.1,5.4-4.6c0-1.9-1.1-3.4-6.2-4.6c-2.1-0.5-3.5-1.1-4.4-2c-1-1-1.5-2.3-1.5-3.9c0-3.3,3-6,6.6-6c1.8,0,3.4,0.6,4.6,1.7
	c1.3,1.1,2,2.7,2,4.3H56C56,9.8,54,8,51.5,8C49,8,47,9.8,47,11.9c0,1.9,0.7,3.1,4.3,3.9c3.9,0.9,7.8,2.4,7.8,6.7
	c0,1.8-0.8,3.5-2.2,4.8C55.4,28.5,53.6,29.2,51.6,29.2L51.6,29.2z"/>
<path fill="#ADADAD" d="M70.2,14.2c-3.8,0-6.5,2.8-6.5,6.6c0,3.7,2.8,6.5,6.5,6.5c3.6,0,6.4-3,6.4-6.5
	C76.6,17.2,73.9,14.2,70.2,14.2 M76.5,35.2V26h-0.1c-1.4,2.1-3.7,3.2-6.2,3.2c-4.8,0-8.6-3.6-8.6-8.4c0-4.8,3.9-8.4,8.6-8.4
	c2.5,0,4.9,1.1,6.2,3.2h0.1v-2.8h2v22.5H76.5z"/>
<path fill="#ADADAD" d="M107.9,14.2c-3.8,0-6.5,2.8-6.5,6.6c0,3.7,2.8,6.5,6.5,6.5c3.6,0,6.4-3,6.4-6.5
	C114.3,17.2,111.6,14.2,107.9,14.2 M114.2,28.8V26h-0.1c-1.4,2.1-3.7,3.2-6.2,3.2c-4.8,0-8.6-3.6-8.6-8.4c0-4.8,3.9-8.4,8.6-8.4
	c2.5,0,4.9,1.1,6.2,3.2h0.1v-2.8h2v16H114.2z"/>
<path fill="#ADADAD" d="M122.4,19.4v9.4h-2v-16h2v2.3h0.1c0.9-2,2.4-2.6,4.5-2.7v2.2C124.2,14.8,122.4,16.5,122.4,19.4"/>
<path fill="#ADADAD" d="M136.1,14.2c-3.2,0-5.7,2.3-6.2,5.5h12.5C141.9,16.5,139.3,14.2,136.1,14.2 M144.5,21.5h-14.6
	c0.1,3.2,3.1,5.8,6.2,5.8c2.5,0,4.9-1.4,5.7-3.8h2.2c-1.2,3.3-4.3,5.6-7.9,5.6c-4.6,0-8.3-3.8-8.3-8.4c0-4.6,3.7-8.4,8.3-8.4
	c4.7,0,8.4,3.9,8.4,8.6C144.5,21.1,144.5,21.3,144.5,21.5"/>
<path fill="#ADADAD" d="M94.4,28.8v-2.5h-0.1c-0.9,2-3,2.9-5.1,2.9c-2.1,0-4.2-0.7-5.5-2.4c-1.1-1.4-1.4-3.4-1.4-5.2v-8.9h2.1v8.8
	c0,3.3,1.2,5.8,4.9,5.8c1.3,0,2.4-0.4,3.4-1.3c1.4-1.3,1.7-2.9,1.7-4.8v-8.5h2.1v16.1H94.4z"/>
</svg>
