<?xml version="1.0" encoding="utf-8"?>
<!-- Generator: Adobe Illustrator 18.0.0, SVG Export Plug-In . SVG Version: 6.00 Build 0)  -->
<!DOCTYPE svg PUBLIC "-//W3C//DTD SVG 1.1//EN" "http://www.w3.org/Graphics/SVG/1.1/DTD/svg11.dtd">
<svg version="1.1" id="Layer_1" xmlns="http://www.w3.org/2000/svg" xmlns:xlink="http://www.w3.org/1999/xlink" x="0px" y="0px"
	 viewBox="0 0 147.2 41.4" enable-background="new 0 0 147.2 41.4" xml:space="preserve">
<g>
	<g>
		<defs>
			<path id="SVGID_1_" d="M20.7,41.4c11.4,0,20.7-9.3,20.7-20.7S32.2,0,20.7,0S0,9.3,0,20.7S9.3,41.4,20.7,41.4L20.7,41.4L20.7,41.4
				L20.7,41.4L20.7,41.4L20.7,41.4L20.7,41.4L20.7,41.4z M13.6,14c0.1,0.1,0.1,0.2,0.2,0.3c0.3,0.4,0.6,0.9,0.9,1.5
				c0.5,1.1,0.9,2.3,1.1,3.6c0.2,1.5,0.3,3,0,4.7c-3.1,0.6-5.7,0.8-8,0.6c-1.3-0.1-2.4-0.4-3.5-0.8c-0.8-0.3-1.5-0.6-2.5-1
				c-0.1-0.7-0.1-1.4-0.1-2.1c0-10.5,8.5-19,19-19s19,8.5,19,19c0,1.2-0.1,2.5-0.3,3.6c0,0-0.1,0-0.2-0.1l-0.5-0.2
				C38.6,24,38.6,24,38.5,24l0,0l0,0c-2.3-0.9-4.8-1.6-7.5-1.9c-2.7-4.6-6.3-7.5-10.4-8.9c-1.5-0.5-3-0.8-4.4-0.9
				c-0.9-0.1-1.7-0.1-2.2,0c-0.4,0-1.1,0.1-1.5,0.3C12.1,12.8,12.4,12.6,13.6,14L13.6,14z M28.8,22c-3.1-0.1-6.2,0.3-9.4,1.2
				c-0.6,0.2-1.1,0.3-1.7,0.5c0.2-1.6,0.1-3.1-0.1-4.6c-0.2-1.5-0.7-2.9-1.3-4.1c-0.2-0.3-0.3-0.7-0.5-1l0,0c0.1,0,0.2,0,0.3,0
				c1.2,0.1,2.6,0.4,3.9,0.9c1.7,0.6,3.3,1.5,4.9,2.7C26.3,18.8,27.6,20.2,28.8,22L28.8,22z M4.5,30.6c-1-1.7-1.8-3.6-2.3-5.6
				c0.5,0.2,1,0.4,1.6,0.6c1.2,0.4,2.5,0.7,3.9,0.8c3.4,0.4,7.4-0.1,12.2-1.5c3.7-1.1,7.3-1.4,10.8-1c2.6,0.3,5,0.9,7.2,1.8l0,0
				c0,0,0,0,0.2,0.1c0.2,0.1,0.2,0.1,0.5,0.2c0.2,0.1,0.3,0.1,0.4,0.2c-0.5,1.6-1.1,3-1.9,4.4l-0.7-0.2l0,0l0,0
				c-2.3-0.7-4.7-1.1-7.3-1.3c-3.2-0.1-6.4,0.2-9.7,1.2C13.6,31.9,8.1,31.9,4.5,30.6L4.5,30.6z M6.1,32.9c3.5,4.2,8.8,6.9,14.7,6.9
				c6.3,0,11.8-3,15.3-7.7l-0.3-0.1l0,0c-2.2-0.7-4.4-1.1-6.9-1.2c-3-0.1-6,0.2-9.1,1.1C14.8,33.4,9.9,33.7,6.1,32.9L6.1,32.9z"/>
		</defs>
		<use xlink:href="#SVGID_1_"  overflow="visible" fill-rule="evenodd" clip-rule="evenodd" fill="#ADADAD"/>
		<clipPath id="SVGID_2_">
			<use xlink:href="#SVGID_1_"  overflow="visible"/>
		</clipPath>
		<rect x="-0.9" y="-0.9" clip-path="url(#SVGID_2_)" fill="#ADADAD" width="43.2" height="43.2"/>
	</g>
	<g>
		<path fill="#ADADAD" d="M66.1,22.3c0,0.7-0.1,1.4-0.4,1.9c-0.3,0.6-0.6,1.1-1,1.5c-0.5,0.6-1.2,1-2,1.3c-0.8,0.3-1.7,0.4-2.6,0.4
			h-7.4V9.1h7.3c0.9,0,1.7,0.1,2.5,0.4c0.8,0.3,1.5,0.7,2,1.3c0.4,0.4,0.6,0.8,0.9,1.3c0.2,0.5,0.3,1.1,0.3,1.7
			c0,0.9-0.2,1.7-0.7,2.5c-0.4,0.8-1.1,1.3-2,1.6c0.5,0.2,0.9,0.4,1.3,0.7c0.4,0.3,0.7,0.6,1,1c0.3,0.4,0.5,0.8,0.6,1.3
			C66.1,21.3,66.1,21.8,66.1,22.3z M63.4,14c0-0.5-0.1-0.9-0.3-1.3c-0.2-0.4-0.4-0.6-0.7-0.9c-0.3-0.2-0.7-0.4-1.1-0.5
			c-0.4-0.1-0.8-0.2-1.3-0.2H55v5.8h5.1c1,0,1.7-0.2,2.3-0.7C63.1,15.8,63.4,15,63.4,14z M63.8,22.1c0-0.5-0.1-1-0.3-1.4
			c-0.2-0.4-0.4-0.7-0.8-1c-0.3-0.3-0.7-0.5-1.1-0.6c-0.4-0.1-0.9-0.2-1.4-0.2H55v6.4h5.1c0.5,0,1-0.1,1.4-0.2
			c0.4-0.1,0.8-0.3,1.2-0.6c0.3-0.3,0.6-0.6,0.8-1C63.7,23.1,63.8,22.7,63.8,22.1z"/>
		<path fill="#ADADAD" d="M80.1,20.2c0,0.2,0,0.5,0,0.7c0,0.2,0,0.5,0,0.7h-9.2c0,0.6,0.1,1.2,0.3,1.8c0.2,0.6,0.5,1.1,0.9,1.5
			c0.6,0.6,1.4,0.9,2.4,0.9c1.1,0,1.9-0.3,2.4-0.9c0.2-0.2,0.3-0.4,0.5-0.6c0.1-0.2,0.2-0.5,0.3-0.8h2.1c-0.1,0.7-0.3,1.3-0.7,1.8
			c-0.4,0.6-0.8,1-1.3,1.4c-0.5,0.3-1,0.6-1.5,0.7c-0.6,0.2-1.2,0.3-1.8,0.3c-0.9,0-1.8-0.2-2.5-0.5c-0.7-0.4-1.3-0.8-1.8-1.4
			c-0.6-0.6-1-1.4-1.2-2.2c-0.3-0.8-0.4-1.7-0.4-2.6c0-0.8,0.1-1.5,0.2-2.2c0.2-0.7,0.4-1.3,0.8-1.9c0.5-0.8,1.1-1.4,2-2
			c0.8-0.5,1.8-0.8,3-0.8c0.8,0,1.6,0.2,2.3,0.5c0.7,0.3,1.2,0.7,1.7,1.2c0.5,0.6,0.9,1.2,1.2,2C79.9,18.5,80.1,19.3,80.1,20.2z
			 M77.8,19.7c0-0.5-0.1-1-0.2-1.4c-0.1-0.5-0.3-0.9-0.6-1.2c-0.3-0.4-0.6-0.6-1.1-0.9c-0.4-0.2-0.9-0.3-1.5-0.3
			c-0.6,0-1.1,0.1-1.6,0.3c-0.4,0.2-0.8,0.5-1.1,0.9c-0.3,0.4-0.5,0.8-0.7,1.2c-0.1,0.5-0.2,0.9-0.2,1.4H77.8z"/>
		<path fill="#ADADAD" d="M90.2,27.2c-0.3,0.1-0.6,0.2-1.1,0.2c-0.4,0.1-0.9,0.1-1.5,0.1c-0.7,0-1.3-0.1-1.8-0.3
			c-0.5-0.2-0.8-0.5-1.1-0.8c-0.3-0.3-0.5-0.7-0.6-1.1C84.1,24.9,84,24.5,84,24v-7.8h-2.5v-1.9H84V11l2.2-0.5v3.8h3.9v1.9h-3.9v7.6
			c0,0.6,0.1,1.1,0.4,1.4c0.3,0.3,0.7,0.4,1.3,0.4c0.2,0,0.5,0,0.7,0c0.3,0,0.5,0,0.7-0.1c0.3,0,0.5-0.1,0.8-0.1V27.2z"/>
		<path fill="#ADADAD" d="M104.1,27.3c-0.2,0.1-0.5,0.2-0.7,0.2c-0.2,0-0.5,0.1-0.7,0.1c-0.6,0-1-0.2-1.4-0.6s-0.5-0.9-0.5-1.4h-0.1
			c-0.4,0.7-0.9,1.2-1.7,1.6c-0.7,0.4-1.6,0.6-2.5,0.6c-0.8,0-1.4-0.1-2-0.3c-0.6-0.2-1-0.5-1.4-0.9c-0.4-0.4-0.6-0.8-0.8-1.3
			c-0.2-0.5-0.3-1-0.3-1.5c0-0.4,0.1-0.9,0.2-1.3c0.1-0.5,0.4-0.9,0.8-1.3c0.4-0.4,0.8-0.7,1.4-1c0.6-0.3,1.3-0.4,2.2-0.5l4-0.2v-1
			c0-0.3,0-0.7-0.1-1c-0.1-0.4-0.3-0.7-0.6-1c-0.2-0.2-0.5-0.4-0.8-0.5c-0.3-0.1-0.8-0.2-1.3-0.2c-0.6,0-1.1,0.1-1.5,0.2
			c-0.4,0.1-0.7,0.3-0.9,0.6c-0.4,0.4-0.6,1-0.6,1.6h-2.1c0-0.6,0.1-1.1,0.3-1.6c0.2-0.4,0.5-0.8,0.8-1.2c0.4-0.5,1-0.8,1.7-1
			c0.7-0.2,1.5-0.3,2.3-0.3c1.3,0,2.3,0.2,3,0.7c0.7,0.5,1.3,1.1,1.6,1.8c0.3,0.6,0.4,1.3,0.4,2v6.3c0,0.3,0.1,0.6,0.2,0.7
			c0.1,0.1,0.3,0.2,0.5,0.2c0.1,0,0.1,0,0.2,0c0.1,0,0.1,0,0.2,0l0.2-0.1V27.3z M100.6,21.1l-3.5,0.2c-0.3,0-0.7,0.1-1,0.2
			c-0.3,0.1-0.7,0.2-0.9,0.4c-0.3,0.2-0.5,0.4-0.7,0.7c-0.2,0.3-0.3,0.6-0.3,1.1c0,0.6,0.2,1.1,0.6,1.6c0.4,0.5,1.1,0.7,2,0.7
			c0.5,0,1-0.1,1.5-0.3c0.5-0.2,0.9-0.4,1.2-0.8c0.4-0.4,0.7-0.9,0.9-1.4c0.2-0.5,0.3-1,0.3-1.6V21.1z"/>
		<path fill="#ADADAD" d="M114.2,10.6c-0.3,0-0.7-0.1-1-0.1c-0.3-0.1-0.7-0.1-1.2-0.1c-0.6,0-1,0.2-1.4,0.5
			c-0.3,0.3-0.5,0.8-0.5,1.3v2.2h3.8v1.9h-3.8v11.2H108V16.2h-2.4v-1.9h2.4V12c0-0.5,0.1-0.9,0.3-1.4c0.2-0.4,0.4-0.8,0.8-1.1
			c0.3-0.3,0.7-0.6,1.2-0.7c0.5-0.2,1-0.3,1.5-0.3c0.4,0,0.9,0,1.3,0.1c0.4,0,0.8,0.1,1.1,0.2V10.6z M116.5,11.3V8.8h2.6v2.6H116.5z
			 M116.7,27.4V14.3h2.2v13.1H116.7z"/>
		<path fill="#ADADAD" d="M133.1,23.6c0,0.6-0.1,1.1-0.3,1.5c-0.2,0.4-0.4,0.8-0.7,1.1c-0.5,0.5-1.1,0.9-1.9,1.1
			c-0.7,0.2-1.5,0.3-2.4,0.3c-0.8,0-1.6-0.1-2.3-0.3c-0.7-0.2-1.4-0.6-1.9-1.1c-0.4-0.4-0.7-0.9-0.9-1.4c-0.2-0.5-0.3-1.1-0.3-1.6
			h2.2c0,0.4,0.1,0.8,0.3,1.2c0.2,0.3,0.4,0.6,0.7,0.9c0.3,0.2,0.7,0.4,1.1,0.5c0.4,0.1,0.9,0.1,1.3,0.1c0.4,0,0.9,0,1.3-0.1
			c0.4-0.1,0.8-0.3,1.1-0.6c0.2-0.1,0.3-0.3,0.5-0.6c0.1-0.3,0.2-0.5,0.2-0.8c0-0.5-0.2-0.9-0.5-1.2c-0.3-0.3-0.9-0.5-1.5-0.6
			c-0.1,0-0.3,0-0.6-0.1c-0.2,0-0.5-0.1-0.8-0.1c-0.3,0-0.6-0.1-0.8-0.1c-0.3,0-0.5-0.1-0.8-0.1c-1-0.2-1.8-0.5-2.3-1.1
			c-0.6-0.6-0.9-1.4-0.9-2.4c0-0.5,0.1-1,0.3-1.4c0.2-0.5,0.5-0.8,0.8-1.1c0.4-0.4,1-0.8,1.6-1.1c0.7-0.3,1.4-0.4,2.2-0.4
			c0.9,0,1.7,0.1,2.4,0.4c0.7,0.3,1.3,0.7,1.8,1.2c0.3,0.3,0.5,0.7,0.7,1.1c0.2,0.4,0.2,0.9,0.2,1.4h-2.2c0-0.3-0.1-0.7-0.2-0.9
			c-0.1-0.3-0.3-0.5-0.5-0.7c-0.5-0.5-1.2-0.7-2.1-0.7c-0.3,0-0.5,0-0.7,0c-0.2,0-0.5,0.1-0.8,0.2c-0.4,0.2-0.7,0.4-1,0.7
			c-0.2,0.3-0.3,0.7-0.3,1c0,0.6,0.2,1,0.5,1.2c0.3,0.2,0.7,0.4,1.3,0.5c0.4,0.1,0.8,0.1,1.3,0.2c0.5,0.1,1.1,0.2,1.8,0.3
			c0.9,0.2,1.7,0.6,2.4,1.2C132.8,21.8,133.1,22.6,133.1,23.6z"/>
		<path fill="#ADADAD" d="M145,27.4v-8.3c0-1-0.2-1.7-0.7-2.3c-0.4-0.6-1.2-0.8-2.2-0.8c-0.6,0-1.2,0.2-1.7,0.6
			c-0.5,0.4-0.9,0.9-1.2,1.5c-0.2,0.5-0.4,1-0.4,1.7c0,0.6-0.1,1.2-0.1,1.7v6.1h-2.2V8.8h2.2v7.3c0.4-0.7,0.9-1.2,1.7-1.5
			c0.7-0.4,1.4-0.5,2.2-0.5c1.5,0,2.6,0.4,3.4,1.3c0.8,0.8,1.1,2,1.1,3.5v8.6H145z"/>
	</g>
</g>
</svg>
